<?xml version="1.0" encoding="UTF-8"?>
<svg version="1.1" xmlns="http://www.w3.org/2000/svg" width="820" height="820">
<path d="M0 0 C1.567949 1.32692124 3.13077303 2.65993091 4.6875 4 C5.39648438 4.55300781 6.10546875 5.10601562 6.8359375 5.67578125 C14.45412037 11.79075945 19.19687726 19.95611382 22.6875 29 C23.06519531 29.8353125 23.44289063 30.670625 23.83203125 31.53125 C29.01176213 43.17390793 31.66691296 55.451091 33.6875 68 C35.0075 68 36.3275 68 37.6875 68 C40.82179723 57.61764044 39.92120403 48.72665941 37.34375 38.26171875 C36.70297664 35.07692257 36.56993769 32.23786193 36.6875 29 C65.23761431 20.41412621 93.86606825 19.52022068 122.33984375 29.22583008 C124.61450808 29.97592997 126.89605719 30.64630106 129.203125 31.2890625 C173.93278365 43.81939429 222.40733167 72.34421761 246.546875 113.1015625 C247.74481673 115.09539702 248.97723695 117.06427451 250.21875 119.03125 C278.18222885 163.53363809 301.83185792 220.00066899 290.71875 273.609375 C290.38390643 275.07498001 290.03979377 276.53849141 289.6875 278 C289.49414062 278.80244141 289.30078125 279.60488281 289.1015625 280.43164062 C282.23735129 307.78255629 267.56932666 329.76000792 243.6875 345 C242.92179687 345.50789063 242.15609375 346.01578125 241.3671875 346.5390625 C231.00950112 352.5903273 217.40767303 353.39669316 205.6875 355 C205.3575 356.65 205.0275 358.3 204.6875 360 C207.94990554 362.18349977 210.78557253 362.11712895 214.62670898 362.07299805 C224.23584558 362.02812967 224.23584558 362.02812967 228.453125 364.8515625 C230.625 367.1875 230.625 367.1875 232.33984375 369.48046875 C235.87263728 373.27190274 240.20376422 375.46567936 244.6875 378 C246.34398177 378.96220798 247.99896185 379.92700639 249.65234375 380.89453125 C250.46695068 381.37043701 251.28155762 381.84634277 252.12084961 382.33666992 C277.38907835 397.2285918 277.38907835 397.2285918 280.6875 408 C281.76254347 414.27388653 281.55167481 419.4033741 278.125 424.875 C271.41558184 433.49473861 262.54874451 439.23437289 251.765625 441.65625 C237.63378081 443.23442549 224.68841306 441.80951863 211.6875 436 C211.57535156 434.58460938 211.57535156 434.58460938 211.4609375 433.140625 C209.70705103 416.01443949 201.88248927 404.79439444 188.84765625 393.703125 C186.37431571 391.75307712 183.82225929 389.942396 181.25 388.125 C176.48732428 384.75143803 172.56828364 381.01200731 168.66015625 376.6875 C166.61356497 374.56663497 166.61356497 374.56663497 162.6875 375 C162.19114415 382.13511531 165.33190082 385.65524758 169.6875 391 C173.81119618 395.6694795 178.34734537 399.54542983 183.25 403.375 C191.18682086 409.77282513 198.35050978 418.95049189 200.06640625 429.28125 C200.47717009 437.01951065 197.17384937 442.38646451 192.4375 448.25 C188.92565132 452.06009485 185.49918563 454.16908286 180.6875 456 C180.006875 456.29777344 179.32625 456.59554688 178.625 456.90234375 C163.80420098 462.48587394 145.76762558 459.37632396 131.59375 453.3046875 C112.07357761 444.3776662 91.63177228 427.39927542 83.6875 407 C83.01275857 403.86951358 82.51840781 400.78156751 82.14453125 397.6015625 C81.82772202 394.77443495 81.82772202 394.77443495 79.6875 392 C78.6975 392.33 77.7075 392.66 76.6875 393 C76.50574219 394.08796875 76.32398438 395.1759375 76.13671875 396.296875 C72.2326514 419.30354914 66.68975677 441.874025 46.609375 456.1953125 C35.55321019 463.29536147 25.0791232 468.10460386 11.6875 466 C0.88293201 462.34934849 -6.92232404 456.25063559 -12.5 446.26953125 C-14.64744334 441.83351504 -14.84712063 437.98922863 -14.6875 433.125 C-14.68621094 432.38636719 -14.68492187 431.64773438 -14.68359375 430.88671875 C-14.50534037 419.45869636 -10.93973505 410.1069686 -6.3125 399.75 C-5.22516951 397.28819189 -4.14370556 394.82388768 -3.0625 392.359375 C-2.58296875 391.28139648 -2.1034375 390.20341797 -1.609375 389.09277344 C0.32763612 384.47341033 1.85799863 380.12451505 2.3125 375.125 C2.42464844 373.95324219 2.42464844 373.95324219 2.5390625 372.7578125 C2.61253906 371.88769531 2.61253906 371.88769531 2.6875 371 C-0.62480292 371.9222711 -2.03568809 372.58769935 -3.98046875 375.484375 C-4.48191406 376.56203125 -4.98335937 377.6396875 -5.5 378.75 C-5.78335205 379.35054199 -6.0667041 379.95108398 -6.35864258 380.56982422 C-6.99706574 381.93249192 -7.62697477 383.29916907 -8.25 384.66894531 C-9.428605 387.25472668 -10.6358468 389.82621848 -11.84375 392.3984375 C-12.7309959 394.30644212 -13.61638987 396.21530892 -14.5 398.125 C-14.94279297 399.07963135 -15.38558594 400.0342627 -15.84179688 401.01782227 C-18.05338375 405.88154613 -19.80095498 410.46211629 -21 415.6875 C-23.89457107 425.04436927 -34.48016021 429.96773984 -42.57421875 434.359375 C-59.26419338 443.05479787 -76.03627855 446.8714702 -94.94921875 443.31640625 C-97.58782161 442.40926889 -99.88703411 441.37314736 -102.3125 440 C-103.11558594 439.57589844 -103.91867188 439.15179687 -104.74609375 438.71484375 C-111.38027897 434.80405148 -115.8681319 429.33310429 -118.3125 422 C-119.07395033 412.96862076 -119.69637785 404.76318865 -114.12890625 397.12890625 C-113.52949219 396.42636719 -112.93007812 395.72382812 -112.3125 395 C-111.74402344 394.30777344 -111.17554688 393.61554688 -110.58984375 392.90234375 C-105.56289318 387.36309249 -99.47605005 383.75763704 -93.05322266 380.02636719 C-91.27057004 378.9752772 -89.51438205 377.88935897 -87.76171875 376.7890625 C-87.18381592 376.42683594 -86.60591309 376.06460937 -86.01049805 375.69140625 C-85.16998901 375.16353516 -85.16998901 375.16353516 -84.3125 374.625 C-81.45765855 372.83358699 -78.80836325 371.19511779 -75.671875 369.9609375 C-73.17832405 368.94535218 -71.57047388 367.77696804 -69.5625 366 C-68.96953125 365.484375 -68.3765625 364.96875 -67.765625 364.4375 C-66.19990782 363.04260822 -66.19990782 363.04260822 -65.3125 361 C-64.65652832 361.01047363 -64.00055664 361.02094727 -63.32470703 361.03173828 C-60.36234342 361.07322503 -57.40004084 361.09930262 -54.4375 361.125 C-53.40496094 361.14175781 -52.37242187 361.15851563 -51.30859375 361.17578125 C-50.32246094 361.18222656 -49.33632813 361.18867187 -48.3203125 361.1953125 C-47.40910645 361.20578613 -46.49790039 361.21625977 -45.55908203 361.22705078 C-43.10959564 361.21870993 -43.10959564 361.21870993 -41.3125 359 C-41.14562552 356.41645782 -41.14562552 356.41645782 -41.3125 354 C-42.00174561 353.90501221 -42.69099121 353.81002441 -43.40112305 353.7121582 C-68.91035583 350.12215927 -68.91035583 350.12215927 -79.3125 345 C-80.38113281 344.50886719 -81.44976562 344.01773437 -82.55078125 343.51171875 C-91.1883117 339.25892761 -97.61634807 333.773341 -104.3125 327 C-105.40691406 325.92105469 -105.40691406 325.92105469 -106.5234375 324.8203125 C-121.68122807 308.94357534 -128.00512815 287.98606645 -132.3125 267 C-132.56128906 265.79730469 -132.81007812 264.59460938 -133.06640625 263.35546875 C-140.70762235 219.16465953 -126.25937903 171.96599624 -106.3125 133 C-103.20189876 134.16647547 -100.34280081 135.53104119 -97.4375 137.125 C-93.49421066 139.1491219 -90.69687133 139.36536428 -86.3125 139 C-86.3125 137.68 -86.3125 136.36 -86.3125 135 C-88.06866988 133.66531089 -89.83554291 132.34361265 -91.63671875 131.0703125 C-106.34951426 119.68668969 -116.44166969 105.21871718 -123.3125 88 C-123.58102783 87.36271973 -123.84955566 86.72543945 -124.1262207 86.06884766 C-126.68035394 79.41794834 -126.81361303 73.06750755 -126.75 66 C-126.74097656 64.80463623 -126.73195312 63.60927246 -126.72265625 62.37768555 C-126.2886794 40.05952186 -118.48713685 20.85760297 -102.9765625 4.54296875 C-74.35263092 -22.64513454 -30.9977462 -24.49439057 0 0 Z M34.6875 79 C29.67646361 83.72100856 25.32855386 88.81464344 21.0078125 94.16796875 C17.38580966 98.58876346 13.57496227 102.81245292 9.6875 107 C9.01460938 107.75023437 8.34171875 108.50046875 7.6484375 109.2734375 C-6.83490835 124.73318869 -27.60625738 134.94830496 -48.76928711 136.20532227 C-49.9475708 136.24197998 -51.12585449 136.2786377 -52.33984375 136.31640625 C-53.62568359 136.35830078 -54.91152344 136.40019531 -56.23632812 136.44335938 C-57.57421625 136.483157 -58.91210691 136.52286951 -60.25 136.5625 C-61.61524562 136.60576654 -62.98048018 136.64938321 -64.34570312 136.69335938 C-67.66787652 136.79901153 -70.99011946 136.90111395 -74.3125 137 C-74.9725 138.32 -75.6325 139.64 -76.3125 141 C-72.07241989 145.97930461 -65.3622561 146.67288352 -59.11816406 147.17724609 C-34.41657849 148.40455758 -9.58631053 140.58520973 9.203125 124.26953125 C10.02296875 123.52058594 10.8428125 122.77164063 11.6875 122 C12.46609375 121.30261719 13.2446875 120.60523438 14.046875 119.88671875 C25.4930698 109.09177296 33.88136222 95.56130952 36.6875 80 C35.6975 79.505 35.6975 79.505 34.6875 79 Z M212.9140625 252.15625 C209.14749068 257.81810317 208.99421371 263.40489197 209.6875 270 C211.79611826 278.8348436 217.4900034 287.37479661 225 292.5625 C231.35852999 295.96357418 238.97346519 296.1028347 245.875 294.0625 C251.90700272 291.45070501 256.21445116 285.8233436 259.1875 280.125 C260.45156038 272.2246226 260.5978124 264.17715567 256.6875 257 C251.09409662 249.3147547 245.1618831 243.98800855 235.6875 242 C225.34670829 240.76895337 219.45925834 244.40439794 212.9140625 252.15625 Z M19.0859375 255.91796875 C15.96130266 260.57000889 13.23937901 265.34324012 12.6875 271 C12.62433594 271.64453125 12.56117188 272.2890625 12.49609375 272.953125 C12.08666448 280.50775548 14.41298133 287.34504499 19 293.375 C24.4880453 298.73541634 27.92563116 300.25338421 35.5625 300.5 C44.80698366 300.19642056 51.12804599 297.31966509 57.89453125 291.06640625 C64.45662782 283.50355421 66.11148209 275.04721971 66.03515625 265.33203125 C65.28787428 258.16987934 61.20138606 252.48804679 55.6875 248 C43.16427045 239.28818814 28.0283792 244.51090288 19.0859375 255.91796875 Z M201.6875 312 C201.0275 313.03125 200.3675 314.0625 199.6875 315.125 C197.63284453 318.07856724 196.94677296 318.80758306 193.6875 320 C184.75675697 320.6106491 177.57441098 318.10097045 169.68359375 314.375 C161.96804846 310.83409786 151.16172904 310.41803395 142.95703125 312.7890625 C141.5428116 313.46397242 140.14328051 314.17069176 138.76171875 314.91015625 C129.84395006 319.59576353 119.52179153 320.07814467 109.6875 319 C104.41808305 317.33272354 100.29915426 314.49895118 95.9375 311.1875 C92.89108669 308.82017458 92.89108669 308.82017458 89.5625 308.4375 C85.87289451 309.15937933 84.19446829 310.19809427 81.6875 313 C81.1036804 316.0850745 81.1036804 316.0850745 81.6875 319 C83.58450292 321.20708821 83.58450292 321.20708821 86.5 321.875 C89.96377368 323.09750836 91.84887495 324.70206544 94.6875 327 C105.34864809 333.23406117 116.89826354 334.87573162 128.94921875 332.125 C137.43140322 329.90040164 144.9594024 326.64410491 152.5390625 322.2578125 C156.45867608 320.69191228 158.62943978 320.95743384 162.6875 322 C165.1015625 323.26953125 165.1015625 323.26953125 167.3125 324.8125 C176.06515229 330.32441305 186.30356488 333.56002781 196.6875 332 C203.32251643 330.12768496 207.82267585 325.57983987 211.6875 320 C211.6875 319.34 211.6875 318.68 211.6875 318 C213.0075 317.34 214.3275 316.68 215.6875 316 C216.02175735 313.62625139 216.02175735 313.62625139 215.6875 311 C213.44968351 308.50397392 212.00703394 308.0465987 208.6875 307.5625 C204.91607692 308.1124992 204.02643544 309.03734845 201.6875 312 Z " fill="#FE6BB3" transform="translate(335.3125,329)"/>
<path d="M0 0 C26.34972901 -0.59567207 50.15978833 8.75325401 69.375 26.80859375 C72.82656332 30.40548605 75.7670513 34.34133135 78.6875 38.37109375 C79.12529785 38.97397217 79.5630957 39.57685059 80.01416016 40.19799805 C82.04518578 43.08514565 83.76713816 45.57425403 84.25 49.12109375 C85.26578125 48.78335938 86.2815625 48.445625 87.328125 48.09765625 C95.58026457 45.40299786 103.59835937 43.1451655 112.25 42.12109375 C113.14589844 41.99863281 114.04179687 41.87617188 114.96484375 41.75 C134.78310644 39.59526271 154.84668416 42.10824933 174.25 46.12109375 C174.55550781 45.3940625 174.86101562 44.66703125 175.17578125 43.91796875 C183.53945192 25.54145291 198.88297855 14.51102661 217.25 7.12109375 C242.43752173 -1.29529968 269.5322582 2.08281436 293.25 13.12109375 C301.3054638 17.23596408 308.45705559 22.15765081 315.25 28.12109375 C316.39082031 29.11882812 316.39082031 29.11882812 317.5546875 30.13671875 C332.93414615 44.50507112 341.26799247 64.50054135 342.2421875 85.33984375 C342.28643046 106.75343453 333.64509311 124.36843905 319.58203125 140.00390625 C317.23612268 142.13369259 316.23374227 142.52945243 313.25 143.12109375 C313.57162109 143.64840088 313.89324219 144.17570801 314.22460938 144.71899414 C334.82224942 178.56479532 350.4044509 213.6031282 356.25 253.12109375 C356.35908691 253.82427734 356.46817383 254.52746094 356.58056641 255.25195312 C357.63678519 263.10887014 357.49386536 271.08250816 357.5 278.99609375 C357.50067474 279.77699371 357.50134949 280.55789368 357.50204468 281.36245728 C357.48584541 293.16445992 357.1274245 304.61422787 354.25 316.12109375 C354.08371094 316.7951123 353.91742187 317.46913086 353.74609375 318.16357422 C347.15233985 343.76321321 331.50576287 370.14092355 308.48291016 384.20019531 C305.40341594 386.00849836 302.29140175 387.74750866 299.15625 389.45703125 C296.23558569 390.96065483 296.23558569 390.96065483 294.25 393.12109375 C303.10340481 399.51632973 312.21489358 405.55986854 321.9375 410.55859375 C333.02205296 416.7099116 340.83681715 426.42587057 345.44140625 438.15625 C347.29328459 444.94647058 347.2643302 451.79278221 344.3125 458.24609375 C336.18058956 472.45409458 324.17371067 479.51066029 308.7890625 483.80859375 C293.84068056 487.29171187 275.62901692 485.42048574 261.25 480.12109375 C260.68152344 480.84554688 260.11304688 481.57 259.52734375 482.31640625 C250.65666094 493.4232712 241.85367035 501.45473971 227.2890625 503.8359375 C202.89755914 506.12460041 179.14482148 499.70198897 159.25 485.12109375 C158.43789063 484.54101562 157.62578125 483.9609375 156.7890625 483.36328125 C148.71523786 477.27607592 140.87562124 469.55952561 135.25 461.12109375 C134.693125 462.23226563 134.13625 463.3434375 133.5625 464.48828125 C123.6387444 483.97189948 110.18626912 500.23760749 88.75 507.55859375 C74.75548816 511.84537416 61.5093744 511.54783134 48.25 505.12109375 C38.52268619 499.44682736 31.9613973 490.19463384 27.25 480.12109375 C26.498075 476.98070108 26.30415453 474.3703656 26.25 471.12109375 C25.39019531 471.71277344 24.53039062 472.30445313 23.64453125 472.9140625 C4.68901945 485.69530786 -18.15351735 491.87393298 -41.03125 488.66015625 C-52.42151642 486.1123335 -62.29195925 481.21329728 -69.75 472.12109375 C-70.47123047 471.24904297 -70.47123047 471.24904297 -71.20703125 470.359375 C-77.1243571 462.11802389 -80.26577705 449.12831571 -78.75 439.12109375 C-75.69187569 425.11900774 -68.61965034 414.2669932 -56.7734375 406.05859375 C-53.47324282 404.00299804 -50.12734224 402.04544724 -46.75 400.12109375 C-45.46942337 399.37477566 -44.18948689 398.62735819 -42.91015625 397.87890625 C-33.34162206 392.3183011 -33.34162206 392.3183011 -29.75 391.12109375 C-29.75 390.46109375 -29.75 389.80109375 -29.75 389.12109375 C-30.9565625 388.78078125 -30.9565625 388.78078125 -32.1875 388.43359375 C-55.30416555 379.9169275 -72.46143986 357.9873689 -82.74072266 336.38720703 C-102.0567487 293.01726175 -95.87458933 238.28465614 -79.80810547 194.85253906 C-76.43462984 186.14408375 -72.6093867 177.62271039 -68.75 169.12109375 C-68.28239258 168.09016602 -67.81478516 167.05923828 -67.33300781 165.99707031 C-66.14038879 163.37095848 -64.94607973 160.74563079 -63.75 158.12109375 C-64.28181885 157.59531738 -64.8136377 157.06954102 -65.36157227 156.52783203 C-82.32493166 139.39999274 -88.03047711 113.42068949 -88.0690918 90.29907227 C-87.97527008 80.58943287 -87.07427473 72.2601422 -83.75 63.12109375 C-83.36457031 62.05375 -82.97914063 60.98640625 -82.58203125 59.88671875 C-72.85786933 35.08853235 -55.39153818 17.06280563 -31.109375 6.40234375 C-20.9561366 2.52994585 -10.82893885 0.47684248 0 0 Z M-47.75 32.12109375 C-48.66265625 32.77078125 -48.66265625 32.77078125 -49.59375 33.43359375 C-63.48550935 44.04184634 -72.59144992 65.13909118 -75.47314453 82.02050781 C-76.87943444 92.69045351 -76.34271591 102.94950845 -72.75 113.12109375 C-72.48316406 114.04664063 -72.21632812 114.9721875 -71.94140625 115.92578125 C-67.88573862 129.51677409 -60.80639066 142.06470309 -50.75 152.12109375 C-50.5546875 154.94140625 -50.5546875 154.94140625 -50.625 158.24609375 C-50.64304687 159.34179688 -50.66109375 160.4375 -50.6796875 161.56640625 C-50.70289063 162.40945313 -50.72609375 163.2525 -50.75 164.12109375 C-51.74 164.45109375 -52.73 164.78109375 -53.75 165.12109375 C-55.14618232 167.25559056 -55.14618232 167.25559056 -56.3515625 169.95703125 C-56.83753906 170.98820068 -57.32351562 172.01937012 -57.82421875 173.08178711 C-58.33597656 174.2085083 -58.84773438 175.33522949 -59.375 176.49609375 C-60.16970703 178.23741577 -60.16970703 178.23741577 -60.98046875 180.01391602 C-69.16321976 198.35979167 -75.3031555 217.32166183 -78.75 237.12109375 C-78.96140625 238.23355469 -79.1728125 239.34601563 -79.390625 240.4921875 C-84.53048982 268.72473066 -82.64435178 298.14756859 -72.75 325.12109375 C-72.38261719 326.16007812 -72.01523438 327.1990625 -71.63671875 328.26953125 C-66.49403901 341.73592974 -58.06161522 353.16216953 -47.75 363.12109375 C-47.16984131 363.68231934 -46.58968262 364.24354492 -45.99194336 364.82177734 C-40.92720274 369.49525319 -35.53631302 372.7114135 -29.4375 375.87109375 C-27.66806218 376.79861134 -25.90102325 377.73072347 -24.13671875 378.66796875 C-22.97982544 379.26883301 -22.97982544 379.26883301 -21.79956055 379.88183594 C-19.75198545 381.11989326 -18.28622678 382.29155754 -16.75 384.12109375 C-15.79018844 388.48893184 -15.65457759 393.0615355 -17.79296875 397.08203125 C-24.04009206 403.92335395 -33.58999063 408.23630829 -41.59375 412.7109375 C-52.01033101 418.66091494 -60.34209989 426.30529353 -65.75 437.12109375 C-66.48911922 446.75076125 -67.13267031 456.20598744 -60.75 464.12109375 C-51.12243588 473.73003589 -40.60885651 476.30036988 -27.5 476.30859375 C-26.48808594 476.32083984 -25.47617187 476.33308594 -24.43359375 476.34570312 C-9.29596126 476.37515377 7.545145 470.42829215 19.17578125 460.47265625 C23.1221485 457.90120038 27.72800076 458.5429386 32.25 459.12109375 C34.8125 460.43359375 34.8125 460.43359375 36.25 463.12109375 C36.57988633 464.80154033 36.86623465 466.49073635 37.125 468.18359375 C38.62483748 477.79793659 43.23992835 485.28606072 50.78125 491.39453125 C59.5081545 497.49784104 67.61108458 499.68929019 78.25 498.12109375 C88.10325987 495.36458666 96.41624762 490.74187802 104.25 484.12109375 C105.32507813 483.23164062 105.32507813 483.23164062 106.421875 482.32421875 C113.96474204 475.48301376 118.91748708 466.01597785 122.4375 456.55859375 C124.047557 452.38207836 125.34752519 449.61203512 129.25 447.12109375 C133.21379298 446.02109379 136.30217574 445.90637859 140.25 447.12109375 C143.88889229 450.34542869 146.48854371 454.14227792 149.25 458.12109375 C162.99125764 475.17817661 182.25882149 488.08943605 204.25 491.12109375 C217.67239271 492.237903 231.68239281 491.86579018 242.52734375 482.83984375 C245.48048523 479.89339874 248.11503617 476.71171473 250.25 473.12109375 C250.25 472.46109375 250.25 471.80109375 250.25 471.12109375 C250.889375 470.81171875 251.52875 470.50234375 252.1875 470.18359375 C254.18610821 469.28657745 254.18610821 469.28657745 255.25 468.12109375 C262.60187493 467.37344545 268.00031249 469.21560586 274.8203125 471.9296875 C288.3879723 476.64282673 303.50196957 475.02455207 316.25 469.05859375 C323.68406883 465.38591536 330.11509421 460.0027201 333.25 452.12109375 C334.39628984 444.60407767 333.51580744 438.67554465 329.1640625 432.40625 C321.57532297 423.34622424 310.68159457 418.08368303 300.58984375 412.26953125 C283.01199566 402.0592072 283.01199566 402.0592072 280.25 397.12109375 C279.60297941 393.36837434 279.49281037 389.86008439 280.25 386.12109375 C282.278101 383.33717871 284.4835894 382.51208582 287.6875 381.43359375 C310.31746669 372.69691575 326.31905234 351.92481274 335.9375 330.43359375 C339.17936709 322.241308 341.26320255 313.68891758 343.25 305.12109375 C343.50007813 304.05503906 343.75015625 302.98898437 344.0078125 301.890625 C350.3180654 268.96177009 341.76636668 232.56847269 329.25 202.12109375 C328.95399902 201.39825195 328.65799805 200.67541016 328.35302734 199.93066406 C321.84687715 184.26107056 314.54689909 168.08760492 304.5 154.37109375 C301.50604046 149.95659596 299.68716115 146.3994305 300.0625 140.97265625 C302.35594253 135.46537649 307.29213639 132.04932041 311.75 128.26171875 C316.12403137 124.48957615 318.72989992 120.27829856 321.25 115.12109375 C321.6109375 114.51652344 321.971875 113.91195312 322.34375 113.2890625 C324.90575943 108.83465974 326.21762325 104.07000029 327.5 99.12109375 C327.67547363 98.4564209 327.85094727 97.79174805 328.03173828 97.10693359 C331.97865785 80.90903057 325.45043049 64.92021172 317.25 51.12109375 C311.60849468 42.09678637 305.09545858 35.97522156 296.25 30.12109375 C295.44949219 29.56808594 294.64898438 29.01507813 293.82421875 28.4453125 C281.22297615 20.24921017 267.00131748 16.78998318 252.25 15.12109375 C250.90035156 14.96447266 250.90035156 14.96447266 249.5234375 14.8046875 C231.74854067 13.85791464 212.36077584 22.33874063 198.5546875 32.9765625 C194.71539663 36.54905519 191.93698269 40.64522312 189.25 45.12109375 C188.71375 45.99121094 188.1775 46.86132812 187.625 47.7578125 C186.17678554 50.09991406 186.17678554 50.09991406 185.25 52.74609375 C184.13482159 55.39464247 183.58449422 56.4508865 181.25 58.12109375 C178.56921258 58.42764119 176.17709312 58.54621325 173.5 58.49609375 C172.74501221 58.48956787 171.99002441 58.48304199 171.2121582 58.47631836 C164.83849517 58.32759733 158.96410482 57.24980963 152.7421875 55.85546875 C147.592376 54.77251063 142.50002522 54.349046 137.25 54.12109375 C136.31027344 54.07984375 135.37054688 54.03859375 134.40234375 53.99609375 C121.13472478 53.71038459 108.53284852 56.01022103 95.78344727 59.4440918 C90.02993005 60.93294299 84.19389193 62.05482166 78.25 61.12109375 C75.49075221 58.76423626 74.17119657 57.11630864 72.25 54.12109375 C71.47148603 52.93395422 70.69139947 51.74784522 69.91015625 50.5625 C69.2764209 49.59993286 69.2764209 49.59993286 68.62988281 48.61791992 C56.52619463 30.27172539 39.48578454 19.91267135 18.25 14.12109375 C-6.28405215 9.8183738 -28.29861673 17.02449778 -47.75 32.12109375 Z " fill="#430019" transform="translate(282.75,296.87890625)"/>
<path d="M0 0 C0.69480469 0.27328125 1.38960937 0.5465625 2.10546875 0.828125 C7.13904058 2.84522118 11.6326846 5.5265502 16.1875 8.4375 C17.06100098 8.99473755 17.06100098 8.99473755 17.95214844 9.56323242 C28.85125186 16.67990652 35.55191915 25.72329161 41.4375 37.25 C41.77958496 37.91104736 42.12166992 38.57209473 42.47412109 39.25317383 C49.02582206 52.56829739 47.69275116 73.16017308 44.0390625 87.296875 C42.75749142 90.63088697 41.22176747 92.86011941 38.68359375 95.34765625 C36.66167887 97.33204139 35.02140027 99.49193939 33.3125 101.75 C32.22524057 103.17968367 31.12237281 104.59771339 30 106 C29.51917969 106.60328125 29.03835938 107.2065625 28.54296875 107.828125 C27 109 27 109 25.11328125 109.00390625 C22.07525246 107.56070219 20.39378053 105.46343062 18.1875 102.9375 C17.74591553 102.43871338 17.30433105 101.93992676 16.84936523 101.42602539 C14.93253432 99.25454724 13.04808728 97.05696175 11.1796875 94.84375 C-15.54392602 63.34345194 -55.65864161 43.20180636 -94 30 C-88.42092442 14.98144584 -76.213339 5.99549916 -62.10327148 -0.57006836 C-42.28325472 -9.1892929 -19.61764576 -9.32465795 0 0 Z " fill="#FC72A9" transform="translate(563,319)"/>
<path d="M0 0 C6.46675372 3.79312642 11.08500766 9.25465244 13.625 16.3125 C15.01003676 25.74507794 13.38479752 34.61436127 8.1171875 42.59765625 C3.44792008 48.40709362 -2.3411557 51.96788523 -9.375 54.3125 C-17.38894036 55.12625487 -24.02596302 55.28925034 -30.5390625 50.15625 C-36.0682443 44.60353976 -39.36087012 37.86633632 -39.6875 30 C-39.44039238 21.32216189 -35.89978946 13.91984956 -30.375 7.3125 C-22.03675556 -0.46647195 -11.00647875 -5.11832471 0 0 Z " fill="#44011A" transform="translate(387.375,574.6875)"/>
<path d="M0 0 C7.69676195 4.12933239 13.15588976 10.16704467 16.30078125 18.234375 C18.49439781 25.56646324 18.1636563 33.31727783 14.69921875 40.16015625 C11.55212559 44.82805142 7.47262786 48.12432007 2.48828125 50.671875 C-4.68929188 51.93850555 -11.46091693 52.31876994 -17.92578125 48.55859375 C-24.73989733 43.47052029 -30.90650895 34.54602952 -32.69921875 26.234375 C-33.41470987 19.09047133 -33.14515649 13.08819302 -28.69921875 7.234375 C-20.26590922 -1.50999922 -11.76944548 -4.43183382 0 0 Z " fill="#440119" transform="translate(577.69921875,572.765625)"/>
<path d="M0 0 C7.15842804 1.36245801 13.54754417 3.60148819 20.25 6.4375 C21.82164917 7.10120605 21.82164917 7.10120605 23.42504883 7.77832031 C46.02685123 17.48698074 67.41488712 29.77622433 86 46 C87.1717373 46.99128772 88.34502334 47.98074655 89.51953125 48.96875 C100.03754398 57.84504773 109.50546384 67.12699372 118 78 C123.39268913 77.18400099 125.80010101 73.07597342 129 69 C130.41337963 67.03445457 131.71600609 65.05439026 133 63 C133.33 63.66 133.66 64.32 134 65 C130.59293724 71.16071623 126.47633856 75.47784811 121.1875 80 C115.74448871 84.59831188 115.74448871 84.59831188 113.6875 91.25 C113.790625 92.4875 113.89375 93.725 114 95 C111.05619313 91.43055185 108.47748018 87.73956798 105.9375 83.875 C101.34756313 77.09122234 96.02190767 71.57049031 90 66 C89.35675781 65.40058594 88.71351563 64.80117188 88.05078125 64.18359375 C86.07301594 62.40317595 84.05035068 60.69660508 82 59 C81.4848584 58.57106445 80.9697168 58.14212891 80.43896484 57.70019531 C52.76140536 34.75337782 20.40004511 17.05876656 -15.015625 9.60546875 C-15.67046875 9.40566406 -16.3253125 9.20585937 -17 9 C-17.33 8.34 -17.66 7.68 -18 7 C-17.11957031 6.99742187 -16.23914063 6.99484375 -15.33203125 6.9921875 C-8.83025476 7.01710521 -8.83025476 7.01710521 -3.0234375 4.59765625 C-1.51043631 2.80557541 -1.51043631 2.80557541 0 0 Z " fill="#CE2968" transform="translate(469,349)"/>
<path d="M0 0 C2.375 1.1875 2.375 1.1875 4 3 C4.25 5.6875 4.25 5.6875 4 8 C3.071875 8.3403125 3.071875 8.3403125 2.125 8.6875 C-0.19290334 9.80875925 -0.19290334 9.80875925 -0.75 12.1875 C-2.97304306 17.18934689 -7.56223877 20.82194314 -12.44921875 23.18359375 C-21.34481694 26.03073008 -30.64648535 23.46486662 -39 20 C-41.14850766 18.76932654 -43.27460859 17.49860575 -45.375 16.1875 C-49.64408285 13.58854747 -49.64408285 13.58854747 -54.5 12.6875 C-57.62917048 13.86093893 -60.41439747 15.21353555 -63.375 16.75 C-77.47153833 24.03585127 -92.81247222 28.01551577 -108.4375 23.375 C-112.96533416 21.66947534 -116.46937019 19.46444436 -120.1796875 16.390625 C-122.91338232 14.30222295 -125.8046359 13.23901873 -129 12 C-130 11 -130 11 -130.375 8.1875 C-130 5 -130 5 -127.875 2.625 C-124.45209963 0.69031718 -122.88577683 0.58248063 -119 1 C-115.96484375 2.6796875 -115.96484375 2.6796875 -112.9375 4.875 C-106.59816233 9.42757455 -102.22275114 11.3759011 -94.375 11.3125 C-93.66786865 11.30831055 -92.9607373 11.30412109 -92.23217773 11.29980469 C-84.460597 11.13390743 -77.73693537 9.48526922 -70.875 5.8125 C-63.13571585 2.23412131 -53.25368501 2.81890508 -45.1875 5.05859375 C-42.05430844 6.2584637 -39.0335855 7.56988112 -36 9 C-30.18699702 11.62463092 -24.34591823 12.17583149 -18 12 C-12.44035928 9.65909864 -10.69924826 6.10929135 -8 1 C-5.19084526 -0.40457737 -3.11189466 -0.24895157 0 0 Z " fill="#47021C" transform="translate(547,637)"/>
<path d="M0 0 C0.99 0.495 0.99 0.495 2 1 C-0.70219359 15.28302327 -7.33633248 26.28807024 -17 37 C-18.04800781 38.17175781 -18.04800781 38.17175781 -19.1171875 39.3671875 C-34.74596516 55.91193748 -58.57837298 67.41715692 -81.41796875 68.203125 C-103.97303087 68.56699205 -103.97303087 68.56699205 -109.8125 63.39453125 C-110.204375 62.93433594 -110.59625 62.47414063 -111 62 C-110.34 60.68 -109.68 59.36 -109 58 C-108.19481934 57.98541748 -107.38963867 57.97083496 -106.56005859 57.95581055 C-103.49932107 57.89382481 -100.43916891 57.81952015 -97.37890625 57.73754883 C-95.43249854 57.68893606 -93.48576809 57.65383243 -91.5390625 57.61914062 C-61.85991917 56.78630752 -39.54707824 43.62767681 -19.50146484 22.62402344 C-16.55156852 19.43333883 -13.84238888 16.05985517 -11.14453125 12.65625 C-7.60955911 8.27777813 -3.80345163 4.14513287 0 0 Z " fill="#CF2968" transform="translate(370,408)"/>
<path d="M0 0 C4.620206 0.32380931 6.40864602 2.07268994 9.4375 5.4375 C13.33827546 9.52402668 17.27122203 12.7693061 21.9375 15.9375 C34.32955752 24.47163697 45.97055095 35.64561293 49 51 C49.21158954 54.35251879 49.18898023 57.64735066 49 61 C48.09507812 61.05607422 48.09507812 61.05607422 47.171875 61.11328125 C46.37265625 61.17902344 45.5734375 61.24476563 44.75 61.3125 C43.96109375 61.37050781 43.1721875 61.42851563 42.359375 61.48828125 C39.60815938 62.0849853 38.11964043 63.18663789 36 65 C36.08121094 64.29617188 36.16242187 63.59234375 36.24609375 62.8671875 C36.90990388 52.4900741 33.08354813 44.65029721 27.0859375 36.3515625 C24.85708576 33.83888694 22.52600478 31.8722457 19.875 29.8125 C-0.28101684 13.59067896 -0.28101684 13.59067896 -1.375 3.5625 C-1 1 -1 1 0 0 Z " fill="#CE2967" transform="translate(498,703)"/>
<path d="M0 0 C1.32 0 2.64 0 4 0 C4.40617319 7.12584543 3.26777751 12.00079652 0.4375 18.5 C0.07833496 19.37092285 -0.28083008 20.2418457 -0.65087891 21.13916016 C-2.34983327 25.23980122 -4.12077856 29.29276131 -6.01953125 33.3046875 C-11.27143921 44.67118145 -12.48380169 55.54345699 -13 68 C-13.33 68 -13.66 68 -14 68 C-14.12375 66.14375 -14.12375 66.14375 -14.25 64.25 C-14.62719005 61.48230679 -14.99447626 60.00936634 -16.4375 57.5625 C-20.372707 55.16298354 -24.46531065 55.17307975 -29 55 C-27.37660195 53.29115995 -25.70680947 51.62553283 -24 50 C-23.34 50 -22.68 50 -22 50 C-21.8450708 49.27296875 -21.6901416 48.5459375 -21.53051758 47.796875 C-19.75256287 40.04123893 -17.10962746 33.16658304 -13.6875 26 C-13.19838135 24.95634277 -12.7092627 23.91268555 -12.20532227 22.83740234 C-10.81639435 19.88526775 -9.41200657 16.94115269 -8 14 C-7.64873047 13.26426758 -7.29746094 12.52853516 -6.93554688 11.77050781 C-2.48341276 2.48341276 -2.48341276 2.48341276 0 0 Z " fill="#CE2968" transform="translate(334,700)"/>
<path d="M0 0 C0.763125 0.825 1.52625 1.65 2.3125 2.5 C6.17356001 5.80283447 9.92836511 5.40334296 14.8046875 5.17578125 C15.52914063 5.11777344 16.25359375 5.05976563 17 5 C23.12041213 32.69242322 23.12041213 32.69242322 18 44 C16.68 44 15.36 44 14 44 C13.39455784 41.75033674 12.79066353 39.50027436 12.1875 37.25 C12.00372803 36.56768311 11.81995605 35.88536621 11.63061523 35.18237305 C10.53056376 31.07407623 9.52014084 26.95677327 8.5625 22.8125 C7.02988354 16.58098251 4.57693347 10.85975961 2 5 C1.32664848 3.33602285 0.65777261 1.67019682 0 0 Z " fill="#CF2A69" transform="translate(355,353)"/>
<path d="M0 0 C0.57363281 0.18175781 1.14726562 0.36351562 1.73828125 0.55078125 C8.93186664 2.67938391 16.1080894 3.87985886 23.53637695 4.8215332 C24.32874756 4.93198975 25.12111816 5.04244629 25.9375 5.15625 C26.64777344 5.24712891 27.35804688 5.33800781 28.08984375 5.43164062 C30.44962953 6.13378547 31.49197233 7.07440138 33 9 C32.72963853 11.97397616 32.14553974 12.85446026 30 15 C28.07641602 15.24291992 28.07641602 15.24291992 25.75390625 15.23046875 C24.91666016 15.22853516 24.07941406 15.22660156 23.21679688 15.22460938 C21.90291992 15.20624023 21.90291992 15.20624023 20.5625 15.1875 C19.69044922 15.18685547 18.81839844 15.18621094 17.91992188 15.18554688 C11.42178302 15.14059434 11.42178302 15.14059434 8 14 C7.74476563 14.59296875 7.48953125 15.1859375 7.2265625 15.796875 C5.88183502 18.21224538 4.50785633 19.51211706 2.375 21.25 C1.74335938 21.77078125 1.11171875 22.2915625 0.4609375 22.828125 C-0.02117187 23.21484375 -0.50328125 23.6015625 -1 24 C-1.66 23.67 -2.32 23.34 -3 23 C-2.4946875 22.62230469 -1.989375 22.24460937 -1.46875 21.85546875 C1.61766929 19.24058574 3.71288827 17.29848597 4.60546875 13.26171875 C4.73792503 8.60051919 4.51061118 5.81378657 2 1.8125 C1.34 1.214375 0.68 0.61625 0 0 Z " fill="#CE2968" transform="translate(262,676)"/>
<path d="M0 0 C1.875 0.625 1.875 0.625 4 2 C5.50808063 5.33365193 6.08340496 8.46026396 6.4375 12.0625 C6.98945227 15.92616586 7.85606347 17.83070252 10 21 C10 21.66 10 22.32 10 23 C9.26394531 23.02578125 8.52789062 23.0515625 7.76953125 23.078125 C6.79371094 23.13484375 5.81789063 23.1915625 4.8125 23.25 C3.84957031 23.29640625 2.88664062 23.3428125 1.89453125 23.390625 C-1.61269699 24.12898884 -3.38330489 25.60813975 -6 28 C-5.58169356 24.26841959 -5.1369998 20.54044112 -4.6875 16.8125 C-4.56955078 15.75740234 -4.45160156 14.70230469 -4.33007812 13.61523438 C-4.20439453 12.59365234 -4.07871094 11.57207031 -3.94921875 10.51953125 C-3.83924561 9.58214111 -3.72927246 8.64475098 -3.6159668 7.67895508 C-2.92266841 4.66367041 -1.71085084 2.55917308 0 0 Z " fill="#CD2967" transform="translate(413,720)"/>
<path d="M0 0 C-0.99 1.485 -0.99 1.485 -2 3 C-2.45601261 5.50896686 -2.45601261 5.50896686 -2.625 8.1875 C-2.69976563 9.08855469 -2.77453125 9.98960937 -2.8515625 10.91796875 C-2.90054688 11.60503906 -2.94953125 12.29210937 -3 13 C-5.89724063 12.91275184 -8.79150135 12.80584073 -11.6875 12.6875 C-12.50412109 12.66494141 -13.32074219 12.64238281 -14.16210938 12.61914062 C-18.90720907 12.4078204 -22.08713305 11.97250382 -26 9 C-25.125 4.125 -25.125 4.125 -24 3 C-22.64951065 2.70464998 -21.28719604 2.46277687 -19.921875 2.24609375 C-19.09042969 2.11396484 -18.25898437 1.98183594 -17.40234375 1.84570312 C-16.52707031 1.71099609 -15.65179687 1.57628906 -14.75 1.4375 C-13.46029297 1.22963867 -13.46029297 1.22963867 -12.14453125 1.01757812 C-8.06508637 0.37957557 -4.14378229 -0.19691527 0 0 Z " fill="#CF2968" transform="translate(565,680)"/>
<path d="M0 0 C1.010625 0.86625 2.02125 1.7325 3.0625 2.625 C3.69800781 3.16898437 4.33351562 3.71296875 4.98828125 4.2734375 C6.3011405 5.40020214 7.61117646 6.53026715 8.91796875 7.6640625 C9.82482422 8.44910156 9.82482422 8.44910156 10.75 9.25 C11.30171875 9.72953125 11.8534375 10.2090625 12.421875 10.703125 C14.18100746 12.19268714 14.18100746 12.19268714 17 14 C16.67 15.65 16.34 17.3 16 19 C9.12895427 19.7468528 5.00567998 17.29078355 -1 14 C-0.67 9.38 -0.34 4.76 0 0 Z " fill="#CF2A68" transform="translate(233,450)"/>
<path d="M0 0 C0 3.80196862 -0.89536327 4.22027411 -3.5 6.875 C-20.69422746 25.59353841 -24.52187752 47.54403513 -25 72 C-29.29046368 65.56430448 -27.65027132 54.39328671 -26.41796875 46.921875 C-22.77645318 30.49348511 -14.43875601 9.78002696 0 0 Z " fill="#C42964" transform="translate(234,330)"/>
<path d="M0 0 C25.04547627 -0.52299138 47.04666831 6.15398052 65.734375 23.62109375 C66.84663438 24.72398015 67.92870291 25.85728311 69 27 C68.67 27.66 68.34 28.32 68 29 C67.58492188 28.52691406 67.16984375 28.05382812 66.7421875 27.56640625 C52.20459075 11.96434112 32.34069158 4.08633522 11.375 2.8125 C10.18003906 2.73064453 8.98507812 2.64878906 7.75390625 2.56445312 C4.83645724 2.36606659 1.91874298 2.17814375 -1 2 C-0.67 1.34 -0.34 0.68 0 0 Z " fill="#C42964" transform="translate(277,310)"/>
<path d="M0 0 C1.91543509 2.87315263 2.47354742 4.39404529 3.125 7.6875 C3.29257812 8.49574219 3.46015625 9.30398438 3.6328125 10.13671875 C4.50814587 16.96245659 3.877616 22.73086757 2.125 29.3125 C1.95097656 30.01439453 1.77695312 30.71628906 1.59765625 31.43945312 C0.74645344 34.74653368 -0.08829888 37.13244832 -2 40 C-1.10967473 32.36864053 -1.10967473 32.36864053 -0.48632812 30.2734375 C0.1483599 27.30646213 0.11144643 24.51821443 0.09765625 21.484375 C0.09443359 20.23398437 0.09121094 18.98359375 0.08789062 17.6953125 C0.07951172 16.39335937 0.07113281 15.09140625 0.0625 13.75 C0.05573242 11.77386719 0.05573242 11.77386719 0.04882812 9.7578125 C0.03704316 6.50516259 0.02059011 3.25260416 0 0 Z " fill="#C8346B" transform="translate(608,367)"/>
<path d="M0 0 C0 0.66 0 1.32 0 2 C-0.969375 2.1959375 -1.93875 2.391875 -2.9375 2.59375 C-16.19045052 5.47286801 -29.23441349 10.23441349 -39 20 C-39.66 19.67 -40.32 19.34 -41 19 C-31.67358674 9.18272289 -13.75096354 -0.59463626 0 0 Z " fill="#C42964" transform="translate(276,311)"/>
<path d="" fill="#420018" transform="translate(0,0)"/>
</svg>
