<?xml version="1.0" encoding="UTF-8"?>
<svg version="1.1" xmlns="http://www.w3.org/2000/svg" width="820" height="820">
<path d="M0 0 C1.567949 1.32692124 3.13077303 2.65993091 4.6875 4 C5.39648438 4.55300781 6.10546875 5.10601562 6.8359375 5.67578125 C14.45412037 11.79075945 19.19687726 19.95611382 22.6875 29 C23.06519531 29.8353125 23.44289063 30.670625 23.83203125 31.53125 C29.01176213 43.17390793 31.66691296 55.451091 33.6875 68 C35.0075 68 36.3275 68 37.6875 68 C40.82179723 57.61764044 39.92120403 48.72665941 37.34375 38.26171875 C36.70297664 35.07692257 36.56993769 32.23786193 36.6875 29 C65.23761431 20.41412621 93.86606825 19.52022068 122.33984375 29.22583008 C124.61450808 29.97592997 126.89605719 30.64630106 129.203125 31.2890625 C191.06983478 48.62007784 239.24157015 91.73772972 270.37695312 146.99853516 C291.04066909 184.45300309 308.65708347 231.88558027 296.6875 275 C296.46175293 275.8156543 296.23600586 276.63130859 296.00341797 277.47167969 C289.11455052 301.53607931 276.56163709 321.67486076 254.20141602 334.19555664 C239.43784973 342.17301727 224.28822856 345.91263028 207.6875 348 C207.30531233 349.65614657 206.97354898 351.32457024 206.6875 353 C207.0175 353.33 207.3475 353.66 207.6875 354 C209.05081437 353.98968607 210.41376498 353.91652158 211.7734375 353.81640625 C212.62292969 353.77708984 213.47242188 353.73777344 214.34765625 353.69726562 C216.12018033 353.60927702 217.89159825 353.49330458 219.66015625 353.34570312 C226.77235045 353.09587269 230.18190212 355.40199252 235.63867188 359.76538086 C239.01731256 362.24173401 242.40829745 364.01817246 246.19140625 365.78125 C246.84689453 366.08848495 247.50238281 366.39571991 248.17773438 366.71226501 C250.87614527 367.96518946 253.58367018 369.19753548 256.29272461 370.42724609 C269.16257917 376.30204343 279.65867083 382.03168784 285.53125 395.53125 C287.67825483 401.97226448 286.72805962 406.97040487 284.1875 413.125 C278.26386273 423.58095761 267.24884304 428.67994626 256.19921875 432.0703125 C243.66005475 435.16674677 231.9887097 433.55884054 219.6875 430 C217.77508398 428.08758398 218.33803753 425.22840729 218.14355469 422.66308594 C217.47586992 414.23633454 216.66840758 407.08981553 211.6875 400 C211.25566406 399.37222656 210.82382812 398.74445313 210.37890625 398.09765625 C204.21609612 390.11917401 194.78791677 385.37894538 186.24121094 380.35620117 C181.53146443 377.57126064 177.09434272 374.53267295 172.73828125 371.21484375 C170.51118575 369.66022159 170.51118575 369.66022159 166.6875 370 C166.80650831 375.71239886 168.37477646 378.68442712 172.26953125 382.828125 C176.85436715 386.94632978 181.95899175 390.35471161 187.02636719 393.84667969 C194.71059787 399.18182163 202.70389869 404.752186 205.6875 414 C206.80242222 423.89169366 205.34327563 431.99094602 199.4609375 440.05078125 C192.16363778 448.51167175 179.75353115 451.44398443 169.11328125 452.28125 C143.85358756 453.27085602 118.8562979 439.56167269 100.625 422.875 C88.28046964 411.13106431 88.28046964 411.13106431 87.8984375 400.56640625 C87.61166817 397.07737936 86.51678808 394.94276778 84.6875 392 C83.3675 392.33 82.0475 392.66 80.6875 393 C80.54054688 394.61455078 80.54054688 394.61455078 80.390625 396.26171875 C78.27654295 417.65603226 71.24660377 434.78138545 54.3125 448.8125 C43.92261755 456.46535969 29.71238685 461.76172482 16.6875 460 C5.88189751 457.51611475 -3.10126763 452.36292595 -9.3125 443 C-12.07725919 437.52348019 -13.90281712 432.14524324 -14.3125 426 C-14.42464844 424.48986328 -14.42464844 424.48986328 -14.5390625 422.94921875 C-15.07477093 410.27548521 -11.36249563 398.85677243 -3.3125 389 C-0.93368437 386.44569797 1.45534541 383.91912413 3.9296875 381.45703125 C6.10620533 378.41474299 6.11237367 376.66324007 5.6875 373 C4.60636884 371.72512277 4.60636884 371.72512277 2.0625 371.5625 C-2.78139525 372.19041235 -5.22153851 374.4325414 -8.3125 378 C-15.07157563 387.31845023 -21.56842228 397.19025307 -23.20703125 408.75439453 C-24.40753304 416.93181254 -24.40753304 416.93181254 -27.26171875 420.30078125 C-29.86008891 422.18784235 -32.41748882 423.60993511 -35.3125 425 C-36.39015625 425.54011719 -37.4678125 426.08023437 -38.578125 426.63671875 C-41.79136053 428.17981907 -45.03021654 429.61085294 -48.3125 431 C-49.03308594 431.3196875 -49.75367188 431.639375 -50.49609375 431.96875 C-65.95667264 438.39726513 -82.21166147 436.58464265 -97.5625 430.875 C-107.76583553 426.33867058 -114.73472718 418.62664027 -119.41015625 408.66015625 C-121.3268472 403.00965177 -121.52843366 396.15037358 -119.3671875 390.55078125 C-118.14703358 388.5363762 -116.85000178 386.78161766 -115.3125 385 C-114.61125 384.175 -113.91 383.35 -113.1875 382.5 C-100.6709752 371.61606539 -86.16701995 365.03065555 -70.7578125 359.16796875 C-67.91479047 357.8100397 -65.75454341 355.97433001 -63.3125 354 C-62.6525 354 -61.9925 354 -61.3125 354 C-61.3125 353.34 -61.3125 352.68 -61.3125 352 C-60.72235107 351.97494385 -60.13220215 351.9498877 -59.52416992 351.92407227 C-56.84923186 351.80799948 -54.1746362 351.68532428 -51.5 351.5625 C-50.57123047 351.52318359 -49.64246094 351.48386719 -48.68554688 351.44335938 C-47.79287109 351.40146484 -46.90019531 351.35957031 -45.98046875 351.31640625 C-45.15828857 351.27974854 -44.3361084 351.24309082 -43.48901367 351.20532227 C-41.13344822 351.06572228 -41.13344822 351.06572228 -38.3125 350 C-38.3125 349.01 -38.3125 348.02 -38.3125 347 C-47.96372451 344.8743758 -47.96372451 344.8743758 -57.6875 343.125 C-79.67021797 339.12814219 -99.50690365 328.93226917 -113.3125 311 C-134.32226224 280.07331641 -135.07480646 240.69527205 -128.3125 205 C-127.63014157 202.28947919 -126.87833781 199.60807119 -126.10180664 196.9230957 C-125.23274573 193.7046403 -124.57422107 190.47607337 -123.921875 187.20703125 C-122.370687 179.81471388 -120.08016381 172.80078542 -117.5625 165.6875 C-117.11979326 164.419734 -116.67724936 163.15191113 -116.23486328 161.8840332 C-112.92097561 152.44900523 -109.31698768 143.16258604 -105.3125 134 C-102.45797469 135.12037683 -99.70369183 136.29312986 -96.9375 137.625 C-93.1171724 139.07408978 -90.35911147 139.24775172 -86.3125 139 C-86.3125 137.68 -86.3125 136.36 -86.3125 135 C-88.06866988 133.66531089 -89.83554291 132.34361265 -91.63671875 131.0703125 C-106.34951426 119.68668969 -116.44166969 105.21871718 -123.3125 88 C-123.58102783 87.36271973 -123.84955566 86.72543945 -124.1262207 86.06884766 C-126.68035394 79.41794834 -126.81361303 73.06750755 -126.75 66 C-126.74097656 64.80463623 -126.73195312 63.60927246 -126.72265625 62.37768555 C-126.2886794 40.05952186 -118.48713685 20.85760297 -102.9765625 4.54296875 C-74.35263092 -22.64513454 -30.9977462 -24.49439057 0 0 Z M34.6875 79 C29.67646361 83.72100856 25.32855386 88.81464344 21.0078125 94.16796875 C17.38580966 98.58876346 13.57496227 102.81245292 9.6875 107 C9.01460938 107.75023437 8.34171875 108.50046875 7.6484375 109.2734375 C-6.83490835 124.73318869 -27.60625738 134.94830496 -48.76928711 136.20532227 C-49.9475708 136.24197998 -51.12585449 136.2786377 -52.33984375 136.31640625 C-53.62568359 136.35830078 -54.91152344 136.40019531 -56.23632812 136.44335938 C-57.57421625 136.483157 -58.91210691 136.52286951 -60.25 136.5625 C-61.61524562 136.60576654 -62.98048018 136.64938321 -64.34570312 136.69335938 C-67.66787652 136.79901153 -70.99011946 136.90111395 -74.3125 137 C-74.9725 138.32 -75.6325 139.64 -76.3125 141 C-72.03006573 146.01255421 -65.35648294 146.65156283 -59.06835938 147.19335938 C-31.14021172 148.76389091 -6.73379362 138.36756832 14 119.9453125 C25.44831132 109.0932674 33.87202901 95.61306643 36.6875 80 C35.6975 79.505 35.6975 79.505 34.6875 79 Z M216.9140625 249.15625 C213.14749068 254.81810317 212.99421371 260.40489197 213.6875 267 C215.79611826 275.8348436 221.4900034 284.37479661 229 289.5625 C235.35852999 292.96357418 242.97346519 293.1028347 249.875 291.0625 C255.90700272 288.45070501 260.21445116 282.8233436 263.1875 277.125 C264.45156038 269.2246226 264.5978124 261.17715567 260.6875 254 C255.09409662 246.3147547 249.1618831 240.98800855 239.6875 239 C229.34670829 237.76895337 223.45925834 241.40439794 216.9140625 249.15625 Z M23.0859375 252.91796875 C19.96130266 257.57000889 17.23937901 262.34324012 16.6875 268 C16.62433594 268.64453125 16.56117188 269.2890625 16.49609375 269.953125 C16.08666448 277.50775548 18.41298133 284.34504499 23 290.375 C28.4880453 295.73541634 31.92563116 297.25338421 39.5625 297.5 C48.80698366 297.19642056 55.12804599 294.31966509 61.89453125 288.06640625 C68.45662782 280.50355421 70.11148209 272.04721971 70.03515625 262.33203125 C69.28787428 255.16987934 65.20138606 249.48804679 59.6875 245 C47.16427045 236.28818814 32.0283792 241.51090288 23.0859375 252.91796875 Z M205.6875 309 C205.0275 310.03125 204.3675 311.0625 203.6875 312.125 C201.63284453 315.07856724 200.94677296 315.80758306 197.6875 317 C188.75675697 317.6106491 181.57441098 315.10097045 173.68359375 311.375 C165.96804846 307.83409786 155.16172904 307.41803395 146.95703125 309.7890625 C145.5428116 310.46397242 144.14328051 311.17069176 142.76171875 311.91015625 C133.84395006 316.59576353 123.52179153 317.07814467 113.6875 316 C108.41808305 314.33272354 104.29915426 311.49895118 99.9375 308.1875 C96.89108669 305.82017458 96.89108669 305.82017458 93.5625 305.4375 C89.87289451 306.15937933 88.19446829 307.19809427 85.6875 310 C85.1036804 313.0850745 85.1036804 313.0850745 85.6875 316 C87.58450292 318.20708821 87.58450292 318.20708821 90.5 318.875 C93.96377368 320.09750836 95.84887495 321.70206544 98.6875 324 C109.34864809 330.23406117 120.89826354 331.87573162 132.94921875 329.125 C141.43140322 326.90040164 148.9594024 323.64410491 156.5390625 319.2578125 C160.45867608 317.69191228 162.62943978 317.95743384 166.6875 319 C169.1015625 320.26953125 169.1015625 320.26953125 171.3125 321.8125 C180.06515229 327.32441305 190.30356488 330.56002781 200.6875 329 C207.32251643 327.12768496 211.82267585 322.57983987 215.6875 317 C215.6875 316.34 215.6875 315.68 215.6875 315 C217.0075 314.34 218.3275 313.68 219.6875 313 C220.02175735 310.62625139 220.02175735 310.62625139 219.6875 308 C217.44968351 305.50397392 216.00703394 305.0465987 212.6875 304.5625 C208.91607692 305.1124992 208.02643544 306.03734845 205.6875 309 Z " fill="#FD6AB2" transform="translate(332.3125,337)"/>
<path d="M0 0 C26.34972901 -0.59567207 50.15978833 8.75325401 69.375 26.80859375 C72.82656332 30.40548605 75.7670513 34.34133135 78.6875 38.37109375 C79.12529785 38.97397217 79.5630957 39.57685059 80.01416016 40.19799805 C82.04518578 43.08514565 83.76713816 45.57425403 84.25 49.12109375 C85.26578125 48.78335938 86.2815625 48.445625 87.328125 48.09765625 C95.58026457 45.40299786 103.59835937 43.1451655 112.25 42.12109375 C113.14589844 41.99863281 114.04179687 41.87617188 114.96484375 41.75 C134.78310644 39.59526271 154.84668416 42.10824933 174.25 46.12109375 C174.55550781 45.3940625 174.86101562 44.66703125 175.17578125 43.91796875 C183.53945192 25.54145291 198.88297855 14.51102661 217.25 7.12109375 C242.43752173 -1.29529968 269.5322582 2.08281436 293.25 13.12109375 C301.3054638 17.23596408 308.45705559 22.15765081 315.25 28.12109375 C316.39082031 29.11882812 316.39082031 29.11882812 317.5546875 30.13671875 C332.93414615 44.50507112 341.26799247 64.50054135 342.2421875 85.33984375 C342.28905922 108.02575648 332.6435011 126.16475897 317.25 142.12109375 C316.59 142.78109375 315.93 143.44109375 315.25 144.12109375 C315.25 144.78109375 315.25 145.44109375 315.25 146.12109375 C315.91 146.12109375 316.57 146.12109375 317.25 146.12109375 C318.58984375 147.9296875 318.58984375 147.9296875 320.1875 150.55859375 C320.80625 151.56277344 321.425 152.56695312 322.0625 153.6015625 C322.40796875 154.16278809 322.7534375 154.72401367 323.109375 155.30224609 C324.33585481 157.25799836 325.60022192 159.18477327 326.875 161.109375 C342.55785905 184.81250319 354.27626653 210.67312712 360.5625 238.49609375 C360.78341309 239.47364624 360.78341309 239.47364624 361.00878906 240.47094727 C363.69618694 253.27070238 364.62916164 265.90133494 364.5625 278.93359375 C364.55976578 280.04886948 364.55976578 280.04886948 364.55697632 281.18667603 C364.44585046 308.15333726 358.49924704 334.44127014 340.25 355.12109375 C339.486875 356.13171875 338.72375 357.14234375 337.9375 358.18359375 C326.78163694 370.37721151 312.42039712 378.11661873 297.25 384.12109375 C298.23097656 384.47300781 299.21195313 384.82492187 300.22265625 385.1875 C320.05172638 392.39649502 339.10025391 400.12201047 349.28515625 420.01171875 C353.60380905 429.45330786 353.15069623 438.91396021 350.15625 448.6875 C345.86906205 460.20007798 334.88645989 467.2925163 324.3671875 472.56640625 C310.77207165 478.62076451 296.57273021 480.86663164 281.91015625 478.1953125 C280.9756665 478.0317627 280.04117676 477.86821289 279.07836914 477.69970703 C277.2228197 477.3611113 275.37335698 476.98682367 273.53295898 476.57373047 C270.95268055 476.09655735 268.85618476 475.79355933 266.25 476.12109375 C264.28992855 477.63210343 263.06872496 479.21430515 261.64111328 481.23071289 C259.48272943 484.16373609 256.74349844 485.8964218 253.6875 487.80859375 C253.08615234 488.19015625 252.48480469 488.57171875 251.86523438 488.96484375 C236.0954637 498.5552372 216.56053208 499.24773685 198.9375 495.24609375 C175.27555963 489.38638417 156.23639478 476.10748853 139.25 459.12109375 C138.87230469 459.9925 138.49460937 460.86390625 138.10546875 461.76171875 C129.21836597 480.9928264 113.05740776 494.57137516 93.25 502.12109375 C88.32549358 503.64481469 83.3664047 504.49459521 78.25 505.12109375 C77.51652344 505.21132813 76.78304687 505.3015625 76.02734375 505.39453125 C62.97199444 506.11520871 49.89044477 500.64860106 40.25 492.12109375 C38.48392789 489.97973131 36.84704675 487.87928684 35.25 485.62109375 C34.81574707 485.01249512 34.38149414 484.40389648 33.93408203 483.77685547 C30.11481755 478.25217833 27.45792836 472.4659826 25.25 466.12109375 C24.59515625 466.56839844 23.9403125 467.01570313 23.265625 467.4765625 C4.96037132 479.60250032 -14.88196253 483.82172079 -36.53198242 479.73779297 C-53.22294492 476.05955162 -65.75065407 466.37243035 -74.88452148 452.16943359 C-80.74486048 442.61733919 -81.87361294 432.00828526 -79.71484375 421.1015625 C-76.27322484 410.47016482 -67.68329849 404.11085328 -58.75 398.12109375 C-57.87472656 397.51652344 -56.99945313 396.91195313 -56.09765625 396.2890625 C-47.75531472 390.7316831 -38.29154025 385.30160717 -28.75 382.12109375 C-30.544375 381.37859375 -30.544375 381.37859375 -32.375 380.62109375 C-55.99377946 370.01674379 -74.0280736 353.22413707 -83.62109375 328.91357422 C-85.65606045 323.40064312 -87.30059073 317.81411004 -88.75 312.12109375 C-88.92934082 311.42193848 -89.10868164 310.7227832 -89.29345703 310.00244141 C-95.37682784 284.6480151 -92.78909143 255.36278108 -87.75 230.12109375 C-87.57871582 229.23067383 -87.40743164 228.34025391 -87.23095703 227.42285156 C-83.08671878 206.42697018 -76.00139772 185.11291845 -66.9987793 165.70263672 C-65.33241661 162.03003001 -64.40000801 159.96307389 -65.75 156.12109375 C-67.11057938 154.25897807 -67.11057938 154.25897807 -68.8125 152.37109375 C-85.66623402 131.23485355 -89.1403602 105.28279162 -87.75 79.12109375 C-87.10132572 73.53628851 -85.67340908 68.40890241 -83.75 63.12109375 C-83.36457031 62.05375 -82.97914063 60.98640625 -82.58203125 59.88671875 C-72.85786933 35.08853235 -55.39153818 17.06280563 -31.109375 6.40234375 C-20.9561366 2.52994585 -10.82893885 0.47684248 0 0 Z M-47.75 32.12109375 C-48.66265625 32.77078125 -48.66265625 32.77078125 -49.59375 33.43359375 C-63.48550935 44.04184634 -72.59144992 65.13909118 -75.47314453 82.02050781 C-76.87943444 92.69045351 -76.34271591 102.94950845 -72.75 113.12109375 C-72.48316406 114.04664063 -72.21632812 114.9721875 -71.94140625 115.92578125 C-68.07308195 128.88896581 -61.37328368 141.49781007 -51.75 151.12109375 C-50.67962441 160.87202424 -52.75412389 168.14122964 -56.75 176.93359375 C-57.76514305 179.29168474 -58.77414524 181.65242774 -59.77734375 184.015625 C-60.27991699 185.19592285 -60.78249023 186.3762207 -61.30029297 187.59228516 C-63.53310237 193.02728467 -65.45877368 198.54711524 -67.3125 204.12109375 C-67.63412109 205.06831299 -67.95574219 206.01553223 -68.28710938 206.99145508 C-70.09107482 212.48663384 -71.34676985 217.89575865 -72.30053711 223.59814453 C-72.90336427 226.98196633 -73.82248159 230.2506863 -74.75 233.55859375 C-83.55475024 267.58919845 -81.8069658 307.40840265 -63.9375 338.18359375 C-53.75475673 353.46759481 -41.40132877 362.54104982 -24.6875 369.83203125 C-16.40402844 373.46706531 -16.40402844 373.46706531 -14.75 375.12109375 C-14.4765625 377.66796875 -14.4765625 377.66796875 -14.375 380.87109375 C-14.30152344 382.44117188 -14.30152344 382.44117188 -14.2265625 384.04296875 C-14.95376166 388.31933394 -16.31393711 389.48461782 -19.75 392.12109375 C-23.02213391 393.7958885 -26.39530357 395.14738309 -29.8125 396.49609375 C-37.89969829 399.82578993 -45.42311861 403.30293655 -52.75 408.12109375 C-53.50410156 408.59933594 -54.25820312 409.07757812 -55.03515625 409.5703125 C-60.90237895 413.57318406 -64.59165338 418.8044005 -67.75 425.12109375 C-69.02789577 435.95894394 -66.5480834 443.79828608 -59.9921875 452.4375 C-50.79394953 462.57865357 -36.13551854 467.41226769 -22.7421875 468.24609375 C-8.35183827 468.65872025 4.8251274 464.04012092 17.0625 456.74609375 C21.43835878 454.29118488 24.9791595 453.11617378 30.02734375 453.4921875 C33.39620172 454.44541445 34.98925494 455.99561243 37.0234375 458.796875 C38.94007426 462.42871854 40.01039409 466.26878167 41.19921875 470.1875 C43.98064724 477.95275203 50.36525591 484.75799499 57.77734375 488.34375 C70.64041949 493.61364446 81.13987272 492.5885575 94.25 488.12109375 C109.91460588 481.53074166 120.05218894 469.06289177 127.49853516 454.26123047 C130.80194694 447.74734177 130.80194694 447.74734177 133.25 446.12109375 C136.16796875 445.609375 136.16796875 445.609375 139.4375 445.43359375 C141.06751953 445.33498047 141.06751953 445.33498047 142.73046875 445.234375 C143.56191406 445.19699219 144.39335937 445.15960937 145.25 445.12109375 C145.51039063 445.70503906 145.77078125 446.28898437 146.0390625 446.890625 C155.33677784 464.0164168 180.70354389 474.91418411 198.25 481.12109375 C199.18070312 481.46140625 200.11140625 481.80171875 201.0703125 482.15234375 C216.20188034 487.03058055 232.40004519 484.23876828 246.328125 477.1484375 C249.78630705 474.74897696 251.96643953 472.00960319 254.5625 468.74609375 C257.29861601 465.42814282 259.4068286 463.33521741 263.7109375 462.2421875 C271.10108501 462.12599021 278.13183172 463.59774978 285.32763672 465.10595703 C296.26928785 467.2825364 306.17912801 465.65154333 316.25 461.12109375 C317.27351563 460.67507813 318.29703125 460.2290625 319.3515625 459.76953125 C328.03691952 455.73935318 334.02242924 451.77537833 337.75 442.74609375 C340.1637331 435.0431368 339.29516852 429.7719841 335.8125 422.55859375 C329.37089065 411.73729206 319.13519209 407.37422611 308.109375 402.36328125 C303.59344901 400.30586691 299.18790988 398.08606055 294.8125 395.74609375 C294.20446533 395.42447266 293.59643066 395.10285156 292.9699707 394.77148438 C290.50298511 393.44340449 288.20252001 392.08521998 285.96484375 390.39453125 C284.33837898 388.92236398 284.33837898 388.92236398 282.25 389.12109375 C282.28320484 387.37029288 282.35279393 385.62015954 282.4375 383.87109375 C282.47230469 382.8965625 282.50710938 381.92203125 282.54296875 380.91796875 C283.49987668 377.13263132 284.98567931 376.18324392 288.25 374.12109375 C291.1953125 372.84765625 291.1953125 372.84765625 294.375 371.74609375 C304.99312026 367.80769289 313.73292953 362.58244694 322.25 355.12109375 C322.92675781 354.53972656 323.60351562 353.95835937 324.30078125 353.359375 C334.98568755 343.48814894 341.59508251 330.70525549 346.25 317.12109375 C346.63929688 316.00734375 347.02859375 314.89359375 347.4296875 313.74609375 C357.28421771 283.82284872 352.24948364 251.33147166 342.25 222.12109375 C341.92225586 221.12867676 341.92225586 221.12867676 341.58789062 220.11621094 C334.26135372 198.08024224 323.2624722 175.66802053 309.2734375 157.08984375 C308.57178467 156.15531372 308.57178467 156.15531372 307.85595703 155.2019043 C306.60234534 153.56706283 305.31052488 151.9617118 304.015625 150.359375 C301.71621175 146.1420883 301.1108944 142.8209552 302.25 138.12109375 C303.91974936 135.5173015 306.02764636 133.67435521 308.375 131.68359375 C313.8739873 126.62612557 317.85907651 121.84427423 321.25 115.12109375 C321.61222656 114.51652344 321.97445313 113.91195312 322.34765625 113.2890625 C324.90201474 108.83107563 326.21764694 104.06990888 327.5 99.12109375 C327.67547363 98.4564209 327.85094727 97.79174805 328.03173828 97.10693359 C331.97865785 80.90903057 325.45043049 64.92021172 317.25 51.12109375 C311.60849468 42.09678637 305.09545858 35.97522156 296.25 30.12109375 C295.44949219 29.56808594 294.64898438 29.01507813 293.82421875 28.4453125 C281.22297615 20.24921017 267.00131748 16.78998318 252.25 15.12109375 C250.90035156 14.96447266 250.90035156 14.96447266 249.5234375 14.8046875 C231.74854067 13.85791464 212.36077584 22.33874063 198.5546875 32.9765625 C194.71539663 36.54905519 191.93698269 40.64522312 189.25 45.12109375 C188.71375 45.99121094 188.1775 46.86132812 187.625 47.7578125 C186.17678554 50.09991406 186.17678554 50.09991406 185.25 52.74609375 C184.13482159 55.39464247 183.58449422 56.4508865 181.25 58.12109375 C178.56921258 58.42764119 176.17709312 58.54621325 173.5 58.49609375 C172.74501221 58.48956787 171.99002441 58.48304199 171.2121582 58.47631836 C164.83849517 58.32759733 158.96410482 57.24980963 152.7421875 55.85546875 C147.592376 54.77251063 142.50002522 54.349046 137.25 54.12109375 C136.31027344 54.07984375 135.37054688 54.03859375 134.40234375 53.99609375 C121.13472478 53.71038459 108.53284852 56.01022103 95.78344727 59.4440918 C90.02993005 60.93294299 84.19389193 62.05482166 78.25 61.12109375 C75.49075221 58.76423626 74.17119657 57.11630864 72.25 54.12109375 C71.47148603 52.93395422 70.69139947 51.74784522 69.91015625 50.5625 C69.2764209 49.59993286 69.2764209 49.59993286 68.62988281 48.61791992 C56.52619463 30.27172539 39.48578454 19.91267135 18.25 14.12109375 C-6.28405215 9.8183738 -28.29861673 17.02449778 -47.75 32.12109375 Z " fill="#430019" transform="translate(279.75,304.87890625)"/>
<path d="M0 0 C0.69480469 0.27328125 1.38960937 0.5465625 2.10546875 0.828125 C7.13904058 2.84522118 11.6326846 5.5265502 16.1875 8.4375 C17.06100098 8.99473755 17.06100098 8.99473755 17.95214844 9.56323242 C28.85125186 16.67990652 35.55191915 25.72329161 41.4375 37.25 C41.77958496 37.91104736 42.12166992 38.57209473 42.47412109 39.25317383 C49.02582206 52.56829739 47.69275116 73.16017308 44.0390625 87.296875 C42.75749142 90.63088697 41.22176747 92.86011941 38.68359375 95.34765625 C36.66167887 97.33204139 35.02140027 99.49193939 33.3125 101.75 C32.22524057 103.17968367 31.12237281 104.59771339 30 106 C29.51917969 106.60328125 29.03835938 107.2065625 28.54296875 107.828125 C27 109 27 109 25.08203125 108.97265625 C22.23272898 107.64155632 20.7339924 105.81841034 18.6875 103.4375 C17.8934375 102.52742188 17.099375 101.61734375 16.28125 100.6796875 C14.9420262 99.10655817 13.60681648 97.52996697 12.28125 95.9453125 C-14.80946257 63.94108834 -55.05920336 43.40820666 -94 30 C-88.42092442 14.98144584 -76.213339 5.99549916 -62.10327148 -0.57006836 C-42.28325472 -9.1892929 -19.61764576 -9.32465795 0 0 Z " fill="#FC72A9" transform="translate(560,327)"/>
<path d="M0 0 C6.46675372 3.79312642 11.08500766 9.25465244 13.625 16.3125 C15.01003676 25.74507794 13.38479752 34.61436127 8.1171875 42.59765625 C3.44792008 48.40709362 -2.3411557 51.96788523 -9.375 54.3125 C-17.38894036 55.12625487 -24.02596302 55.28925034 -30.5390625 50.15625 C-36.0682443 44.60353976 -39.36087012 37.86633632 -39.6875 30 C-39.44039238 21.32216189 -35.89978946 13.91984956 -30.375 7.3125 C-22.03675556 -0.46647195 -11.00647875 -5.11832471 0 0 Z " fill="#44011A" transform="translate(388.375,579.6875)"/>
<path d="M0 0 C7.69676195 4.12933239 13.15588976 10.16704467 16.30078125 18.234375 C18.49439781 25.56646324 18.1636563 33.31727783 14.69921875 40.16015625 C11.55212559 44.82805142 7.47262786 48.12432007 2.48828125 50.671875 C-4.68929188 51.93850555 -11.46091693 52.31876994 -17.92578125 48.55859375 C-24.73989733 43.47052029 -30.90650895 34.54602952 -32.69921875 26.234375 C-33.41470987 19.09047133 -33.14515649 13.08819302 -28.69921875 7.234375 C-20.26590922 -1.50999922 -11.76944548 -4.43183382 0 0 Z " fill="#440119" transform="translate(578.69921875,577.765625)"/>
<path d="M0 0 C7.15842804 1.36245801 13.54754417 3.60148819 20.25 6.4375 C21.82164917 7.10120605 21.82164917 7.10120605 23.42504883 7.77832031 C45.5053976 17.26298903 66.75511766 29.22456829 85 45 C86.21331325 46.03021699 87.42687771 47.06013816 88.640625 48.08984375 C98.34279394 56.36472969 107.14705747 64.61135032 114.921875 74.77734375 C117.0328752 77.03516163 117.98303548 77.68063664 121 78 C125.38579957 73.20968493 129.59008792 68.54110713 133 63 C133.33 63.66 133.66 64.32 134 65 C130.23119134 71.54582556 125.67166149 76.59753046 120.05175781 81.57324219 C116.20306486 85.15835946 115.24060182 87.78479301 115 93 C111.33195757 89.43751274 108.00382697 85.69534571 104.75 81.75 C97.81456998 73.45842792 90.31071342 65.91883784 82 59 C81.48195801 58.56816406 80.96391602 58.13632812 80.43017578 57.69140625 C52.75491282 34.74914951 20.39512824 17.05773179 -15.015625 9.60546875 C-15.67046875 9.40566406 -16.3253125 9.20585937 -17 9 C-17.33 8.34 -17.66 7.68 -18 7 C-17.11957031 6.99742187 -16.23914063 6.99484375 -15.33203125 6.9921875 C-8.83025476 7.01710521 -8.83025476 7.01710521 -3.0234375 4.59765625 C-1.51043631 2.80557541 -1.51043631 2.80557541 0 0 Z " fill="#CE2968" transform="translate(466,357)"/>
<path d="M0 0 C2.375 1.1875 2.375 1.1875 4 3 C4.25 5.6875 4.25 5.6875 4 8 C3.071875 8.3403125 3.071875 8.3403125 2.125 8.6875 C-0.19290334 9.80875925 -0.19290334 9.80875925 -0.75 12.1875 C-2.97304306 17.18934689 -7.56223877 20.82194314 -12.44921875 23.18359375 C-21.34481694 26.03073008 -30.64648535 23.46486662 -39 20 C-41.14850766 18.76932654 -43.27460859 17.49860575 -45.375 16.1875 C-49.64408285 13.58854747 -49.64408285 13.58854747 -54.5 12.6875 C-57.62917048 13.86093893 -60.41439747 15.21353555 -63.375 16.75 C-77.47153833 24.03585127 -92.81247222 28.01551577 -108.4375 23.375 C-112.96533416 21.66947534 -116.46937019 19.46444436 -120.1796875 16.390625 C-122.91338232 14.30222295 -125.8046359 13.23901873 -129 12 C-130 11 -130 11 -130.375 8.1875 C-130 5 -130 5 -127.875 2.625 C-124.45209963 0.69031718 -122.88577683 0.58248063 -119 1 C-115.96484375 2.6796875 -115.96484375 2.6796875 -112.9375 4.875 C-106.59816233 9.42757455 -102.22275114 11.3759011 -94.375 11.3125 C-93.66786865 11.30831055 -92.9607373 11.30412109 -92.23217773 11.29980469 C-84.460597 11.13390743 -77.73693537 9.48526922 -70.875 5.8125 C-63.13571585 2.23412131 -53.25368501 2.81890508 -45.1875 5.05859375 C-42.05430844 6.2584637 -39.0335855 7.56988112 -36 9 C-30.18699702 11.62463092 -24.34591823 12.17583149 -18 12 C-12.44035928 9.65909864 -10.69924826 6.10929135 -8 1 C-5.19084526 -0.40457737 -3.11189466 -0.24895157 0 0 Z " fill="#47021C" transform="translate(548,642)"/>
<path d="M0 0 C0.99 0.495 0.99 0.495 2 1 C-0.70219359 15.28302327 -7.33633248 26.28807024 -17 37 C-18.04800781 38.17175781 -18.04800781 38.17175781 -19.1171875 39.3671875 C-34.36741642 55.51120273 -58.15850639 67.46832307 -80.5390625 68.203125 C-103.99050916 68.55918086 -103.99050916 68.55918086 -109.80859375 63.39453125 C-110.20175781 62.93433594 -110.59492188 62.47414063 -111 62 C-110.34 60.68 -109.68 59.36 -109 58 C-108.19481934 57.98541748 -107.38963867 57.97083496 -106.56005859 57.95581055 C-103.49932107 57.89382481 -100.43916891 57.81952015 -97.37890625 57.73754883 C-95.43249854 57.68893606 -93.48576809 57.65383243 -91.5390625 57.61914062 C-61.85991917 56.78630752 -39.54707824 43.62767681 -19.50146484 22.62402344 C-16.55156852 19.43333883 -13.84238888 16.05985517 -11.14453125 12.65625 C-7.60955911 8.27777813 -3.80345163 4.14513287 0 0 Z " fill="#CF2969" transform="translate(367,416)"/>
<path d="M0 0 C5.2152866 0.2880825 9.00226593 3.3608381 13.1875 6.1875 C14.71261152 7.19932008 16.23864837 8.20974684 17.765625 9.21875 C18.49716797 9.7034375 19.22871094 10.188125 19.98242188 10.6875 C22.42023929 12.27337929 24.91470269 13.74131046 27.4375 15.1875 C37.84421289 21.37479608 47.24966386 29.08774441 51 41 C51.60441579 44.46575692 51.91240644 47.93194997 52.1875 51.4375 C52.3102832 52.82098633 52.3102832 52.82098633 52.43554688 54.23242188 C52.63418917 56.48759616 52.82206853 58.74311342 53 61 C51.78763672 61.03867187 51.78763672 61.03867187 50.55078125 61.078125 C42.41785022 61.3552224 42.41785022 61.3552224 36 66 C36.495 64.4221875 36.495 64.4221875 37 62.8125 C38.88456792 55.12400916 39.71700266 45.92883131 35.51953125 38.8984375 C30.4716888 32.59187855 24.05061951 27.85021922 17.296875 23.52734375 C1.09028098 12.75050997 1.09028098 12.75050997 -0.875 4.1875 C-0.91625 3.135625 -0.9575 2.08375 -1 1 C-0.67 0.67 -0.34 0.34 0 0 Z " fill="#CE2967" transform="translate(499,706)"/>
<path d="M0 0 C2 2 2 2 2.5625 4.6875 C1.83576359 8.96716995 0.10687369 10.17039641 -2.99609375 13.03515625 C-10.57282493 20.46419286 -17.50370053 32.19255224 -18.11352539 43.01464844 C-18.10828857 43.7059082 -18.10305176 44.39716797 -18.09765625 45.109375 C-18.09443359 45.86347656 -18.09121094 46.61757813 -18.08789062 47.39453125 C-18.07951172 48.17183594 -18.07113281 48.94914063 -18.0625 49.75 C-18.05798828 50.54277344 -18.05347656 51.33554687 -18.04882812 52.15234375 C-18.03708565 54.10159508 -18.01915146 56.05080738 -18 58 C-21.5 54.5 -21.5 54.5 -25 51 C-27.20250992 50.53993654 -27.20250992 50.53993654 -29.625 50.375 C-30.44226563 50.30023437 -31.25953125 50.22546875 -32.1015625 50.1484375 C-32.72804688 50.09945312 -33.35453125 50.05046875 -34 50 C-33.29423828 49.46439453 -33.29423828 49.46439453 -32.57421875 48.91796875 C-30.34317818 46.19975307 -30.30225289 43.77759372 -29.8125 40.3125 C-27.3951157 26.18542379 -19.32508591 11.60945555 -8.875 1.8125 C-5.5670114 -0.27297107 -3.83941589 -0.61081616 0 0 Z " fill="#CF2A68" transform="translate(337,708)"/>
<path d="M0 0 C0.763125 0.825 1.52625 1.65 2.3125 2.5 C6.17356001 5.80283447 9.92836511 5.40334296 14.8046875 5.17578125 C15.52914063 5.11777344 16.25359375 5.05976563 17 5 C23.12041213 32.69242322 23.12041213 32.69242322 18 44 C16.68 44 15.36 44 14 44 C13.39455784 41.75033674 12.79066353 39.50027436 12.1875 37.25 C12.00372803 36.56768311 11.81995605 35.88536621 11.63061523 35.18237305 C10.53056376 31.07407623 9.52014084 26.95677327 8.5625 22.8125 C7.02988354 16.58098251 4.57693347 10.85975961 2 5 C1.32664848 3.33602285 0.65777261 1.67019682 0 0 Z " fill="#CF2A69" transform="translate(352,361)"/>
<path d="M0 0 C3.4797142 0.62197571 6.95866223 1.24814233 10.4375 1.875 C11.41138672 2.04902344 12.38527344 2.22304688 13.38867188 2.40234375 C19.2947267 3.4689891 25.15045576 4.65708498 31 6 C31.495 7.98 31.495 7.98 32 10 C28.93843346 11.77669223 26.75963785 12.24050818 23.234375 12.1953125 C22.34492188 12.18886719 21.45546875 12.18242188 20.5390625 12.17578125 C19.61867188 12.15902344 18.69828125 12.14226563 17.75 12.125 C16.81414062 12.11597656 15.87828125 12.10695313 14.9140625 12.09765625 C12.60911343 12.07413636 10.3046884 12.04126853 8 12 C8 12.66 8 13.32 8 14 C6.46875 15.2890625 6.46875 15.2890625 4.5 16.625 C3.8503125 17.07101562 3.200625 17.51703125 2.53125 17.9765625 C2.0259375 18.31429687 1.520625 18.65203125 1 19 C0.34 18.67 -0.32 18.34 -1 18 C-0.51144531 17.62875 -0.02289063 17.2575 0.48046875 16.875 C2.61956562 14.23549743 2.36594609 12.35476975 2.3125 9 C2.30669922 7.4221875 2.30669922 7.4221875 2.30078125 5.8125 C2.19759718 2.79472962 2.19759718 2.79472962 0 0 Z " fill="#CE2968" transform="translate(263,677)"/>
<path d="M0 0 C-0.66 0.66 -1.32 1.32 -2 2 C-2.46162427 4.43252661 -2.46162427 4.43252661 -2.625 7.125 C-2.69976563 8.03507813 -2.77453125 8.94515625 -2.8515625 9.8828125 C-2.90054688 10.58148437 -2.94953125 11.28015625 -3 12 C-3.66 11.67 -4.32 11.34 -5 11 C-6.49881323 10.93965115 -8.00033693 10.93958417 -9.5 10.97265625 C-10.386875 10.98490234 -11.27375 10.99714844 -12.1875 11.00976562 C-14.06257728 11.04492332 -15.93758541 11.08398633 -17.8125 11.12695312 C-19.1428125 11.14338867 -19.1428125 11.14338867 -20.5 11.16015625 C-21.3146875 11.17699463 -22.129375 11.19383301 -22.96875 11.21118164 C-25 11 -25 11 -27 9 C-26.625 6.375 -26.625 6.375 -26 4 C-20.33931327 2.15698572 -14.68491676 1.28524157 -8.79296875 0.46484375 C-2.14092954 -0.64227886 -2.14092954 -0.64227886 0 0 Z " fill="#CE2968" transform="translate(565,681)"/>
<path d="M0 0 C1.9375 0 1.9375 0 4 1 C7.22844315 5.5437348 7.44205846 10.01908313 7.69140625 15.4140625 C8.00544923 18.0456632 8.67254659 19.72893512 10 22 C9.25234375 22.03738281 8.5046875 22.07476563 7.734375 22.11328125 C6.74953125 22.17902344 5.7646875 22.24476563 4.75 22.3125 C3.77546875 22.37050781 2.8009375 22.42851563 1.796875 22.48828125 C-1.28882719 23.05284408 -2.59674249 24.06704288 -5 26 C-4.55564266 22.03996575 -4.09216228 18.08240354 -3.625 14.125 C-3.49867188 12.99707031 -3.37234375 11.86914062 -3.2421875 10.70703125 C-3.11328125 9.63066406 -2.984375 8.55429687 -2.8515625 7.4453125 C-2.73635254 6.45031738 -2.62114258 5.45532227 -2.50244141 4.43017578 C-2 2 -2 2 0 0 Z " fill="#CF2A68" transform="translate(414,728)"/>
<path d="M0 0 C4.43657062 3.78957074 8.84023028 7.61012449 13.203125 11.484375 C15.13335749 13.17012226 15.13335749 13.17012226 18 15 C17.67 16.65 17.34 18.3 17 20 C10.46782525 20.71001899 5.42027337 18.68620124 0 15 C-1.14229879 11.57310364 -0.90861076 9.38897782 -0.5625 5.8125 C-0.46066406 4.72582031 -0.35882813 3.63914062 -0.25390625 2.51953125 C-0.17011719 1.68808594 -0.08632812 0.85664063 0 0 Z " fill="#CF2A68" transform="translate(229,457)"/>
<path d="M0 0 C0 3.80196862 -0.89536327 4.22027411 -3.5 6.875 C-20.69422746 25.59353841 -24.52187752 47.54403513 -25 72 C-29.29046368 65.56430448 -27.65027132 54.39328671 -26.41796875 46.921875 C-22.77645318 30.49348511 -14.43875601 9.78002696 0 0 Z " fill="#C42964" transform="translate(231,338)"/>
<path d="M0 0 C25.04547627 -0.52299138 47.04666831 6.15398052 65.734375 23.62109375 C66.84663438 24.72398015 67.92870291 25.85728311 69 27 C68.67 27.66 68.34 28.32 68 29 C67.58492188 28.52691406 67.16984375 28.05382812 66.7421875 27.56640625 C52.20459075 11.96434112 32.34069158 4.08633522 11.375 2.8125 C10.18003906 2.73064453 8.98507812 2.64878906 7.75390625 2.56445312 C4.83645724 2.36606659 1.91874298 2.17814375 -1 2 C-0.67 1.34 -0.34 0.68 0 0 Z " fill="#C42964" transform="translate(274,318)"/>
<path d="M0 0 C1.91543509 2.87315263 2.47354742 4.39404529 3.125 7.6875 C3.29257812 8.49574219 3.46015625 9.30398438 3.6328125 10.13671875 C4.50814587 16.96245659 3.877616 22.73086757 2.125 29.3125 C1.95097656 30.01439453 1.77695312 30.71628906 1.59765625 31.43945312 C0.74645344 34.74653368 -0.08829888 37.13244832 -2 40 C-1.10967473 32.36864053 -1.10967473 32.36864053 -0.48632812 30.2734375 C0.1483599 27.30646213 0.11144643 24.51821443 0.09765625 21.484375 C0.09443359 20.23398437 0.09121094 18.98359375 0.08789062 17.6953125 C0.07951172 16.39335937 0.07113281 15.09140625 0.0625 13.75 C0.05573242 11.77386719 0.05573242 11.77386719 0.04882812 9.7578125 C0.03704316 6.50516259 0.02059011 3.25260416 0 0 Z " fill="#C8346B" transform="translate(605,375)"/>
<path d="M0 0 C0 0.66 0 1.32 0 2 C-0.969375 2.1959375 -1.93875 2.391875 -2.9375 2.59375 C-16.19045052 5.47286801 -29.23441349 10.23441349 -39 20 C-39.66 19.67 -40.32 19.34 -41 19 C-31.67358674 9.18272289 -13.75096354 -0.59463626 0 0 Z " fill="#C42964" transform="translate(273,319)"/>
</svg>
