<?xml version="1.0" encoding="UTF-8"?>
<svg version="1.1" xmlns="http://www.w3.org/2000/svg" width="820" height="820">
<path d="M0 0 C1.60855726 1.34894833 3.21295034 2.70288279 4.8125 4.0625 C5.5240625 4.61679687 6.235625 5.17109375 6.96875 5.7421875 C14.58060929 11.86095131 19.32250525 20.02024087 22.8125 29.0625 C23.19019531 29.8978125 23.56789063 30.733125 23.95703125 31.59375 C29.13676213 43.23640793 31.79191296 55.513591 33.8125 68.0625 C35.1325 68.0625 36.4525 68.0625 37.8125 68.0625 C40.94679723 57.68014044 40.04620403 48.78915941 37.46875 38.32421875 C36.82797664 35.13942257 36.69493769 32.30036193 36.8125 29.0625 C65.36261431 20.47662621 93.99106825 19.58272068 122.46484375 29.28833008 C124.73950808 30.03842997 127.02105719 30.70880106 129.328125 31.3515625 C187.57019065 47.66718906 238.23035441 88.59411113 267.9609375 141.09033203 C290.19376761 182.03509764 300.43575234 239.33449069 290.8125 285.0625 C290.4825 285.3925 290.1525 285.7225 289.8125 286.0625 C289.73028654 287.60324116 289.67276705 289.14530654 289.625 290.6875 C288.98058882 298.44057196 285.99517101 305.07266224 282.8125 312.0625 C282.16474609 313.50302734 282.16474609 313.50302734 281.50390625 314.97265625 C272.2394074 333.63910941 253.57928294 350.33768796 233.96484375 357.36328125 C233.25457031 357.59402344 232.54429687 357.82476563 231.8125 358.0625 C230.69875 358.43375 229.585 358.805 228.4375 359.1875 C225.20099199 359.96872607 222.03867732 360.50245103 218.75 361 C214.18526249 361.71592496 210.74476129 362.65945143 206.8125 365.0625 C207.1425 365.7225 207.4725 366.3825 207.8125 367.0625 C210.55562664 367.71822604 210.55562664 367.71822604 213.75 368.125 C219.63494556 368.97372278 219.63494556 368.97372278 221.8125 370.0625 C223.82944547 370.21297513 225.85264836 370.28411612 227.875 370.3125 C228.95910156 370.33828125 230.04320312 370.3640625 231.16015625 370.390625 C238.91723183 369.69373265 245.50214757 366.4978968 252.125 362.5625 C252.85485107 362.13179199 253.58470215 361.70108398 254.33666992 361.25732422 C262.20303905 356.45484417 268.71333819 350.51323226 274.953125 343.73828125 C276.8125 342.0625 276.8125 342.0625 279.75 342.125 C282.96459193 343.10905875 285.21701351 343.91195405 287.8125 346.0625 C290.13639977 356.35618425 289.97652176 365.97820763 284.70703125 375.24609375 C279.57831802 382.87042826 273.68174948 388.57701108 266.015625 393.609375 C263.69115503 395.07871481 263.69115503 395.07871481 261.3125 397.1875 C254.87047318 402.01902011 247.91049647 404.5436021 240.1171875 406.3046875 C235.02290579 407.47287976 230.00292653 408.90476637 224.96484375 410.29296875 C221.8125 411.0625 221.8125 411.0625 218.8125 411.0625 C218.77511719 410.08410156 218.73773437 409.10570312 218.69921875 408.09765625 C218.03835903 394.9193359 215.46511697 384.1903039 206.1875 374.25 C197.63623971 368.03090161 188.23482593 365.68853542 177.8125 367.0625 C174.49207089 367.91035304 171.28701407 368.92477077 168.046875 370.0390625 C163.06177616 371.616473 157.98243113 372.35454547 152.8125 373.0625 C152.4825 374.3825 152.1525 375.7025 151.8125 377.0625 C157.54583303 381.05090558 161.8766303 381.85452427 168.8125 381.0625 C169.905625 380.7325 170.99875 380.4025 172.125 380.0625 C178.94566812 378.21282729 186.7467304 377.6973962 193.3125 380.6875 C199.80942118 384.6047613 203.75160476 390.86589789 205.8125 398.0625 C207.03223962 407.19206628 205.46755875 414.97181999 200.08203125 422.47265625 C195.73398153 427.67122268 190.82270035 431.88282969 184.8125 435.0625 C184.1525 435.0625 183.4925 435.0625 182.8125 435.0625 C182.8125 435.7225 182.8125 436.3825 182.8125 437.0625 C178.5967452 438.96453 174.34024917 439.83556772 169.8125 440.625 C168.41663065 440.87610196 167.02079648 441.12739953 165.625 441.37890625 C163.7378125 441.71728516 163.7378125 441.71728516 161.8125 442.0625 C161.02488281 442.25199219 160.23726563 442.44148438 159.42578125 442.63671875 C155.29463085 443.30980603 151.17876996 443.28790091 147 443.3125 C145.70352539 443.3434375 145.70352539 443.3434375 144.38085938 443.375 C139.26481489 443.40588933 135.33120647 442.80251642 130.62426758 440.79785156 C128.00769466 439.73584945 125.3348416 439.31009977 122.5625 438.8125 C111.96345574 436.451692 101.81911917 430.67974678 95.76464844 421.46826172 C87.54911932 408.33275913 87.54911932 408.33275913 87.8125 399.9375 C88.01673043 396.14814502 88.01673043 396.14814502 86.8125 393.0625 C83.43667655 394.00181007 82.09587879 394.60366309 80.22265625 397.63671875 C79.77792969 398.66410156 79.33320313 399.69148438 78.875 400.75 C72.66323447 413.91265252 63.4825847 418.84714182 50.18359375 424.08203125 C41.75905586 426.53227344 32.88756899 426.33784438 24.17578125 426.41259766 C22.77391919 426.42911683 21.37213996 426.45635437 19.97070312 426.49462891 C9.99598967 426.76389934 1.94943041 425.42153285 -7.1875 421.0625 C-8.19111572 420.58546631 -9.19473145 420.10843262 -10.22875977 419.61694336 C-21.92462103 413.85156032 -33.94931692 403.26575717 -38.375 390.6875 C-39.96277505 383.60358055 -39.35844449 378.84893812 -35.92578125 372.49609375 C-30.81802417 365.34523384 -22.66965383 361.55621262 -14.1875 360.0625 C-1.63772608 358.40027829 9.72166202 363.81823213 20.5234375 369.51171875 C24.86164964 371.55717032 29.06678439 372.5266934 33.8125 373.0625 C30.6384706 364.10053465 24.97648293 357.95948611 16.6484375 353.3828125 C3.86212438 347.42995598 -13.15372558 344.88963312 -26.78515625 349.80078125 C-30.63346333 351.82192464 -34.1742567 354.30606994 -37.63623047 356.92553711 C-40.79563606 359.29091739 -43.20660191 360.83992583 -47.1875 361.0625 C-69.18475755 356.78431974 -91.20553114 340.9645523 -104.37109375 323.3515625 C-106.18478486 320.95231496 -106.18478486 320.95231496 -108.6640625 318.734375 C-111.61496316 315.60989195 -113.2904691 312.53562025 -115.125 308.6875 C-115.63595215 307.63574585 -115.63595215 307.63574585 -116.15722656 306.56274414 C-126.3147196 285.35052872 -131.62564778 264.35566863 -131.5 240.8125 C-131.49784485 240.08339417 -131.4956897 239.35428833 -131.49346924 238.60308838 C-131.44214595 227.77565395 -130.86407343 217.5932413 -128.1875 207.0625 C-127.76858829 205.25672891 -127.35069525 203.45072133 -126.93359375 201.64453125 C-121.52533066 178.98557765 -112.5312505 157.8125008 -100.1875 138.0625 C-95.5675 138.3925 -90.9475 138.7225 -86.1875 139.0625 C-86.1875 137.7425 -86.1875 136.4225 -86.1875 135.0625 C-87.94366988 133.72781089 -89.71054291 132.40611265 -91.51171875 131.1328125 C-106.22451426 119.74918969 -116.31666969 105.28121718 -123.1875 88.0625 C-123.45602783 87.42521973 -123.72455566 86.78793945 -124.0012207 86.13134766 C-126.55535394 79.48044834 -126.68861303 73.13000755 -126.625 66.0625 C-126.61597656 64.86713623 -126.60695312 63.67177246 -126.59765625 62.44018555 C-126.1636794 40.12202186 -118.36213685 20.92010297 -102.8515625 4.60546875 C-74.23232554 -22.57817542 -30.99476286 -24.47452312 0 0 Z M34.8125 79.0625 C29.80146361 83.78350856 25.45355386 88.87714344 21.1328125 94.23046875 C17.51080966 98.65126346 13.69996227 102.87495292 9.8125 107.0625 C9.13960938 107.81273437 8.46671875 108.56296875 7.7734375 109.3359375 C-9.94054708 128.24412329 -32.73622998 135.83771951 -58.0307312 136.68585205 C-63.41547966 136.85078817 -68.80106468 136.96789109 -74.1875 137.0625 C-74.8475 138.3825 -75.5075 139.7025 -76.1875 141.0625 C-71.86024373 146.11096565 -65.21362744 146.69741679 -58.87744141 147.27197266 C-34.53516616 148.77990121 -10.92191003 141.13893095 7.95703125 125.5859375 C22.03367657 113.14611141 33.40529577 98.9569962 36.8125 80.0625 C35.8225 79.5675 35.8225 79.5675 34.8125 79.0625 Z M216.0390625 254.21875 C212.27249068 259.88060317 212.11921371 265.46739197 212.8125 272.0625 C214.92111826 280.8973436 220.6150034 289.43729661 228.125 294.625 C234.48352999 298.02607418 242.09846519 298.1653347 249 296.125 C255.03200272 293.51320501 259.33945116 287.8858436 262.3125 282.1875 C263.57656038 274.2871226 263.7228124 266.23965567 259.8125 259.0625 C254.21909662 251.3772547 248.2868831 246.05050855 238.8125 244.0625 C228.47170829 242.83145337 222.58425834 246.46689794 216.0390625 254.21875 Z M22.2109375 257.98046875 C19.08630266 262.63250889 16.36437901 267.40574012 15.8125 273.0625 C15.74933594 273.70703125 15.68617188 274.3515625 15.62109375 275.015625 C15.21166448 282.57025548 17.53798133 289.40754499 22.125 295.4375 C27.6130453 300.79791634 31.05063116 302.31588421 38.6875 302.5625 C47.93198366 302.25892056 54.25304599 299.38216509 61.01953125 293.12890625 C67.10875797 286.11103928 69.1907764 278.08759367 69.09375 269.015625 C68.50546886 262.83867303 66.31509169 257.82804523 62.3125 253.125 C61.4875 252.444375 60.6625 251.76375 59.8125 251.0625 C59.1525 250.505625 58.4925 249.94875 57.8125 249.375 C45.5494456 241.32737055 30.66008772 247.2026503 22.2109375 257.98046875 Z M110.8125 307.0625 C107.01166323 312.06219883 105.04875911 316.59595221 105.45703125 322.9296875 C106.47348887 329.02843325 109.0745333 333.18598179 113.8125 337.0625 C118.76648565 339.43552029 123.58549139 340.89144124 128.9375 342.0625 C130.46110641 342.40028067 131.9845431 342.73882777 133.5078125 343.078125 C134.24805664 343.24248047 134.98830078 343.40683594 135.75097656 343.57617188 C137.49210283 343.98691602 139.21421525 344.47704236 140.9296875 344.984375 C148.4028748 347.13114425 155.65084249 347.34555307 163.375 347.375 C164.41591797 347.38047852 165.45683594 347.38595703 166.52929688 347.39160156 C177.09821116 347.29503618 189.52986842 347.08392808 197.59765625 339.3515625 C202.72063678 333.61091765 203.16153614 329.04324866 203.09375 321.42578125 C202.39483549 313.06792852 197.9974378 306.75217889 191.83203125 301.31640625 C184.5586478 295.65120808 176.57715509 293.40361096 167.8125 291.0625 C167.16240967 290.88291748 166.51231934 290.70333496 165.8425293 290.51831055 C146.7155494 286.22365373 123.9985241 292.6565091 110.8125 307.0625 Z " fill="#FE6AB4" transform="translate(332.1875,321.9375)"/>
<path d="M0 0 C26.34972901 -0.59567207 50.15978833 8.75325401 69.375 26.80859375 C72.82656332 30.40548605 75.7670513 34.34133135 78.6875 38.37109375 C79.12529785 38.97397217 79.5630957 39.57685059 80.01416016 40.19799805 C82.04518578 43.08514565 83.76713816 45.57425403 84.25 49.12109375 C85.26578125 48.78335938 86.2815625 48.445625 87.328125 48.09765625 C95.58026457 45.40299786 103.59835937 43.1451655 112.25 42.12109375 C113.14589844 41.99863281 114.04179687 41.87617188 114.96484375 41.75 C134.78310644 39.59526271 154.84668416 42.10824933 174.25 46.12109375 C174.55550781 45.3940625 174.86101562 44.66703125 175.17578125 43.91796875 C183.53945192 25.54145291 198.88297855 14.51102661 217.25 7.12109375 C242.43752173 -1.29529968 269.5322582 2.08281436 293.25 13.12109375 C301.3054638 17.23596408 308.45705559 22.15765081 315.25 28.12109375 C316.39082031 29.11882812 316.39082031 29.11882812 317.5546875 30.13671875 C332.93414615 44.50507112 341.26799247 64.50054135 342.2421875 85.33984375 C342.29053902 108.74198061 332.05397467 126.74554676 316.25 143.12109375 C317.84359369 147.69173059 320.26564416 151.46153774 322.875 155.49609375 C346.3472388 192.56221136 358.73830724 235.31736496 360.25 279.12109375 C360.28399902 279.9929834 360.31799805 280.86487305 360.35302734 281.76318359 C361.34997621 310.53300232 354.49563671 336.64437974 341.25 362.12109375 C341.78109375 362.49621094 342.3121875 362.87132812 342.859375 363.2578125 C349.49162387 368.06256214 354.56076871 372.77215923 356.25 381.12109375 C357.77242321 399.15172048 353.10367584 412.9188188 341.4375 426.87109375 C323.97644709 445.55574317 294.83713488 454.88634274 270.25 459.12109375 C268.93 459.12109375 267.61 459.12109375 266.25 459.12109375 C265.98574219 459.70117188 265.72148438 460.28125 265.44921875 460.87890625 C257.88678978 475.01843142 243.64145702 481.15931844 229.25390625 486.0078125 C205.06137448 493.15320744 177.01518583 490.86902391 154.6875 479.05859375 C148.08717921 475.32731414 142.71392297 471.06552122 138.0625 465.05859375 C137.40894531 464.22199219 136.75539063 463.38539063 136.08203125 462.5234375 C134.4605431 460.39717905 132.84883584 458.26442477 131.25 456.12109375 C130.6209375 456.58 129.991875 457.03890625 129.34375 457.51171875 C108.04520276 472.77995442 81.27387169 475.72047775 55.609375 472.69140625 C52.6862667 472.04448884 50.04158822 471.2033122 47.25 470.12109375 C46.3233252 469.766521 46.3233252 469.766521 45.37792969 469.40478516 C36.54498548 465.96411894 28.78799343 461.93962636 21.25 456.12109375 C17.12517915 453.37121319 13.46656557 453.0098025 8.59008789 452.93164062 C7.69467789 452.9149231 6.79926788 452.89820557 5.87672424 452.88098145 C4.91838181 452.86740601 3.96003937 452.85383057 2.97265625 452.83984375 C1.46825233 452.81222961 1.46825233 452.81222961 -0.06654358 452.78405762 C-3.27347074 452.72545548 -6.48045265 452.67266872 -9.6875 452.62109375 C-53.71060405 451.90243144 -53.71060405 451.90243144 -64.75 443.12109375 C-65.30042969 442.68667969 -65.85085937 442.25226563 -66.41796875 441.8046875 C-73.54094803 435.53080508 -79.17188307 424.85947303 -79.98828125 415.34375 C-80.30859698 401.70504337 -76.57274539 390.76256858 -67.50390625 380.60546875 C-60.9146967 373.72412676 -60.9146967 373.72412676 -56.75 373.12109375 C-57.28367188 372.51265625 -57.81734375 371.90421875 -58.3671875 371.27734375 C-71.82390862 355.44590714 -80.92833871 337.78255291 -86.625 317.80859375 C-86.81618408 317.14102051 -87.00736816 316.47344727 -87.2043457 315.78564453 C-90.88588464 301.90508964 -91.15621812 288.00493447 -91.125 273.74609375 C-91.12412384 272.77032379 -91.12324768 271.79455383 -91.12234497 270.78921509 C-91.07819635 255.88485332 -90.5053361 241.62279821 -86.75 227.12109375 C-86.50862305 226.1765332 -86.26724609 225.23197266 -86.01855469 224.25878906 C-80.58548984 203.667815 -71.95350689 184.73764015 -61.75 166.12109375 C-61.07408454 164.79242505 -60.40161343 163.46184808 -59.75 162.12109375 C-60.430625 161.46109375 -61.11125 160.80109375 -61.8125 160.12109375 C-62.79245685 159.12186808 -63.77154313 158.12178827 -64.75 157.12109375 C-65.28109375 156.60933594 -65.8121875 156.09757813 -66.359375 155.5703125 C-83.84071408 137.4875512 -88.26200156 110.26336637 -88.03125 86.3828125 C-87.81805115 78.07125533 -86.59385722 70.93938527 -83.75 63.12109375 C-83.36457031 62.05375 -82.97914063 60.98640625 -82.58203125 59.88671875 C-72.85786933 35.08853235 -55.39153818 17.06280563 -31.109375 6.40234375 C-20.9561366 2.52994585 -10.82893885 0.47684248 0 0 Z M-47.75 32.12109375 C-48.66265625 32.77078125 -48.66265625 32.77078125 -49.59375 33.43359375 C-63.48550935 44.04184634 -72.59144992 65.13909118 -75.47314453 82.02050781 C-76.87943444 92.69045351 -76.34271591 102.94950845 -72.75 113.12109375 C-72.48316406 114.04664063 -72.21632812 114.9721875 -71.94140625 115.92578125 C-67.83239379 129.69553858 -60.52419997 143.81264917 -49.25 152.99609375 C-46.49808433 155.69924901 -46.32929238 157.89416497 -46.25 161.6875 C-46.40030234 168.43891866 -48.62064274 172.63252587 -52.25 178.18359375 C-58.14807894 187.84154609 -62.7871983 197.53096501 -66.75 208.12109375 C-67.02537598 208.85360352 -67.30075195 209.58611328 -67.58447266 210.34082031 C-74.71708103 229.66206324 -78.93465112 249.34659447 -78.99023438 269.94482422 C-78.9998543 272.08862423 -79.03091155 274.23142738 -79.0625 276.375 C-79.13840241 286.28332609 -77.92121473 295.46348762 -75.75 305.12109375 C-75.56179687 305.98541016 -75.37359375 306.84972656 -75.1796875 307.74023438 C-70.59038366 327.72880382 -61.78256524 348.21352851 -47.125 362.87109375 C-44.11373038 366.11541479 -43.11633095 368.37027887 -42.8125 372.80859375 C-43.12079378 376.82201823 -43.85298775 378.88137485 -46.875 381.55859375 C-49.10269827 383.14661159 -51.38369963 384.49075187 -53.75 385.87109375 C-60.57650625 390.99097344 -65.05152655 398.79554087 -66.75 407.12109375 C-67.75102664 416.13033347 -64.23009956 424.31296764 -58.6640625 431.36328125 C-48.1617494 441.00826266 -32.60016124 440.26231846 -19.35546875 440.12109375 C-16.99414055 440.11993556 -14.63280999 440.12131651 -12.27148438 440.125 C-8.60442532 440.12941076 -4.93992677 440.1211277 -1.27319336 440.06982422 C14.13975322 439.87311166 24.1593213 440.189727 36.25 450.12109375 C56.05077416 461.91858407 74.86060526 463.15149631 96.84179688 457.77148438 C106.5296638 455.15505316 117.9241038 451.27316775 124.66015625 443.4921875 C127.55683918 440.99406537 130.73001026 441.3505868 134.40234375 441.45703125 C140.57655725 442.89683412 143.65173738 448.56465894 146.83984375 453.6640625 C153.6460802 464.39761387 164.33311124 469.56191631 176.25 473.12109375 C177.40242188 473.49234375 178.55484375 473.86359375 179.7421875 474.24609375 C200.41306169 480.43446357 221.16607679 476.3784054 240.25 467.12109375 C244.9611931 464.4231731 248.45296866 461.18785697 251.78125 456.9296875 C259.50618449 447.28099162 265.86998897 445.21745804 277.921875 443.49267578 C288.59355166 441.78941531 298.42575545 437.31888277 308.125 432.74609375 C309.07600586 432.29999756 310.02701172 431.85390137 311.00683594 431.39428711 C326.25300335 423.98805552 335.98076147 415.04698194 342.25 399.12109375 C342.930625 397.57421875 342.930625 397.57421875 343.625 395.99609375 C344.90708477 390.0985038 344.04859358 384.98620636 341.0625 379.74609375 C338.64336858 376.20828885 336.21154151 374.8068561 332.25 373.12109375 C329.47544998 370.92773362 328.37885214 369.73857997 327.6484375 366.23828125 C327.59607009 358.9941231 328.52255629 354.59334742 332.60546875 348.6171875 C337.25919624 341.55369138 339.69853372 333.07745676 342.4375 325.12109375 C342.68757813 324.41017578 342.93765625 323.69925781 343.1953125 322.96679688 C346.76334509 312.31091576 347.61585514 301.6778068 347.5625 290.49609375 C347.55686035 289.23555176 347.5512207 287.97500977 347.54541016 286.67626953 C346.99263647 242.97431056 336.25135062 190.96886258 309.05273438 155.5378418 C301.49490571 145.61886745 301.49490571 145.61886745 302.125 139.61328125 C304.28051807 134.83820997 308.39242053 131.55637138 312.1953125 128.07421875 C316.23804157 124.31342651 318.74916861 120.0052678 321.25 115.12109375 C321.79527344 114.21230469 321.79527344 114.21230469 322.3515625 113.28515625 C324.90178533 108.82713313 326.21810276 104.06814979 327.5 99.12109375 C327.67547363 98.4564209 327.85094727 97.79174805 328.03173828 97.10693359 C331.97865785 80.90903057 325.45043049 64.92021172 317.25 51.12109375 C311.60849468 42.09678637 305.09545858 35.97522156 296.25 30.12109375 C295.44949219 29.56808594 294.64898438 29.01507813 293.82421875 28.4453125 C281.22297615 20.24921017 267.00131748 16.78998318 252.25 15.12109375 C250.90035156 14.96447266 250.90035156 14.96447266 249.5234375 14.8046875 C231.74854067 13.85791464 212.36077584 22.33874063 198.5546875 32.9765625 C194.71539663 36.54905519 191.93698269 40.64522312 189.25 45.12109375 C188.71375 45.99121094 188.1775 46.86132812 187.625 47.7578125 C186.17678554 50.09991406 186.17678554 50.09991406 185.25 52.74609375 C184.13482159 55.39464247 183.58449422 56.4508865 181.25 58.12109375 C178.56921258 58.42764119 176.17709312 58.54621325 173.5 58.49609375 C172.74501221 58.48956787 171.99002441 58.48304199 171.2121582 58.47631836 C164.83849517 58.32759733 158.96410482 57.24980963 152.7421875 55.85546875 C147.592376 54.77251063 142.50002522 54.349046 137.25 54.12109375 C136.31027344 54.07984375 135.37054688 54.03859375 134.40234375 53.99609375 C121.13472478 53.71038459 108.53284852 56.01022103 95.78344727 59.4440918 C90.02993005 60.93294299 84.19389193 62.05482166 78.25 61.12109375 C75.49075221 58.76423626 74.17119657 57.11630864 72.25 54.12109375 C71.47148603 52.93395422 70.69139947 51.74784522 69.91015625 50.5625 C69.2764209 49.59993286 69.2764209 49.59993286 68.62988281 48.61791992 C56.87062985 30.79380391 39.39355712 18.87668346 18.25 14.12109375 C-6.37415938 9.97325196 -28.19788796 16.94632022 -47.75 32.12109375 Z " fill="#430018" transform="translate(279.75,289.87890625)"/>
<path d="M0 0 C0.69480469 0.27328125 1.38960937 0.5465625 2.10546875 0.828125 C7.13904058 2.84522118 11.6326846 5.5265502 16.1875 8.4375 C17.06100098 8.99473755 17.06100098 8.99473755 17.95214844 9.56323242 C28.85125186 16.67990652 35.55191915 25.72329161 41.4375 37.25 C41.77958496 37.91104736 42.12166992 38.57209473 42.47412109 39.25317383 C49.02582206 52.56829739 47.69275116 73.16017308 44.0390625 87.296875 C42.75749142 90.63088697 41.22176747 92.86011941 38.68359375 95.34765625 C36.66167887 97.33204139 35.02140027 99.49193939 33.3125 101.75 C32.22524057 103.17968367 31.12237281 104.59771339 30 106 C29.51917969 106.60328125 29.03835938 107.2065625 28.54296875 107.828125 C27 109 27 109 25.08203125 108.97265625 C22.23272898 107.64155632 20.7339924 105.81841034 18.6875 103.4375 C17.8934375 102.52742188 17.099375 101.61734375 16.28125 100.6796875 C14.9420262 99.10655817 13.60681648 97.52996697 12.28125 95.9453125 C-14.80946257 63.94108834 -55.05920336 43.40820666 -94 30 C-88.42092442 14.98144584 -76.213339 5.99549916 -62.10327148 -0.57006836 C-42.28325472 -9.1892929 -19.61764576 -9.32465795 0 0 Z " fill="#FC72A9" transform="translate(560,312)"/>
<path d="M0 0 C5.98154221 4.81597403 9.94187144 10.16235987 12.01171875 17.59375 C12.81974717 25.25122866 12.8816044 31.44231549 8.01171875 37.59375 C-0.45944308 46.25058113 -12.5567995 46.80706683 -24.06835938 46.97363281 C-25.09380859 46.97202148 -26.11925781 46.97041016 -27.17578125 46.96875 C-28.26439453 46.96713867 -29.35300781 46.96552734 -30.47460938 46.96386719 C-39.06115801 46.83453642 -46.73502453 45.5623757 -54.94384766 43.15820312 C-57.1476962 42.5497367 -59.35772109 42.05437254 -61.59375 41.578125 C-62.74327148 41.3301416 -62.74327148 41.3301416 -63.91601562 41.07714844 C-65.37025504 40.76606438 -66.82591123 40.46149464 -68.28320312 40.16503906 C-73.56841008 38.98452118 -78.00256766 37.12349471 -81.4140625 32.77734375 C-84.41912197 26.85989185 -86.03827494 22.20972965 -84.98828125 15.59375 C-80.93601158 5.76961282 -73.3763125 -0.90368854 -63.85546875 -5.2734375 C-43.04148312 -13.49694681 -18.84456086 -13.32817664 0 0 Z M-44.98828125 3.59375 C-43.90012402 6.58618238 -42.67867639 9.0961736 -41 11.8203125 C-38.56282601 15.98960875 -37.70414144 20.26517838 -36.80078125 24.96875 C-36.18465172 30.19826028 -36.18465172 30.19826028 -33.98828125 34.59375 C-23.70438371 35.27934317 -11.9848824 35.1862318 -2.98828125 29.59375 C-1.56865083 28.3933388 -1.56865083 28.3933388 -1.73828125 24.90625 C-1.83390683 20.02934563 -3.09588341 16.75032873 -6.359375 13.03125 C-12.74477667 6.90616447 -22.48214894 3.43299191 -31.31640625 3.49609375 C-32.51523437 3.50092773 -32.51523437 3.50092773 -33.73828125 3.50585938 C-34.97578125 3.51842773 -34.97578125 3.51842773 -36.23828125 3.53125 C-37.07875 3.53576172 -37.91921875 3.54027344 -38.78515625 3.54492188 C-40.85289526 3.55667039 -42.92059749 3.57460478 -44.98828125 3.59375 Z M-68.48828125 13.984375 C-70.85677052 16.54126682 -71.946024 18.32436001 -72.48828125 21.78125 C-71.91332749 25.01536489 -71.51390482 25.60628672 -68.98828125 27.59375 C-61.85885473 30.45737007 -54.63323561 32.07544801 -46.98828125 32.59375 C-47.38790403 23.80204883 -52.04172072 14.97257524 -57.98828125 8.59375 C-62.5205909 8.59375 -65.22241576 10.95664554 -68.48828125 13.984375 Z " fill="#46011B" transform="translate(522.98828125,622.40625)"/>
<path d="M0 0 C1.44329593 0.8083576 2.85768966 1.669182 4.25 2.5625 C17.18347393 10.40956386 29.04959479 15.36983612 44 18 C43.67773438 19.00546875 43.35546875 20.0109375 43.0234375 21.046875 C40.38524599 30.33891234 41.2545262 39.92722779 45.02734375 48.73046875 C45.92411609 50.82293755 46.47809577 52.79198826 47 55 C33.99643458 55.22992552 21.04524883 55.00001529 8.0625 54.25 C6.79003418 54.18828613 5.51756836 54.12657227 4.20654297 54.06298828 C-3.78264402 53.55190982 -9.62485285 52.59637096 -15.953125 47.39453125 C-21.35064275 40.8102099 -24.81454245 34.22943826 -24.37109375 25.53515625 C-22.88407179 15.37644831 -17.01954583 7.6674994 -9 1.44921875 C-5.61183424 -0.67568693 -3.73076419 -1.33997202 0 0 Z " fill="#FE76AA" transform="translate(239,673)"/>
<path d="M0 0 C3.33714689 3.27251904 6.44828121 6.64980544 9.5 10.1875 C22.10416751 24.03905188 38.27491625 33.19685614 56 39 C56.71414063 39.27714844 57.42828125 39.55429687 58.1640625 39.83984375 C60.36973524 40.58502609 60.36973524 40.58502609 64 40 C67.23974246 37.93597053 70.18119118 35.65373159 73.1640625 33.234375 C82.73851095 25.69087016 95.35311322 25.94553064 107 27 C119.82597292 29.21878183 130.02031177 34.90179416 138.46875 44.80859375 C140.35004766 47.50096107 141 49.71537934 141 53 C133.88096006 53 128.83589543 51.2284465 122.5625 48.125 C111.19569613 42.5210862 100.6224694 38.83630423 87.9375 42.125 C80.52019274 44.65574792 74.74769364 47.89506344 70.9375 54.9375 C68.07235308 61.57988213 68.46880473 66.9755032 70.89453125 73.671875 C72.93818633 77.97582705 75.87252466 81.43979222 79 85 C79.50144531 85.60714844 80.00289063 86.21429687 80.51953125 86.83984375 C89.33754637 96.68476696 102.90049175 101.52623224 115 106 C115 106.33 115 106.66 115 107 C102.53833156 105.6399702 90.04394388 99.1195797 80.61865234 90.93115234 C75.82291122 87.76312684 70.14536448 88.39654678 64.6015625 88.390625 C63.41146576 88.37408875 62.22136902 88.35755249 60.99520874 88.34051514 C57.2050866 88.29204468 53.41536572 88.27066511 49.625 88.25 C47.05076107 88.22183971 44.47654083 88.19191221 41.90234375 88.16015625 C35.60163531 88.08628563 29.30103969 88.03463739 23 88 C23 87.67 23 87.34 23 87 C35.87 87 48.74 87 62 87 C60.02 83.04 58.04 79.08 56 75 C53.89853636 66.59414543 53.52683534 56.64165629 58 49 C57.39414062 48.96261719 56.78828125 48.92523437 56.1640625 48.88671875 C54.90722656 48.78810547 54.90722656 48.78810547 53.625 48.6875 C52.40683594 48.60048828 52.40683594 48.60048828 51.1640625 48.51171875 C42.71133782 47.14467315 35.26596493 43.94106038 27.6875 40.0625 C26.82060547 39.63259766 25.95371094 39.20269531 25.06054688 38.75976562 C20.62156467 36.51816465 16.84301137 34.1877853 13 31 C7.81178121 30.71955574 3.71410203 34.77382902 0 38 C-6.29355554 43.91255554 -9.02340257 50.38410176 -9.4375 59 C-9.1677384 66.89665786 -5.57600636 73.55072106 0 79 C5.77770417 82.99690494 12.15202279 84.0432973 19 85 C19 85.66 19 86.32 19 87 C11.11270239 87.89628382 3.77342447 84.58938805 -2.6640625 80.171875 C-5.2273522 77.78861568 -6.63458027 75.59480411 -8.25 72.5 C-8.75015625 71.5615625 -9.2503125 70.623125 -9.765625 69.65625 C-12.91277965 62.88389189 -12.73472903 56.5719937 -10.4375 49.5625 C-7.00554341 40.8986096 -1.99183378 35.05805446 5.984375 30.2890625 C8.97579749 28.37594346 10.69520838 27.17422927 11.609375 23.65234375 C11.84881087 19.02990117 11.77611604 16.10495235 9.0546875 12.23046875 C7.4741647 10.53559944 5.84488776 8.88451251 4.1640625 7.2890625 C1.93175856 4.92781681 0.98600004 3.06635178 0 0 Z " fill="#CD2967" transform="translate(225,642)"/>
<path d="M0 0 C6.32214777 3.69006992 11.0222634 9.15402325 13.21484375 16.2109375 C15.04833758 25.60541064 13.37820843 34.60490065 8.1171875 42.60546875 C3.438012 48.40547001 -2.3405859 51.9676953 -9.375 54.3125 C-17.38894036 55.12625487 -24.02596302 55.28925034 -30.5390625 50.15625 C-36.0682443 44.60353976 -39.36087012 37.86633632 -39.6875 30 C-39.44039238 21.32216189 -35.89978946 13.91984956 -30.375 7.3125 C-22.03675556 -0.46647195 -11.00647875 -5.11832471 0 0 Z " fill="#440119" transform="translate(387.375,569.6875)"/>
<path d="M0 0 C7.69676195 4.12933239 13.15588976 10.16704467 16.30078125 18.234375 C18.49439781 25.56646324 18.1636563 33.31727783 14.69921875 40.16015625 C11.55212559 44.82805142 7.47262786 48.12432007 2.48828125 50.671875 C-4.68929188 51.93850555 -11.46091693 52.31876994 -17.92578125 48.55859375 C-24.73989733 43.47052029 -30.90650895 34.54602952 -32.69921875 26.234375 C-33.41470987 19.09047133 -33.14515649 13.08819302 -28.69921875 7.234375 C-20.26590922 -1.50999922 -11.76944548 -4.43183382 0 0 Z " fill="#440119" transform="translate(577.69921875,567.765625)"/>
<path d="M0 0 C7.15842804 1.36245801 13.54754417 3.60148819 20.25 6.4375 C21.82164917 7.10120605 21.82164917 7.10120605 23.42504883 7.77832031 C46.02794424 17.48745024 67.41251536 29.7776893 86 46 C87.15997823 46.97961988 88.32154734 47.9573579 89.484375 48.93359375 C98.94008416 56.8992593 107.38074413 64.91690825 114.921875 74.77734375 C117.0328752 77.03516163 117.98303548 77.68063664 121 78 C125.38579957 73.20968493 129.59008792 68.54110713 133 63 C133.33 63.66 133.66 64.32 134 65 C130.70502431 70.63065467 126.97565335 75.08482841 122.1875 79.5 C118.59742152 82.94900494 116.3346917 85.14755894 115.8125 90.1875 C115.874375 91.445625 115.93625 92.70375 116 94 C112.71435951 90.80578603 109.76054735 87.5438206 106.9375 83.9375 C99.53275486 74.79263975 91.0758094 66.48599925 82 59 C81.48630859 58.57251465 80.97261719 58.1450293 80.44335938 57.70458984 C52.76465107 34.75549247 20.40250395 17.05928402 -15.015625 9.60546875 C-15.67046875 9.40566406 -16.3253125 9.20585937 -17 9 C-17.33 8.34 -17.66 7.68 -18 7 C-17.11957031 6.99742187 -16.23914063 6.99484375 -15.33203125 6.9921875 C-8.83025476 7.01710521 -8.83025476 7.01710521 -3.0234375 4.59765625 C-1.51043631 2.80557541 -1.51043631 2.80557541 0 0 Z " fill="#CE2968" transform="translate(466,342)"/>
<path d="M0 0 C0.99 0.495 0.99 0.495 2 1 C-0.70219359 15.28302327 -7.33633248 26.28807024 -17 37 C-18.04800781 38.17175781 -18.04800781 38.17175781 -19.1171875 39.3671875 C-35.28858183 56.48635586 -59.62669479 67.79555928 -83.20458984 68.48706055 C-103.96972244 68.58537679 -103.96972244 68.58537679 -109.8046875 63.39453125 C-110.19914062 62.93433594 -110.59359375 62.47414063 -111 62 C-110.34 60.68 -109.68 59.36 -109 58 C-107.75464478 57.97812622 -107.75464478 57.97812622 -106.48413086 57.95581055 C-71.3571764 57.26618668 -46.32265446 50.58816144 -21.41015625 24.6796875 C-17.76325643 20.79727753 -14.37259763 16.7701667 -11.07421875 12.5859375 C-7.57393238 8.22211532 -3.78090585 4.1205617 0 0 Z " fill="#CF2968" transform="translate(367,401)"/>
<path d="M0 0 C7.93136376 4.98426456 13.13523993 13.46274451 15.6875 22.41015625 C16.10640784 25.88185495 16.10591441 29.32264965 16.0625 32.8125 C16.05798828 33.50537109 16.05347656 34.19824219 16.04882812 34.91210938 C16.03713156 36.60811068 16.01919924 38.30406703 16 40 C16.7113208 39.7827124 17.4226416 39.5654248 18.15551758 39.34155273 C21.37185909 38.36453941 24.5920507 37.40088227 27.8125 36.4375 C28.93205078 36.09525391 30.05160156 35.75300781 31.20507812 35.40039062 C32.27822266 35.08134766 33.35136719 34.76230469 34.45703125 34.43359375 C35.9416687 33.98584595 35.9416687 33.98584595 37.45629883 33.52905273 C40 33 40 33 43 34 C36.20934424 36.93368042 29.52872912 39.02955734 22.3125 40.625 C19.65864605 41.22702286 17.00629193 41.83250848 14.3581543 42.45922852 C12.34607816 42.92063742 10.31844288 43.31330064 8.2890625 43.69140625 C3.6615146 45.53253279 1.23567987 48.56821914 -1.9375 52.3125 C-6.2787668 57.38140835 -10.66237709 62.43684493 -17 65 C-17.99 64.67 -18.98 64.34 -20 64 C-18.948125 63.41605469 -18.948125 63.41605469 -17.875 62.8203125 C-9.28985038 57.75787373 -1.41031016 51.07423484 1.58984375 41.1796875 C3.28361409 32.17850796 2.01231263 25.69033745 -2.19921875 17.59375 C-5.24601041 13.20531256 -8.87892738 10.51620881 -14 9 C-21.07297334 8.3911871 -27.21795 8.95258868 -34 11 C-40.73906856 11.88143446 -45.04681221 11.04574625 -50.6015625 7.09375 C-51.06304687 6.7328125 -51.52453125 6.371875 -52 6 C-51.65234375 4.0703125 -51.65234375 4.0703125 -51 2 C-46.77449382 0.04976638 -42.17954415 -0.57804692 -37.62890625 -1.42578125 C-35.05714054 -1.98751908 -32.67275386 -2.76425354 -30.1875 -3.625 C-19.41832063 -6.89451612 -9.73711632 -5.47013287 0 0 Z " fill="#CE2A68" transform="translate(535,693)"/>
<path d="M0 0 C0.33 0 0.66 0 1 0 C1.02578125 0.80824219 1.0515625 1.61648438 1.078125 2.44921875 C1.3552224 10.58214978 1.3552224 10.58214978 6 17 C5.26652344 17.39960937 4.53304687 17.79921875 3.77734375 18.2109375 C0.86505982 20.08692349 -1.10282644 22.07587635 -3.4375 24.625 C-9.29911947 30.60873654 -15.81855736 34.79682821 -23 39 C-24.04414062 39.61359375 -25.08828125 40.2271875 -26.1640625 40.859375 C-36.61814163 46.77677828 -47.33759339 47.60468067 -59.0546875 44.578125 C-61.72794578 43.7836627 -64.37509958 42.94227195 -67 42 C-67 41.01 -67 40.02 -67 39 C-62.13529121 36.46936866 -57.63203191 34.7890626 -52.1875 34 C-31.88920951 30.96810345 -14.70060349 18.85188105 -2 3 C-1.34 2.01 -0.68 1.02 0 0 Z " fill="#CF2968" transform="translate(606,647)"/>
<path d="M0 0 C12.92556124 -0.5222449 26.51953176 -0.90839801 37 8 C41.55533732 12.73006258 43.38505502 16.59832904 43.27734375 23.1328125 C43 25 43 25 41.375 26.875 C31.60783587 31.50155143 21.61300625 31.14763069 11 31 C9.99349106 27.51934134 9.01127345 24.04366617 8.10546875 20.53515625 C6.23956096 13.47646679 4.15040014 7.99502242 0 2 C0 1.34 0 0.68 0 0 Z " fill="#C92765" transform="translate(478,626)"/>
<path d="M0 0 C0.763125 0.825 1.52625 1.65 2.3125 2.5 C6.17356001 5.80283447 9.92836511 5.40334296 14.8046875 5.17578125 C15.52914063 5.11777344 16.25359375 5.05976563 17 5 C23.12041213 32.69242322 23.12041213 32.69242322 18 44 C16.68 44 15.36 44 14 44 C13.39455784 41.75033674 12.79066353 39.50027436 12.1875 37.25 C12.00372803 36.56768311 11.81995605 35.88536621 11.63061523 35.18237305 C10.53056376 31.07407623 9.52014084 26.95677327 8.5625 22.8125 C7.02988354 16.58098251 4.57693347 10.85975961 2 5 C1.32664848 3.33602285 0.65777261 1.67019682 0 0 Z " fill="#CF2A69" transform="translate(352,346)"/>
<path d="M0 0 C5.88739448 6.42012855 11 15.16009002 11 24 C3.28562294 23.47699139 -6.62559672 22.47542633 -12.84375 17.53515625 C-14 16 -14 16 -14.625 13.3125 C-13.69058681 8.36011012 -10.68581999 5.32622779 -7 2 C-4.30849825 0.37688063 -3.20906539 0 0 0 Z " fill="#F75EB3" transform="translate(465,631)"/>
<path d="M0 0 C1.32 0 2.64 0 4 0 C6.28525318 3.42787977 6.0746355 3.98053243 5.6875 7.875 C5.51592051 18.698806 12.74419191 27.30275877 19.69140625 34.9765625 C22.27792984 37.2436001 24.87464308 38.59201998 28 40 C25 41 25 41 23.08984375 40.27734375 C16.37941097 36.1000689 12.56441656 30.7002092 8.26171875 24.2421875 C4.75514138 18.90214439 4.75514138 18.90214439 -0.796875 16.390625 C-2.25867188 16.32101562 -2.25867188 16.32101562 -3.75 16.25 C-4.73484375 16.19328125 -5.7196875 16.1365625 -6.734375 16.078125 C-7.48203125 16.05234375 -8.2296875 16.0265625 -9 16 C-2.24045802 2.24045802 -2.24045802 2.24045802 0 0 Z " fill="#CE2C69" transform="translate(415,715)"/>
<path d="M0 0 C0.99 0.33 1.98 0.66 3 1 C2.46632812 1.32871094 1.93265625 1.65742188 1.3828125 1.99609375 C-16.88233912 13.65671823 -28.59682228 30.50109665 -33.8125 51.5625 C-35.63113453 60.9231189 -35.75361088 70.49019681 -36 80 C-40.29046368 73.56430448 -38.65027132 62.39328671 -37.41796875 54.921875 C-32.53417022 32.88903049 -21.12538739 13.97590086 -2.39453125 1.2265625 C-1.60433594 0.82179688 -0.81414062 0.41703125 0 0 Z " fill="#C52964" transform="translate(242,315)"/>
<path d="M0 0 C0.33 0 0.66 0 1 0 C2.52186991 11.67219871 3.21375975 23.22569452 3.25 35 C3.26353516 36.80440552 3.26353516 36.80440552 3.27734375 38.64526367 C3.24002085 49.92688783 1.55083522 60.30014987 -2 71 C-2.33 71 -2.66 71 -3 71 C-3.19498157 65.44302514 -2.57419104 61.37076943 -1 56 C0.03626621 49.00635524 0.13580558 42.01666622 0.09765625 34.9609375 C0.0962413 33.95406891 0.09482635 32.94720032 0.09336853 31.90982056 C0.08782431 28.73151527 0.07528259 25.55328356 0.0625 22.375 C0.05747778 20.20442811 0.05291614 18.0338551 0.04882812 15.86328125 C0.03787323 10.57549624 0.02119176 5.28775338 0 0 Z " fill="#CA2F69" transform="translate(624,545)"/>
<path d="M0 0 C1.03125 0.9075 2.0625 1.815 3.125 2.75 C6.27495425 5.45729266 9.49498873 7.77730993 13 10 C12.67 11.65 12.34 13.3 12 15 C6.84374012 15.2062504 4.09792156 14.69930719 -1 13 C-0.67 8.71 -0.34 4.42 0 0 Z " fill="#CF2B69" transform="translate(234,447)"/>
<path d="M0 0 C3.22949937 0.520887 6.22690921 1.38049831 9.3125 2.4375 C12.25199283 3.44337296 15.16741339 4.33351358 18.1875 5.0625 C22 6 22 6 24.6484375 7.0390625 C28.97975488 8.28090874 32.95402772 8.33945474 37.4375 8.3125 C38.3133374 8.31193604 39.1891748 8.31137207 40.09155273 8.31079102 C47.02639151 8.214202 53.40911456 7.21462128 60.12890625 5.55859375 C63 5 63 5 66 6 C46.91400523 14.23317422 27.03893208 11.84966893 8 5 C5.25928337 3.76824191 2.6487434 2.42505493 0 1 C0 0.67 0 0.34 0 0 Z " fill="#C32964" transform="translate(441,756)"/>
<path d="M0 0 C3.47701542 4.24233675 4.38176607 7.53597317 4 13 C-0.25221368 29.17067797 -8.97384287 39.50928531 -22.86328125 47.99609375 C-23.56839844 48.32738281 -24.27351562 48.65867187 -25 49 C-25.66 48.67 -26.32 48.34 -27 48 C-26.21496094 47.50371094 -25.42992187 47.00742187 -24.62109375 46.49609375 C-14.5575075 39.98871957 -7.59259425 33.7696397 -2 23 C-1.61714844 22.26652344 -1.23429688 21.53304687 -0.83984375 20.77734375 C0.38146086 16.73851781 0.21102432 12.87953133 0.125 8.6875 C0.11597656 7.85154297 0.10695313 7.01558594 0.09765625 6.15429688 C0.07420989 4.10274031 0.03834266 2.05133223 0 0 Z " fill="#C92F69" transform="translate(620,670)"/>
<path d="M0 0 C22.69418186 -1.0992876 41.98868839 5.65710549 59 21 C60.73055893 22.62436554 62.37597525 24.26770693 64 26 C63.67 26.66 63.34 27.32 63 28 C62.58492188 27.52691406 62.16984375 27.05382812 61.7421875 26.56640625 C53.04224559 17.22943931 41.84573955 10.60364379 30 6 C29.27425781 5.70480469 28.54851562 5.40960938 27.80078125 5.10546875 C18.9643845 1.97494774 9.27700106 1.75215278 0 1 C0 0.67 0 0.34 0 0 Z " fill="#C52964" transform="translate(279,304)"/>
<path d="M0 0 C-9.74463062 5.4441833 -24.36833728 5.48403335 -35 3 C-35 2.34 -35 1.68 -35 1 C-30.81912796 0.85650316 -26.63821982 0.71412224 -22.45727539 0.57275391 C-21.03636663 0.52455461 -19.615468 0.47605585 -18.19458008 0.42724609 C-16.14667335 0.35695017 -14.09873206 0.28774811 -12.05078125 0.21875 C-10.20480347 0.1559082 -10.20480347 0.1559082 -8.3215332 0.09179688 C-5.54496654 0.01506118 -2.77729118 -0.01843845 0 0 Z " fill="#CD2967" transform="translate(375,747)"/>
<path d="M0 0 C1.91543509 2.87315263 2.47354742 4.39404529 3.125 7.6875 C3.29257812 8.49574219 3.46015625 9.30398438 3.6328125 10.13671875 C4.50814587 16.96245659 3.877616 22.73086757 2.125 29.3125 C1.95097656 30.01439453 1.77695312 30.71628906 1.59765625 31.43945312 C0.74645344 34.74653368 -0.08829888 37.13244832 -2 40 C-1.10967473 32.36864053 -1.10967473 32.36864053 -0.48632812 30.2734375 C0.1483599 27.30646213 0.11144643 24.51821443 0.09765625 21.484375 C0.09443359 20.23398437 0.09121094 18.98359375 0.08789062 17.6953125 C0.07951172 16.39335937 0.07113281 15.09140625 0.0625 13.75 C0.05573242 11.77386719 0.05573242 11.77386719 0.04882812 9.7578125 C0.03704316 6.50516259 0.02059011 3.25260416 0 0 Z " fill="#C8346B" transform="translate(605,360)"/>
<path d="M0 0 C1.03833984 0.04543945 1.03833984 0.04543945 2.09765625 0.09179688 C18.40822401 0.79020722 34.67478815 1.1459814 51 1 C51 1.66 51 2.32 51 3 C36.81 3 22.62 3 8 3 C8 2.34 8 1.68 8 1 C5.36 1 2.72 1 0 1 C0 0.67 0 0.34 0 0 Z " fill="#DB3D78" transform="translate(236,726)"/>
<path d="M0 0 C0 0.33 0 0.66 0 1 C-1.11375 1.09796875 -2.2275 1.1959375 -3.375 1.296875 C-17.21175797 2.61138991 -30.39831023 4.63525848 -42.86328125 11.14453125 C-45 12 -45 12 -48 11 C-32.00057812 2.81638766 -18.01382463 -0.80259615 0 0 Z " fill="#C02660" transform="translate(291,303)"/>
<path d="" fill="#420018" transform="translate(0,0)"/>
</svg>
