<?xml version="1.0" encoding="UTF-8"?>
<svg version="1.1" xmlns="http://www.w3.org/2000/svg" width="820" height="820">
<path d="M0 0 C1.567949 1.32692124 3.13077303 2.65993091 4.6875 4 C5.39648438 4.55300781 6.10546875 5.10601562 6.8359375 5.67578125 C14.45412037 11.79075945 19.19687726 19.95611382 22.6875 29 C23.06519531 29.8353125 23.44289063 30.670625 23.83203125 31.53125 C29.01176213 43.17390793 31.66691296 55.451091 33.6875 68 C35.0075 68 36.3275 68 37.6875 68 C40.82179723 57.61764044 39.92120403 48.72665941 37.34375 38.26171875 C36.70297664 35.07692257 36.56993769 32.23786193 36.6875 29 C65.23761431 20.41412621 93.86606825 19.52022068 122.33984375 29.22583008 C124.61450808 29.97592997 126.89605719 30.64630106 129.203125 31.2890625 C168.53624079 42.3076351 201.70566177 64.05205142 230.92871094 92.30810547 C232.01587248 93.35391745 233.11132607 94.39127601 234.21972656 95.41455078 C263.07092371 122.12234524 274.66558906 171.86872723 281.6875 209 C281.86684082 209.94230469 282.04618164 210.88460937 282.23095703 211.85546875 C282.69640443 214.35880847 283.13747521 216.86450981 283.5625 219.375 C283.74292847 220.3966626 283.74292847 220.3966626 283.92700195 221.43896484 C290.38088823 262.84182008 281.79365375 314.7801611 257.09765625 348.96484375 C248.79711092 359.41788057 238.97033881 367.64594206 226.6875 373 C226.0275 373 225.3675 373 224.6875 373 C226.29704408 386.16760344 228.93929703 398.88762045 232.26196289 411.7331543 C234.0695916 418.85066176 235.29445743 425.66688559 235.6875 433 C235.73696777 433.69246826 235.78643555 434.38493652 235.83740234 435.09838867 C236.51432907 445.53991655 234.81284768 452.09895918 228.890625 460.5703125 C226.36427874 463.35646033 224.07387579 464.6414715 220.6875 466.25 C219.65625 466.75015625 218.625 467.2503125 217.5625 467.765625 C210.84943021 470.64786692 202.74594326 471.77339828 195.71533203 469.30859375 C191.54878999 467.48719924 187.60488383 465.30227056 183.6875 463 C183.66768066 462.16339844 183.64786133 461.32679688 183.62744141 460.46484375 C183.54879893 457.32609654 183.46208997 454.18769914 183.37011719 451.04931641 C183.31353877 449.03694667 183.26605912 447.02432773 183.21875 445.01171875 C183.01761933 438.34088471 182.58019941 432.39601869 180.6875 426 C180.34464887 423.96321034 180.03049923 421.92130868 179.75 419.875 C179.05411803 415.11428364 178.16978995 410.44648298 177.125 405.75 C175.95638627 400.48830201 175.22320977 395.35709769 174.6875 390 C174.3575 389.34 174.0275 388.68 173.6875 388 C172.3675 388 171.0475 388 169.6875 388 C167.42882599 396.5708612 165.83289429 407.43618287 168.6875 416 C170.68650073 425.96582115 170.9743339 436.09602292 171.09591675 446.22988892 C171.11512546 447.6466772 171.14273572 449.06337943 171.17922974 450.47982788 C171.38609985 459.13255588 171.13206464 466.84252846 165.6875 474 C162.86453868 476.39585572 160.02276856 477.87187472 156.57421875 479.23828125 C154.76276306 479.96961429 153.00360689 480.82663844 151.25 481.6875 C142.32741492 484.85080569 132.73162235 484.36136777 124.21069336 480.4375 C113.10754627 474.78130239 107.04210238 468.80596988 100.6875 458 C100.17703125 457.19433594 99.6665625 456.38867188 99.140625 455.55859375 C90.85277898 440.96574659 89.44261445 423.67926396 88.33325195 407.3034668 C88.26195068 406.25843994 88.19064941 405.21341309 88.1171875 404.13671875 C88.05772949 403.19530029 87.99827148 402.25388184 87.93701172 401.28393555 C87.81827442 398.9720209 87.81827442 398.9720209 86.6875 397 C84.66286745 396.34786708 84.66286745 396.34786708 82.6875 396 C82.13215585 400.05219848 81.58101747 404.10494667 81.03344727 408.15820312 C80.84737338 409.53139958 80.66023351 410.9044521 80.47192383 412.27734375 C79.55817902 418.94402584 78.67701421 425.58963998 78.19140625 432.3046875 C76.93161085 448.61471035 72.88406634 466.52027819 61.6875 479 C52.23514506 486.19200919 43.64340143 490.21726751 31.6875 489 C23.95514461 487.52662652 16.65121864 484.8445025 11.7421875 478.4765625 C9.92204144 475.69684152 8.24239304 472.9365828 6.6875 470 C6.13320313 468.96101563 5.57890625 467.92203125 5.0078125 466.8515625 C2.98470784 461.9750886 3.29030371 456.94696432 3.375 451.75 C3.37177734 450.77675781 3.36855469 449.80351563 3.36523438 448.80078125 C3.40800183 442.94552764 4.03950917 437.49466728 5.1862793 431.75927734 C6.04747645 427.01828845 6.3792735 422.23760223 6.75 417.4375 C6.90692389 415.49864697 7.06447094 413.55984427 7.22265625 411.62109375 C7.29774414 410.68410645 7.37283203 409.74711914 7.45019531 408.78173828 C7.681927 406.065328 7.95394067 403.35588568 8.23828125 400.64453125 C8.97730187 393.39752376 9.23566918 386.16028245 7.6875 379 C6.6975 379 5.7075 379 4.6875 379 C-0.26688177 399.63212063 -0.26688177 399.63212063 -3.77734375 420.546875 C-4.2905933 423.8586458 -5.04769395 427.00472218 -5.875 430.25 C-8.38146676 441.26326302 -8.08293394 452.75506814 -8.3125 464 C-9.9154053 464.81498562 -11.51987278 465.62689927 -13.125 466.4375 C-14.01832031 466.88996094 -14.91164063 467.34242188 -15.83203125 467.80859375 C-22.68468085 471.10002387 -28.830084 470.74037764 -35.9375 468.3125 C-43.42137206 465.28132277 -47.6795477 462.93176174 -51.1875 455.4375 C-56.09043617 443.73214577 -54.89166034 432.33515091 -52.51611328 420.13208008 C-47.08595464 394.61132862 -47.08595464 394.61132862 -49.3125 369 C-53.41911681 363.42011535 -59.64434725 361.24991954 -65.96191406 358.95947266 C-71.22374571 356.81167474 -75.11399839 352.73601606 -79.3125 349 C-79.98925781 348.48824219 -80.66601562 347.97648437 -81.36328125 347.44921875 C-103.97190173 329.91507822 -114.41711761 293.61145874 -117.99267578 266.72998047 C-122.99524578 224.028654 -114.64489174 177.95714211 -99.3125 138 C-95.0225 138.33 -90.7325 138.66 -86.3125 139 C-86.3125 137.68 -86.3125 136.36 -86.3125 135 C-88.06866988 133.66531089 -89.83554291 132.34361265 -91.63671875 131.0703125 C-102.36689254 122.76813424 -110.67919681 112.76419156 -117.3125 101 C-117.81265625 100.11570312 -118.3128125 99.23140625 -118.828125 98.3203125 C-124.42679405 87.76378591 -127.01175558 77.75838742 -126.8125 65.8125 C-126.79896484 64.63067139 -126.78542969 63.44884277 -126.77148438 62.23120117 C-126.24883174 39.98351959 -118.43753472 20.8054295 -102.9765625 4.54296875 C-74.35263092 -22.64513454 -30.9977462 -24.49439057 0 0 Z M34.6875 79 C29.67646361 83.72100856 25.32855386 88.81464344 21.0078125 94.16796875 C17.38580966 98.58876346 13.57496227 102.81245292 9.6875 107 C9.01460938 107.75023437 8.34171875 108.50046875 7.6484375 109.2734375 C-10.06554708 128.18162329 -32.86122998 135.77521951 -58.1557312 136.62335205 C-63.54047966 136.78828817 -68.92606468 136.90539109 -74.3125 137 C-74.9725 138.32 -75.6325 139.64 -76.3125 141 C-71.98524373 146.04846565 -65.33862744 146.63491679 -59.00244141 147.20947266 C-34.66016616 148.71740121 -11.04691003 141.07643095 7.83203125 125.5234375 C21.90867657 113.08361141 33.28029577 98.8944962 36.6875 80 C35.6975 79.505 35.6975 79.505 34.6875 79 Z M215.1640625 258.80859375 C209.78300474 266.79476677 209.74565923 275.80739694 211.15625 285.08203125 C213.6811681 296.78983603 219.25448836 304.75411141 228.6875 312 C229.51701172 312.68449219 229.51701172 312.68449219 230.36328125 313.3828125 C235.7973912 317.23927762 242.31327589 316.65144076 248.6875 316 C255.14396344 314.0869738 259.26427271 308.79695826 262.796875 303.26171875 C266.48670824 295.41212067 265.73899217 283.81275625 263.5625 275.625 C259.86577339 265.42477286 253.80494352 256.90631784 244.16796875 251.6171875 C232.51763433 246.49891462 223.14126588 248.91904709 215.1640625 258.80859375 Z M22.6875 263 C15.22612278 274.53964552 12.43543423 287.49940419 15.3359375 301.0234375 C17.67729076 307.52719657 21.67962301 312.44797576 27.515625 316.1640625 C32.8080455 318.20107327 39.53080012 317.80677235 44.96484375 316.41796875 C55.62525888 311.6436724 62.59199939 302.65402957 66.6875 292 C69.96625713 282.45022195 69.95377032 271.9225189 66.15625 262.55078125 C62.68076055 256.51489132 57.27749755 252.1791206 50.6875 250 C39.18273849 248.83002425 29.98722032 254.33310798 22.6875 263 Z M148.125 317.875 C136.77245439 323.63599329 127.21402504 327.1427639 114.375 323.875 C110.91335659 322.74120224 108.84680727 321.47978182 106.375 318.8125 C104.00594543 315.80196589 104.00594543 315.80196589 101 315.4375 C98.24360021 316.10797563 97.24433831 316.62377311 95.6875 319 C95.37470667 321.90657182 95.42197596 323.52785957 96.8671875 326.09765625 C100.22900306 329.993954 102.8156028 332.31011938 107.75 333.9375 C112.87859555 335.69079998 114.46280137 338.05779618 117.14453125 342.625 C122.23068381 350.45381204 130.93379865 356.12397185 139.8671875 358.60546875 C158.3201579 361.18683996 175.17007316 358.19047492 190.34765625 347.046875 C195.20113404 343.36719249 195.20113404 343.36719249 199.24609375 338.87109375 C200.84726216 336.79261226 201.98738622 336.14203629 204.375 335.125 C207.49408961 333.64936391 210.3507964 332.03257301 213.1875 330.0625 C213.8578125 329.59972656 214.528125 329.13695312 215.21875 328.66015625 C216.91669028 327.04054511 216.91669028 327.04054511 217.09375 324.43359375 C216.89265625 323.22896484 216.89265625 323.22896484 216.6875 322 C213.87041805 319.68462405 213.87041805 319.68462405 210.6875 320.1875 C207.4906261 321.05332001 206.88148183 321.71460226 204.6875 324 C199.0191254 326.5642647 193.1376558 327.23259155 187.23828125 325.125 C181.69651473 322.4802637 176.74749937 319.09406053 171.81640625 315.453125 C163.64160729 309.87326222 155.88949863 313.85142684 148.125 317.875 Z " fill="#FD6AB2" transform="translate(332.3125,157)"/>
<path d="M0 0 C26.34972901 -0.59567207 50.15978833 8.75325401 69.375 26.80859375 C72.82656332 30.40548605 75.7670513 34.34133135 78.6875 38.37109375 C79.12529785 38.97397217 79.5630957 39.57685059 80.01416016 40.19799805 C82.04518578 43.08514565 83.76713816 45.57425403 84.25 49.12109375 C85.26578125 48.78335938 86.2815625 48.445625 87.328125 48.09765625 C95.58026457 45.40299786 103.59835937 43.1451655 112.25 42.12109375 C113.14589844 41.99863281 114.04179687 41.87617188 114.96484375 41.75 C134.78310644 39.59526271 154.84668416 42.10824933 174.25 46.12109375 C174.55550781 45.3940625 174.86101562 44.66703125 175.17578125 43.91796875 C183.53945192 25.54145291 198.88297855 14.51102661 217.25 7.12109375 C242.43752173 -1.29529968 269.5322582 2.08281436 293.25 13.12109375 C301.3054638 17.23596408 308.45705559 22.15765081 315.25 28.12109375 C316.39082031 29.11882812 316.39082031 29.11882812 317.5546875 30.13671875 C332.93414615 44.50507112 341.26799247 64.50054135 342.2421875 85.33984375 C342.28282528 105.00852685 334.88609761 122.62854215 322.12109375 137.3671875 C319.7045183 139.63241167 317.03697747 141.34258779 314.25 143.12109375 C314.74628906 144.01828125 315.24257813 144.91546875 315.75390625 145.83984375 C331.87287621 175.30002911 341.41286077 207.14008024 347.25 240.12109375 C347.44335938 241.19157959 347.44335938 241.19157959 347.640625 242.28369141 C355.5036603 287.53124725 351.25845754 343.52711132 324.75 382.18359375 C315.50473598 394.83754642 305.31598786 405.0015399 291.25 412.12109375 C290.59 412.12109375 289.93 412.12109375 289.25 412.12109375 C289.54132813 413.00925781 289.83265625 413.89742187 290.1328125 414.8125 C292.83569775 423.1847429 295.25720199 431.61390532 297.5 440.12109375 C297.75797363 441.08732666 298.01594727 442.05355957 298.28173828 443.04907227 C300.7694936 452.61526115 301.47427392 461.63829923 301.5625 471.49609375 C301.59150391 472.56859375 301.62050781 473.64109375 301.65039062 474.74609375 C301.74433999 486.62707526 297.67407621 495.44878433 289.6875 504.18359375 C281.11427984 512.54888133 269.30889361 515.52288366 257.625 515.55859375 C256.74924316 515.56246094 255.87348633 515.56632813 254.97119141 515.5703125 C247.13666993 515.4321832 241.34365359 513.4425369 234.25 510.12109375 C233.59 510.12109375 232.93 510.12109375 232.25 510.12109375 C231.54875 511.17296875 230.8475 512.22484375 230.125 513.30859375 C223.7492035 522.41425715 212.09824631 525.13719683 201.79296875 527.7421875 C186.43591528 530.03041206 171.92467546 527.35961531 159.25 518.12109375 C150.58257786 511.32030017 144.83013361 503.51570675 139.25 494.12109375 C138.97027344 494.94351562 138.69054687 495.7659375 138.40234375 496.61328125 C132.95955869 511.76907501 123.95303399 523.91846824 109.25 531.12109375 C97.18212937 535.04661948 85.13601514 535.73828216 73.25 531.12109375 C72.33089844 530.76917969 71.41179687 530.41726563 70.46484375 530.0546875 C60.11457509 525.74088915 53.96755985 519.67201759 48.25 510.12109375 C47.63511719 510.32605469 47.02023437 510.53101563 46.38671875 510.7421875 C33.43347603 515.05993507 19.29783107 516.3090206 6.25 511.12109375 C-3.34021328 506.214473 -9.12623809 499.17471013 -12.75 489.12109375 C-17.64976471 472.66753504 -13.48058497 451.90089189 -10.61010742 435.29589844 C-8.98211069 425.86788722 -7.9085279 416.69041452 -7.75 407.12109375 C-8.925625 406.81171875 -10.10125 406.50234375 -11.3125 406.18359375 C-33.49181899 398.63984419 -50.6116277 379.79809564 -61 359.37109375 C-89.58939748 300.18678466 -81.22797391 228.48270914 -60.52758789 168.14575195 C-59.94182252 166.46848834 -59.34712208 164.79434792 -58.75 163.12109375 C-59.86955078 162.00154297 -59.86955078 162.00154297 -61.01171875 160.859375 C-62.36716797 159.50392578 -62.36716797 159.50392578 -63.75 158.12109375 C-64.39582031 157.49589844 -65.04164063 156.87070312 -65.70703125 156.2265625 C-83.53658135 137.79643809 -88.26770406 110.85351923 -88.03125 86.3828125 C-87.81805115 78.07125533 -86.59385722 70.93938527 -83.75 63.12109375 C-83.36457031 62.05375 -82.97914063 60.98640625 -82.58203125 59.88671875 C-72.85786933 35.08853235 -55.39153818 17.06280563 -31.109375 6.40234375 C-20.9561366 2.52994585 -10.82893885 0.47684248 0 0 Z M-47.75 32.12109375 C-48.66265625 32.77078125 -48.66265625 32.77078125 -49.59375 33.43359375 C-63.48550935 44.04184634 -72.59144992 65.13909118 -75.47314453 82.02050781 C-76.87840308 92.68262823 -76.35389464 102.95903891 -72.75 113.12109375 C-72.45996094 114.08144531 -72.16992188 115.04179687 -71.87109375 116.03125 C-67.65491709 129.70295256 -61.01269459 143.3488212 -49.6875 152.49609375 C-46.6808784 155.48154195 -46.10619085 157.85071276 -45.8125 162.05859375 C-46.20357383 170.07560725 -48.88975848 177.23730535 -51.54443359 184.75634766 C-54.84391035 194.12732535 -57.20095861 203.49182523 -59.16015625 213.22363281 C-59.77538798 216.24580592 -60.43487671 219.25659781 -61.09375 222.26953125 C-70.92255051 269.02618569 -69.64113751 321.36656769 -42.890625 362.60546875 C-37.65330793 370.41650506 -32.37279693 377.48579872 -24.75 383.12109375 C-23.70199219 383.91644531 -22.65398437 384.71179688 -21.57421875 385.53125 C-13.65978932 391.42129165 -5.39172206 396.37506448 3.25 401.12109375 C3.76702861 417.26352251 3.81157075 432.70830314 0.75 448.62109375 C-2.16694545 463.83909852 -4.37861754 476.77505466 3.25 491.12109375 C7.49421267 496.94172826 15.19568172 500.73010141 22.25 502.12109375 C27.89644734 502.9179714 31.95487814 501.99800692 37.125 499.62109375 C42.86589456 497.07283953 48.01126284 495.55632906 54.25 497.12109375 C57.73325475 499.53021708 59.59345685 503.02971966 61.7421875 506.6015625 C66.66948633 514.39329581 72.78091553 518.52611274 81.80078125 520.75 C93.37949713 522.50435089 102.58542471 519.68812525 112.125 512.93359375 C119.28253414 506.95388168 123.61256441 497.96426014 126.25 489.12109375 C126.25 487.80109375 126.25 486.48109375 126.25 485.12109375 C126.848125 484.85296875 127.44625 484.58484375 128.0625 484.30859375 C130.27634946 483.28108975 130.27634946 483.28108975 131.52734375 481.58984375 C134.67153033 478.90908603 138.28158145 479.41368577 142.2421875 479.5234375 C146.56708783 480.38280081 148.19430365 482.22286509 150.73828125 485.703125 C152.81324925 489.02200146 154.83300605 492.36783132 156.81640625 495.7421875 C162.57033049 505.29025253 172.60290471 511.8061239 183.25 515.12109375 C185.86577627 515.36272292 188.32428937 515.50226863 190.9375 515.49609375 C191.64648438 515.49448242 192.35546875 515.49287109 193.0859375 515.49121094 C199.15897843 515.35017037 203.85052604 513.91325416 209.25 511.12109375 C210.30767578 510.70537109 210.30767578 510.70537109 211.38671875 510.28125 C216.71744737 508.07788217 219.48034672 504.79860835 222.8046875 500.14453125 C225.59992059 496.23120492 225.59992059 496.23120492 228.6484375 495.71484375 C234.76216013 495.52228556 238.81858372 496.08990799 244.1875 499.12109375 C251.55467944 503.17977485 258.15682471 503.36638499 266.26953125 501.3828125 C276.84626858 497.8668793 282.22032298 493.07917912 287.25 483.12109375 C292.2025008 468.26359135 286.32054856 448.83358182 282.50683594 434.30102539 C280.02028541 424.6606598 278.49447861 414.98959083 277.25 405.12109375 C278.58804688 404.70537109 278.58804688 404.70537109 279.953125 404.28125 C289.18698935 401.03189252 296.35495277 394.90254877 303.25 388.12109375 C304.28447266 387.10595703 304.28447266 387.10595703 305.33984375 386.0703125 C321.49587772 369.08248272 328.85911533 345.62384221 333.25 323.12109375 C333.4267627 322.24759277 333.60352539 321.3740918 333.78564453 320.47412109 C335.34879527 312.07888611 335.83814772 303.68948815 336.25537109 295.17675781 C336.37447935 292.75667251 336.50475957 290.33738388 336.63671875 287.91796875 C337.39580918 273.60168051 337.63130183 259.9334854 335.125 245.74609375 C335.01329468 245.10079712 334.90158936 244.45550049 334.78649902 243.79064941 C329.28758381 212.1258202 320.3957436 179.10342556 303.421875 151.5 C300.96070162 147.07818067 299.85105757 143.10118913 301.25 138.12109375 C303.09166148 135.48962883 305.36158925 133.65751771 307.875 131.68359375 C313.72989157 126.69092016 317.83768107 122.10416071 321.25 115.12109375 C321.6109375 114.51652344 321.971875 113.91195312 322.34375 113.2890625 C324.90575943 108.83465974 326.21762325 104.07000029 327.5 99.12109375 C327.67547363 98.4564209 327.85094727 97.79174805 328.03173828 97.10693359 C331.97865785 80.90903057 325.45043049 64.92021172 317.25 51.12109375 C311.60849468 42.09678637 305.09545858 35.97522156 296.25 30.12109375 C295.44949219 29.56808594 294.64898438 29.01507813 293.82421875 28.4453125 C281.22297615 20.24921017 267.00131748 16.78998318 252.25 15.12109375 C250.90035156 14.96447266 250.90035156 14.96447266 249.5234375 14.8046875 C231.74854067 13.85791464 212.36077584 22.33874063 198.5546875 32.9765625 C194.71539663 36.54905519 191.93698269 40.64522312 189.25 45.12109375 C188.71375 45.99121094 188.1775 46.86132812 187.625 47.7578125 C186.17678554 50.09991406 186.17678554 50.09991406 185.25 52.74609375 C184.13482159 55.39464247 183.58449422 56.4508865 181.25 58.12109375 C178.56921258 58.42764119 176.17709312 58.54621325 173.5 58.49609375 C172.74501221 58.48956787 171.99002441 58.48304199 171.2121582 58.47631836 C164.83849517 58.32759733 158.96410482 57.24980963 152.7421875 55.85546875 C147.592376 54.77251063 142.50002522 54.349046 137.25 54.12109375 C136.31027344 54.07984375 135.37054688 54.03859375 134.40234375 53.99609375 C121.13472478 53.71038459 108.53284852 56.01022103 95.78344727 59.4440918 C90.02993005 60.93294299 84.19389193 62.05482166 78.25 61.12109375 C75.49075221 58.76423626 74.17119657 57.11630864 72.25 54.12109375 C71.47148603 52.93395422 70.69139947 51.74784522 69.91015625 50.5625 C69.2764209 49.59993286 69.2764209 49.59993286 68.62988281 48.61791992 C56.52619463 30.27172539 39.48578454 19.91267135 18.25 14.12109375 C-6.28405215 9.8183738 -28.29861673 17.02449778 -47.75 32.12109375 Z " fill="#430019" transform="translate(279.75,124.87890625)"/>
<path d="M0 0 C0.69480469 0.27328125 1.38960937 0.5465625 2.10546875 0.828125 C7.13904058 2.84522118 11.6326846 5.5265502 16.1875 8.4375 C17.06100098 8.99473755 17.06100098 8.99473755 17.95214844 9.56323242 C28.85125186 16.67990652 35.55191915 25.72329161 41.4375 37.25 C41.77958496 37.91104736 42.12166992 38.57209473 42.47412109 39.25317383 C49.00389956 52.52374395 47.70642505 73.01022945 44.03515625 87.09765625 C41.14829531 95.19176069 35.7675634 103.60159683 29 109 C26.55859375 109.5546875 26.55859375 109.5546875 24 109 C21.5703125 106.875 21.5703125 106.875 19.125 104 C18.68720215 103.49597656 18.2494043 102.99195313 17.79833984 102.47265625 C15.9125061 100.29525585 14.06915634 98.0825023 12.21875 95.875 C-14.93626333 63.92792549 -55.0448915 43.41313456 -94 30 C-88.42092442 14.98144584 -76.213339 5.99549916 -62.10327148 -0.57006836 C-42.28325472 -9.1892929 -19.61764576 -9.32465795 0 0 Z " fill="#FC71A9" transform="translate(560,147)"/>
<path d="M0 0 C6.47647183 4.598295 10.5801447 10.55702029 11.953125 18.38671875 C13.16469114 30.69008758 10.58783691 42.52798206 2.953125 52.38671875 C-3.96232592 59.78881251 -10.40275761 64.51414306 -20.671875 64.88671875 C-27.92367712 64.62742709 -31.3694341 62.29686237 -36.234375 57.13671875 C-42.97800886 48.69390155 -42.78932005 39.69845554 -42.046875 29.38671875 C-40.34460845 18.83266615 -34.633818 9.85785294 -26.47265625 3.08203125 C-18.22371252 -2.68293103 -9.15380007 -5.13549807 0 0 Z " fill="#430019" transform="translate(389.046875,409.61328125)"/>
<path d="M0 0 C9.63697477 5.28913034 15.69780464 13.80758536 19.39453125 24.0078125 C21.84267884 33.30197761 22.0295187 44.48437257 17.85546875 53.26171875 C14.47831062 58.62369788 10.61519703 62.44043442 4.51953125 64.3828125 C-3.95257896 65.65250541 -10.02559501 64.53698123 -16.97265625 59.50390625 C-27.26455105 50.79907934 -32.52517535 40.93446237 -33.73828125 27.53515625 C-34.05373422 19.38595443 -32.84086811 11.93266015 -27.90234375 5.24609375 C-19.86747001 -3.38596655 -10.49512274 -4.61076053 0 0 Z " fill="#430019" transform="translate(576.48046875,408.6171875)"/>
<path d="M0 0 C0.55945313 0.30808594 1.11890625 0.61617188 1.6953125 0.93359375 C2.34886719 1.29324219 3.00242187 1.65289062 3.67578125 2.0234375 C7.03118419 4.13202404 10.24077327 6.42855907 13.42578125 8.78515625 C18.78673396 12.33580356 23.51910313 13.08443821 29.8203125 12.37109375 C33.2827353 11.38183009 36.14853406 9.92432305 38.9453125 7.62109375 C40.8203125 6.37109375 40.8203125 6.37109375 43.4453125 6.62109375 C45.8203125 7.37109375 45.8203125 7.37109375 47.8203125 8.37109375 C48.1328125 10.62109375 48.1328125 10.62109375 47.8203125 13.37109375 C43.44313549 17.74827076 37.49310632 20.91320621 32.0703125 23.87109375 C29.70070527 25.27055434 29.70070527 25.27055434 28.1328125 27.62109375 C19.87499529 37.44120071 4.88742594 44.27102635 -7.80712891 45.65820312 C-10.45876465 45.77059817 -13.08857953 45.78118923 -15.7421875 45.74609375 C-17.06379883 45.76349609 -17.06379883 45.76349609 -18.41210938 45.78125 C-29.5707442 45.73183907 -39.66808753 41.68945165 -47.7421875 33.8984375 C-53.74639558 27.36501236 -53.74639558 27.36501236 -55.13671875 24.17578125 C-56.60253853 21.63941893 -58.10432057 21.45037693 -60.8671875 20.62109375 C-66.37989289 18.59683473 -70.27204233 15.54131049 -73.1796875 10.37109375 C-73.45825862 7.47395413 -73.59849673 6.01032889 -71.9921875 3.55859375 C-69.53276604 1.94724866 -68.08300321 2.0557038 -65.1796875 2.37109375 C-63.22265625 3.83203125 -63.22265625 3.83203125 -61.3671875 5.74609375 C-55.32678935 11.32444652 -49.13694903 11.87466811 -41.08203125 11.67578125 C-31.95713481 10.71785134 -23.84961491 6.45311891 -15.9621582 2.01367188 C-10.60653834 -0.86369048 -6.02499003 -1.73839318 0 0 Z M-17.1796875 14.37109375 C-16.2928125 15.27859375 -15.4059375 16.18609375 -14.4921875 17.12109375 C-10.35037406 21.89254154 -8.3547855 27.50987835 -6.1796875 33.37109375 C2.79535291 31.48255819 9.95415558 27.93571581 17.8203125 23.37109375 C15.34974742 21.72405036 13.40570522 20.7570647 10.6953125 19.68359375 C7.00093878 18.10372336 4.20992167 16.19836793 1.1328125 13.62109375 C-1.53421093 11.47547802 -2.86374001 10.44202074 -6.2421875 9.68359375 C-10.24434717 10.62026942 -13.62048637 12.34758854 -17.1796875 14.37109375 Z M-35.8671875 21.87109375 C-36.67542969 22.14953125 -37.48367188 22.42796875 -38.31640625 22.71484375 C-38.93128906 22.93140625 -39.54617188 23.14796875 -40.1796875 23.37109375 C-34.92962639 29.49616504 -28.12108071 33.28025949 -20.0546875 34.18359375 C-18.7759375 34.24546875 -17.4971875 34.30734375 -16.1796875 34.37109375 C-18.45632355 27.73090528 -22.11034285 23.85773855 -28.1796875 20.37109375 C-31.19459307 20.37109375 -33.04832864 20.8906211 -35.8671875 21.87109375 Z " fill="#45011A" transform="translate(501.1796875,470.62890625)"/>
<path d="M0 0 C7.15842804 1.36245801 13.54754417 3.60148819 20.25 6.4375 C21.82164917 7.10120605 21.82164917 7.10120605 23.42504883 7.77832031 C46.02794424 17.48745024 67.41251536 29.7776893 86 46 C87.15997823 46.97961988 88.32154734 47.9573579 89.484375 48.93359375 C98.88446187 56.85240204 107.31128315 64.87715783 114.921875 74.58203125 C116.81323899 76.78269725 118.60886848 78.37898516 121 80 C120.030625 80.845625 119.06125 81.69125 118.0625 82.5625 C114.79874424 85.78017921 114.18476029 88.38099287 114 93 C112.0005038 90.50398461 110.00461521 88.00586726 108.02734375 85.4921875 C100.25193678 75.75476195 91.60480131 66.94769153 82 59 C81.4848584 58.57106445 80.9697168 58.14212891 80.43896484 57.70019531 C52.76140536 34.75337782 20.40004511 17.05876656 -15.015625 9.60546875 C-15.67046875 9.40566406 -16.3253125 9.20585937 -17 9 C-17.33 8.34 -17.66 7.68 -18 7 C-17.11957031 6.99742187 -16.23914063 6.99484375 -15.33203125 6.9921875 C-8.83025476 7.01710521 -8.83025476 7.01710521 -3.0234375 4.59765625 C-1.51043631 2.80557541 -1.51043631 2.80557541 0 0 Z " fill="#CE2968" transform="translate(466,177)"/>
<path d="M0 0 C0.99 0.495 0.99 0.495 2 1 C-0.70219359 15.28302327 -7.33633248 26.28807024 -17 37 C-18.04800781 38.17175781 -18.04800781 38.17175781 -19.1171875 39.3671875 C-35.28858183 56.48635586 -59.62669479 67.79555928 -83.20458984 68.48706055 C-103.96972244 68.58537679 -103.96972244 68.58537679 -109.8046875 63.39453125 C-110.19914062 62.93433594 -110.59359375 62.47414063 -111 62 C-110.34 60.68 -109.68 59.36 -109 58 C-107.75464478 57.97812622 -107.75464478 57.97812622 -106.48413086 57.95581055 C-71.3571764 57.26618668 -46.32265446 50.58816144 -21.41015625 24.6796875 C-17.76325643 20.79727753 -14.37259763 16.7701667 -11.07421875 12.5859375 C-7.57393238 8.22211532 -3.78090585 4.1205617 0 0 Z " fill="#CF2968" transform="translate(367,236)"/>
<path d="M0 0 C1.32 0.33 2.64 0.66 4 1 C6.02515383 10.36633647 4.91029362 19.68652888 3.78198242 29.0871582 C3.06110487 35.14974474 2.62914905 41.17693897 2.34375 47.27734375 C2.06011205 50.3490138 1.58918615 53.18796355 0.984375 56.203125 C-0.13010478 62.10613273 -0.29741543 67.81839879 -0.25 73.8125 C-0.25773437 74.80958984 -0.26546875 75.80667969 -0.2734375 76.83398438 C-0.25982445 81.94908723 -0.04646678 86.21678995 2 91 C1.071875 90.0409375 1.071875 90.0409375 0.125 89.0625 C-3.11889674 86.92152815 -4.444384 86.66079961 -8.1953125 86.37109375 C-9.09523926 86.29689209 -9.99516602 86.22269043 -10.92236328 86.14624023 C-11.6079834 86.09798096 -12.29360352 86.04972168 -13 86 C-13.41633386 72.21934933 -13.52018605 59.2452654 -10.00390625 45.859375 C-9.13795177 42.530336 -8.52602471 39.33968134 -8.0625 35.9375 C-7.10247979 29.22600739 -5.80914275 22.58794516 -4.5 15.9375 C-4.28609619 14.82947021 -4.07219238 13.72144043 -3.85180664 12.57983398 C-3.64289795 11.53126221 -3.43398926 10.48269043 -3.21875 9.40234375 C-3.03248047 8.45866943 -2.84621094 7.51499512 -2.65429688 6.54272461 C-2.03263947 4.12684333 -1.20782938 2.17339066 0 0 Z " fill="#CF2968" transform="translate(337,535)"/>
<path d="M0 0 C2.5 0.3125 2.5 0.3125 5 1 C6.062077 3.12415399 6.34019249 4.72840324 6.68359375 7.0703125 C6.80669922 7.885 6.92980469 8.6996875 7.05664062 9.5390625 C7.30708534 11.23951789 7.55709782 12.94003702 7.80664062 14.640625 C8.39694026 18.54333139 9.04278079 22.37194484 10.03125 26.1953125 C10.9280734 29.71751407 11.55073516 33.15474449 12.0625 36.75 C12.59749008 40.79833743 12.59749008 40.79833743 13.52294922 44.76367188 C14.16716649 47.78364638 14.11119564 50.64739343 14.09765625 53.734375 C14.09443359 55.02988281 14.09121094 56.32539062 14.08789062 57.66015625 C14.07953598 59.02343817 14.07107104 60.38671942 14.0625 61.75 C14.05748168 63.12890465 14.05291935 64.50781104 14.04882812 65.88671875 C14.03704093 69.25785659 14.02058635 72.62890628 14 76 C13.31437988 76.04825928 12.62875977 76.09651855 11.92236328 76.14624023 C10.57247314 76.25754272 10.57247314 76.25754272 9.1953125 76.37109375 C8.30344238 76.43997803 7.41157227 76.5088623 6.49267578 76.57983398 C3.15827562 77.14188126 1.32245899 78.60012571 -1 81 C-0.83846436 80.48083008 -0.67692871 79.96166016 -0.51049805 79.42675781 C0.14589419 76.30646187 0.14834631 73.36125994 0.16796875 70.171875 C0.17206757 69.50969467 0.17616638 68.84751434 0.1803894 68.16526794 C0.18992954 66.02679228 0.18992212 63.88849381 0.1875 61.75 C0.18789276 61.02712799 0.18828552 60.30425598 0.18869019 59.55947876 C0.37227616 42.55345103 0.37227616 42.55345103 -3 26 C-3.43767965 17.60265789 -3.47024447 9.11394169 -1 1 C-0.67 0.67 -0.34 0.34 0 0 Z " fill="#CF2A69" transform="translate(502,544)"/>
<path d="M0 0 C2.4375 0.375 2.4375 0.375 5 1 C6.23747571 3.47495143 6.25504918 5.37161197 6.4296875 8.13671875 C6.50106934 9.18206787 6.57245117 10.22741699 6.64599609 11.30444336 C6.72156738 12.42085205 6.79713867 13.53726074 6.875 14.6875 C7.8149954 27.28612404 8.88900462 39.45918375 14.328125 51.046875 C15 53 15 53 14 56 C13.46117187 55.35160156 12.92234375 54.70320312 12.3671875 54.03515625 C8.71581106 50.89593658 5.57288262 51.39678936 0.9296875 51.52734375 C-3.38641575 52.22367507 -5.11684084 53.79648982 -8 57 C-7.85879286 55.06215735 -7.71187127 53.12473045 -7.5625 51.1875 C-7.48128906 50.10855469 -7.40007812 49.02960937 -7.31640625 47.91796875 C-7 45 -7 45 -6 42 C-5.73977882 40.17489434 -5.51693166 38.34434399 -5.31640625 36.51171875 C-5.13343994 34.87203125 -5.13343994 34.87203125 -4.94677734 33.19921875 C-4.81996582 32.04035156 -4.6931543 30.88148438 -4.5625 29.6875 C-1.57762097 3.15524194 -1.57762097 3.15524194 0 0 Z " fill="#CE2968" transform="translate(415,553)"/>
<path d="M0 0 C0.763125 0.825 1.52625 1.65 2.3125 2.5 C6.17356001 5.80283447 9.92836511 5.40334296 14.8046875 5.17578125 C15.52914063 5.11777344 16.25359375 5.05976563 17 5 C23.12041213 32.69242322 23.12041213 32.69242322 18 44 C16.68 44 15.36 44 14 44 C13.39455784 41.75033674 12.79066353 39.50027436 12.1875 37.25 C12.00372803 36.56768311 11.81995605 35.88536621 11.63061523 35.18237305 C10.53056376 31.07407623 9.52014084 26.95677327 8.5625 22.8125 C7.02988354 16.58098251 4.57693347 10.85975961 2 5 C1.32664848 3.33602285 0.65777261 1.67019682 0 0 Z " fill="#CF2A69" transform="translate(352,181)"/>
<path d="M0 0 C2.31491747 1.61516105 4.45735869 3.37132834 6.62109375 5.18359375 C9.58566307 7.44718116 12.60427551 8.80922023 16.0546875 10.17578125 C18 11 18 11 21 13 C18.50494359 14.30203187 16.00462318 15.59160266 13.5 16.875 C12.80390625 17.23980469 12.1078125 17.60460937 11.390625 17.98046875 C6.64979323 20.39478122 2.20498481 21.88632082 -3 23 C-3.31453125 22.19175781 -3.6290625 21.38351562 -3.953125 20.55078125 C-4.38109375 19.48214844 -4.8090625 18.41351563 -5.25 17.3125 C-5.66765625 16.25675781 -6.0853125 15.20101563 -6.515625 14.11328125 C-8.42638891 10.10570537 -10.87707367 7.12292633 -14 4 C-4.99281515 -1.12083605 -4.99281515 -1.12083605 0 0 Z " fill="#C52663" transform="translate(498,481)"/>
<path d="M0 0 C3.84906613 2.87752921 6.96012651 5.25501121 8.96484375 9.765625 C8.96484375 10.425625 8.96484375 11.085625 8.96484375 11.765625 C1.00308397 11.50023301 -5.31745972 9.07261662 -12.03515625 4.765625 C-13.88671875 2.56640625 -13.88671875 2.56640625 -15.03515625 0.765625 C-13.62337795 0.23168321 -12.20545381 -0.28602604 -10.78515625 -0.796875 C-9.99625 -1.08691406 -9.20734375 -1.37695312 -8.39453125 -1.67578125 C-4.89756466 -2.50370546 -3.03021885 -1.83790625 0 0 Z " fill="#F05AAC" transform="translate(476.03515625,493.234375)"/>
<path d="M0 0 C0.99 0.33 1.98 0.66 3 1 C2.46632812 1.32871094 1.93265625 1.65742188 1.3828125 1.99609375 C-16.88233912 13.65671823 -28.59682228 30.50109665 -33.8125 51.5625 C-35.63113453 60.9231189 -35.75361088 70.49019681 -36 80 C-40.29046368 73.56430448 -38.65027132 62.39328671 -37.41796875 54.921875 C-32.53417022 32.88903049 -21.12538739 13.97590086 -2.39453125 1.2265625 C-1.60433594 0.82179687 -0.81414062 0.41703125 0 0 Z " fill="#C52964" transform="translate(242,150)"/>
<path d="M0 0 C1.03125 0.9075 2.0625 1.815 3.125 2.75 C6.27495425 5.45729266 9.49498873 7.77730993 13 10 C12.67 11.65 12.34 13.3 12 15 C7.11476189 15.19157797 4.68510114 14.87404046 0 13 C0 8.71 0 4.42 0 0 Z " fill="#D02B69" transform="translate(234,282)"/>
<path d="M0 0 C21.78509486 -1.29132286 39.95854833 4.95186293 56.8984375 19.1328125 C59.37749084 21.33539149 61.73216859 23.58097982 64 26 C63.67 26.66 63.34 27.32 63 28 C62.58492188 27.52691406 62.16984375 27.05382812 61.7421875 26.56640625 C53.04224559 17.22943931 41.84573955 10.60364379 30 6 C29.27425781 5.70480469 28.54851562 5.40960938 27.80078125 5.10546875 C18.9643845 1.97494774 9.27700106 1.75215278 0 1 C0 0.67 0 0.34 0 0 Z " fill="#C52964" transform="translate(279,139)"/>
<path d="M0 0 C1.91543509 2.87315263 2.47354742 4.39404529 3.125 7.6875 C3.29257812 8.49574219 3.46015625 9.30398437 3.6328125 10.13671875 C4.50814587 16.96245659 3.877616 22.73086757 2.125 29.3125 C1.95097656 30.01439453 1.77695312 30.71628906 1.59765625 31.43945312 C0.74645344 34.74653368 -0.08829888 37.13244832 -2 40 C-1.10967473 32.36864053 -1.10967473 32.36864053 -0.48632812 30.2734375 C0.1483599 27.30646213 0.11144643 24.51821443 0.09765625 21.484375 C0.09443359 20.23398438 0.09121094 18.98359375 0.08789062 17.6953125 C0.07951172 16.39335937 0.07113281 15.09140625 0.0625 13.75 C0.05573242 11.77386719 0.05573242 11.77386719 0.04882812 9.7578125 C0.03704316 6.50516259 0.02059011 3.25260416 0 0 Z " fill="#C8346B" transform="translate(605,195)"/>
<path d="M0 0 C0 0.33 0 0.66 0 1 C-1.11375 1.09796875 -2.2275 1.1959375 -3.375 1.296875 C-17.21175797 2.61138991 -30.39831023 4.63525848 -42.86328125 11.14453125 C-45 12 -45 12 -48 11 C-32.00057812 2.81638766 -18.01382463 -0.80259615 0 0 Z " fill="#C02660" transform="translate(291,138)"/>
<path d="M0 0 C2.49118953 3.7367843 2.2065226 5.74451819 2.125 10.1875 C2.10695312 11.45980469 2.08890625 12.73210937 2.0703125 14.04296875 C2.03550781 15.50669922 2.03550781 15.50669922 2 17 C1.34 17 0.68 17 0 17 C0 11.39 0 5.78 0 0 Z " fill="#420018" transform="translate(189,403)"/>
</svg>
