<?xml version="1.0" encoding="UTF-8"?>
<svg version="1.1" xmlns="http://www.w3.org/2000/svg" width="820" height="820">
<path d="M0 0 C1.567949 1.32692124 3.13077303 2.65993091 4.6875 4 C5.39648438 4.55300781 6.10546875 5.10601562 6.8359375 5.67578125 C14.45412037 11.79075945 19.19687726 19.95611382 22.6875 29 C23.06519531 29.8353125 23.44289063 30.670625 23.83203125 31.53125 C29.01176213 43.17390793 31.66691296 55.451091 33.6875 68 C35.0075 68 36.3275 68 37.6875 68 C40.82179723 57.61764044 39.92120403 48.72665941 37.34375 38.26171875 C36.70297664 35.07692257 36.56993769 32.23786193 36.6875 29 C65.23761431 20.41412621 93.86606825 19.52022068 122.33984375 29.22583008 C124.61450808 29.97592997 126.89605719 30.64630106 129.203125 31.2890625 C165.96096116 41.58620978 197.44606429 61.15888489 225.375 87 C225.98061768 87.5571167 226.58623535 88.1142334 227.21020508 88.68823242 C235.045518 96.02448083 241.53536859 103.72879133 247.0625 112.9375 C247.61703857 113.84918945 248.17157715 114.76087891 248.74291992 115.70019531 C268.49062596 148.38879423 282.70072962 182.1256909 289.31347656 219.86645508 C289.61183744 221.56839744 289.92792303 223.26722971 290.25 224.96484375 C295.42984736 260.90003482 287.65839968 301.58599096 265.6875 331 C257.97322169 340.77884083 249.1365586 348.3061685 238.6875 355 C237.73617188 355.63421875 236.78484375 356.2684375 235.8046875 356.921875 C227.53604534 362.12720405 218.55499883 365.21939986 209.35473633 368.35498047 C207.67835323 368.87436787 207.67835323 368.87436787 206.6875 370 C206.52083333 372.5 206.52083333 372.5 206.6875 375 C207.81321343 376.35160711 207.81321343 376.35160711 210.75 376.125 C214.72581563 376.17413916 214.72581563 376.17413916 218.5 374.8125 C220.51953125 374.51953125 220.51953125 374.51953125 222.6875 375 C225.5098278 377.46222218 227.8686816 380.19662955 230.2421875 383.078125 C232.86999597 386.21806228 235.65733226 388.78240405 238.78515625 391.40234375 C240.0283795 392.44644705 241.24645982 393.52144574 242.43359375 394.62890625 C250.17652287 401.80568572 259.32539008 407.43027421 268.375 412.8125 C272.34106087 415.4315968 274.95204727 417.73235407 276.4375 422.3125 C276.52 423.199375 276.6025 424.08625 276.6875 425 C276.81125 426.258125 276.935 427.51625 277.0625 428.8125 C276.96781441 433.8403047 274.89806588 437.23481082 271.6875 441 C264.63958054 447.78225509 255.4399147 451.61114774 245.6875 452 C243.87185547 452.09474609 243.87185547 452.09474609 242.01953125 452.19140625 C234.49962755 452.46338361 228.10633428 452.02543098 221.08984375 449.0078125 C218.79647812 448.04571765 216.68059268 447.49057834 214.25 447 C210.43077994 445.92793823 209.19864317 444.95956159 206.6875 442 C205.98625 441.608125 205.285 441.21625 204.5625 440.8125 C202.38523055 438.7078062 202.36048421 437.96496477 201.875 435.0625 C199.91595297 424.85570033 193.1151435 417.00683124 186.39111328 409.44946289 C181.99770216 404.48577301 178.10342794 399.25256993 174.34082031 393.79760742 C172.11710484 390.64337999 170.42044264 388.2788785 166.6875 387 C165.32113845 388.15866921 165.32113845 388.15866921 165.3125 391.3125 C165.57495425 401.88565685 171.72170469 409.64501353 178.15429688 417.42529297 C184.8868755 425.59011269 190.92534717 432.9660465 190.171875 444.05078125 C188.59193885 453.6705538 184.83961643 461.48757345 176.85546875 467.34375 C167.83746605 472.84492812 156.01206948 471.7803382 145.98046875 469.96484375 C136.48494972 467.18264541 125.09506641 461.74894823 118.24609375 454.55859375 C116.26986651 452.58236651 114.16722634 450.77622617 112.0625 448.9375 C102.01336201 439.89028499 94.36024237 430.72451195 87.6875 419 C87.13320313 418.17757813 86.57890625 417.35515625 86.0078125 416.5078125 C84.42077423 413.49337886 84.22245398 411.2009987 84.0625 407.8125 C83.95878849 403.7536324 83.95878849 403.7536324 82.6875 400 C81.6975 400.33 80.7075 400.66 79.6875 401 C78.56453833 403.5748896 78.56453833 403.5748896 77.75 406.75 C77.40710938 407.93464844 77.06421875 409.11929687 76.7109375 410.33984375 C76.37320313 411.54769531 76.03546875 412.75554687 75.6875 414 C69.6294703 435.51917505 60.29175914 457.98594507 40.625 470.4375 C38.99607858 471.3234927 37.35086156 472.18049016 35.6875 473 C35.02878906 473.33902344 34.37007812 473.67804688 33.69140625 474.02734375 C24.46123446 477.93172441 10.18016095 477.62743925 0.859375 474.15625 C-8.40348485 469.22494332 -12.90533358 461.86236824 -15.9140625 452.03515625 C-19.29430572 434.76940414 -10.37452279 419.54051594 -2.9465332 404.63037109 C3.5923077 392.36360712 3.5923077 392.36360712 3.6875 379 C-0.07697297 380.23444192 -1.37500372 382.37978105 -3.17805481 385.79769897 C-3.50730453 386.44969269 -3.83655426 387.1016864 -4.17578125 387.7734375 C-4.70838814 388.79191269 -4.70838814 388.79191269 -5.25175476 389.83096313 C-6.38713543 392.0068151 -7.50663313 394.19036184 -8.625 396.375 C-11.16435869 401.2848342 -13.72142241 406.18493963 -16.30401611 411.07217407 C-17.24887865 412.87838092 -18.16624808 414.69889505 -19.08154297 416.52026367 C-22.88478008 423.69844543 -26.40394676 427.26785902 -33.8125 430.5625 C-34.62847656 430.96017578 -35.44445312 431.35785156 -36.28515625 431.76757812 C-38.61021867 432.88905687 -40.95330313 433.95262372 -43.3125 435 C-44.49972656 435.54269531 -45.68695313 436.08539062 -46.91015625 436.64453125 C-50.65069073 438.1347327 -54.34316773 439.18314073 -58.25 440.125 C-58.91451172 440.29386719 -59.57902344 440.46273438 -60.26367188 440.63671875 C-76.69305122 444.6843059 -94.78633614 444.81272526 -109.75390625 436.11157227 C-112.3406907 434.49970847 -114.832151 432.77014835 -117.3125 431 C-117.97121094 430.566875 -118.62992188 430.13375 -119.30859375 429.6875 C-124.4468784 425.9971609 -126.27198771 420.38166495 -128.0625 414.5625 C-129.00557768 404.89595374 -128.33622106 396.09808159 -122.8125 387.8125 C-113.97417903 377.0725354 -98.07311766 371.37351564 -84.67578125 369.5078125 C-82.18128554 368.97180516 -80.61815143 368.14364212 -78.5 366.75 C-75.3125 365 -75.3125 365 -72.48046875 365.734375 C-69.44507456 366.94703557 -66.4348143 368.19612853 -63.4375 369.5 C-55.90273529 372.65343857 -49.51447743 374.29292777 -41.3125 374 C-40.6525 371.69 -39.9925 369.38 -39.3125 367 C-39.86139893 366.82549316 -40.41029785 366.65098633 -40.97583008 366.47119141 C-55.7364347 361.67929741 -72.24492234 355.27316734 -83.3125 344 C-84.42625 343.62875 -84.42625 343.62875 -85.5625 343.25 C-99.18059189 337.05995823 -108.74532641 317.73031532 -115.3125 305 C-115.87839844 303.93265625 -116.44429687 302.8653125 -117.02734375 301.765625 C-121.61244612 292.5720864 -124.10553333 282.98213796 -126.3125 273 C-126.51149902 272.10458496 -126.71049805 271.20916992 -126.91552734 270.28662109 C-137.03445184 223.18928456 -122.70870447 178.68113452 -103.3125 136 C-97.5546875 136.8671875 -97.5546875 136.8671875 -95.375 138.0625 C-92.35952414 139.43317084 -89.57588129 139.12551466 -86.3125 139 C-86.3125 137.68 -86.3125 136.36 -86.3125 135 C-87.71677754 133.51604358 -87.71677754 133.51604358 -89.6875 132.3125 C-105.78884689 120.88026073 -116.02841112 106.1874119 -123.3125 88 C-123.59875244 87.32291992 -123.88500488 86.64583984 -124.17993164 85.94824219 C-126.71407007 79.355728 -126.81304445 73.00433683 -126.75 66 C-126.74097656 64.80463623 -126.73195312 63.60927246 -126.72265625 62.37768555 C-126.2886794 40.05952186 -118.48713685 20.85760297 -102.9765625 4.54296875 C-74.35263092 -22.64513454 -30.9977462 -24.49439057 0 0 Z M34.6875 79 C29.67646361 83.72100856 25.32855386 88.81464344 21.0078125 94.16796875 C17.38580966 98.58876346 13.57496227 102.81245292 9.6875 107 C9.01460938 107.75023437 8.34171875 108.50046875 7.6484375 109.2734375 C-7.20249208 125.12555334 -29.01196955 135.80970319 -50.77734375 136.609375 C-53.60159417 136.68734073 -56.42487936 136.72220451 -59.25 136.75 C-60.7233406 136.77826163 -62.19664998 136.80820257 -63.66992188 136.83984375 C-67.21730127 136.91247781 -70.7645507 136.96277814 -74.3125 137 C-74.9725 138.32 -75.6325 139.64 -76.3125 141 C-71.98524373 146.04846565 -65.33862744 146.63491679 -59.00244141 147.20947266 C-34.66016616 148.71740121 -11.04691003 141.07643095 7.83203125 125.5234375 C21.90867657 113.08361141 33.28029577 98.8944962 36.6875 80 C35.6975 79.505 35.6975 79.505 34.6875 79 Z M213.9140625 255.15625 C210.14749068 260.81810317 209.99421371 266.40489197 210.6875 273 C212.79611826 281.8348436 218.4900034 290.37479661 226 295.5625 C232.35852999 298.96357418 239.97346519 299.1028347 246.875 297.0625 C252.90700272 294.45070501 257.21445116 288.8233436 260.1875 283.125 C261.45156038 275.2246226 261.5978124 267.17715567 257.6875 260 C252.09409662 252.3147547 246.1618831 246.98800855 236.6875 245 C226.34670829 243.76895337 220.45925834 247.40439794 213.9140625 255.15625 Z M20.0859375 258.91796875 C16.96130266 263.57000889 14.23937901 268.34324012 13.6875 274 C13.62433594 274.64453125 13.56117188 275.2890625 13.49609375 275.953125 C13.08666448 283.50775548 15.41298133 290.34504499 20 296.375 C25.4880453 301.73541634 28.92563116 303.25338421 36.5625 303.5 C45.80698366 303.19642056 52.12804599 300.31966509 58.89453125 294.06640625 C65.45662782 286.50355421 67.11148209 278.04721971 67.03515625 268.33203125 C66.28787428 261.16987934 62.20138606 255.48804679 56.6875 251 C44.16427045 242.28818814 29.0283792 247.51090288 20.0859375 258.91796875 Z M73.875 309.0625 C72.41307888 311.09256845 72.41307888 311.09256845 72.5625 314.3125 C74.09620001 319.33962781 76.30075059 321.24552944 80.6875 324 C86.49928409 327.06276539 92.38774246 329.68732134 98.6875 331.5625 C102.78866644 332.84550505 104.73417036 334.83057307 107.6875 338 C123.07062528 351.08484959 141.28365652 352.96072269 160.6875 352 C165.22206655 351.43037591 169.36052826 350.45395556 173.6875 349 C174.7703125 348.63648438 175.853125 348.27296875 176.96875 347.8984375 C185.62022267 344.76531072 193.9721531 340.91877412 201.3125 335.3125 C203.87115653 333.3797019 206.17808094 332.41493097 209.25 331.5 C213.77412745 330.12107074 216.45171928 328.48468693 219.6875 325 C220.32923849 322.00522039 220.12170693 320.76624752 218.625 318.125 C215.51147293 316.31714557 213.0921074 317.22351059 209.6875 318 C209.06488281 318.33902344 208.44226563 318.67804688 207.80078125 319.02734375 C200.25166555 322.50189053 190.21274574 319.6233557 182.4375 318.0625 C164.70591162 314.61095461 148.06496977 314.16115633 130.30541992 317.50341797 C112.56538865 320.79507982 98.52159997 320.08279116 83 310.125 C79.62175761 307.95782563 77.56543791 306.89913984 73.875 309.0625 Z " fill="#FE6BB3" transform="translate(335.3125,317)"/>
<path d="M0 0 C26.34972901 -0.59567207 50.15978833 8.75325401 69.375 26.80859375 C72.82656332 30.40548605 75.7670513 34.34133135 78.6875 38.37109375 C79.12529785 38.97397217 79.5630957 39.57685059 80.01416016 40.19799805 C82.04518578 43.08514565 83.76713816 45.57425403 84.25 49.12109375 C85.26578125 48.78335938 86.2815625 48.445625 87.328125 48.09765625 C95.58026457 45.40299786 103.59835937 43.1451655 112.25 42.12109375 C113.14589844 41.99863281 114.04179687 41.87617188 114.96484375 41.75 C134.78310644 39.59526271 154.84668416 42.10824933 174.25 46.12109375 C174.55550781 45.3940625 174.86101562 44.66703125 175.17578125 43.91796875 C183.53945192 25.54145291 198.88297855 14.51102661 217.25 7.12109375 C242.43752173 -1.29529968 269.5322582 2.08281436 293.25 13.12109375 C301.3054638 17.23596408 308.45705559 22.15765081 315.25 28.12109375 C316.39082031 29.11882812 316.39082031 29.11882812 317.5546875 30.13671875 C332.93414615 44.50507112 341.26799247 64.50054135 342.2421875 85.33984375 C342.2762081 101.80581532 337.04854388 117.89421773 327.25 131.12109375 C326.60224609 132.02408203 326.60224609 132.02408203 325.94140625 132.9453125 C322.92198423 136.875511 319.32898562 139.40177 315.25 142.12109375 C316.98759802 146.98442674 319.52349814 151.33262139 322.0625 155.80859375 C347.90238838 201.4290926 363.4808692 257.63084165 354.25 310.12109375 C354.12641113 310.83104492 354.00282227 311.54099609 353.87548828 312.27246094 C348.0305879 344.4229554 332.28554843 374.44676987 305.4765625 393.91796875 C293.46276596 402.12109375 293.46276596 402.12109375 288.25 402.12109375 C299.37912344 413.33071718 310.87797313 423.97246557 325.0625 431.18359375 C333.70289001 435.73920439 339.77888756 442.21028019 343.44140625 451.296875 C345.73374499 459.30344943 344.69006875 467.59450037 341.25 475.12109375 C336.83014042 482.71578204 331.92660319 487.89896199 324.25 492.12109375 C323.6725 492.4975 323.095 492.87390625 322.5 493.26171875 C309.76483575 500.88007594 291.33870161 500.53028863 277.53759766 497.16381836 C269.63684865 495.1435213 262.43731232 493.03371347 255.25 489.12109375 C254.92128906 489.87132812 254.59257813 490.6215625 254.25390625 491.39453125 C249.81720096 500.94126297 243.65009092 511.29725926 233.25 515.12109375 C224.80148561 517.96945003 217.13363452 520.15917454 208.25 518.12109375 C207.5904834 517.98026367 206.9309668 517.83943359 206.25146484 517.69433594 C176.79796732 511.28609732 150.11945255 494.42527257 133.25 469.12109375 C132.80269531 470.08789062 132.35539063 471.0546875 131.89453125 472.05078125 C130.3242998 475.43798234 128.74097368 478.81888837 127.15185547 482.19726562 C126.37668335 483.85085422 125.61121408 485.50898517 124.84765625 487.16796875 C124.44417969 488.01875 124.04070312 488.86953125 123.625 489.74609375 C123.28210938 490.48085938 122.93921875 491.215625 122.5859375 491.97265625 C120.82789602 494.79991594 118.66616643 496.83374311 116.25 499.12109375 C115.32703125 500.00667969 114.4040625 500.89226562 113.453125 501.8046875 C100.50914064 513.96649876 86.71794078 522.5352824 68.25 522.12109375 C55.7430285 521.253822 44.71443104 517.65977079 35.578125 508.84765625 C26.72640756 498.48104757 23.29634881 487.55841529 22.25 474.12109375 C21.29222656 474.64058594 20.33445312 475.16007812 19.34765625 475.6953125 C-1.92766821 486.94442772 -24.93914305 491.55463458 -48.75 486.12109375 C-62.59894886 481.82913595 -78.85146748 472.12261222 -85.8125 458.99609375 C-90.65163687 448.76674393 -90.37684236 433.457914 -86.91015625 422.703125 C-80.09054461 407.52547081 -66.79881929 398.24536061 -51.75683594 392.33837891 C-47.7851084 390.83959563 -43.7818017 389.45073048 -39.75 388.12109375 C-40.35585937 387.59902344 -40.96171875 387.07695313 -41.5859375 386.5390625 C-71.05287747 360.65348908 -86.6690144 326.17145034 -89.57568359 287.27685547 C-92.03612572 242.73389341 -83.34380707 198.91136026 -60.75 160.12109375 C-61.2346875 159.76660156 -61.719375 159.41210938 -62.21875 159.046875 C-71.76333159 151.46627463 -76.58428371 141.1035451 -81.0625 130.05859375 C-81.38798828 129.25655518 -81.71347656 128.4545166 -82.04882812 127.62817383 C-86.42143562 116.37734566 -88.28726569 105.95072299 -88.1875 93.87109375 C-88.18065186 92.59564697 -88.17380371 91.3202002 -88.16674805 90.00610352 C-88.00428496 80.44998825 -87.0225591 72.11796631 -83.75 63.12109375 C-83.36457031 62.05375 -82.97914063 60.98640625 -82.58203125 59.88671875 C-72.85786933 35.08853235 -55.39153818 17.06280563 -31.109375 6.40234375 C-20.9561366 2.52994585 -10.82893885 0.47684248 0 0 Z M-47.75 32.12109375 C-48.66265625 32.77078125 -48.66265625 32.77078125 -49.59375 33.43359375 C-63.48550935 44.04184634 -72.59144992 65.13909118 -75.47314453 82.02050781 C-76.87943444 92.69045351 -76.34271591 102.94950845 -72.75 113.12109375 C-72.48316406 114.04664063 -72.21632812 114.9721875 -71.94140625 115.92578125 C-67.60923552 130.44336671 -59.50732681 144.36376694 -48.75 155.12109375 C-48.51572222 157.13703957 -48.33663876 159.15956775 -48.1875 161.18359375 C-48.10371094 162.28832031 -48.01992187 163.39304687 -47.93359375 164.53125 C-47.87300781 165.38589844 -47.81242187 166.24054688 -47.75 167.12109375 C-48.74 167.45109375 -49.73 167.78109375 -50.75 168.12109375 C-52.05073203 170.15885656 -52.05073203 170.15885656 -53.1328125 172.73828125 C-53.57351074 173.72401123 -54.01420898 174.70974121 -54.46826172 175.7253418 C-54.93248535 176.80468994 -55.39670898 177.88403809 -55.875 178.99609375 C-56.60033936 180.67022339 -56.60033936 180.67022339 -57.34033203 182.37817383 C-65.52197083 201.65080673 -71.93229749 221.52158362 -75.75 242.12109375 C-75.87987305 242.81638184 -76.00974609 243.51166992 -76.14355469 244.22802734 C-79.75876552 264.62814561 -78.14474096 285.01671165 -73.75 305.12109375 C-73.49307373 306.36366943 -73.49307373 306.36366943 -73.23095703 307.63134766 C-67.76825557 333.59098657 -53.81231794 358.72593067 -33.26977539 375.76342773 C-26.18603235 381.69798029 -26.18603235 381.69798029 -24.7578125 386.359375 C-24.55973727 391.13065769 -24.81185845 393.84628044 -27.6875 397.75390625 C-31.79970882 400.93247582 -35.93328193 402.10911004 -40.875 403.55859375 C-48.67164535 406.0049799 -55.91397329 408.52659029 -62.75 413.12109375 C-63.4203125 413.56839844 -64.090625 414.01570313 -64.78125 414.4765625 C-71.08181637 419.24203325 -74.5570844 426.39148754 -75.75 434.12109375 C-76.51114996 442.69866827 -75.30421675 450.97049153 -70.75 458.37109375 C-66.80444511 462.49545022 -61.64213489 465.2760224 -56.75 468.12109375 C-56.07839844 468.52585937 -55.40679687 468.930625 -54.71484375 469.34765625 C-39.4388559 477.8451272 -21.09936518 476.14136571 -4.75 472.12109375 C2.41560257 470.02710419 8.98620749 467.3292352 15.5625 463.80859375 C19.9158573 461.56806586 23.32582924 460.4501352 28.21484375 460.421875 C31.55744373 461.57029227 33.09933727 463.35542986 35.25 466.12109375 C35.67775399 468.84101913 35.8501215 471.04056097 35.8125 473.74609375 C36.08028395 484.85087854 39.17458441 494.4346584 47.375 502.30859375 C55.82864471 509.060876 66.7018423 509.07670095 77.06835938 508.37548828 C86.57441793 507.26701547 94.31668533 502.43252714 101.25 496.12109375 C101.92546875 495.53714844 102.6009375 494.95320313 103.296875 494.3515625 C111.5478409 486.7561966 116.74191652 476.82640123 121.15625 466.640625 C125.31849315 457.0526006 125.31849315 457.0526006 127.25 455.12109375 C131.62798962 454.45454862 136.23049749 453.96650949 140.18359375 456.2265625 C142.08698645 458.07518131 143.65267884 459.99943456 145.25 462.12109375 C146.00796875 463.12527344 146.7659375 464.12945313 147.546875 465.1640625 C147.95566895 465.70611328 148.36446289 466.24816406 148.78564453 466.80664062 C149.20700684 467.36416016 149.62836914 467.92167969 150.0625 468.49609375 C150.49030762 469.06263672 150.91811523 469.62917969 151.35888672 470.21289062 C164.80462376 487.73812365 188.88250892 502.30874849 210.859375 505.5 C219.01562211 505.90261729 227.71388327 503.48582941 234.1875 498.43359375 C238.32757651 494.43557869 242.10677008 489.20704749 242.37890625 483.34375 C242.33636719 482.61027344 242.29382813 481.87679688 242.25 481.12109375 C242.86875 480.83234375 243.4875 480.54359375 244.125 480.24609375 C246.38325765 479.18389333 246.38325765 479.18389333 248.25 477.12109375 C256.98399442 475.74691006 263.39830547 477.66031429 271.12890625 481.5859375 C282.53738913 487.197369 295.11399935 487.69375555 307.25 484.12109375 C316.39223433 480.90546832 324.44377968 477.98583034 329.1875 469.18359375 C330.9204953 465.28003623 332.16235403 462.40915767 331.25 458.12109375 C327.43737562 449.07418843 321.33940448 444.56062486 313.0625 439.87109375 C303.95766788 434.55396149 296.05355559 428.20347527 288.734375 420.60546875 C287.13168218 418.94382386 287.13168218 418.94382386 284.625 417.05859375 C277.59254289 411.32158926 277.59254289 411.32158926 276.76171875 405.984375 C276.50761599 399.50112449 276.50761599 399.50112449 277.25 396.12109375 C280.71166376 392.58838838 285.10680242 390.37770536 289.375 387.93359375 C315.62606918 372.46392797 331.2303938 347.93655505 338.83666992 318.89379883 C352.37030393 263.78269521 335.95654888 207.35237857 308.25 159.12109375 C307.07294574 157.30179285 305.8874781 155.48785677 304.6875 153.68359375 C301.42639931 148.49339124 301.27066081 143.13339024 301.25 137.12109375 C301.80945313 136.88390625 302.36890625 136.64671875 302.9453125 136.40234375 C311.26408581 131.77766977 316.92006192 123.34249517 321.25 115.12109375 C321.61609375 114.51265625 321.9821875 113.90421875 322.359375 113.27734375 C324.90128492 108.81922482 326.21901133 104.06464348 327.5 99.12109375 C327.67547363 98.4564209 327.85094727 97.79174805 328.03173828 97.10693359 C331.97865785 80.90903057 325.45043049 64.92021172 317.25 51.12109375 C311.60849468 42.09678637 305.09545858 35.97522156 296.25 30.12109375 C295.44949219 29.56808594 294.64898438 29.01507813 293.82421875 28.4453125 C281.22297615 20.24921017 267.00131748 16.78998318 252.25 15.12109375 C250.90035156 14.96447266 250.90035156 14.96447266 249.5234375 14.8046875 C231.74854067 13.85791464 212.36077584 22.33874063 198.5546875 32.9765625 C194.71539663 36.54905519 191.93698269 40.64522312 189.25 45.12109375 C188.71375 45.99121094 188.1775 46.86132812 187.625 47.7578125 C186.17678554 50.09991406 186.17678554 50.09991406 185.25 52.74609375 C184.13482159 55.39464247 183.58449422 56.4508865 181.25 58.12109375 C178.56921258 58.42764119 176.17709312 58.54621325 173.5 58.49609375 C172.74501221 58.48956787 171.99002441 58.48304199 171.2121582 58.47631836 C164.83849517 58.32759733 158.96410482 57.24980963 152.7421875 55.85546875 C147.592376 54.77251063 142.50002522 54.349046 137.25 54.12109375 C136.31027344 54.07984375 135.37054688 54.03859375 134.40234375 53.99609375 C121.13472478 53.71038459 108.53284852 56.01022103 95.78344727 59.4440918 C90.02993005 60.93294299 84.19389193 62.05482166 78.25 61.12109375 C75.49075221 58.76423626 74.17119657 57.11630864 72.25 54.12109375 C71.47148603 52.93395422 70.69139947 51.74784522 69.91015625 50.5625 C69.2764209 49.59993286 69.2764209 49.59993286 68.62988281 48.61791992 C56.52619463 30.27172539 39.48578454 19.91267135 18.25 14.12109375 C-6.28405215 9.8183738 -28.29861673 17.02449778 -47.75 32.12109375 Z " fill="#430018" transform="translate(282.75,284.87890625)"/>
<path d="M0 0 C0.69480469 0.27328125 1.38960937 0.5465625 2.10546875 0.828125 C7.13904058 2.84522118 11.6326846 5.5265502 16.1875 8.4375 C17.06100098 8.99473755 17.06100098 8.99473755 17.95214844 9.56323242 C28.85125186 16.67990652 35.55191915 25.72329161 41.4375 37.25 C41.77958496 37.91104736 42.12166992 38.57209473 42.47412109 39.25317383 C49.02582206 52.56829739 47.69275116 73.16017308 44.0390625 87.296875 C42.75749142 90.63088697 41.22176747 92.86011941 38.68359375 95.34765625 C36.66167887 97.33204139 35.02140027 99.49193939 33.3125 101.75 C32.22524057 103.17968367 31.12237281 104.59771339 30 106 C29.51917969 106.60328125 29.03835938 107.2065625 28.54296875 107.828125 C27 109 27 109 25.08203125 108.97265625 C22.23272898 107.64155632 20.7339924 105.81841034 18.6875 103.4375 C17.8934375 102.52742188 17.099375 101.61734375 16.28125 100.6796875 C14.9420262 99.10655817 13.60681648 97.52996697 12.28125 95.9453125 C-14.80946257 63.94108834 -55.05920336 43.40820666 -94 30 C-88.42092442 14.98144584 -76.213339 5.99549916 -62.10327148 -0.57006836 C-42.28325472 -9.1892929 -19.61764576 -9.32465795 0 0 Z " fill="#FC72A9" transform="translate(563,307)"/>
<path d="M0 0 C2.88352415 0.87049786 4.44162787 1.62775192 6.875 3.25 C22.46661447 13.30248827 37.44060261 12.24795453 54.9375 8.9375 C72.52844742 5.66538906 89.36735999 7.12895039 106.81298828 10.61157227 C116.00941574 12.42721612 124.87828663 14.06052802 133.3125 9 C136.28091562 8.58580247 137.61411612 8.54243815 140.125 10.1875 C141.73078995 12.63844256 141.63587187 14.11150262 141.3125 17 C138.08617488 20.81532725 133.67393303 23.06131714 128.9375 24.4375 C125.27968322 25.50125284 122.73904958 26.97144228 119.6875 29.25 C102.09277727 42.1655663 80.7339001 45.94740001 59.3125 44 C46.32467902 41.64727249 34.3915827 35.61314639 25.3125 26 C22.23788998 23.71600398 19.33407638 22.68411566 15.6875 21.6875 C7.32902567 19.28865535 -0.99935028 15.59803575 -5.6875 8 C-6.24991951 4.97699515 -6.13457174 3.74511956 -4.5625 1.125 C-2.6875 0 -2.6875 0 0 0 Z M76.3125 17 C76.66183594 17.74765625 77.01117188 18.4953125 77.37109375 19.265625 C77.82613281 20.25046875 78.28117187 21.2353125 78.75 22.25 C79.20246094 23.22453125 79.65492188 24.1990625 80.12109375 25.203125 C81.09632356 27.49251695 81.8099274 29.57378746 82.3125 32 C91.21708773 31.46572474 101.40979818 28.84337629 108.3125 23 C92.56369256 18.41287761 92.56369256 18.41287761 76.3125 17 Z M54.1875 20.9375 C49.23556522 21.86722411 44.32562759 22.50690548 39.3125 23 C45.65460036 30.1158973 54.94109517 32.15983671 64.125 32.8125 C66.18676911 32.89569025 68.2493338 32.96597477 70.3125 33 C69.78414489 28.92309777 68.66574283 26.74382266 65.9375 23.6875 C65.33164062 22.99011719 64.72578125 22.29273438 64.1015625 21.57421875 C61.07125211 18.90781027 57.87768209 20.21733626 54.1875 20.9375 Z " fill="#45011A" transform="translate(413.6875,625)"/>
<path d="M0 0 C6.46675372 3.79312642 11.08500766 9.25465244 13.625 16.3125 C15.01003676 25.74507794 13.38479752 34.61436127 8.1171875 42.59765625 C3.44792008 48.40709362 -2.3411557 51.96788523 -9.375 54.3125 C-17.38894036 55.12625487 -24.02596302 55.28925034 -30.5390625 50.15625 C-36.0682443 44.60353976 -39.36087012 37.86633632 -39.6875 30 C-39.44039238 21.32216189 -35.89978946 13.91984956 -30.375 7.3125 C-22.03675556 -0.46647195 -11.00647875 -5.11832471 0 0 Z " fill="#44011A" transform="translate(388.375,565.6875)"/>
<path d="M0 0 C7.69676195 4.12933239 13.15588976 10.16704467 16.30078125 18.234375 C18.49439781 25.56646324 18.1636563 33.31727783 14.69921875 40.16015625 C11.55212559 44.82805142 7.47262786 48.12432007 2.48828125 50.671875 C-4.68929188 51.93850555 -11.46091693 52.31876994 -17.92578125 48.55859375 C-24.73989733 43.47052029 -30.90650895 34.54602952 -32.69921875 26.234375 C-33.41470987 19.09047133 -33.14515649 13.08819302 -28.69921875 7.234375 C-20.26590922 -1.50999922 -11.76944548 -4.43183382 0 0 Z " fill="#440119" transform="translate(578.69921875,563.765625)"/>
<path d="M0 0 C7.15842804 1.36245801 13.54754417 3.60148819 20.25 6.4375 C21.82164917 7.10120605 21.82164917 7.10120605 23.42504883 7.77832031 C45.5053976 17.26298903 66.75511766 29.22456829 85 45 C86.21331325 46.03021699 87.42687771 47.06013816 88.640625 48.08984375 C98.34279394 56.36472969 107.14705747 64.61135032 114.921875 74.77734375 C117.0328752 77.03516163 117.98303548 77.68063664 121 78 C125.38579957 73.20968493 129.59008792 68.54110713 133 63 C133.33 63.66 133.66 64.32 134 65 C130.69100737 70.65460767 126.85948445 75.44094292 122.25 80.0625 C121.5242981 80.79593628 121.5242981 80.79593628 120.78393555 81.54418945 C117.25894702 85 117.25894702 85 115 85 C115 88.63 115 92.26 115 96 C112.40562525 92.8867503 110.08202543 89.66400848 107.8125 86.3125 C96.20863363 69.71456456 80.27049489 56.79156018 64 45 C63.3910791 44.5555957 62.7821582 44.11119141 62.15478516 43.65332031 C40.26336206 27.85263157 14.88443512 16.60808254 -11.37792969 10.49438477 C-13.26523618 10.04922208 -15.13527057 9.53186441 -17 9 C-17.33 8.34 -17.66 7.68 -18 7 C-17.11957031 6.99742187 -16.23914063 6.99484375 -15.33203125 6.9921875 C-8.83025476 7.01710521 -8.83025476 7.01710521 -3.0234375 4.59765625 C-1.51043631 2.80557541 -1.51043631 2.80557541 0 0 Z " fill="#CE2967" transform="translate(469,337)"/>
<path d="M0 0 C0.99 0.495 0.99 0.495 2 1 C-0.70219359 15.28302327 -7.33633248 26.28807024 -17 37 C-18.04800781 38.17175781 -18.04800781 38.17175781 -19.1171875 39.3671875 C-35.28858183 56.48635586 -59.62669479 67.79555928 -83.20458984 68.48706055 C-103.96972244 68.58537679 -103.96972244 68.58537679 -109.8046875 63.39453125 C-110.19914062 62.93433594 -110.59359375 62.47414063 -111 62 C-110.34 60.68 -109.68 59.36 -109 58 C-107.67947632 57.99383667 -107.67947632 57.99383667 -106.33227539 57.98754883 C-82.6486516 58.10141088 -82.6486516 58.10141088 -60 52 C-59.32630371 51.71205566 -58.65260742 51.42411133 -57.95849609 51.12744141 C-38.7728603 42.73066326 -23.98556118 28.90995334 -11.109375 12.62109375 C-7.59165308 8.24999855 -3.79218729 4.1328566 0 0 Z " fill="#CF2968" transform="translate(370,396)"/>
<path d="M0 0 C3.29406201 1.39446254 4.95404753 2.88121044 7.0625 5.75 C7.66320312 6.55050781 8.26390625 7.35101562 8.8828125 8.17578125 C9.93082031 9.57376953 9.93082031 9.57376953 11 11 C12.8008787 13.32167335 14.61952355 15.62920571 16.4375 17.9375 C16.91026367 18.54223145 17.38302734 19.14696289 17.87011719 19.77001953 C19.96769706 22.44865646 22.08134589 25.09658078 24.2734375 27.69921875 C30.0198012 34.53541005 35.06738658 42.15166211 37 51 C38.33067517 54.99202551 40.3863421 56.03605549 44 58 C40.4114235 59.79428825 36.10284126 58.83569094 32.1640625 58.64453125 C28.35020438 59.07300173 27.44112163 60.16317144 25 63 C24.34 63 23.68 63 23 63 C23.061875 63.721875 23.12375 64.44375 23.1875 65.1875 C22.96476068 68.52858974 21.8717754 70.27032755 20 73 C19.34 72.67 18.68 72.34 18 72 C18.433125 71.01773438 18.433125 71.01773438 18.875 70.015625 C22.12313078 62.03063682 24.14875376 54.40466199 20.84765625 46.1015625 C17.5165485 40.02575227 13.26947167 34.81515392 8.875 29.5 C2.98057318 22.36454559 -2.07656244 14.94843897 -2.4375 5.375 C-2 2 -2 2 0 0 Z " fill="#CD2967" transform="translate(502,703)"/>
<path d="M0 0 C1.485 0.495 1.485 0.495 3 1 C4.15214964 6.50081201 3.7817176 9.84366495 1.75 15.0625 C1.48912598 15.73514893 1.22825195 16.40779785 0.95947266 17.10083008 C-1.93310509 24.29508648 -5.54058038 31.13811873 -9.08618164 38.02612305 C-12.56374754 44.86985231 -15.23162135 51.50207453 -17 59 C-20.8359375 54.21875 -20.8359375 54.21875 -22.3125 52.25 C-24.96434811 50.28566807 -27.78421655 50.3033758 -31 50 C-30.25669434 49.48373047 -29.51338867 48.96746094 -28.74755859 48.43554688 C-25.60729524 45.65189064 -23.89988968 42.7155502 -22.0390625 39.03125 C-21.50857803 38.01701965 -21.50857803 38.01701965 -20.96737671 36.9822998 C-19.84244886 34.82694461 -18.73312488 32.66403445 -17.625 30.5 C-16.1634176 27.67470327 -14.69588815 24.85252645 -13.2265625 22.03125 C-12.69279999 21.00439087 -12.69279999 21.00439087 -12.14825439 19.95678711 C-3.60444388 3.60444388 -3.60444388 3.60444388 0 0 Z " fill="#CF2A68" transform="translate(337,695)"/>
<path d="M0 0 C3.04366471 1.41215074 5.57198204 3.11180468 8.25 5.125 C18.07187349 12.0682979 29.14236979 16.94318414 40.42578125 20.9921875 C43 22 43 22 46 24 C46.3125 27 46.3125 27 46 30 C44 32 44 32 40.375 32.265625 C35.98010649 32.1505962 32.14766051 31.13892549 28 29.75 C27.30156982 29.52691162 26.60313965 29.30382324 25.88354492 29.07397461 C22.16372437 27.85112107 18.74241305 26.47671814 15.3125 24.5625 C12.17013859 22.66419808 12.17013859 22.66419808 9.25 23.625 C8.13625 24.305625 8.13625 24.305625 7 25 C3.40816327 27.06802721 3.40816327 27.06802721 0.75 26.625 C-0.11625 26.315625 -0.11625 26.315625 -1 26 C-0.236875 25.566875 0.52625 25.13375 1.3125 24.6875 C4.49272656 22.69131226 4.49272656 22.69131226 7 20 C7.8236675 15.91747411 7.77020276 12.08840505 7 8 C5.03239123 5.10732143 2.72796942 3.15036365 0 1 C0 0.67 0 0.34 0 0 Z " fill="#CE2A68" transform="translate(250,660)"/>
<path d="M0 0 C0.763125 0.825 1.52625 1.65 2.3125 2.5 C6.17356001 5.80283447 9.92836511 5.40334296 14.8046875 5.17578125 C15.52914063 5.11777344 16.25359375 5.05976563 17 5 C23.12041213 32.69242322 23.12041213 32.69242322 18 44 C16.68 44 15.36 44 14 44 C13.39455784 41.75033674 12.79066353 39.50027436 12.1875 37.25 C12.00372803 36.56768311 11.81995605 35.88536621 11.63061523 35.18237305 C10.53056376 31.07407623 9.52014084 26.95677327 8.5625 22.8125 C7.02988354 16.58098251 4.57693347 10.85975961 2 5 C1.32664848 3.33602285 0.65777261 1.67019682 0 0 Z " fill="#CF2A69" transform="translate(355,341)"/>
<path d="M0 0 C3 1 3 1 4 3 C4 4.72916667 4 6.45833333 4 8.1875 C5.2911104 24.54156509 21.39111622 40.61558266 33 51 C35.6082758 53.0875185 38.26605717 55.08042312 41 57 C36.95698177 57 34.92866245 55.01614168 31.875 52.625 C31.2960498 52.17455322 30.71709961 51.72410645 30.12060547 51.26000977 C22.4778539 45.1650902 16.43682389 37.8117495 10.60546875 30.0078125 C7.27323881 25.51306521 7.27323881 25.51306521 2.2734375 23.57421875 C1.31695312 23.61160156 0.36046875 23.64898438 -0.625 23.6875 C-2.06746094 23.72423828 -2.06746094 23.72423828 -3.5390625 23.76171875 C-6.00237268 23.85163145 -6.00237268 23.85163145 -8 25 C-7.29992699 20.38523302 -6.30266894 15.88789928 -5.125 11.375 C-4.88330078 10.39273438 -4.88330078 10.39273438 -4.63671875 9.390625 C-3.66332006 5.66303622 -2.56975399 2.89280878 0 0 Z " fill="#CC2A68" transform="translate(416,716)"/>
<path d="M0 0 C7.36845108 0.28895887 14.43629982 1.36429776 21.625 2.9375 C22.41890137 3.10733398 23.21280273 3.27716797 24.03076172 3.45214844 C29.75073754 4.75073754 29.75073754 4.75073754 32 7 C14.08805031 15 14.08805031 15 6 15 C5.73445313 14.25234375 5.46890625 13.5046875 5.1953125 12.734375 C4.84210938 11.74953125 4.48890625 10.7646875 4.125 9.75 C3.77695312 8.77546875 3.42890625 7.8009375 3.0703125 6.796875 C2.16725355 4.43705673 1.17921582 2.23094884 0 0 Z " fill="#C12561" transform="translate(490,642)"/>
<path d="M0 0 C1.66796875 1.453125 1.66796875 1.453125 3.1875 3.25 C3.69667969 3.83265625 4.20585937 4.4153125 4.73046875 5.015625 C6.21053193 7.3290776 6.61365233 9.30022108 7 12 C-3.18615142 11.8320125 -14.4772423 11.05797116 -22.3671875 3.83203125 C-22.90601563 3.22746094 -23.44484375 2.62289062 -24 2 C-22.21142578 1.80083984 -22.21142578 1.80083984 -20.38671875 1.59765625 C-18.82029322 1.41944017 -17.25388802 1.24104544 -15.6875 1.0625 C-14.90181641 0.97548828 -14.11613281 0.88847656 -13.30664062 0.79882812 C-12.54931641 0.71181641 -11.79199219 0.62480469 -11.01171875 0.53515625 C-10.31522217 0.456604 -9.61872559 0.37805176 -8.90112305 0.29711914 C-2.03774767 -0.77553115 -2.03774767 -0.77553115 0 0 Z " fill="#F15AAC" transform="translate(477,646)"/>
<path d="M0 0 C-0.33 0.33 -0.66 0.66 -1 1 C-1.23427778 3.01594582 -1.41336124 5.038474 -1.5625 7.0625 C-1.64628906 8.16722656 -1.73007812 9.27195312 -1.81640625 10.41015625 C-1.90728516 11.69212891 -1.90728516 11.69212891 -2 13 C-4.62450086 13.22119939 -7.24870486 13.42746669 -9.875 13.625 C-10.62136719 13.68945312 -11.36773438 13.75390625 -12.13671875 13.8203125 C-14.0870047 13.96087365 -16.04469467 13.98759849 -18 14 C-20 12 -20 12 -20.375 9.5625 C-20 7 -20 7 -18.421875 5.51171875 C-15.36160155 3.60151581 -12.27339589 2.45611128 -8.875 1.25 C-7.63492188 0.80140625 -6.39484375 0.3528125 -5.1171875 -0.109375 C-2 -1 -2 -1 0 0 Z " fill="#CC2A68" transform="translate(561,680)"/>
<path d="M0 0 C0.99 0.86625 1.98 1.7325 3 2.625 C6.86190708 5.94197541 10.89447006 8.99283262 15 12 C14.67 13.65 14.34 15.3 14 17 C7.741346 17.5326514 3.54891215 15.81849506 -2 13 C-1.34 12.67 -0.68 12.34 0 12 C0 8.04 0 4.08 0 0 Z " fill="#CF2A69" transform="translate(235,440)"/>
<path d="M0 0 C0 3.80196862 -0.89536327 4.22027411 -3.5 6.875 C-20.69422746 25.59353841 -24.52187752 47.54403513 -25 72 C-29.29046368 65.56430448 -27.65027132 54.39328671 -26.41796875 46.921875 C-22.77645318 30.49348511 -14.43875601 9.78002696 0 0 Z " fill="#C42964" transform="translate(234,318)"/>
<path d="M0 0 C2.9375 3.671875 2.9375 3.671875 3.5 6.625 C2.63468174 12.46589826 0.43519296 17.66606247 -3.87890625 21.80078125 C-11.53064344 27.2542293 -21.58755125 31.4865937 -31 32 C-31.83273437 32.07347656 -32.66546875 32.14695312 -33.5234375 32.22265625 C-42.59687957 32.6970051 -50.63500671 30.29409044 -59 27 C-59.66 26.34 -60.32 25.68 -61 25 C-57.45333404 25.45470076 -54.41355027 26.22435671 -51.125 27.5625 C-39.11396921 31.70143629 -23.88039385 29.48060882 -12.625 24.25 C-6.55732346 21.0275293 -2.64124848 17.46410811 0 11 C0.24073194 8.17914272 0.24073194 8.17914272 0.125 5.25 C0.10695313 4.26515625 0.08890625 3.2803125 0.0703125 2.265625 C0.04710937 1.51796875 0.02390625 0.7703125 0 0 Z " fill="#C52A64" transform="translate(611,739)"/>
<path d="M0 0 C25.04547627 -0.52299138 47.04666831 6.15398052 65.734375 23.62109375 C66.84663438 24.72398015 67.92870291 25.85728311 69 27 C68.67 27.66 68.34 28.32 68 29 C67.58492188 28.52691406 67.16984375 28.05382812 66.7421875 27.56640625 C52.20459075 11.96434112 32.34069158 4.08633522 11.375 2.8125 C10.18003906 2.73064453 8.98507812 2.64878906 7.75390625 2.56445312 C4.83645724 2.36606659 1.91874298 2.17814375 -1 2 C-0.67 1.34 -0.34 0.68 0 0 Z " fill="#C42964" transform="translate(277,298)"/>
<path d="M0 0 C1.91543509 2.87315263 2.47354742 4.39404529 3.125 7.6875 C3.29257812 8.49574219 3.46015625 9.30398438 3.6328125 10.13671875 C4.50814587 16.96245659 3.877616 22.73086757 2.125 29.3125 C1.95097656 30.01439453 1.77695312 30.71628906 1.59765625 31.43945312 C0.74645344 34.74653368 -0.08829888 37.13244832 -2 40 C-1.10967473 32.36864053 -1.10967473 32.36864053 -0.48632812 30.2734375 C0.1483599 27.30646213 0.11144643 24.51821443 0.09765625 21.484375 C0.09443359 20.23398437 0.09121094 18.98359375 0.08789062 17.6953125 C0.07951172 16.39335937 0.07113281 15.09140625 0.0625 13.75 C0.05573242 11.77386719 0.05573242 11.77386719 0.04882812 9.7578125 C0.03704316 6.50516259 0.02059011 3.25260416 0 0 Z " fill="#C8346B" transform="translate(608,355)"/>
<path d="M0 0 C0 0.66 0 1.32 0 2 C-0.969375 2.1959375 -1.93875 2.391875 -2.9375 2.59375 C-16.19045052 5.47286801 -29.23441349 10.23441349 -39 20 C-39.66 19.67 -40.32 19.34 -41 19 C-31.67358674 9.18272289 -13.75096354 -0.59463626 0 0 Z " fill="#C42964" transform="translate(276,299)"/>
<path d="M0 0 C0.495 0.99 0.495 0.99 1 2 C-4.14735391 9.07761162 -10.42666507 12.22620657 -19 14 C-24.73187464 14.4388038 -29.62516232 14.26308955 -35 12 C-35 11.67 -35 11.34 -35 11 C-33.87722656 11.03480469 -32.75445312 11.06960938 -31.59765625 11.10546875 C-19.67604318 11.37045267 -11.57323357 11.02720777 -2.53125 2.5234375 C-1.68664924 1.68314593 -0.84244892 0.84244892 0 0 Z " fill="#CD2967" transform="translate(520,776)"/>
<path d="M0 0 C0.99 0.33 1.98 0.66 3 1 C1.35 1.66 -0.3 2.32 -2 3 C-2 2.34 -2 1.68 -2 1 C-1.34 0.67 -0.68 0.34 0 0 Z " fill="#420018" transform="translate(591,680)"/>
<path d="" fill="#420018" transform="translate(0,0)"/>
</svg>
