<?xml version="1.0" encoding="UTF-8"?>
<svg version="1.1" xmlns="http://www.w3.org/2000/svg" width="820" height="820">
<path d="M0 0 C1.567949 1.32692124 3.13077303 2.65993091 4.6875 4 C5.39648438 4.55300781 6.10546875 5.10601562 6.8359375 5.67578125 C14.45412037 11.79075945 19.19687726 19.95611382 22.6875 29 C23.06519531 29.8353125 23.44289063 30.670625 23.83203125 31.53125 C29.01176213 43.17390793 31.66691296 55.451091 33.6875 68 C35.0075 68 36.3275 68 37.6875 68 C40.82179723 57.61764044 39.92120403 48.72665941 37.34375 38.26171875 C36.70297664 35.07692257 36.56993769 32.23786193 36.6875 29 C65.23761431 20.41412621 93.86606825 19.52022068 122.33984375 29.22583008 C124.61450808 29.97592997 126.89605719 30.64630106 129.203125 31.2890625 C165.96096116 41.58620978 197.44606429 61.15888489 225.375 87 C225.98061768 87.5571167 226.58623535 88.1142334 227.21020508 88.68823242 C235.045518 96.02448083 241.53536859 103.72879133 247.0625 112.9375 C247.61703857 113.84918945 248.17157715 114.76087891 248.74291992 115.70019531 C268.49062596 148.38879423 282.70072962 182.1256909 289.31347656 219.86645508 C289.61183744 221.56839744 289.92792303 223.26722971 290.25 224.96484375 C295.33469403 260.23990861 287.88296374 299.76132653 267.10742188 329.10791016 C260.0129022 338.56157719 251.74056573 346.73657161 241.6875 353 C240.82415039 353.53850586 240.82415039 353.53850586 239.94335938 354.08789062 C230.73894969 359.74547019 221.29619556 363.97705582 211.16015625 367.6875 C207.90453174 368.64581921 207.90453174 368.64581921 206.6875 370 C206.52083333 372.5 206.52083333 372.5 206.6875 375 C207.0175 375.33 207.3475 375.66 207.6875 376 C209.33683228 375.93600474 210.98365131 375.79926084 212.625 375.625 C213.52089844 375.53476562 214.41679688 375.44453125 215.33984375 375.3515625 C217.70219808 375.12174185 217.70219808 375.12174185 219.6875 374 C221.07422076 373.90894513 222.4652778 373.87959829 223.85498047 373.88305664 C224.71703094 373.88378677 225.57908142 373.88451691 226.46725464 373.88526917 C230.44680652 373.92017376 234.42601939 373.96172767 238.40527344 374.0222168 C240.4920668 374.04884229 242.57905319 374.06337965 244.66601562 374.06518555 C268.07716711 374.08940141 268.07716711 374.08940141 276.6875 381 C280.39418809 385.26175465 282.35268766 388.56065294 283.125 394.1875 C282.09573297 403.15682695 277.11892545 409.24739875 270.41796875 414.921875 C256.53256918 425.48987582 236.04684209 432.19345477 218.6875 431 C215.17910542 430.35237484 211.99346156 429.33111323 208.6875 428 C207.92695312 427.70609375 207.16640625 427.4121875 206.3828125 427.109375 C200.0959167 424.19434373 196.86793988 419.69895803 192.9375 414.1171875 C190.19449493 410.31698256 187.12318043 406.95156204 183.94921875 403.51171875 C181.53404088 400.82957822 179.26424425 398.06039362 177 395.25 C171.1232835 387.27629449 171.1232835 387.27629449 162.6875 383 C161.85944314 394.78659658 171.4895054 404.58478354 178.6875 413 C186.80692812 422.68520861 194.89847185 432.86120456 194.2421875 446.19921875 C193.15890329 451.66904113 190.57294682 456.28087594 187.6875 461 C187.30464844 461.63164063 186.92179687 462.26328125 186.52734375 462.9140625 C182.58548631 468.42418581 175.22440021 471.72857933 168.6875 473 C150.47323377 475.22901859 131.21557489 464.48251126 117.3125 453.625 C103.20151057 442.15522184 84.93358906 424.51720475 82.875 405.375 C82.79204527 403.91768711 82.72165318 402.45927239 82.6875 401 C81.3675 401 80.0475 401 78.6875 401 C78.43693848 401.79881592 78.18637695 402.59763184 77.92822266 403.4206543 C58.99690761 463.26679106 58.99690761 463.26679106 32.6875 477 C24.82309823 480.80240008 15.5215647 481.54123799 7.0703125 479.30859375 C-3.29272435 475.0235318 -11.60620209 467.28187753 -16.4921875 457.22998047 C-17.89490586 453.41675739 -17.82034785 449.76936273 -17.6875 445.75 C-17.67098389 444.915896 -17.65446777 444.08179199 -17.63745117 443.22241211 C-17.19962564 427.67283508 -12.77681354 415.7355438 -4.70117188 402.58911133 C2.39261222 392.02967944 2.39261222 392.02967944 4.6875 380 C3.3675 379.67 2.0475 379.34 0.6875 379 C-12.6636904 394.30666779 -23.71258667 410.43919193 -27.79492188 430.57080078 C-28.72406544 434.82937544 -29.81557791 437.327888 -33.3125 440 C-33.9725 440 -34.6325 440 -35.3125 440 C-35.6425 440.99 -35.9725 441.98 -36.3125 443 C-37.81201172 444.10327148 -37.81201172 444.10327148 -39.7421875 445.12109375 C-40.44964111 445.49741943 -41.15709473 445.87374512 -41.88598633 446.26147461 C-42.64548584 446.64956299 -43.40498535 447.03765137 -44.1875 447.4375 C-44.96182373 447.83783447 -45.73614746 448.23816895 -46.53393555 448.65063477 C-61.62885898 456.33089409 -77.33424528 460.69470878 -94.0546875 456.09765625 C-105.39492072 452.27678631 -113.50315328 447.63994919 -119.42578125 437 C-121.8606703 431.6797138 -121.80613413 426.60552104 -120.3125 421 C-116.06395566 410.12528559 -103.59607398 403.01005208 -94.6484375 396.21484375 C-88.27502294 391.34771068 -82.31694243 386.28511493 -76.625 380.625 C-76.03638184 380.04177979 -75.44776367 379.45855957 -74.84130859 378.85766602 C-71.81378611 375.7791079 -69.3532648 372.85077173 -67.3125 369 C-63.87910685 369.63877082 -60.58577153 370.4688496 -57.25 371.5 C-51.66696207 373.22050476 -47.21857834 374.11357843 -41.3125 374 C-40.6525 371.69 -39.9925 369.38 -39.3125 367 C-39.86357422 366.82476807 -40.41464844 366.64953613 -40.98242188 366.46899414 C-74.90380763 355.45607185 -98.94070124 336.73635624 -115.3125 305 C-115.87839844 303.93265625 -116.44429687 302.8653125 -117.02734375 301.765625 C-121.61244612 292.5720864 -124.10553333 282.98213796 -126.3125 273 C-126.51149902 272.10458496 -126.71049805 271.20916992 -126.91552734 270.28662109 C-137.03445184 223.18928456 -122.70870447 178.68113452 -103.3125 136 C-97.5546875 136.8671875 -97.5546875 136.8671875 -95.375 138.0625 C-92.35952414 139.43317084 -89.57588129 139.12551466 -86.3125 139 C-86.3125 137.68 -86.3125 136.36 -86.3125 135 C-87.71677754 133.51604358 -87.71677754 133.51604358 -89.6875 132.3125 C-105.78884689 120.88026073 -116.02841112 106.1874119 -123.3125 88 C-123.59875244 87.32291992 -123.88500488 86.64583984 -124.17993164 85.94824219 C-126.71407007 79.355728 -126.81304445 73.00433683 -126.75 66 C-126.74097656 64.80463623 -126.73195312 63.60927246 -126.72265625 62.37768555 C-126.2886794 40.05952186 -118.48713685 20.85760297 -102.9765625 4.54296875 C-74.35263092 -22.64513454 -30.9977462 -24.49439057 0 0 Z M34.6875 79 C29.67646361 83.72100856 25.32855386 88.81464344 21.0078125 94.16796875 C17.38580966 98.58876346 13.57496227 102.81245292 9.6875 107 C9.01460938 107.75023437 8.34171875 108.50046875 7.6484375 109.2734375 C-7.20249208 125.12555334 -29.01196955 135.80970319 -50.77734375 136.609375 C-53.60159417 136.68734073 -56.42487936 136.72220451 -59.25 136.75 C-60.7233406 136.77826163 -62.19664998 136.80820257 -63.66992188 136.83984375 C-67.21730127 136.91247781 -70.7645507 136.96277814 -74.3125 137 C-74.9725 138.32 -75.6325 139.64 -76.3125 141 C-71.98524373 146.04846565 -65.33862744 146.63491679 -59.00244141 147.20947266 C-34.66016616 148.71740121 -11.04691003 141.07643095 7.83203125 125.5234375 C21.90867657 113.08361141 33.28029577 98.8944962 36.6875 80 C35.6975 79.505 35.6975 79.505 34.6875 79 Z M213.9140625 255.15625 C210.14749068 260.81810317 209.99421371 266.40489197 210.6875 273 C212.79611826 281.8348436 218.4900034 290.37479661 226 295.5625 C232.35852999 298.96357418 239.97346519 299.1028347 246.875 297.0625 C252.90700272 294.45070501 257.21445116 288.8233436 260.1875 283.125 C261.45156038 275.2246226 261.5978124 267.17715567 257.6875 260 C252.09409662 252.3147547 246.1618831 246.98800855 236.6875 245 C226.34670829 243.76895337 220.45925834 247.40439794 213.9140625 255.15625 Z M20.0859375 258.91796875 C16.96130266 263.57000889 14.23937901 268.34324012 13.6875 274 C13.62433594 274.64453125 13.56117188 275.2890625 13.49609375 275.953125 C13.08666448 283.50775548 15.41298133 290.34504499 20 296.375 C25.4880453 301.73541634 28.92563116 303.25338421 36.5625 303.5 C45.80698366 303.19642056 52.12804599 300.31966509 58.89453125 294.06640625 C65.45662782 286.50355421 67.11148209 278.04721971 67.03515625 268.33203125 C66.28787428 261.16987934 62.20138606 255.48804679 56.6875 251 C44.16427045 242.28818814 29.0283792 247.51090288 20.0859375 258.91796875 Z M73.875 309.0625 C72.41307888 311.09256845 72.41307888 311.09256845 72.5625 314.3125 C74.09620001 319.33962781 76.30075059 321.24552944 80.6875 324 C86.49928409 327.06276539 92.38774246 329.68732134 98.6875 331.5625 C102.78866644 332.84550505 104.73417036 334.83057307 107.6875 338 C123.07062528 351.08484959 141.28365652 352.96072269 160.6875 352 C165.22206655 351.43037591 169.36052826 350.45395556 173.6875 349 C174.7703125 348.63648438 175.853125 348.27296875 176.96875 347.8984375 C185.62022267 344.76531072 193.9721531 340.91877412 201.3125 335.3125 C203.87115653 333.3797019 206.17808094 332.41493097 209.25 331.5 C213.77412745 330.12107074 216.45171928 328.48468693 219.6875 325 C220.32923849 322.00522039 220.12170693 320.76624752 218.625 318.125 C215.51147293 316.31714557 213.0921074 317.22351059 209.6875 318 C209.06230469 318.33773438 208.43710937 318.67546875 207.79296875 319.0234375 C199.79463977 322.73323758 189.59505489 319.39131288 181.5 317.5 C163.86388927 313.51330893 146.80841241 313.75367812 129.18041992 317.55395508 C112.03729191 321.16137912 97.946748 319.71399826 83 310.125 C79.62175761 307.95782563 77.56543791 306.89913984 73.875 309.0625 Z " fill="#FD6AB2" transform="translate(335.3125,317)"/>
<path d="M0 0 C26.34972901 -0.59567207 50.15978833 8.75325401 69.375 26.80859375 C72.82656332 30.40548605 75.7670513 34.34133135 78.6875 38.37109375 C79.12529785 38.97397217 79.5630957 39.57685059 80.01416016 40.19799805 C82.04518578 43.08514565 83.76713816 45.57425403 84.25 49.12109375 C85.26578125 48.78335938 86.2815625 48.445625 87.328125 48.09765625 C95.58026457 45.40299786 103.59835937 43.1451655 112.25 42.12109375 C113.14589844 41.99863281 114.04179687 41.87617188 114.96484375 41.75 C134.78310644 39.59526271 154.84668416 42.10824933 174.25 46.12109375 C174.55550781 45.3940625 174.86101562 44.66703125 175.17578125 43.91796875 C183.53945192 25.54145291 198.88297855 14.51102661 217.25 7.12109375 C242.43752173 -1.29529968 269.5322582 2.08281436 293.25 13.12109375 C301.3054638 17.23596408 308.45705559 22.15765081 315.25 28.12109375 C316.39082031 29.11882812 316.39082031 29.11882812 317.5546875 30.13671875 C332.93414615 44.50507112 341.26799247 64.50054135 342.2421875 85.33984375 C342.2762081 101.80581532 337.04854388 117.89421773 327.25 131.12109375 C326.60224609 132.02408203 326.60224609 132.02408203 325.94140625 132.9453125 C322.92198423 136.875511 319.32898562 139.40177 315.25 142.12109375 C316.98759802 146.98442674 319.52349814 151.33262139 322.0625 155.80859375 C347.90238838 201.4290926 363.4808692 257.63084165 354.25 310.12109375 C354.12641113 310.83104492 354.00282227 311.54099609 353.87548828 312.27246094 C348.56964532 341.45781288 334.8251414 371.60981242 310.5625 389.87109375 C309.46123497 390.62534792 308.35759488 391.37616583 307.25 392.12109375 C308.42175781 392.26804687 309.59351563 392.415 310.80078125 392.56640625 C323.6420955 394.33130028 334.03821519 397.0949171 342.58984375 407.578125 C348.29897718 416.32317409 349.72165053 426.42229386 347.77734375 436.59375 C344.69506305 447.35404729 336.22703183 455.57839343 326.81640625 461.15625 C306.06553199 472.30221985 282.7263403 479.82467317 259.25 474.12109375 C259.3325 475.37921875 259.415 476.63734375 259.5 477.93359375 C259.46766543 488.2483211 254.08909495 498.92288229 247.14453125 506.3828125 C236.44735676 516.34352058 225.77424555 518.09865069 211.515625 517.79296875 C200.61329443 517.04604604 190.89262936 511.91865811 181.25 507.12109375 C180.53360352 506.77530273 179.81720703 506.42951172 179.07910156 506.07324219 C171.79844193 502.54243785 165.38412851 498.38364645 159.25 493.12109375 C158.05117188 492.12142578 158.05117188 492.12142578 156.828125 491.1015625 C147.82368897 483.34152835 140.19644238 474.42826054 134.25 464.12109375 C133.9096875 465.04148437 133.569375 465.961875 133.21875 466.91015625 C128.30547929 479.87069823 122.18348256 491.4320263 113.25 502.12109375 C112.486875 503.13171875 111.72375 504.14234375 110.9375 505.18359375 C100.35856218 516.74661881 86.78696982 523.27441391 71.25 525.12109375 C58.27372194 525.50135098 47.62080929 520.48509772 37.93359375 512.12109375 C30.4572602 505.03691983 24.89097698 496.758974 21.25 487.12109375 C20.8890625 487.54648437 20.528125 487.971875 20.15625 488.41015625 C7.44717296 499.81707375 -16.32393728 503.7766628 -32.73779297 503.03076172 C-46.3376126 502.14841766 -58.61559427 498.57713155 -68.75 489.12109375 C-69.31332031 488.610625 -69.87664062 488.10015625 -70.45703125 487.57421875 C-75.50106763 482.41525496 -77.49002493 475.8413215 -79.75 469.12109375 C-80.3996875 467.26484375 -80.3996875 467.26484375 -81.0625 465.37109375 C-82.84262171 456.95597293 -81.76956774 449.7820441 -77.75 442.12109375 C-72.74195562 435.26007295 -66.55282849 430.1013576 -59.75 425.12109375 C-47.8044102 416.03271881 -36.18290429 406.96135656 -25.75 396.12109375 C-26.41644531 395.70859375 -27.08289063 395.29609375 -27.76953125 394.87109375 C-56.82641414 376.66482307 -76.29533862 350.79941294 -84.75 317.12109375 C-85.53218824 313.61009496 -86.24838726 310.08896649 -86.9375 306.55859375 C-87.10459473 305.70837646 -87.27168945 304.85815918 -87.44384766 303.98217773 C-96.4482637 255.50577727 -85.37651538 202.40122353 -60.75 160.12109375 C-61.2346875 159.76660156 -61.719375 159.41210938 -62.21875 159.046875 C-71.76333159 151.46627463 -76.58428371 141.1035451 -81.0625 130.05859375 C-81.38798828 129.25655518 -81.71347656 128.4545166 -82.04882812 127.62817383 C-86.42143562 116.37734566 -88.28726569 105.95072299 -88.1875 93.87109375 C-88.18065186 92.59564697 -88.17380371 91.3202002 -88.16674805 90.00610352 C-88.00428496 80.44998825 -87.0225591 72.11796631 -83.75 63.12109375 C-83.36457031 62.05375 -82.97914063 60.98640625 -82.58203125 59.88671875 C-72.85786933 35.08853235 -55.39153818 17.06280563 -31.109375 6.40234375 C-20.9561366 2.52994585 -10.82893885 0.47684248 0 0 Z M-47.75 32.12109375 C-48.66265625 32.77078125 -48.66265625 32.77078125 -49.59375 33.43359375 C-63.48550935 44.04184634 -72.59144992 65.13909118 -75.47314453 82.02050781 C-76.87943444 92.69045351 -76.34271591 102.94950845 -72.75 113.12109375 C-72.48316406 114.04664063 -72.21632812 114.9721875 -71.94140625 115.92578125 C-67.60923552 130.44336671 -59.50732681 144.36376694 -48.75 155.12109375 C-48.51572222 157.13703957 -48.33663876 159.15956775 -48.1875 161.18359375 C-48.10371094 162.28832031 -48.01992187 163.39304687 -47.93359375 164.53125 C-47.87300781 165.38589844 -47.81242187 166.24054688 -47.75 167.12109375 C-48.74 167.45109375 -49.73 167.78109375 -50.75 168.12109375 C-52.05073203 170.15885656 -52.05073203 170.15885656 -53.1328125 172.73828125 C-53.57351074 173.72401123 -54.01420898 174.70974121 -54.46826172 175.7253418 C-54.93248535 176.80468994 -55.39670898 177.88403809 -55.875 178.99609375 C-56.60033936 180.67022339 -56.60033936 180.67022339 -57.34033203 182.37817383 C-65.52197083 201.65080673 -71.93229749 221.52158362 -75.75 242.12109375 C-75.87987305 242.81638184 -76.00974609 243.51166992 -76.14355469 244.22802734 C-79.75876552 264.62814561 -78.14474096 285.01671165 -73.75 305.12109375 C-73.49307373 306.36366943 -73.49307373 306.36366943 -73.23095703 307.63134766 C-67.74921956 333.68144877 -52.85795086 362.27380154 -30.75 378.12109375 C-27.43197817 380.22237416 -24.09788589 382.25164829 -20.703125 384.2265625 C-17.89572085 386.02760881 -15.8001066 387.49560346 -13.75 390.12109375 C-13.140625 392.91796875 -13.140625 392.91796875 -13 395.87109375 C-12.94328125 396.8559375 -12.8865625 397.84078125 -12.828125 398.85546875 C-12.80234375 399.603125 -12.7765625 400.35078125 -12.75 401.12109375 C-13.41 401.12109375 -14.07 401.12109375 -14.75 401.12109375 C-15.513125 402.17296875 -16.27625 403.22484375 -17.0625 404.30859375 C-25.17849268 415.39004529 -35.65228095 423.81998732 -46.57421875 431.98046875 C-50.4778712 434.8989865 -54.30452427 437.8922922 -58.0625 440.99609375 C-59.06925781 441.81851562 -60.07601562 442.6409375 -61.11328125 443.48828125 C-66.11219579 448.47979 -68.4241052 453.58763588 -68.83984375 460.64453125 C-68.69405275 464.66329198 -67.68901728 467.6199 -65.75 471.12109375 C-65.15638672 472.21744141 -65.15638672 472.21744141 -64.55078125 473.3359375 C-58.7219719 482.28568413 -47.52172499 487.33281918 -37.3125 489.62109375 C-35.79728961 489.83287024 -34.27535257 490.00272424 -32.75 490.12109375 C-32.02941406 490.1778125 -31.30882812 490.23453125 -30.56640625 490.29296875 C-15.90784044 490.81555577 -2.55096083 485.66116211 9.8125 478.24609375 C16.37575001 474.58269554 22.84359925 473.54711289 30.25 475.12109375 C32.95831753 477.1050938 34.05212702 478.28976164 34.83203125 481.56640625 C34.90808594 482.45070313 34.98414063 483.335 35.0625 484.24609375 C36.4615203 493.37013916 42.22919947 499.90597814 49.1953125 505.65234375 C57.7912255 511.79695076 65.80150162 512.8721486 76.25 512.12109375 C88.83325117 509.65117177 99.84012631 500.28054321 107.25 490.12109375 C111.87418436 482.98357127 115.67208439 475.51218903 119.125 467.74609375 C119.41125244 467.10470459 119.69750488 466.46331543 119.99243164 465.80249023 C121.42239693 462.47106223 122.46011704 459.32377684 123.1953125 455.76953125 C124.25 452.12109375 124.25 452.12109375 126.046875 450.67578125 C130.69588581 449.50528562 134.54912898 448.7350233 139.25 450.12109375 C142.64238783 453.68698995 144.81622097 457.86827904 147.25 462.12109375 C162.40696899 483.23589373 184.75612531 499.31608766 210.25 505.12109375 C219.56028999 506.4613011 227.70416293 504.03729112 235.5625 498.99609375 C242.66582575 491.39718713 247.02584162 482.25650563 247.625 471.87109375 C247.92993994 468.49572409 248.29241983 467.04534405 250 463.99609375 C256.44899035 460.27552239 264.19684797 461.70144973 271.25 463.12109375 C279.47425801 463.73378919 286.48038684 462.77322132 294.25 460.12109375 C294.96671875 459.87939453 295.6834375 459.63769531 296.421875 459.38867188 C305.89320386 456.16192013 315.00947846 452.93083383 323.25 447.12109375 C324.1575 446.54359375 325.065 445.96609375 326 445.37109375 C330.89096764 440.48012611 334.8819592 433.87510993 335.5625 426.93359375 C335.17374779 422.19081684 334.14497234 418.91689524 331.25 415.12109375 C322.89756532 408.06203981 315.15253717 406.70372061 304.5546875 406.17382812 C300.17956536 405.84406146 297.80327297 405.51319893 294.15234375 402.92578125 C291.92819075 399.64663986 291.65872437 397.98235253 291.8125 394.05859375 C291.84537109 392.52525391 291.84537109 392.52525391 291.87890625 390.9609375 C292.24787416 388.13736205 292.62831824 386.447404 294.25 384.12109375 C296.0859375 383.0859375 296.0859375 383.0859375 298.25 382.12109375 C324.71142806 363.59809411 336.5170058 333.81889937 342.25 303.12109375 C350.81395162 253.14205335 332.2893601 195.18519725 304.6875 153.68359375 C301.42639931 148.49339124 301.27066081 143.13339024 301.25 137.12109375 C301.80945313 136.88390625 302.36890625 136.64671875 302.9453125 136.40234375 C311.26408581 131.77766977 316.92006192 123.34249517 321.25 115.12109375 C321.61609375 114.51265625 321.9821875 113.90421875 322.359375 113.27734375 C324.90128492 108.81922482 326.21901133 104.06464348 327.5 99.12109375 C327.67547363 98.4564209 327.85094727 97.79174805 328.03173828 97.10693359 C331.97865785 80.90903057 325.45043049 64.92021172 317.25 51.12109375 C311.60849468 42.09678637 305.09545858 35.97522156 296.25 30.12109375 C295.44949219 29.56808594 294.64898438 29.01507813 293.82421875 28.4453125 C281.22297615 20.24921017 267.00131748 16.78998318 252.25 15.12109375 C250.90035156 14.96447266 250.90035156 14.96447266 249.5234375 14.8046875 C231.74854067 13.85791464 212.36077584 22.33874063 198.5546875 32.9765625 C194.71539663 36.54905519 191.93698269 40.64522312 189.25 45.12109375 C188.71375 45.99121094 188.1775 46.86132812 187.625 47.7578125 C186.17678554 50.09991406 186.17678554 50.09991406 185.25 52.74609375 C184.13482159 55.39464247 183.58449422 56.4508865 181.25 58.12109375 C178.56921258 58.42764119 176.17709312 58.54621325 173.5 58.49609375 C172.74501221 58.48956787 171.99002441 58.48304199 171.2121582 58.47631836 C164.83849517 58.32759733 158.96410482 57.24980963 152.7421875 55.85546875 C147.592376 54.77251063 142.50002522 54.349046 137.25 54.12109375 C136.31027344 54.07984375 135.37054688 54.03859375 134.40234375 53.99609375 C121.13472478 53.71038459 108.53284852 56.01022103 95.78344727 59.4440918 C90.02993005 60.93294299 84.19389193 62.05482166 78.25 61.12109375 C75.49075221 58.76423626 74.17119657 57.11630864 72.25 54.12109375 C71.47148603 52.93395422 70.69139947 51.74784522 69.91015625 50.5625 C69.2764209 49.59993286 69.2764209 49.59993286 68.62988281 48.61791992 C56.52619463 30.27172539 39.48578454 19.91267135 18.25 14.12109375 C-6.28405215 9.8183738 -28.29861673 17.02449778 -47.75 32.12109375 Z " fill="#430019" transform="translate(282.75,284.87890625)"/>
<path d="M0 0 C0.69480469 0.27328125 1.38960937 0.5465625 2.10546875 0.828125 C7.13904058 2.84522118 11.6326846 5.5265502 16.1875 8.4375 C17.06100098 8.99473755 17.06100098 8.99473755 17.95214844 9.56323242 C28.85125186 16.67990652 35.55191915 25.72329161 41.4375 37.25 C41.77958496 37.91104736 42.12166992 38.57209473 42.47412109 39.25317383 C49.02582206 52.56829739 47.69275116 73.16017308 44.0390625 87.296875 C42.75749142 90.63088697 41.22176747 92.86011941 38.68359375 95.34765625 C36.66167887 97.33204139 35.02140027 99.49193939 33.3125 101.75 C32.22524057 103.17968367 31.12237281 104.59771339 30 106 C29.51917969 106.60328125 29.03835938 107.2065625 28.54296875 107.828125 C27 109 27 109 25.08203125 108.97265625 C22.23272898 107.64155632 20.7339924 105.81841034 18.6875 103.4375 C17.8934375 102.52742188 17.099375 101.61734375 16.28125 100.6796875 C14.9420262 99.10655817 13.60681648 97.52996697 12.28125 95.9453125 C-14.80946257 63.94108834 -55.05920336 43.40820666 -94 30 C-88.42092442 14.98144584 -76.213339 5.99549916 -62.10327148 -0.57006836 C-42.28325472 -9.1892929 -19.61764576 -9.32465795 0 0 Z " fill="#FC72A9" transform="translate(563,307)"/>
<path d="M0 0 C2.88352415 0.87049786 4.44162787 1.62775192 6.875 3.25 C20.83325069 12.24939847 34.93415122 12.91213337 50.80981445 9.55615234 C51.65632568 9.37262207 52.50283691 9.1890918 53.375 9 C71.22623136 5.20200756 88.4504778 6.08712744 106.1472168 10.20288086 C115.60842512 12.39887669 124.53082612 14.26900433 133.3125 9 C136.28091562 8.58580247 137.61411612 8.54243815 140.125 10.1875 C141.73078995 12.63844256 141.63587187 14.11150262 141.3125 17 C138.08617488 20.81532725 133.67393303 23.06131714 128.9375 24.4375 C125.27968322 25.50125284 122.73904958 26.97144228 119.6875 29.25 C102.09277727 42.1655663 80.7339001 45.94740001 59.3125 44 C46.32467902 41.64727249 34.3915827 35.61314639 25.3125 26 C22.23788998 23.71600398 19.33407638 22.68411566 15.6875 21.6875 C7.32902567 19.28865535 -0.99935028 15.59803575 -5.6875 8 C-6.24991951 4.97699515 -6.13457174 3.74511956 -4.5625 1.125 C-2.6875 0 -2.6875 0 0 0 Z M76.3125 17 C76.66183594 17.74765625 77.01117188 18.4953125 77.37109375 19.265625 C77.82613281 20.25046875 78.28117187 21.2353125 78.75 22.25 C79.20246094 23.22453125 79.65492188 24.1990625 80.12109375 25.203125 C81.09632356 27.49251695 81.8099274 29.57378746 82.3125 32 C91.21708773 31.46572474 101.40979818 28.84337629 108.3125 23 C92.56369256 18.41287761 92.56369256 18.41287761 76.3125 17 Z M54.1875 20.9375 C49.23556522 21.86722411 44.32562759 22.50690548 39.3125 23 C45.65460036 30.1158973 54.94109517 32.15983671 64.125 32.8125 C66.18676911 32.89569025 68.2493338 32.96597477 70.3125 33 C69.78414489 28.92309777 68.66574283 26.74382266 65.9375 23.6875 C65.33164062 22.99011719 64.72578125 22.29273438 64.1015625 21.57421875 C61.07125211 18.90781027 57.87768209 20.21733626 54.1875 20.9375 Z " fill="#45011B" transform="translate(413.6875,625)"/>
<path d="M0 0 C6.46675372 3.79312642 11.08500766 9.25465244 13.625 16.3125 C15.01003676 25.74507794 13.38479752 34.61436127 8.1171875 42.59765625 C3.44792008 48.40709362 -2.3411557 51.96788523 -9.375 54.3125 C-17.38894036 55.12625487 -24.02596302 55.28925034 -30.5390625 50.15625 C-36.0682443 44.60353976 -39.36087012 37.86633632 -39.6875 30 C-39.44039238 21.32216189 -35.89978946 13.91984956 -30.375 7.3125 C-22.03675556 -0.46647195 -11.00647875 -5.11832471 0 0 Z " fill="#44011A" transform="translate(388.375,565.6875)"/>
<path d="M0 0 C7.69676195 4.12933239 13.15588976 10.16704467 16.30078125 18.234375 C18.49439781 25.56646324 18.1636563 33.31727783 14.69921875 40.16015625 C11.55212559 44.82805142 7.47262786 48.12432007 2.48828125 50.671875 C-4.68929188 51.93850555 -11.46091693 52.31876994 -17.92578125 48.55859375 C-24.73989733 43.47052029 -30.90650895 34.54602952 -32.69921875 26.234375 C-33.41470987 19.09047133 -33.14515649 13.08819302 -28.69921875 7.234375 C-20.26590922 -1.50999922 -11.76944548 -4.43183382 0 0 Z " fill="#440119" transform="translate(578.69921875,563.765625)"/>
<path d="M0 0 C7.15842804 1.36245801 13.54754417 3.60148819 20.25 6.4375 C21.82164917 7.10120605 21.82164917 7.10120605 23.42504883 7.77832031 C45.5053976 17.26298903 66.75511766 29.22456829 85 45 C86.21331325 46.03021699 87.42687771 47.06013816 88.640625 48.08984375 C98.34279394 56.36472969 107.14705747 64.61135032 114.921875 74.77734375 C117.0328752 77.03516163 117.98303548 77.68063664 121 78 C125.38579957 73.20968493 129.59008792 68.54110713 133 63 C133.33 63.66 133.66 64.32 134 65 C130.69100737 70.65460767 126.85948445 75.44094292 122.25 80.0625 C121.5242981 80.79593628 121.5242981 80.79593628 120.78393555 81.54418945 C117.25894702 85 117.25894702 85 115 85 C115 88.63 115 92.26 115 96 C112.40562525 92.8867503 110.08202543 89.66400848 107.8125 86.3125 C96.20863363 69.71456456 80.27049489 56.79156018 64 45 C63.3910791 44.5555957 62.7821582 44.11119141 62.15478516 43.65332031 C40.26336206 27.85263157 14.88443512 16.60808254 -11.37792969 10.49438477 C-13.26523618 10.04922208 -15.13527057 9.53186441 -17 9 C-17.33 8.34 -17.66 7.68 -18 7 C-17.11957031 6.99742187 -16.23914063 6.99484375 -15.33203125 6.9921875 C-8.83025476 7.01710521 -8.83025476 7.01710521 -3.0234375 4.59765625 C-1.51043631 2.80557541 -1.51043631 2.80557541 0 0 Z " fill="#CE2967" transform="translate(469,337)"/>
<path d="M0 0 C0.99 0.495 0.99 0.495 2 1 C-0.70219359 15.28302327 -7.33633248 26.28807024 -17 37 C-18.04800781 38.17175781 -18.04800781 38.17175781 -19.1171875 39.3671875 C-35.28858183 56.48635586 -59.62669479 67.79555928 -83.20458984 68.48706055 C-103.96972244 68.58537679 -103.96972244 68.58537679 -109.8046875 63.39453125 C-110.19914062 62.93433594 -110.59359375 62.47414063 -111 62 C-110.34 60.68 -109.68 59.36 -109 58 C-107.67947632 57.99383667 -107.67947632 57.99383667 -106.33227539 57.98754883 C-82.6486516 58.10141088 -82.6486516 58.10141088 -60 52 C-59.32630371 51.71205566 -58.65260742 51.42411133 -57.95849609 51.12744141 C-38.7728603 42.73066326 -23.98556118 28.90995334 -11.109375 12.62109375 C-7.59165308 8.24999855 -3.79218729 4.1328566 0 0 Z " fill="#CF2968" transform="translate(370,396)"/>
<path d="M0 0 C3.875 0.875 3.875 0.875 5 2 C4.65706193 7.93663911 2.678483 12.16930723 -0.1875 17.3125 C-0.59315186 18.06088135 -0.99880371 18.8092627 -1.41674805 19.58032227 C-3.61179305 23.60014799 -5.90138171 27.54261661 -8.3125 31.4375 C-15.47046191 43.19559256 -16.98856793 55.47875027 -18 69 C-18.68449219 68.35546875 -19.36898438 67.7109375 -20.07421875 67.046875 C-23.54562508 64.61828098 -25.6205163 64.41937308 -29.8125 64.25 C-30.97394531 64.19328125 -32.13539063 64.1365625 -33.33203125 64.078125 C-34.21246094 64.05234375 -35.09289062 64.0265625 -36 64 C-36 63.34 -36 62.68 -36 62 C-35.21625 61.4534375 -34.4325 60.906875 -33.625 60.34375 C-30.32975392 57.401566 -29.78006489 54.67095918 -29 50.5 C-26.6584519 38.55332603 -21.59616419 28.66081174 -14.625 18.75 C-13.99078125 17.821875 -13.3565625 16.89375 -12.703125 15.9375 C-8.79971786 10.29747499 -4.64569965 5.04616004 0 0 Z " fill="#CE2968" transform="translate(336,695)"/>
<path d="M0 0 C9.28338197 1.22821377 14.63898212 10.9549659 19.99365234 17.92553711 C22.89790388 21.68365277 25.91863505 25.04043605 29.39453125 28.28515625 C31.38811127 30.41455194 32.85589582 32.73867915 34.4375 35.1875 C37.66738861 39.98141125 40.68532897 41.98371243 46 44 C47.33935528 44.65448426 48.67439633 45.31809301 50 46 C49.19175781 46.01417969 48.38351562 46.02835938 47.55078125 46.04296875 C40.85546632 46.31604159 40.85546632 46.31604159 34.8125 48.9375 C32.29665161 53.18841624 32.10405286 57.12843434 32 62 C31.67 62 31.34 62 31 62 C30.92523437 61.41734375 30.85046875 60.8346875 30.7734375 60.234375 C28.95358029 48.88703003 23.71718661 40.40656447 16.25585938 31.9375 C9.49207399 24.24426927 2.70621909 15.60247673 -1 6 C-0.75 2.5 -0.75 2.5 0 0 Z " fill="#CE2968" transform="translate(498,700)"/>
<path d="M0 0 C0.66 0.33 1.32 0.66 2 1 C1.34 1.66 0.68 2.32 0 3 C-0.75638172 8.390215 -0.88367806 13.33083032 1.6875 18.1875 C6.8547698 21.01487404 12.19324324 20.90647976 18 21 C18 21.33 18 21.66 18 22 C16.88028809 21.98952637 15.76057617 21.97905273 14.60693359 21.96826172 C10.43606793 21.93194701 6.26521613 21.90905787 2.09423828 21.89013672 C0.29213101 21.88010524 -1.5099601 21.86647685 -3.31201172 21.84912109 C-5.90856935 21.824747 -8.50491097 21.81348822 -11.1015625 21.8046875 C-11.9017984 21.79436493 -12.7020343 21.78404236 -13.52651978 21.77340698 C-18.11503198 21.77249535 -21.65652938 22.35347129 -26 24 C-29.25 24.25 -29.25 24.25 -32 24 C-34 22 -34 22 -34.375 19.5625 C-34 17 -34 17 -32.4375 15.5078125 C-29.33134595 13.58637746 -26.06129061 12.48215256 -22.625 11.3125 C-16.08374271 9.00111499 -10.22928784 6.11826511 -4.34228516 2.45239258 C-2.92558683 1.58275905 -1.46586693 0.78392014 0 0 Z " fill="#CF2A68" transform="translate(575,670)"/>
<path d="M0 0 C0.763125 0.825 1.52625 1.65 2.3125 2.5 C6.17356001 5.80283447 9.92836511 5.40334296 14.8046875 5.17578125 C15.52914063 5.11777344 16.25359375 5.05976563 17 5 C23.12041213 32.69242322 23.12041213 32.69242322 18 44 C16.68 44 15.36 44 14 44 C13.39455784 41.75033674 12.79066353 39.50027436 12.1875 37.25 C12.00372803 36.56768311 11.81995605 35.88536621 11.63061523 35.18237305 C10.53056376 31.07407623 9.52014084 26.95677327 8.5625 22.8125 C7.02988354 16.58098251 4.57693347 10.85975961 2 5 C1.32664848 3.33602285 0.65777261 1.67019682 0 0 Z " fill="#CF2A69" transform="translate(355,341)"/>
<path d="M0 0 C4.29817181 1.68261765 8.52497176 3.51835248 12.75 5.375 C13.45576172 5.68445557 14.16152344 5.99391113 14.88867188 6.31274414 C19.93277466 8.52619742 24.9700742 10.75449741 30 13 C30.125 15.875 30.125 15.875 30 19 C28 21 28 21 25.125 21.3125 C18.0821621 21.10535771 9.57442935 19.45152272 4 15 C3.3984375 12.44140625 3.3984375 12.44140625 3.375 9.5625 C3.31698423 5.29834125 2.87347221 3.21555223 0 0 Z " fill="#CF2A68" transform="translate(266,671)"/>
<path d="M0 0 C7.36845108 0.28895887 14.43629982 1.36429776 21.625 2.9375 C22.41890137 3.10733398 23.21280273 3.27716797 24.03076172 3.45214844 C29.75073754 4.75073754 29.75073754 4.75073754 32 7 C14.08805031 15 14.08805031 15 6 15 C5.73445313 14.25234375 5.46890625 13.5046875 5.1953125 12.734375 C4.84210938 11.74953125 4.48890625 10.7646875 4.125 9.75 C3.77695312 8.77546875 3.42890625 7.8009375 3.0703125 6.796875 C2.16725355 4.43705673 1.17921582 2.23094884 0 0 Z " fill="#C12561" transform="translate(490,642)"/>
<path d="M0 0 C1.66796875 1.453125 1.66796875 1.453125 3.1875 3.25 C3.69667969 3.83265625 4.20585937 4.4153125 4.73046875 5.015625 C6.21053193 7.3290776 6.61365233 9.30022108 7 12 C-3.18615142 11.8320125 -14.4772423 11.05797116 -22.3671875 3.83203125 C-22.90601563 3.22746094 -23.44484375 2.62289062 -24 2 C-22.21142578 1.80083984 -22.21142578 1.80083984 -20.38671875 1.59765625 C-18.82029322 1.41944017 -17.25388802 1.24104544 -15.6875 1.0625 C-14.90181641 0.97548828 -14.11613281 0.88847656 -13.30664062 0.79882812 C-12.54931641 0.71181641 -11.79199219 0.62480469 -11.01171875 0.53515625 C-10.31522217 0.456604 -9.61872559 0.37805176 -8.90112305 0.29711914 C-2.03774767 -0.77553115 -2.03774767 -0.77553115 0 0 Z " fill="#F15AAC" transform="translate(477,646)"/>
<path d="M0 0 C1.67542976 0.28604898 3.34385343 0.61781233 5 1 C5.07347656 1.97839844 5.07347656 1.97839844 5.1484375 2.9765625 C5.57242229 7.93279853 6.15665573 12.33019451 8 17 C7.24074219 17.04898438 6.48148437 17.09796875 5.69921875 17.1484375 C4.20841797 17.26058594 4.20841797 17.26058594 2.6875 17.375 C1.70136719 17.44460938 0.71523438 17.51421875 -0.30078125 17.5859375 C-3.21528433 17.83865472 -3.21528433 17.83865472 -6 20 C-5.46137794 14.07515739 -4.29622483 4.29622483 0 0 Z " fill="#CE2A68" transform="translate(414,717)"/>
<path d="M0 0 C0.99 0.86625 1.98 1.7325 3 2.625 C6.86190708 5.94197541 10.89447006 8.99283262 15 12 C14.67 13.65 14.34 15.3 14 17 C7.741346 17.5326514 3.54891215 15.81849506 -2 13 C-1.34 12.67 -0.68 12.34 0 12 C0 8.04 0 4.08 0 0 Z " fill="#CF2A69" transform="translate(235,440)"/>
<path d="M0 0 C0 3.80196862 -0.89536327 4.22027411 -3.5 6.875 C-20.69422746 25.59353841 -24.52187752 47.54403513 -25 72 C-29.29046368 65.56430448 -27.65027132 54.39328671 -26.41796875 46.921875 C-22.77645318 30.49348511 -14.43875601 9.78002696 0 0 Z " fill="#C42964" transform="translate(234,318)"/>
<path d="M0 0 C25.04547627 -0.52299138 47.04666831 6.15398052 65.734375 23.62109375 C66.84663438 24.72398015 67.92870291 25.85728311 69 27 C68.67 27.66 68.34 28.32 68 29 C67.58492188 28.52691406 67.16984375 28.05382812 66.7421875 27.56640625 C52.20459075 11.96434112 32.34069158 4.08633522 11.375 2.8125 C10.18003906 2.73064453 8.98507812 2.64878906 7.75390625 2.56445312 C4.83645724 2.36606659 1.91874298 2.17814375 -1 2 C-0.67 1.34 -0.34 0.68 0 0 Z " fill="#C42964" transform="translate(277,298)"/>
<path d="M0 0 C1.91543509 2.87315263 2.47354742 4.39404529 3.125 7.6875 C3.29257812 8.49574219 3.46015625 9.30398438 3.6328125 10.13671875 C4.50814587 16.96245659 3.877616 22.73086757 2.125 29.3125 C1.95097656 30.01439453 1.77695312 30.71628906 1.59765625 31.43945312 C0.74645344 34.74653368 -0.08829888 37.13244832 -2 40 C-1.10967473 32.36864053 -1.10967473 32.36864053 -0.48632812 30.2734375 C0.1483599 27.30646213 0.11144643 24.51821443 0.09765625 21.484375 C0.09443359 20.23398437 0.09121094 18.98359375 0.08789062 17.6953125 C0.07951172 16.39335937 0.07113281 15.09140625 0.0625 13.75 C0.05573242 11.77386719 0.05573242 11.77386719 0.04882812 9.7578125 C0.03704316 6.50516259 0.02059011 3.25260416 0 0 Z " fill="#C8346B" transform="translate(608,355)"/>
<path d="M0 0 C0 0.66 0 1.32 0 2 C-0.969375 2.1959375 -1.93875 2.391875 -2.9375 2.59375 C-16.19045052 5.47286801 -29.23441349 10.23441349 -39 20 C-39.66 19.67 -40.32 19.34 -41 19 C-31.67358674 9.18272289 -13.75096354 -0.59463626 0 0 Z " fill="#C42964" transform="translate(276,299)"/>
</svg>
