<?xml version="1.0" encoding="UTF-8"?>
<svg version="1.1" xmlns="http://www.w3.org/2000/svg" width="820" height="820">
<path d="M0 0 C1.567949 1.32692124 3.13077303 2.65993091 4.6875 4 C5.39648438 4.55300781 6.10546875 5.10601562 6.8359375 5.67578125 C14.45412037 11.79075945 19.19687726 19.95611382 22.6875 29 C23.06519531 29.8353125 23.44289063 30.670625 23.83203125 31.53125 C29.01176213 43.17390793 31.66691296 55.451091 33.6875 68 C35.0075 68 36.3275 68 37.6875 68 C40.82179723 57.61764044 39.92120403 48.72665941 37.34375 38.26171875 C36.70297664 35.07692257 36.56993769 32.23786193 36.6875 29 C65.23761431 20.41412621 93.86606825 19.52022068 122.33984375 29.22583008 C124.61450808 29.97592997 126.89605719 30.64630106 129.203125 31.2890625 C165.92919529 41.57731106 197.39965786 61.12588719 225.3125 86.9375 C225.90973877 87.48623779 226.50697754 88.03497559 227.12231445 88.6003418 C235.64050748 96.57301762 242.80519523 105.0914469 249.0625 114.9375 C249.70606445 115.93966553 250.34962891 116.94183105 251.01269531 117.97436523 C273.71924183 153.58954394 290.78516091 191.12005759 297.6875 233 C297.80609375 233.68932617 297.9246875 234.37865234 298.046875 235.08886719 C303.29987739 266.0596938 298.18954604 301.4983428 280.6875 328 C277.38260752 332.35571084 273.5922575 336.18539563 269.6875 340 C268.61048828 341.10794922 268.61048828 341.10794922 267.51171875 342.23828125 C257.71920693 351.7357268 245.0483845 357.33144306 231.6171875 359.03515625 C230.30878906 359.20466797 229.00039063 359.37417969 227.65234375 359.54882812 C226.28909837 359.72033741 224.92581674 359.89155881 223.5625 360.0625 C220.8720707 360.405086 218.18211463 360.75112566 215.4921875 361.09765625 C214.30608887 361.24726807 213.11999023 361.39687988 211.89794922 361.55102539 C209.13054842 361.9380406 206.41904655 362.41595433 203.6875 363 C204.3475 364.98 205.0075 366.96 205.6875 369 C226.10614519 369.95181579 245.88266861 367.48706695 263.6875 356.625 C266.6875 355 266.6875 355 269.0625 355.125 C270.6875 356 270.6875 356 271.6875 358 C272.40030531 371.41068587 271.50947065 384.07176384 262.375 394.6875 C261.488125 395.450625 260.60125 396.21375 259.6875 397 C259.089375 397.55300781 258.49125 398.10601563 257.875 398.67578125 C244.78631953 410.61408941 231.70729308 413.25503143 214.27734375 413.16796875 C210.10659618 412.97281952 206.64182218 412.29120724 202.6875 411 C201.66561318 407.13527014 201.71957307 403.71105271 201.90625 399.76879883 C202.32068169 389.46304827 200.74811621 381.9364921 193.859375 373.85546875 C185.53586488 365.81955959 176.60287234 364.41886766 165.44116211 364.52490234 C153.38422118 364.93087505 139.99246176 367.23902476 130.8515625 375.69921875 C127.73808988 379.06849311 126.38115507 381.39665272 125.6875 386 C133.15868526 384.79497012 140.06528935 382.64410571 147.17724609 380.12060547 C157.02507498 376.689209 170.56766787 374.11566096 180.375 378.6875 C183.53890462 380.63925934 185.66469091 382.85340808 187.6875 386 C188.55375 387.2684375 188.55375 387.2684375 189.4375 388.5625 C192.97473532 398.28989712 190.31414493 408.64883554 186.6875 418 C184.9661299 421.27296122 183.01793641 424.13460853 180.6875 427 C179.98625 427.886875 179.285 428.77375 178.5625 429.6875 C167.46854342 438.61089986 155.78496614 440.12823475 142.0625 440.25 C140.73810913 440.26426025 140.73810913 440.26426025 139.38696289 440.27880859 C130.43063193 440.23362953 122.80512962 438.5427894 114.8125 434.5 C114.12631592 434.15541748 113.44013184 433.81083496 112.7331543 433.45581055 C106.06150795 429.941011 100.94944143 425.40296498 95.6875 420 C94.79804688 419.13503906 93.90859375 418.27007813 92.9921875 417.37890625 C86.61097826 410.79220044 86.63620572 401.6722864 85.6875 393 C83.73824453 393.25483311 83.73824453 393.25483311 81.6875 394 C80.26915362 396.47614673 79.08812191 398.84187705 77.9375 401.4375 C72.23443531 413.5176523 64.05610641 425.05647828 51.21875 430.15625 C34.72747501 435.65334166 20.537068 435.56333802 5 427.8125 C-2.6715917 423.51134847 -7.98486463 418.62381156 -10.625 410.109375 C-11.28148896 407.94187433 -11.28148896 407.94187433 -12.375 405.765625 C-15.72474705 398.64741252 -16.51405474 391.79190047 -15.3125 384 C-12.77489427 377.95146032 -8.50627707 373.83887871 -3.3125 370 C-2.260625 369.13375 -2.260625 369.13375 -1.1875 368.25 C4.72059591 364.3112694 13.83779664 365.31906361 20.4921875 366.49609375 C26.90228903 368.17945869 33.11677868 370.51935306 39.328125 372.81640625 C42.75817371 374.02490016 46.18271143 375.03484883 49.6875 376 C47.50125997 368.54106343 44.48926652 364.73022907 37.72265625 360.8828125 C35.41345765 359.77336513 33.09828881 358.86817097 30.6875 358 C29.65625 357.62617187 28.625 357.25234375 27.5625 356.8671875 C18.12082822 353.79864417 5.75291639 351.1983376 -3.75 355.5625 C-5.55591407 356.66978 -5.55591407 356.66978 -7.3125 358 C-8.04726563 358.49757813 -8.78203125 358.99515625 -9.5390625 359.5078125 C-15.20169499 363.57960509 -19.47700284 368.18713513 -23.3125 374 C-23.74820313 374.64066406 -24.18390625 375.28132813 -24.6328125 375.94140625 C-29.54192296 384.71257914 -28.18620133 397.44869322 -26.3125 407 C-38.34554829 412.51514713 -48.48808219 413.05603148 -61.3125 410 C-61.3125 409.34 -61.3125 408.68 -61.3125 408 C-62.4675 408 -63.6225 408 -64.8125 408 C-72.63964171 407.1166862 -79.52474976 402.75037461 -86.3125 399 C-86.98216797 398.63277832 -87.65183594 398.26555664 -88.34179688 397.88720703 C-102.79029402 389.87091941 -114.93221373 380.67679053 -119.84765625 364.15625 C-121.11652545 358.27040298 -120.72945472 352.53885457 -118.3125 347 C-115.93589616 344.22818563 -113.52688377 341.76067147 -110.3125 340 C-106.09527971 340.16065601 -103.73702358 341.93077184 -100.5 344.5 C-83.26176599 357.40562974 -59.37020894 370.67956998 -37.3125 370 C-37.35874655 368.0755345 -37.35874655 368.0755345 -38.3125 366 C-40.92059361 364.35786954 -40.92059361 364.35786954 -44.2265625 363.046875 C-44.82836334 362.78581467 -45.43016418 362.52475433 -46.05020142 362.25578308 C-47.3389524 361.6979329 -48.63048273 361.14646837 -49.92443848 360.60079956 C-53.2847606 359.18059429 -56.62111933 357.70589457 -59.9609375 356.23828125 C-60.61288086 355.95324234 -61.26482422 355.66820343 -61.93652344 355.37452698 C-93.3282275 341.62034452 -120.80809144 319.18214776 -134.3125 287 C-136.43164545 281.16515332 -138.17079535 275.21610223 -139.73144531 269.20947266 C-140.25820484 267.20645848 -140.85012135 265.22086131 -141.44921875 263.23828125 C-145.48907469 246.74510356 -142.78740517 227.16638275 -138.3125 211 C-138.11946289 210.27796387 -137.92642578 209.55592773 -137.72753906 208.81201172 C-130.53936299 182.70913587 -116.34126565 157.90733483 -99.3125 137 C-98.40242188 137.32742188 -97.49234375 137.65484375 -96.5546875 137.9921875 C-92.98473262 139.10188432 -90.02872321 139.14864893 -86.3125 139 C-86.3125 137.68 -86.3125 136.36 -86.3125 135 C-88.06866988 133.66531089 -89.83554291 132.34361265 -91.63671875 131.0703125 C-102.36689254 122.76813424 -110.67919681 112.76419156 -117.3125 101 C-117.81265625 100.11570312 -118.3128125 99.23140625 -118.828125 98.3203125 C-124.42679405 87.76378591 -127.01175558 77.75838742 -126.8125 65.8125 C-126.79896484 64.63067139 -126.78542969 63.44884277 -126.77148438 62.23120117 C-126.24883174 39.98351959 -118.43753472 20.8054295 -102.9765625 4.54296875 C-74.35263092 -22.64513454 -30.9977462 -24.49439057 0 0 Z M34.6875 79 C29.67646361 83.72100856 25.32855386 88.81464344 21.0078125 94.16796875 C17.38580966 98.58876346 13.57496227 102.81245292 9.6875 107 C9.01460938 107.75023437 8.34171875 108.50046875 7.6484375 109.2734375 C-10.06554708 128.18162329 -32.86122998 135.77521951 -58.1557312 136.62335205 C-63.54047966 136.78828817 -68.92606468 136.90539109 -74.3125 137 C-74.9725 138.32 -75.6325 139.64 -76.3125 141 C-71.98524373 146.04846565 -65.33862744 146.63491679 -59.00244141 147.20947266 C-34.66016616 148.71740121 -11.04691003 141.07643095 7.83203125 125.5234375 C21.90867657 113.08361141 33.28029577 98.8944962 36.6875 80 C35.6975 79.505 35.6975 79.505 34.6875 79 Z M19.0078125 269.9609375 C14.58879622 276.7855721 12.22679545 284.92166875 13.6875 293 C16.49168713 301.16197444 20.40997655 305.46840449 27.75 309.8125 C34.2180132 312.26293672 41.41459615 312.08172246 47.9140625 309.93359375 C57.76830545 305.35573658 64.53828923 299.04545765 68.6875 289 C69.30625 287.7934375 69.30625 287.7934375 69.9375 286.5625 C72.2252728 278.74594294 70.28485364 272.09512657 66.6875 265 C63.57994227 260.07077049 59.34087973 257.09674024 53.72265625 255.41015625 C40.16516737 252.67784083 27.41302188 259.53480347 19.0078125 269.9609375 Z M218.046875 268.98828125 C213.14557198 276.24164634 212.74587918 282.42485117 213.6875 291 C216.22013684 301.10607743 222.48131552 310.15128931 231.5 315.5625 C238.21682276 318.59165536 245.86516703 319.3297463 253.0390625 317.3515625 C259.42408829 314.46720722 263.82076233 309.52663865 266.5625 303.125 C269.11990282 295.20922937 267.85052022 287.56271001 264.6875 280 C260.00571702 271.20392288 253.85858149 265.12378197 244.4375 261.69140625 C233.897781 259.04150531 225.05353185 260.54486612 218.046875 268.98828125 Z M85.6875 322 C85.71606639 324.84890014 85.71606639 324.84890014 86.6875 328 C88.73339719 329.81823344 90.43175827 331.07274378 92.75 332.4375 C93.68513428 333.01262329 93.68513428 333.01262329 94.63916016 333.59936523 C100.39224192 337.03449935 106.41702696 339.6724051 112.59375 342.23828125 C116.86363387 344.03003434 120.95124617 346.12457953 125.0625 348.25 C140.62770871 356.20417605 159.08011064 359.23740779 176.0625 353.9375 C182.09835355 351.92284293 187.44103795 349.07939436 192.80859375 345.68359375 C195.80251369 343.93273962 198.74919623 342.75889246 202 341.5625 C208.33912811 339.06678027 212.62832936 335.11834128 215.6875 329 C215.85420273 325.95826106 215.85420273 325.95826106 215.6875 323 C215.3575 322.67 215.0275 322.34 214.6875 322 C208.46229912 322 205.29574674 324.4667394 200.60546875 328.40625 C195.87188179 332.33965831 189.65135905 331.77167441 183.76855469 331.34326172 C178.94899419 330.54829433 174.89076668 328.04034616 170.7109375 325.62890625 C164.83047933 322.46075243 158.41497843 321.95814144 151.99023438 323.75390625 C147.92441912 325.14462777 143.90144242 326.63513177 139.8828125 328.15625 C128.11774276 332.36880694 118.12132136 332.00951517 106.6875 327 C103.27384511 325.20475582 99.9197217 323.35010846 96.59765625 321.390625 C92.06431744 319.2243584 89.8706202 319.2112532 85.6875 322 Z " fill="#FD69B3" transform="translate(332.3125,202)"/>
<path d="M0 0 C26.34972901 -0.59567207 50.15978833 8.75325401 69.375 26.80859375 C72.82656332 30.40548605 75.7670513 34.34133135 78.6875 38.37109375 C79.12529785 38.97397217 79.5630957 39.57685059 80.01416016 40.19799805 C82.04518578 43.08514565 83.76713816 45.57425403 84.25 49.12109375 C85.26578125 48.78335938 86.2815625 48.445625 87.328125 48.09765625 C95.58026457 45.40299786 103.59835937 43.1451655 112.25 42.12109375 C113.14589844 41.99863281 114.04179687 41.87617188 114.96484375 41.75 C134.78310644 39.59526271 154.84668416 42.10824933 174.25 46.12109375 C174.55550781 45.3940625 174.86101562 44.66703125 175.17578125 43.91796875 C183.53945192 25.54145291 198.88297855 14.51102661 217.25 7.12109375 C242.43752173 -1.29529968 269.5322582 2.08281436 293.25 13.12109375 C301.3054638 17.23596408 308.45705559 22.15765081 315.25 28.12109375 C316.39082031 29.11882812 316.39082031 29.11882812 317.5546875 30.13671875 C332.93414615 44.50507112 341.26799247 64.50054135 342.2421875 85.33984375 C342.28536633 106.23839861 334.03230989 123.82982471 320.36328125 139.22265625 C318.2329007 141.13645467 317.04837493 141.75471509 314.25 142.12109375 C316.87192718 146.79084668 319.62914436 151.32718498 322.5625 155.80859375 C324.13066465 158.24248262 325.69065365 160.68154924 327.25 163.12109375 C328.11818359 164.47267578 328.11818359 164.47267578 329.00390625 165.8515625 C344.49020555 191.11475437 354.39819371 220.21398278 360.25 249.12109375 C360.46027832 250.13155762 360.67055664 251.14202148 360.88720703 252.18310547 C368.29037691 288.90587611 367.05895638 329.15934611 347.375 361.953125 C344.54258646 366.1757121 341.45180993 370.0573181 338.1328125 373.9140625 C336.12819053 376.17596245 336.12819053 376.17596245 334.25 379.12109375 C334.92310963 381.0052677 334.92310963 381.0052677 336.125 383.05859375 C341.10004586 394.67269398 339.30144483 409.16426597 334.859375 420.65625 C327.10209755 437.35699053 316.03247923 448.77410799 299 455.93359375 C284.00771756 461.32089146 266.36548902 462.40051611 251.25 457.12109375 C250.72212891 458.08208984 250.72212891 458.08208984 250.18359375 459.0625 C241.4554509 474.35384165 228.99213096 480.87779252 212.39160156 485.65600586 C199.41765296 488.47353574 183.8447185 488.34502627 171.25 484.12109375 C170.00089844 483.70601562 168.75179688 483.2909375 167.46484375 482.86328125 C159.0997451 479.88628103 152.11346858 475.78565516 145.25 470.12109375 C144.486875 469.50878906 143.72375 468.89648438 142.9375 468.265625 C138.90807922 464.91024335 135.81221888 461.71173591 133.25 457.12109375 C133.25 456.46109375 133.25 455.80109375 133.25 455.12109375 C131.02559633 457.27869851 129.04121236 459.55067886 127.0625 461.93359375 C115.76775325 474.81149538 100.80521188 478.20753851 84.27734375 479.41015625 C67.98523025 479.78081447 51.36164732 475.2799349 39.31689453 463.82617188 C36.03774242 460.51703767 33.08932188 457.44653201 31.25 453.12109375 C29.97382813 453.4459375 29.97382813 453.4459375 28.671875 453.77734375 C0.47565791 460.25647449 -24.47426832 453.60768733 -48.765625 438.69140625 C-62.32501494 430.10293741 -73.61751035 419.58271882 -78.75 404.12109375 C-79.11351562 403.15945313 -79.47703125 402.1978125 -79.8515625 401.20703125 C-82.82831895 390.98251998 -80.97745045 379.71781407 -76.75 370.12109375 C-75.23936354 367.73113159 -73.79533429 366.11260345 -71.75 364.12109375 C-71.09 363.46109375 -70.43 362.80109375 -69.75 362.12109375 C-70.45125 361.33347656 -71.1525 360.54585937 -71.875 359.734375 C-94.91243639 333.46061085 -104.57911509 302.57892037 -102.62548828 267.91162109 C-99.97207052 228.34772107 -82.49207874 194.79460705 -59.75 163.12109375 C-60.595625 162.15171875 -61.44125 161.18234375 -62.3125 160.18359375 C-63.45917578 158.83014037 -64.60496003 157.47593133 -65.75 156.12109375 C-66.57951172 155.1775 -66.57951172 155.1775 -67.42578125 154.21484375 C-85.29646386 132.85218868 -89.18001325 106.02892294 -87.75 79.12109375 C-87.10132572 73.53628851 -85.67340908 68.40890241 -83.75 63.12109375 C-83.36457031 62.05375 -82.97914063 60.98640625 -82.58203125 59.88671875 C-72.85786933 35.08853235 -55.39153818 17.06280563 -31.109375 6.40234375 C-20.9561366 2.52994585 -10.82893885 0.47684248 0 0 Z M-47.75 32.12109375 C-48.66265625 32.77078125 -48.66265625 32.77078125 -49.59375 33.43359375 C-63.48550935 44.04184634 -72.59144992 65.13909118 -75.47314453 82.02050781 C-76.87840308 92.68262823 -76.35389464 102.95903891 -72.75 113.12109375 C-72.45996094 114.08144531 -72.16992188 115.04179687 -71.87109375 116.03125 C-67.63861281 129.75582209 -60.96498248 143.29005552 -49.6875 152.55859375 C-46.63642061 155.53051778 -46.05060648 158.02498095 -45.6875 162.24609375 C-46.09733749 169.32583556 -49.33837334 173.23093067 -53.76953125 178.4453125 C-68.75487014 196.30997369 -79.68809757 220.72997244 -85.75 243.12109375 C-86.06106689 244.24136963 -86.06106689 244.24136963 -86.37841797 245.38427734 C-92.42495992 268.007426 -91.64285459 291.12042453 -83.75 313.12109375 C-83.32074219 314.32121094 -82.89148438 315.52132813 -82.44921875 316.7578125 C-81.32547293 319.61659259 -80.10158561 322.36369224 -78.75 325.12109375 C-78.31171875 326.02472656 -77.8734375 326.92835938 -77.421875 327.859375 C-72.65680849 337.11460033 -66.56736619 345.3559744 -59.1875 352.68359375 C-56.27938784 355.92590429 -55.07500438 358.25561466 -54.6875 362.62109375 C-55.10486826 368.61450193 -58.21963953 371.12055173 -62.546875 374.9375 C-66.85932331 379.21171739 -67.47421751 384.05272509 -68.25 389.87109375 C-67.79540077 400.20289441 -62.01933175 409.92490988 -54.83300781 417.01147461 C-49.36791785 422.01362309 -43.72901326 425.80622183 -37.25 429.37109375 C-35.92162109 430.12519531 -35.92162109 430.12519531 -34.56640625 430.89453125 C-24.19914153 437.02293615 -24.19914153 437.02293615 -12.6875 439.87109375 C-11.388125 439.95359375 -10.08875 440.03609375 -8.75 440.12109375 C-8.75 440.78109375 -8.75 441.44109375 -8.75 442.12109375 C0.88949586 444.4181651 8.56267927 445.08436237 18.125 442.12109375 C24.49939791 440.20669351 30.63578786 438.50209257 37.25 440.12109375 C40.25841963 442.34023218 42.16880062 445.04407998 44.25 448.12109375 C48.29610795 453.79218845 52.6060265 457.23111388 58.6875 460.49609375 C59.30818359 460.82996094 59.92886719 461.16382813 60.56835938 461.5078125 C73.35459366 468.01473382 87.02882195 467.2919726 100.54296875 463.3828125 C110.28245581 460.06789752 118.42388197 454.25934025 123.4375 445.18359375 C125.13305672 442.71886064 126.0139224 442.18712705 128.9453125 441.3671875 C133.59015501 441.00048941 136.86611421 441.07926697 140.66796875 443.94140625 C143.56603009 447.1493916 145.86305425 450.46728886 148.0625 454.18359375 C156.1168028 464.9993718 172.15955679 471.72883667 185.25 474.12109375 C201.54949217 476.178146 218.03722494 472.09016204 231.25 462.12109375 C233.34865209 459.81606313 233.34865209 459.81606313 234.8125 457.30859375 C235.38742187 456.44878906 235.96234375 455.58898437 236.5546875 454.703125 C237.64845412 453.03727307 238.73736771 451.36821975 239.8203125 449.6953125 C242.30431162 446.31731369 243.91244648 444.40028296 248.11328125 443.5234375 C252.8475784 443.38783497 256.29185267 443.696834 260.6640625 445.6328125 C272.13167949 450.39224831 286.21638641 446.67487402 297.25 442.12109375 C310.27649309 435.78090448 318.03017223 425.40517719 323.25 412.12109375 C324.20417939 407.24540253 324.43935848 402.45859144 324.5 397.49609375 C324.52578125 396.22507812 324.5515625 394.9540625 324.578125 393.64453125 C324.22532681 389.85615071 323.25796101 388.26621636 321.25 385.12109375 C320.34498808 380.9673211 320.3297082 377.27570587 321.25 373.12109375 C323.19931831 370.48327449 325.34233577 368.53249328 327.80859375 366.375 C343.02813062 352.32432356 348.48928495 327.70856144 351.25 308.12109375 C351.3840625 307.21617187 351.518125 306.31125 351.65625 305.37890625 C351.95819601 302.95495082 352.12924019 300.56115236 352.25 298.12109375 C352.31445312 296.91582031 352.37890625 295.71054687 352.4453125 294.46875 C353.67730184 259.28677262 342.22658969 223.5467098 327.25 192.12109375 C326.88181152 191.33702148 326.51362305 190.55294922 326.13427734 189.74511719 C319.26775884 175.19844277 311.17060528 161.50200167 302.25 148.12109375 C301.08679248 144.51306086 301.12999474 141.74548846 302.25 138.12109375 C304.55615799 135.06327802 307.37800401 132.54178078 310.18359375 129.95092773 C315.01245138 125.48647489 318.27883732 121.01201492 321.25 115.12109375 C321.61222656 114.51652344 321.97445313 113.91195312 322.34765625 113.2890625 C324.90201474 108.83107563 326.21764694 104.06990888 327.5 99.12109375 C327.67547363 98.4564209 327.85094727 97.79174805 328.03173828 97.10693359 C331.97865785 80.90903057 325.45043049 64.92021172 317.25 51.12109375 C311.60849468 42.09678637 305.09545858 35.97522156 296.25 30.12109375 C295.44949219 29.56808594 294.64898438 29.01507813 293.82421875 28.4453125 C281.22297615 20.24921017 267.00131748 16.78998318 252.25 15.12109375 C250.90035156 14.96447266 250.90035156 14.96447266 249.5234375 14.8046875 C231.74854067 13.85791464 212.36077584 22.33874063 198.5546875 32.9765625 C194.71539663 36.54905519 191.93698269 40.64522312 189.25 45.12109375 C188.71375 45.99121094 188.1775 46.86132812 187.625 47.7578125 C186.17678554 50.09991406 186.17678554 50.09991406 185.25 52.74609375 C184.13482159 55.39464247 183.58449422 56.4508865 181.25 58.12109375 C178.56921258 58.42764119 176.17709312 58.54621325 173.5 58.49609375 C172.74501221 58.48956787 171.99002441 58.48304199 171.2121582 58.47631836 C164.83849517 58.32759733 158.96410482 57.24980963 152.7421875 55.85546875 C147.592376 54.77251063 142.50002522 54.349046 137.25 54.12109375 C136.31027344 54.07984375 135.37054688 54.03859375 134.40234375 53.99609375 C121.13472478 53.71038459 108.53284852 56.01022103 95.78344727 59.4440918 C90.02993005 60.93294299 84.19389193 62.05482166 78.25 61.12109375 C75.49075221 58.76423626 74.17119657 57.11630864 72.25 54.12109375 C71.47148603 52.93395422 70.69139947 51.74784522 69.91015625 50.5625 C69.2764209 49.59993286 69.2764209 49.59993286 68.62988281 48.61791992 C56.52619463 30.27172539 39.48578454 19.91267135 18.25 14.12109375 C-6.28405215 9.8183738 -28.29861673 17.02449778 -47.75 32.12109375 Z " fill="#430019" transform="translate(279.75,169.87890625)"/>
<path d="M0 0 C0.69480469 0.27328125 1.38960937 0.5465625 2.10546875 0.828125 C7.13904058 2.84522118 11.6326846 5.5265502 16.1875 8.4375 C17.06100098 8.99473755 17.06100098 8.99473755 17.95214844 9.56323242 C28.85125186 16.67990652 35.55191915 25.72329161 41.4375 37.25 C41.77958496 37.91104736 42.12166992 38.57209473 42.47412109 39.25317383 C49.02582206 52.56829739 47.69275116 73.16017308 44.0390625 87.296875 C42.75749142 90.63088697 41.22176747 92.86011941 38.68359375 95.34765625 C36.66167887 97.33204139 35.02140027 99.49193939 33.3125 101.75 C32.22524057 103.17968367 31.12237281 104.59771339 30 106 C29.51917969 106.60328125 29.03835938 107.2065625 28.54296875 107.828125 C27 109 27 109 25.08203125 108.97265625 C22.23272898 107.64155632 20.7339924 105.81841034 18.6875 103.4375 C17.8934375 102.52742188 17.099375 101.61734375 16.28125 100.6796875 C14.9420262 99.10655817 13.60681648 97.52996697 12.28125 95.9453125 C-14.80946257 63.94108834 -55.05920336 43.40820666 -94 30 C-88.42092442 14.98144584 -76.213339 5.99549916 -62.10327148 -0.57006836 C-42.28325472 -9.1892929 -19.61764576 -9.32465795 0 0 Z " fill="#FC72A9" transform="translate(560,192)"/>
<path d="M0 0 C6.24560678 4.20377379 9.49700514 9.69771365 11 17 C11.97614268 25.22520224 9.93604102 32.04297811 5.01171875 38.6796875 C-1.06093903 45.74872263 -8.43312054 52.35993707 -18.0859375 53.30078125 C-26.77568071 53.33174233 -32.85027597 52.67340813 -39.578125 46.6328125 C-44.35367847 41.1487978 -46.86117748 34.83387279 -46.40625 27.56640625 C-44.83446981 17.63698717 -40.49201968 10.66224543 -33 4 C-23.06191089 -3.06782297 -11.13244964 -5.83688691 0 0 Z " fill="#440019" transform="translate(392,460)"/>
<path d="M0 0 C8.23097999 6.80482009 12.58261723 14.90972692 13.80859375 25.453125 C14.20140769 32.76453283 11.6221147 38.75716337 7.3046875 44.58203125 C2.17395899 49.59615229 -2.22996856 51.49775898 -9.4453125 51.70703125 C-18.85843599 51.30597085 -24.21790758 48.41618317 -31.10546875 41.953125 C-38.29648541 33.70566516 -40.88446333 24.55856557 -40.78515625 13.85546875 C-40.05225858 6.12213467 -36.01082036 1.20159321 -30.19140625 -3.63671875 C-21.12429779 -9.31633926 -8.06285854 -5.70582482 0 0 Z " fill="#430019" transform="translate(586.4453125,468.73046875)"/>
<path d="M0 0 C4.40069835 1.00548743 7.8681804 2.67397634 11.8125 4.80859375 C21.55882813 10.02717366 30.8047849 12.83879068 41.89648438 10.11328125 C44.98657943 9.11023442 48.0241607 8.02115568 51.0625 6.87109375 C66.72593487 1.03182836 66.72593487 1.03182836 75.1875 4.05859375 C76.32445312 4.46078125 76.32445312 4.46078125 77.484375 4.87109375 C79.93600613 5.92414336 82.13354035 7.21588879 84.4375 8.55859375 C90.9691635 11.90084902 97.65079372 11.99941509 104.8125 10.87109375 C108.29884534 9.32589914 110.95904229 7.37167183 113.8125 4.87109375 C117.46143682 1.90375079 117.46143682 1.90375079 120.5 1.62109375 C122.8125 1.87109375 122.8125 1.87109375 123.8125 2.87109375 C124.24919519 6.62667242 123.97505127 8.56474713 122.1875 11.93359375 C117.11018779 18.21342728 112.43766415 20.58685479 105.015625 23.484375 C101.77037551 24.88933057 98.93079281 26.55678315 95.9375 28.43359375 C80.74639027 37.44593605 63.53318525 37.85623968 46.6171875 34.0546875 C39.32156282 31.78510405 32.59357569 28.35064732 25.8125 24.87109375 C21.81338203 22.85663274 17.80488215 20.86328988 13.77734375 18.90625 C12.43489583 18.24869792 11.09244792 17.59114583 9.75 16.93359375 C9.08162109 16.61197266 8.41324219 16.29035156 7.72460938 15.95898438 C3.05575296 13.65858573 -1.11701357 11.13163645 -5.1875 7.87109375 C-6.125 4.55859375 -6.125 4.55859375 -6.1875 1.87109375 C-3.1875 -0.12890625 -3.1875 -0.12890625 0 0 Z M65.8125 12.87109375 C66.12171884 14.33012633 66.43498799 15.78830097 66.75 17.24609375 C67.01103516 18.46425781 67.01103516 18.46425781 67.27734375 19.70703125 C67.73580693 21.90055675 67.73580693 21.90055675 68.8125 23.87109375 C74.44531599 24.11078805 79.35788831 23.25639196 84.8125 21.87109375 C84.8125 21.21109375 84.8125 20.55109375 84.8125 19.87109375 C82.75491228 18.39034421 80.72461348 17.05632526 78.5625 15.74609375 C77.97597656 15.37355469 77.38945312 15.00101563 76.78515625 14.6171875 C72.97548682 12.28001951 70.14309238 10.70579756 65.8125 12.87109375 Z " fill="#48021D" transform="translate(424.1875,522.12890625)"/>
<path d="M0 0 C7.15842804 1.36245801 13.54754417 3.60148819 20.25 6.4375 C21.82164917 7.10120605 21.82164917 7.10120605 23.42504883 7.77832031 C45.5053976 17.26298903 66.75511766 29.22456829 85 45 C86.21331325 46.03021699 87.42687771 47.06013816 88.640625 48.08984375 C98.34279394 56.36472969 107.14705747 64.61135032 114.921875 74.77734375 C117.0328752 77.03516163 117.98303548 77.68063664 121 78 C125.38579957 73.20968493 129.59008792 68.54110713 133 63 C133.33 63.66 133.66 64.32 134 65 C130.60029234 70.90475541 126.63854187 75.40134545 121.6875 80 C118.05905866 83.41064774 115.27776369 86.08603532 114.75 91.25 C114.8325 92.4875 114.915 93.725 115 95 C112.88330786 92.38668077 110.81629408 89.753094 108.80859375 87.0546875 C100.96799974 76.54028301 92.12216988 67.37579886 82 59 C81.4848584 58.57106445 80.9697168 58.14212891 80.43896484 57.70019531 C52.76140536 34.75337782 20.40004511 17.05876656 -15.015625 9.60546875 C-15.67046875 9.40566406 -16.3253125 9.20585937 -17 9 C-17.33 8.34 -17.66 7.68 -18 7 C-17.11957031 6.99742187 -16.23914063 6.99484375 -15.33203125 6.9921875 C-8.83025476 7.01710521 -8.83025476 7.01710521 -3.0234375 4.59765625 C-1.51043631 2.80557541 -1.51043631 2.80557541 0 0 Z " fill="#CE2968" transform="translate(466,222)"/>
<path d="M0 0 C0.77601563 0.24371338 1.55203125 0.48742676 2.3515625 0.73852539 C10.33461448 3.45355177 17.22580032 7.22353684 22 14.3125 C22.8125 17.6875 22.8125 17.6875 23 20.3125 C18.09177653 19.7519161 13.86253347 18.69111295 9.25 16.9375 C-7.3255316 10.73882026 -7.3255316 10.73882026 -24.63671875 12.171875 C-31.78261747 15.62080463 -38.01125724 20.81882747 -41 28.3125 C-42.35359258 37.21497428 -40.83457428 44.32136429 -37 52.3125 C-36.3127513 54.30552124 -35.63484067 56.30217123 -35 58.3125 C-35.37769531 57.89097656 -35.75539063 57.46945312 -36.14453125 57.03515625 C-41.30792556 51.89594645 -45.86618426 51.33830042 -53 51.3125 C-56.33615571 42.83758831 -56.54017171 32.54791258 -53.97265625 23.8203125 C-48.61423221 12.39098699 -40.03415407 4.22753014 -29 -1.6875 C-19.55339715 -4.83636762 -9.23690449 -2.9220452 0 0 Z " fill="#CF2A69" transform="translate(359,557.6875)"/>
<path d="M0 0 C0.99 0.495 0.99 0.495 2 1 C-0.70219359 15.28302327 -7.33633248 26.28807024 -17 37 C-18.04800781 38.17175781 -18.04800781 38.17175781 -19.1171875 39.3671875 C-35.28858183 56.48635586 -59.62669479 67.79555928 -83.20458984 68.48706055 C-103.96972244 68.58537679 -103.96972244 68.58537679 -109.8046875 63.39453125 C-110.19914062 62.93433594 -110.59359375 62.47414063 -111 62 C-110.34 60.68 -109.68 59.36 -109 58 C-107.75464478 57.97812622 -107.75464478 57.97812622 -106.48413086 57.95581055 C-71.3571764 57.26618668 -46.32265446 50.58816144 -21.41015625 24.6796875 C-17.76325643 20.79727753 -14.37259763 16.7701667 -11.07421875 12.5859375 C-7.57393238 8.22211532 -3.78090585 4.1205617 0 0 Z " fill="#CF2968" transform="translate(367,281)"/>
<path d="M0 0 C6.02432286 4.76387969 11.03001154 10.71014962 12.62109375 18.375 C13.29177823 26.0256224 13.00080663 33.71453612 12.62109375 41.375 C11.94127441 41.4174585 11.26145508 41.45991699 10.56103516 41.50366211 C9.66562012 41.57335205 8.77020508 41.64304199 7.84765625 41.71484375 C6.96158691 41.77792725 6.07551758 41.84101074 5.16259766 41.90600586 C1.19839455 42.63753652 -0.6084334 44.53161997 -3.37890625 47.375 C-2.91399113 44.19808002 -2.35219131 41.29642665 -1.31640625 38.25 C0.41725577 31.08419699 0.93989353 24.08542657 -2.50390625 17.375 C-5.57609229 12.55725371 -8.93349452 10.19013724 -14.37890625 8.375 C-27.41089671 7.68826521 -38.55159502 9.24021715 -50.54663086 14.34228516 C-55.36846257 16.30941267 -59.17181142 16.64143644 -64.37890625 16.375 C-64.66255557 13.33513555 -64.60188517 11.74812232 -63.015625 9.09375 C-48.99625763 -6.86416717 -17.94678437 -12.2592156 0 0 Z " fill="#CF2968" transform="translate(522.37890625,571.625)"/>
<path d="M0 0 C3.11340673 1.38221574 5.1512449 2.98891458 7.5625 5.375 C22.27912618 18.60799882 41.30198004 27.56195982 59.53515625 34.84375 C60.19475342 35.10945801 60.85435059 35.37516602 61.53393555 35.64892578 C63.22982182 36.31774501 64.93867028 36.95344604 66.6484375 37.5859375 C69 39 69 39 69.8515625 41.6640625 C69.90054688 42.43492187 69.94953125 43.20578125 70 44 C50.54869645 47.77040672 26.91914459 32.93621577 11 23 C7.95553109 20.8897334 5.03242292 18.64555207 2.1640625 16.30078125 C0.12139518 14.79379284 0.12139518 14.79379284 -2.0859375 15.1328125 C-4.1273029 16.05767601 -5.57535391 17.0781546 -7.25 18.5625 C-8.1575 19.366875 -9.065 20.17125 -10 21 C-8.62204407 17.80092643 -7.09775167 16.085397 -4.4375 13.875 C-0.58687281 10.20811643 -0.15059481 7.13257032 0.02734375 1.94140625 C0.01832031 1.30074219 0.00929687 0.66007813 0 0 Z " fill="#CF2A68" transform="translate(225,528)"/>
<path d="M0 0 C0.06058594 0.77085937 0.12117187 1.54171875 0.18359375 2.3359375 C0.26738281 3.33882812 0.35117187 4.34171875 0.4375 5.375 C0.51871094 6.37273438 0.59992188 7.37046875 0.68359375 8.3984375 C0.84965626 10.97927613 0.84965626 10.97927613 2 13 C-8.79651876 18.41038252 -19.18088306 23.27793607 -31 26 C-31.98770386 26.26272705 -31.98770386 26.26272705 -32.99536133 26.53076172 C-39.17643225 28.08792541 -45.08257063 28.30094132 -51.4375 28.25 C-52.42943359 28.25773438 -53.42136719 28.26546875 -54.44335938 28.2734375 C-55.38888672 28.27085937 -56.33441406 28.26828125 -57.30859375 28.265625 C-58.16251709 28.26336914 -59.01644043 28.26111328 -59.89624023 28.25878906 C-62 28 -62 28 -64 26 C-64.125 23.375 -64.125 23.375 -64 21 C-60.1016262 19.23764634 -56.5781954 18.55149044 -52.3359375 18.0703125 C-50.40427734 17.83634766 -50.40427734 17.83634766 -48.43359375 17.59765625 C-46.41377142 17.3603454 -44.3936553 17.12708797 -42.37255859 16.90087891 C-31.12022707 15.62541177 -21.39757449 13.39031887 -11.625 7.5 C-10.66851563 6.9328125 -9.71203125 6.365625 -8.7265625 5.78125 C-6.435342 4.28440681 -2.68484942 0 0 0 Z " fill="#CF2968" transform="translate(600,544)"/>
<path d="M0 0 C0.763125 0.825 1.52625 1.65 2.3125 2.5 C6.17356001 5.80283447 9.92836511 5.40334296 14.8046875 5.17578125 C15.52914063 5.11777344 16.25359375 5.05976563 17 5 C23.12041213 32.69242322 23.12041213 32.69242322 18 44 C16.68 44 15.36 44 14 44 C13.39455784 41.75033674 12.79066353 39.50027436 12.1875 37.25 C12.00372803 36.56768311 11.81995605 35.88536621 11.63061523 35.18237305 C10.53056376 31.07407623 9.52014084 26.95677327 8.5625 22.8125 C7.02988354 16.58098251 4.57693347 10.85975961 2 5 C1.32664848 3.33602285 0.65777261 1.67019682 0 0 Z " fill="#CF2A69" transform="translate(352,226)"/>
<path d="M0 0 C1.32 0.33 2.64 0.66 4 1 C4.12117188 2.01320313 4.24234375 3.02640625 4.3671875 4.0703125 C4.53613783 5.4219151 4.70542669 6.77347542 4.875 8.125 C4.95363281 8.79015625 5.03226562 9.4553125 5.11328125 10.140625 C5.64388026 14.30378644 6.54186554 18.06671292 8 22 C7.401875 21.360625 6.80375 20.72125 6.1875 20.0625 C1.65329837 17.12860483 -2.69835408 17.18569688 -8 17 C-6.19389405 10.65660349 -3.74372266 5.43061745 0 0 Z " fill="#CF2A69" transform="translate(415,594)"/>
<path d="M0 0 C0.99 0.33 1.98 0.66 3 1 C2.46632812 1.32871094 1.93265625 1.65742188 1.3828125 1.99609375 C-16.88233912 13.65671823 -28.59682228 30.50109665 -33.8125 51.5625 C-35.63113453 60.9231189 -35.75361088 70.49019681 -36 80 C-40.29046368 73.56430448 -38.65027132 62.39328671 -37.41796875 54.921875 C-32.53417022 32.88903049 -21.12538739 13.97590086 -2.39453125 1.2265625 C-1.60433594 0.82179687 -0.81414062 0.41703125 0 0 Z " fill="#C52964" transform="translate(242,195)"/>
<path d="M0 0 C2.1424416 1.07256487 4.24652869 2.22415177 6.3125 3.4375 C7.38113281 4.05496094 8.44976562 4.67242188 9.55078125 5.30859375 C10.35902344 5.86675781 11.16726563 6.42492187 12 7 C12 7.66 12 8.32 12 9 C6.54538831 10.38529821 1.63281599 11.2396943 -4 11 C-4.50615298 9.73160474 -5.00469099 8.46016898 -5.5 7.1875 C-5.7784375 6.47980469 -6.056875 5.77210938 -6.34375 5.04296875 C-7 3 -7 3 -7 0 C-4.22477414 -1.38761293 -2.97504381 -0.8350264 0 0 Z " fill="#BF245F" transform="translate(497,535)"/>
<path d="M0 0 C0.94875 0.845625 1.8975 1.69125 2.875 2.5625 C16.38902174 14.0264905 29.569034 20.20023648 47.375 20.125 C48.2825 20.12886719 49.19 20.13273438 50.125 20.13671875 C55.50865729 20.12896132 60.67353182 19.78587235 66 19 C64.67661368 19.68620031 63.34050052 20.34786461 62 21 C60.96939453 21.51820313 60.96939453 21.51820313 59.91796875 22.046875 C45.93268439 26.61502679 30.45388813 21.82208918 17.8125 15.75 C2.24269501 7.6516115 2.24269501 7.6516115 0.23828125 1.76171875 C0.15964844 1.18035156 0.08101563 0.59898437 0 0 Z " fill="#C9306A" transform="translate(427,621)"/>
<path d="M0 0 C0.65355469 0.58007812 0.65355469 0.58007812 1.3203125 1.171875 C5.05744652 4.43984501 8.8076016 7.34140589 13 10 C12.67 11.65 12.34 13.3 12 15 C7.01730084 15.29309995 3.92321522 15.22456046 0 12 C-0.48828125 9.08203125 -0.48828125 9.08203125 -0.3125 5.8125 C-0.26738281 4.72582031 -0.22226563 3.63914062 -0.17578125 2.51953125 C-0.11777344 1.68808594 -0.05976563 0.85664063 0 0 Z " fill="#CF2A69" transform="translate(234,327)"/>
<path d="M0 0 C0 4.27525973 -1.95268228 5.81838836 -4.77734375 8.87890625 C-16.51972808 20.08473172 -31.83215328 23.64256416 -47.609375 23.37109375 C-50.79224193 23.0227385 -53.1247523 22.36629137 -56 21 C-52.29925556 19.80650992 -48.86316261 19.96994506 -45 20.0625 C-28.4575589 20.23140301 -16.1274038 16.48809977 -4 5 C-2.63383282 3.3601394 -1.28972464 1.70063691 0 0 Z " fill="#CD316C" transform="translate(595,594)"/>
<path d="M0 0 C21.78509486 -1.29132286 39.95854833 4.95186293 56.8984375 19.1328125 C59.37749084 21.33539149 61.73216859 23.58097982 64 26 C63.67 26.66 63.34 27.32 63 28 C62.58492188 27.52691406 62.16984375 27.05382812 61.7421875 26.56640625 C53.04224559 17.22943931 41.84573955 10.60364379 30 6 C29.27425781 5.70480469 28.54851562 5.40960938 27.80078125 5.10546875 C18.9643845 1.97494774 9.27700106 1.75215278 0 1 C0 0.67 0 0.34 0 0 Z " fill="#C52964" transform="translate(279,184)"/>
<path d="M0 0 C1.91543509 2.87315263 2.47354742 4.39404529 3.125 7.6875 C3.29257812 8.49574219 3.46015625 9.30398437 3.6328125 10.13671875 C4.50814587 16.96245659 3.877616 22.73086757 2.125 29.3125 C1.95097656 30.01439453 1.77695312 30.71628906 1.59765625 31.43945312 C0.74645344 34.74653368 -0.08829888 37.13244832 -2 40 C-1.10967473 32.36864053 -1.10967473 32.36864053 -0.48632812 30.2734375 C0.1483599 27.30646213 0.11144643 24.51821443 0.09765625 21.484375 C0.09443359 20.23398437 0.09121094 18.98359375 0.08789062 17.6953125 C0.07951172 16.39335937 0.07113281 15.09140625 0.0625 13.75 C0.05573242 11.77386719 0.05573242 11.77386719 0.04882812 9.7578125 C0.03704316 6.50516259 0.02059011 3.25260416 0 0 Z " fill="#C8346B" transform="translate(605,240)"/>
<path d="M0 0 C0 0.33 0 0.66 0 1 C-1.11375 1.09796875 -2.2275 1.1959375 -3.375 1.296875 C-17.21175797 2.61138991 -30.39831023 4.63525848 -42.86328125 11.14453125 C-45 12 -45 12 -48 11 C-32.00057812 2.81638766 -18.01382463 -0.80259615 0 0 Z " fill="#C02660" transform="translate(291,183)"/>
</svg>
