<?xml version="1.0" encoding="UTF-8"?>
<svg version="1.1" xmlns="http://www.w3.org/2000/svg" width="820" height="820">
<path d="M0 0 C1.567949 1.32692124 3.13077303 2.65993091 4.6875 4 C5.39648438 4.55300781 6.10546875 5.10601562 6.8359375 5.67578125 C14.45412037 11.79075945 19.19687726 19.95611382 22.6875 29 C23.06519531 29.8353125 23.44289063 30.670625 23.83203125 31.53125 C29.01176213 43.17390793 31.66691296 55.451091 33.6875 68 C35.0075 68 36.3275 68 37.6875 68 C40.82179723 57.61764044 39.92120403 48.72665941 37.34375 38.26171875 C36.70297664 35.07692257 36.56993769 32.23786193 36.6875 29 C65.23761431 20.41412621 93.86606825 19.52022068 122.33984375 29.22583008 C124.61450808 29.97592997 126.89605719 30.64630106 129.203125 31.2890625 C169.4434822 42.56178494 202.88341897 65.0745565 232.6875 94 C233.53570313 94.82113281 234.38390625 95.64226562 235.2578125 96.48828125 C242.49818177 104.00113754 247.48776679 113.02825043 252.6875 122 C253.09000977 122.68400879 253.49251953 123.36801758 253.90722656 124.07275391 C263.84904791 140.98052817 271.60797449 158.35806232 277.6875 177 C278.07679688 178.14855469 278.46609375 179.29710937 278.8671875 180.48046875 C280.90079831 186.69953435 282.43546918 192.98442683 283.8125 199.375 C283.97129639 200.10533447 284.13009277 200.83566895 284.29370117 201.58813477 C292.90375574 243.28869889 287.94755472 288.575111 264.52685547 324.79492188 C262.10629978 328.3642693 259.46080953 331.70071798 256.6875 335 C255.91921875 335.93070313 255.1509375 336.86140625 254.359375 337.8203125 C241.35543173 352.87971777 224.39224036 362.44752191 206.6875 371 C206.6875 372.65 206.6875 374.3 206.6875 376 C207.96625 376.020625 209.245 376.04125 210.5625 376.0625 C211.64144531 376.07990234 211.64144531 376.07990234 212.7421875 376.09765625 C214.76935404 376.12649242 214.76935404 376.12649242 216.6875 375 C219.5 374.625 219.5 374.625 222.6875 375 C225.17448877 377.04060617 227.1042946 379.30600097 229.16796875 381.76171875 C236.65787566 390.53255985 244.5035845 397.6458623 254.61743164 403.17407227 C264.06742004 408.34797685 272.15627283 414.4063185 275.6875 425 C276.6698896 433.92203017 274.38966361 440.64034958 269.125 447.8125 C265.24833229 452.08575776 260.10672909 453.47737672 254.6875 455 C254.04425781 455.19335938 253.40101563 455.38671875 252.73828125 455.5859375 C239.75589998 458.2071421 225.14970053 454.73703536 212.6875 451 C213.22274796 446.71801634 214.32189083 443.077462 215.96875 439.125 C218.98897306 430.19564488 219.38616075 417.39872378 216.125 408.4375 C215.01900712 406.12403604 215.01900712 406.12403604 213.6875 404 C213.27113281 403.30777344 212.85476563 402.61554688 212.42578125 401.90234375 C205.1080477 391.93409253 190.57024166 387.7986791 179.5 383.4375 C178.6032959 383.07849609 177.7065918 382.71949219 176.78271484 382.34960938 C175.93273926 382.02669922 175.08276367 381.70378906 174.20703125 381.37109375 C173.45526611 381.08161865 172.70350098 380.79214355 171.92895508 380.49389648 C169.23290483 379.89983161 167.33361547 380.30110855 164.6875 381 C164.57114895 383.29781554 164.57114895 383.29781554 165.6875 386 C171.24684994 391.39994544 178.34398436 394.42308518 185.3125 397.5625 C202.24230132 405.19602649 202.24230132 405.19602649 205.9921875 413.578125 C208.95199421 423.88756411 206.17816352 434.28718553 201.3671875 443.5390625 C196.36954379 451.70461151 189.56568291 456.60011316 180.41796875 459.37109375 C157.3219969 463.26476021 134.05401785 454.0973568 115.390625 440.9921875 C114.05257812 440.00605469 114.05257812 440.00605469 112.6875 439 C111.81609375 438.36320312 110.9446875 437.72640625 110.046875 437.0703125 C101.38133721 430.45154284 94.61889436 422.49051407 88.1875 413.75 C87.5368457 412.8825415 87.5368457 412.8825415 86.87304688 411.99755859 C84.27124055 408.36108531 83.06563891 405.4566372 82.6875 401 C81.6975 401 80.7075 401 79.6875 401 C77.38451727 404.78347163 75.47587261 408.40752041 73.9375 412.5625 C65.14421245 435.12964813 47.25555761 455.44594467 25.16015625 465.625 C13.79490746 470.20755163 3.68255022 471.33111933 -8 467.6875 C-8.73283203 467.47416016 -9.46566406 467.26082031 -10.22070312 467.04101562 C-16.15244007 465.24919247 -20.72744887 463.05668262 -24.875 458.3125 C-25.43316406 457.68988281 -25.99132812 457.06726563 -26.56640625 456.42578125 C-31.26571365 449.89721325 -32.95110448 444.60019214 -32.75 436.5625 C-32.75708984 435.76779297 -32.76417969 434.97308594 -32.77148438 434.15429688 C-32.67256553 424.80266176 -29.89258868 416.74090551 -23.3125 410 C-18.87901438 406.38674458 -14.13900574 403.23319784 -9.40234375 400.03515625 C-2.37059268 395.15065241 4.36219301 390.03616655 6.625 381.4375 C6.645625 380.633125 6.66625 379.82875 6.6875 379 C3.61837062 378.44913062 1.47571926 378.49258385 -1.1875 380.20703125 C-2.65558629 381.39429043 -4.11283678 382.59500231 -5.5625 383.8046875 C-8.83362204 386.41600935 -12.25385802 388.70410422 -15.75 391 C-16.39759277 391.42958008 -17.04518555 391.85916016 -17.71240234 392.30175781 C-20.56020089 394.19071372 -23.41465896 396.06569277 -26.2890625 397.9140625 C-36.48825188 404.66216665 -40.51711339 412.61384018 -44.3125 424 C-44.46085948 425.77166975 -44.56020018 427.54767612 -44.62890625 429.32421875 C-44.67080078 430.35224609 -44.71269531 431.38027344 -44.75585938 432.43945312 C-44.79517578 433.51130859 -44.83449219 434.58316406 -44.875 435.6875 C-44.93977539 437.31268555 -44.93977539 437.31268555 -45.00585938 438.97070312 C-45.11196838 441.64700791 -45.21402361 444.32340526 -45.3125 447 C-50.28358654 449.3125035 -55.0792799 451.42459526 -60.4375 452.6875 C-61.38882813 452.91824219 -62.34015625 453.14898438 -63.3203125 453.38671875 C-80.28292908 456.86339082 -97.61835511 455.95927167 -113.08984375 447.5390625 C-118.33636154 443.9061486 -123.03710233 439.20070846 -124.8125 432.9375 C-126.14150952 422.47155003 -124.38078273 414.73037803 -118.83203125 405.55078125 C-112.56821798 397.56692772 -102.95458893 392.98968192 -94.3125 388 C-86.88890223 383.69100575 -80.7749858 378.97961294 -74.81323242 372.82250977 C-70.97387539 369.01810528 -70.97387539 369.01810528 -67.88671875 368.93359375 C-63.85205377 370.60501035 -59.9653687 372.52820195 -56.10351562 374.56054688 C-51.2712216 376.95439099 -47.69893475 377.32880567 -42.3125 377 C-41.9825 375.35 -41.6525 373.7 -41.3125 372 C-46.22148381 368.64552773 -51.20500735 365.43078859 -56.26269531 362.30639648 C-69.18171797 354.31637219 -69.18171797 354.31637219 -74.3125 350 C-75.65828125 348.87078125 -75.65828125 348.87078125 -77.03125 347.71875 C-88.06094326 338.17736177 -98.50515173 326.52500847 -104.3125 313 C-104.3125 312.34 -104.3125 311.68 -104.3125 311 C-104.9725 311 -105.6325 311 -106.3125 311 C-106.62703125 310.154375 -106.9415625 309.30875 -107.265625 308.4375 C-109.96542452 301.13782994 -109.96542452 301.13782994 -113.3125 294.125 C-135.46783458 251.24949422 -125.03904382 194.65989524 -111.30419922 151.18115234 C-110.59681813 148.91202984 -109.9135364 146.63533615 -109.24658203 144.35400391 C-108.89837402 143.17112793 -108.55016602 141.98825195 -108.19140625 140.76953125 C-107.87888916 139.68905518 -107.56637207 138.6085791 -107.24438477 137.49536133 C-106.3125 135 -106.3125 135 -104.3125 134 C-102.55283189 134.74413826 -100.82769154 135.57088872 -99.125 136.4375 C-94.47769818 138.65108323 -91.40343973 139.56565997 -86.3125 139 C-86.3125 137.68 -86.3125 136.36 -86.3125 135 C-87.81996244 133.44905125 -87.81996244 133.44905125 -89.875 132.1875 C-94.1069572 129.22286688 -98.01193805 126.00193136 -101.3125 122 C-101.3125 121.34 -101.3125 120.68 -101.3125 120 C-101.89644531 119.75378906 -102.48039062 119.50757813 -103.08203125 119.25390625 C-110.19060623 115.25766707 -114.31393591 106.59999839 -118.0625 99.625 C-118.42690186 98.95460693 -118.79130371 98.28421387 -119.16674805 97.59350586 C-124.57502642 87.18631114 -127.00822994 77.54701617 -126.8125 65.8125 C-126.79896484 64.63067139 -126.78542969 63.44884277 -126.77148438 62.23120117 C-126.24883174 39.98351959 -118.43753472 20.8054295 -102.9765625 4.54296875 C-74.35263092 -22.64513454 -30.9977462 -24.49439057 0 0 Z M34.6875 79 C29.67646361 83.72100856 25.32855386 88.81464344 21.0078125 94.16796875 C17.38580966 98.58876346 13.57496227 102.81245292 9.6875 107 C9.01460938 107.75023437 8.34171875 108.50046875 7.6484375 109.2734375 C-9.35725431 127.42558044 -31.94218573 135.64696131 -56.32421875 136.44335938 C-57.64035156 136.48267578 -58.95648438 136.52199219 -60.3125 136.5625 C-61.67318789 136.60578135 -63.03386515 136.64939839 -64.39453125 136.69335938 C-67.70043157 136.79886683 -71.00639999 136.90098256 -74.3125 137 C-74.9725 138.32 -75.6325 139.64 -76.3125 141 C-72.07241989 145.97930461 -65.3622561 146.67288352 -59.11816406 147.17724609 C-34.41657849 148.40455758 -9.58631053 140.58520973 9.203125 124.26953125 C10.02296875 123.52058594 10.8428125 122.77164063 11.6875 122 C12.46609375 121.30261719 13.2446875 120.60523438 14.046875 119.88671875 C25.4930698 109.09177296 33.88136222 95.56130952 36.6875 80 C35.6975 79.505 35.6975 79.505 34.6875 79 Z M214.9140625 253.15625 C211.14749068 258.81810317 210.99421371 264.40489197 211.6875 271 C213.79611826 279.8348436 219.4900034 288.37479661 227 293.5625 C233.35852999 296.96357418 240.97346519 297.1028347 247.875 295.0625 C253.90700272 292.45070501 258.21445116 286.8233436 261.1875 281.125 C262.45156038 273.2246226 262.5978124 265.17715567 258.6875 258 C253.09409662 250.3147547 247.1618831 244.98800855 237.6875 243 C227.34670829 241.76895337 221.45925834 245.40439794 214.9140625 253.15625 Z M21.0859375 256.91796875 C17.96130266 261.57000889 15.23937901 266.34324012 14.6875 272 C14.62433594 272.64453125 14.56117188 273.2890625 14.49609375 273.953125 C14.08666448 281.50775548 16.41298133 288.34504499 21 294.375 C26.4880453 299.73541634 29.92563116 301.25338421 37.5625 301.5 C46.80698366 301.19642056 53.12804599 298.31966509 59.89453125 292.06640625 C66.45662782 284.50355421 68.11148209 276.04721971 68.03515625 266.33203125 C67.28787428 259.16987934 63.20138606 253.48804679 57.6875 249 C45.16427045 240.28818814 30.0283792 245.51090288 21.0859375 256.91796875 Z M70.875 307.1875 C69.43410736 308.97620605 69.43410736 308.97620605 69.91015625 311.3984375 C71.59169183 317.02608924 76.86434164 319.99554294 81.79296875 322.7109375 C86.59074475 325.01701975 91.01202711 327.05532402 96.3125 327.75 C101.75977549 328.73050959 104.87529332 332.53446221 108.73046875 336.265625 C122.55362747 349.42344824 140.31809391 357.44747372 159.46875 357.15234375 C175.53135781 356.04945342 188.91525065 345.39337381 199.67797852 334.33081055 C203.93676625 330.10452024 207.77771015 327.77948335 213.47387695 325.85595703 C216.76154431 324.58469181 218.6254877 322.81808347 220.6875 320 C221.10736946 317.28836222 221.10736946 317.28836222 220.6875 315 C216.79249196 313.95161103 214.53611889 314.124901 210.75 315.4375 C198.32006178 319.05317908 186.45926267 316.55117222 174.21875 313.35546875 C161.91216148 310.4263321 149.99047155 311.40691583 137.875 314.5 C130.31324705 316.42236682 123.25101077 317.47116381 115.4375 317.4375 C114.18876099 317.43363281 114.18876099 317.43363281 112.91479492 317.4296875 C102.88947343 317.18799216 94.71262794 314.93916818 85.8125 310.375 C84.17284505 309.54240263 82.52972669 308.71658197 80.8828125 307.8984375 C80.17141113 307.53411621 79.46000977 307.16979492 78.72705078 306.79443359 C75.79831428 305.65364971 73.55991864 305.42841537 70.875 307.1875 Z " fill="#FD6AB2" transform="translate(335.3125,314)"/>
<path d="M0 0 C26.34972901 -0.59567207 50.15978833 8.75325401 69.375 26.80859375 C72.82656332 30.40548605 75.7670513 34.34133135 78.6875 38.37109375 C79.12529785 38.97397217 79.5630957 39.57685059 80.01416016 40.19799805 C82.04518578 43.08514565 83.76713816 45.57425403 84.25 49.12109375 C85.26578125 48.78335938 86.2815625 48.445625 87.328125 48.09765625 C95.58026457 45.40299786 103.59835937 43.1451655 112.25 42.12109375 C113.14589844 41.99863281 114.04179687 41.87617188 114.96484375 41.75 C134.78310644 39.59526271 154.84668416 42.10824933 174.25 46.12109375 C174.55550781 45.3940625 174.86101562 44.66703125 175.17578125 43.91796875 C183.53945192 25.54145291 198.88297855 14.51102661 217.25 7.12109375 C242.43752173 -1.29529968 269.5322582 2.08281436 293.25 13.12109375 C301.3054638 17.23596408 308.45705559 22.15765081 315.25 28.12109375 C316.39082031 29.11882812 316.39082031 29.11882812 317.5546875 30.13671875 C332.93414615 44.50507112 341.26799247 64.50054135 342.2421875 85.33984375 C342.2762081 101.80581532 337.04854388 117.89421773 327.25 131.12109375 C326.60224609 132.02408203 326.60224609 132.02408203 325.94140625 132.9453125 C322.92198423 136.875511 319.32898562 139.40177 315.25 142.12109375 C315.75695964 147.35622803 318.49872262 151.12643344 321.1875 155.49609375 C336.06045162 180.51644467 345.42764931 208.49128769 350.25 237.12109375 C350.38132324 237.88534668 350.51264648 238.64959961 350.64794922 239.43701172 C357.45561873 281.45742336 351.98275487 330.49592677 326.96728516 365.93847656 C316.56636049 380.12394252 304.18986762 391.78100484 289.25 401.12109375 C288.59 401.12109375 287.93 401.12109375 287.25 401.12109375 C289.55266559 403.81570242 291.88970682 406.47682052 294.25 409.12109375 C294.79011719 409.72953125 295.33023437 410.33796875 295.88671875 410.96484375 C301.6731276 417.12954083 308.7787662 421.12102349 316.046875 425.31640625 C327.5347335 431.9808142 337.17314012 438.85792183 340.89453125 452.48046875 C342.59972417 465.14761619 341.64530841 476.42389708 333.9375 486.99609375 C327.54056911 494.55120581 320.17873318 498.72398065 310.25 500.12109375 C294.44945282 501.32582755 275.84899472 501.67795383 260.984375 495.359375 C257.48292822 493.76511736 257.48292822 493.76511736 254.9921875 494.96484375 C254.37601563 495.51140625 253.75984375 496.05796875 253.125 496.62109375 C241.47333451 505.47476067 227.37294542 506.99637114 213.1875 505.62109375 C182.1803256 500.78629525 151.99271615 483.30971757 133.25 458.12109375 C131.08616029 460.84134939 129.54856505 463.45761586 128.125 466.62109375 C124.96965734 473.06483568 120.71477922 478.53431629 116.25 484.12109375 C115.66089844 484.86617187 115.07179688 485.61125 114.46484375 486.37890625 C102.92300883 500.29459374 84.28882181 511.42992536 66.25 514.12109375 C50.27847869 515.42787329 33.16091521 513.52347107 20.25 503.12109375 C18.71210526 501.47015717 17.19143505 499.80302454 15.6875 498.12109375 C12.93598093 495.07368187 12.93598093 495.07368187 9.21484375 493.88671875 C7.08818616 494.33113292 7.08818616 494.33113292 4.984375 495.17749023 C-5.79572595 498.89758757 -16.86615437 499.64842324 -28.1875 499.55859375 C-28.86254578 499.55522003 -29.53759155 499.55184631 -30.23309326 499.54837036 C-46.44694267 499.43121204 -61.66687286 497.24837493 -74.67578125 486.53515625 C-76.28806813 484.8270487 -77.49643977 483.10685583 -78.75 481.12109375 C-79.30558594 480.35023438 -79.86117187 479.579375 -80.43359375 478.78515625 C-86.96840517 468.25097987 -86.2367062 455.16582621 -84.046875 443.31640625 C-80.21006767 430.53788693 -70.49311236 421.42056874 -59.4375 414.55859375 C-58.68839355 414.08317139 -57.93928711 413.60774902 -57.16748047 413.11791992 C-53.27426919 410.65760914 -49.34604238 408.26650147 -45.375 405.93359375 C-39.89464789 402.71152467 -34.83358112 398.92894729 -29.75 395.12109375 C-30.85026413 391.82030135 -31.57709337 391.19629093 -34.1875 389.05859375 C-65.71812238 362.0724205 -81.22052433 323.372935 -84.5390625 282.53857422 C-87.1485299 240.26157813 -81.1286409 197.58578583 -62.75 159.12109375 C-63.35859863 158.5185376 -63.96719727 157.91598145 -64.59423828 157.29516602 C-81.96470283 139.77716072 -88.029357 114.0913886 -88.0690918 90.29907227 C-87.97527008 80.58943287 -87.07427473 72.2601422 -83.75 63.12109375 C-83.36457031 62.05375 -82.97914063 60.98640625 -82.58203125 59.88671875 C-72.85786933 35.08853235 -55.39153818 17.06280563 -31.109375 6.40234375 C-20.9561366 2.52994585 -10.82893885 0.47684248 0 0 Z M-47.75 32.12109375 C-48.66265625 32.77078125 -48.66265625 32.77078125 -49.59375 33.43359375 C-63.48550935 44.04184634 -72.59144992 65.13909118 -75.47314453 82.02050781 C-76.87943444 92.69045351 -76.34271591 102.94950845 -72.75 113.12109375 C-72.48316406 114.04664063 -72.21632812 114.9721875 -71.94140625 115.92578125 C-68.37578653 127.87456912 -62.50615495 138.68958157 -54.4140625 148.16796875 C-51.02120814 152.15019218 -50.43129633 154.65260556 -50.125 159.80859375 C-50.05023438 160.98808594 -49.97546875 162.16757812 -49.8984375 163.3828125 C-49.82496094 164.73826172 -49.82496094 164.73826172 -49.75 166.12109375 C-50.35593994 166.13906006 -50.96187988 166.15702637 -51.58618164 166.17553711 C-54.0965488 166.98574859 -54.0965488 166.98574859 -55.13452148 170.15844727 C-55.5646226 171.51675634 -55.97542772 172.88126375 -56.37109375 174.25 C-56.59632721 174.98288239 -56.82156067 175.71576477 -57.05361938 176.47085571 C-57.78378983 178.86987901 -58.48698205 181.27575837 -59.1875 183.68359375 C-59.67949982 185.33702708 -60.17160636 186.99042865 -60.66381836 188.64379883 C-66.03558589 206.8899395 -70.02307674 225.16509894 -71.75 244.12109375 C-71.86085937 245.19359375 -71.97171875 246.26609375 -72.0859375 247.37109375 C-74.80144592 275.55366761 -70.29432303 302.99815068 -59.75 329.12109375 C-59.48977051 329.76852539 -59.22954102 330.41595703 -58.96142578 331.08300781 C-56.51440104 337.17263772 -56.51440104 337.17263772 -53.75 343.12109375 C-53.09 343.12109375 -52.43 343.12109375 -51.75 343.12109375 C-51.47929687 344.00796875 -51.20859375 344.89484375 -50.9296875 345.80859375 C-46.61146294 357.93393952 -36.36003476 369.38707628 -26.67578125 377.703125 C-14.88443887 387.83003611 -14.88443887 387.83003611 -14.3125 394.99609375 C-14.44140625 397.98828125 -14.44140625 397.98828125 -14.75 400.12109375 C-15.74 400.12109375 -16.73 400.12109375 -17.75 400.12109375 C-19.24328158 401.59011611 -19.24328158 401.59011611 -20.6875 403.55859375 C-27.52800543 411.65058458 -36.36134683 417.01095828 -45.4375 422.24609375 C-57.91907718 429.44589473 -67.39247003 436.28294832 -72.05859375 450.45703125 C-73.85497591 457.37868455 -72.86640321 463.72013608 -69.75 470.12109375 C-64.049097 479.23920469 -54.6405198 483.28423611 -44.5625 485.99609375 C-29.72705512 488.97381745 -14.89077169 487.25776775 -0.625 482.43359375 C5.39546051 480.63941678 11.0768984 479.47006303 17.25 481.12109375 C20.8020698 483.60415761 23.54797559 486.92517918 26.42578125 490.1328125 C33.47179426 497.89843861 45.46173613 501.05905777 55.5703125 502.4375 C72.51974967 502.95215902 87.93387439 493.75384861 100.0546875 482.73046875 C111.9463382 471.49498128 120.45171906 458.96124361 127.25 444.12109375 C128.99965358 444.06679416 130.74979787 444.02816552 132.5 443.99609375 C133.96179688 443.96128906 133.96179688 443.96128906 135.453125 443.92578125 C138.35258263 444.12825734 139.8844417 444.45682929 142.25 446.12109375 C142.95477822 447.4346804 143.61293426 448.77336623 144.25 450.12109375 C159.66437599 470.35086985 182.90968349 486.30859653 208.25 491.12109375 C220.44825947 492.7077084 233.27473933 493.87682433 243.734375 486.328125 C244.54390625 485.70292969 245.3534375 485.07773437 246.1875 484.43359375 C251.80462794 480.14515023 257.36281448 480.04552902 264.25 480.12109375 C264.58 481.11109375 264.91 482.10109375 265.25 483.12109375 C267.79946604 483.9919361 270.19685257 484.65962572 272.8125 485.24609375 C273.50408203 485.41496094 274.19566406 485.58382813 274.90820312 485.7578125 C289.23427447 489.14907263 305.31569868 490.6049426 318.4765625 482.80078125 C323.94643531 478.54126327 327.63685775 471.8948441 328.5234375 464.9921875 C328.8501306 457.16411814 326.75973471 451.25324447 321.6640625 445.25390625 C316.98511599 440.82014471 311.42636429 437.75741188 305.89453125 434.52709961 C294.65137072 427.90827793 283.53961847 419.16974706 277.22265625 407.5546875 C276.74119141 406.84505859 276.74119141 406.84505859 276.25 406.12109375 C275.59 406.12109375 274.93 406.12109375 274.25 406.12109375 C273.64361397 402.0836374 273.79072766 398.9571742 275.25 395.12109375 C279.251203 391.63395259 283.67856946 389.0974562 288.2265625 386.38916016 C314.61895447 369.84933343 330.08758346 338.81551912 336.89160156 309.34179688 C343.83716135 276.73839263 340.80296079 243.82524309 331.25 212.12109375 C330.92177246 211.01507813 330.92177246 211.01507813 330.58691406 209.88671875 C324.58770402 189.96481372 315.88722023 169.06970198 304.0234375 151.8984375 C301.62444072 148.14141832 301.14373649 145.59240049 301.26953125 141.18359375 C303.07249719 135.55201886 307.71087682 132.16185741 311.97265625 128.26171875 C316.12120915 124.42725556 318.71989555 120.13752923 321.25 115.12109375 C321.61222656 114.51652344 321.97445313 113.91195312 322.34765625 113.2890625 C324.90201474 108.83107563 326.21764694 104.06990888 327.5 99.12109375 C327.67547363 98.4564209 327.85094727 97.79174805 328.03173828 97.10693359 C331.97865785 80.90903057 325.45043049 64.92021172 317.25 51.12109375 C311.60849468 42.09678637 305.09545858 35.97522156 296.25 30.12109375 C295.44949219 29.56808594 294.64898438 29.01507813 293.82421875 28.4453125 C281.22297615 20.24921017 267.00131748 16.78998318 252.25 15.12109375 C250.90035156 14.96447266 250.90035156 14.96447266 249.5234375 14.8046875 C231.74854067 13.85791464 212.36077584 22.33874063 198.5546875 32.9765625 C194.71539663 36.54905519 191.93698269 40.64522312 189.25 45.12109375 C188.71375 45.99121094 188.1775 46.86132812 187.625 47.7578125 C186.17678554 50.09991406 186.17678554 50.09991406 185.25 52.74609375 C184.13482159 55.39464247 183.58449422 56.4508865 181.25 58.12109375 C178.56921258 58.42764119 176.17709312 58.54621325 173.5 58.49609375 C172.74501221 58.48956787 171.99002441 58.48304199 171.2121582 58.47631836 C164.83849517 58.32759733 158.96410482 57.24980963 152.7421875 55.85546875 C147.592376 54.77251063 142.50002522 54.349046 137.25 54.12109375 C136.31027344 54.07984375 135.37054688 54.03859375 134.40234375 53.99609375 C121.13472478 53.71038459 108.53284852 56.01022103 95.78344727 59.4440918 C90.02993005 60.93294299 84.19389193 62.05482166 78.25 61.12109375 C75.49075221 58.76423626 74.17119657 57.11630864 72.25 54.12109375 C71.47148603 52.93395422 70.69139947 51.74784522 69.91015625 50.5625 C69.2764209 49.59993286 69.2764209 49.59993286 68.62988281 48.61791992 C56.52619463 30.27172539 39.48578454 19.91267135 18.25 14.12109375 C-6.28405215 9.8183738 -28.29861673 17.02449778 -47.75 32.12109375 Z " fill="#430019" transform="translate(282.75,281.87890625)"/>
<path d="M0 0 C0.69480469 0.27328125 1.38960937 0.5465625 2.10546875 0.828125 C7.13904058 2.84522118 11.6326846 5.5265502 16.1875 8.4375 C17.06100098 8.99473755 17.06100098 8.99473755 17.95214844 9.56323242 C28.85125186 16.67990652 35.55191915 25.72329161 41.4375 37.25 C41.77958496 37.91104736 42.12166992 38.57209473 42.47412109 39.25317383 C49.02582206 52.56829739 47.69275116 73.16017308 44.0390625 87.296875 C42.75749142 90.63088697 41.22176747 92.86011941 38.68359375 95.34765625 C36.66167887 97.33204139 35.02140027 99.49193939 33.3125 101.75 C32.22524057 103.17968367 31.12237281 104.59771339 30 106 C29.51917969 106.60328125 29.03835938 107.2065625 28.54296875 107.828125 C27 109 27 109 25.08203125 108.97265625 C22.23272898 107.64155632 20.7339924 105.81841034 18.6875 103.4375 C17.8934375 102.52742188 17.099375 101.61734375 16.28125 100.6796875 C14.9420262 99.10655817 13.60681648 97.52996697 12.28125 95.9453125 C-14.80946257 63.94108834 -55.05920336 43.40820666 -94 30 C-88.42092442 14.98144584 -76.213339 5.99549916 -62.10327148 -0.57006836 C-42.28325472 -9.1892929 -19.61764576 -9.32465795 0 0 Z " fill="#FC72A9" transform="translate(563,304)"/>
<path d="M0 0 C3.54861736 1.4864122 6.95201557 3.26938462 10.37109375 5.02929688 C18.8395962 9.21727213 27.36793051 10.40844491 36.75 10.4375 C37.64759033 10.44136719 38.54518066 10.44523438 39.4699707 10.44921875 C46.31514485 10.33524135 52.56770979 9.18069926 59.1875 7.5 C73.9201244 3.78286943 86.59483451 4.02757683 101.23046875 8.02734375 C112.31997014 10.88877986 123.71086127 11.33290634 134.59765625 7.55859375 C137.38943676 6.90944804 139.25683544 7.26164376 142 8 C142.4375 10.125 142.4375 10.125 142 13 C139.02538942 16.63866737 135.60741386 18.97137617 131.125 20.3125 C126.45930042 21.85289318 123.93254709 24.88217821 120.61328125 28.390625 C112.90662877 36.08575782 104.10161038 42.82563149 94 47 C92.71029297 47.53560547 92.71029297 47.53560547 91.39453125 48.08203125 C79.91027336 52.48464235 65.27175 50.16556562 54.375 45.3125 C44.48775901 40.37480001 36.06578816 34.54640688 27.94555664 27.08740234 C24.43347148 23.93126143 21.65298254 22.22736154 17 21 C-4.09527808 13.69473432 -4.09527808 13.69473432 -9 5 C-8.875 2.25 -8.875 2.25 -8 0 C-5.00744241 -1.4962788 -3.24227965 -0.77321646 0 0 Z M73 17 C73.59748047 17.76570312 73.59748047 17.76570312 74.20703125 18.546875 C78.69926594 24.71140143 80.5630861 30.55073585 82 38 C93.05147107 37.7488302 103.14823239 29.12217859 111 22 C111 21.67 111 21.34 111 21 C109.99582031 20.81824219 108.99164062 20.63648438 107.95703125 20.44921875 C106.57538549 20.19605003 105.19388549 19.94208502 103.8125 19.6875 C103.0894165 19.55432373 102.36633301 19.42114746 101.62133789 19.28393555 C97.02338214 18.42191353 92.48286876 17.42500284 87.9375 16.3125 C79.96229087 14.0461164 79.96229087 14.0461164 73 17 Z M49.3125 21.5 C48.13300781 21.7784375 46.95351563 22.056875 45.73828125 22.34375 C44.83464844 22.5603125 43.93101562 22.776875 43 23 C46.84958481 27.28397375 50.71798006 29.7437847 55.875 32.25 C56.55691406 32.600625 57.23882812 32.95125 57.94140625 33.3125 C62.34259892 35.49213827 66.10563755 36.56551352 71 37 C70.59511713 30.52187403 65.8497848 25.72073004 61.3125 21.5 C57.28984064 18.89070744 53.74398218 20.44697453 49.3125 21.5 Z " fill="#45011A" transform="translate(414,621)"/>
<path d="M0 0 C6.46675372 3.79312642 11.08500766 9.25465244 13.625 16.3125 C15.01003676 25.74507794 13.38479752 34.61436127 8.1171875 42.59765625 C3.44792008 48.40709362 -2.3411557 51.96788523 -9.375 54.3125 C-17.38894036 55.12625487 -24.02596302 55.28925034 -30.5390625 50.15625 C-36.0682443 44.60353976 -39.36087012 37.86633632 -39.6875 30 C-39.44039238 21.32216189 -35.89978946 13.91984956 -30.375 7.3125 C-22.03675556 -0.46647195 -11.00647875 -5.11832471 0 0 Z " fill="#44011A" transform="translate(389.375,560.6875)"/>
<path d="M0 0 C7.69676195 4.12933239 13.15588976 10.16704467 16.30078125 18.234375 C18.49439781 25.56646324 18.1636563 33.31727783 14.69921875 40.16015625 C11.55212559 44.82805142 7.47262786 48.12432007 2.48828125 50.671875 C-4.68929188 51.93850555 -11.46091693 52.31876994 -17.92578125 48.55859375 C-24.73989733 43.47052029 -30.90650895 34.54602952 -32.69921875 26.234375 C-33.41470987 19.09047133 -33.14515649 13.08819302 -28.69921875 7.234375 C-20.26590922 -1.50999922 -11.76944548 -4.43183382 0 0 Z " fill="#440119" transform="translate(579.69921875,558.765625)"/>
<path d="M0 0 C7.15842804 1.36245801 13.54754417 3.60148819 20.25 6.4375 C21.82164917 7.10120605 21.82164917 7.10120605 23.42504883 7.77832031 C46.02794424 17.48745024 67.41251536 29.7776893 86 46 C87.15997823 46.97961988 88.32154734 47.9573579 89.484375 48.93359375 C98.94008416 56.8992593 107.38074413 64.91690825 114.921875 74.77734375 C117.0328752 77.03516163 117.98303548 77.68063664 121 78 C125.38579957 73.20968493 129.59008792 68.54110713 133 63 C133.33 63.66 133.66 64.32 134 65 C130.60029234 70.90475541 126.63854187 75.40134545 121.6875 80 C118.05905866 83.41064774 115.27776369 86.08603532 114.75 91.25 C114.8325 92.4875 114.915 93.725 115 95 C112.27354767 92.58813832 110.35230768 90.05814211 108.4375 87 C97.31178478 70.00547 80.22994424 56.79697788 64 45 C63.38962891 44.55414551 62.77925781 44.10829102 62.15039062 43.64892578 C40.26010652 27.85074905 14.88197422 16.60750965 -11.37792969 10.49438477 C-13.26523618 10.04922208 -15.13527057 9.53186441 -17 9 C-17.33 8.34 -17.66 7.68 -18 7 C-17.11957031 6.99742187 -16.23914063 6.99484375 -15.33203125 6.9921875 C-8.83025476 7.01710521 -8.83025476 7.01710521 -3.0234375 4.59765625 C-1.51043631 2.80557541 -1.51043631 2.80557541 0 0 Z " fill="#CD2967" transform="translate(469,334)"/>
<path d="M0 0 C0.99 0.495 0.99 0.495 2 1 C-0.70219359 15.28302327 -7.33633248 26.28807024 -17 37 C-18.04800781 38.17175781 -18.04800781 38.17175781 -19.1171875 39.3671875 C-34.74596516 55.91193748 -58.57837298 67.41715692 -81.41796875 68.203125 C-103.97303087 68.56699205 -103.97303087 68.56699205 -109.8125 63.39453125 C-110.204375 62.93433594 -110.59625 62.47414063 -111 62 C-110.34 60.68 -109.68 59.36 -109 58 C-108.17910889 57.98018066 -107.35821777 57.96036133 -106.51245117 57.93994141 C-103.41277669 57.8609827 -100.31343446 57.77427091 -97.21411133 57.68261719 C-95.23469465 57.62634176 -93.25503875 57.57869039 -91.27539062 57.53125 C-61.73582755 56.63384555 -39.5269145 43.79558875 -19.56738281 22.70605469 C-16.59229006 19.46774501 -13.83524245 16.06941855 -11.109375 12.62109375 C-7.59165308 8.24999855 -3.79218729 4.1328566 0 0 Z " fill="#CF2968" transform="translate(370,393)"/>
<path d="M0 0 C0.82052387 2.82240439 1.24216822 4.41353176 0.1015625 7.17578125 C-6.01710005 16.03003631 -13.41197675 21.78933375 -22.4921875 27.4296875 C-29.67118975 31.92495059 -35.22435704 37.89221608 -37.6484375 46.23046875 C-38.16004629 50.26080913 -38.26511185 54.25291554 -38.3125 58.3125 C-38.34150391 59.12912109 -38.37050781 59.94574219 -38.40039062 60.78710938 C-38.48054805 68.52538355 -35.9883889 74.28539392 -30.75 80 C-30.22921875 80.5775 -29.7084375 81.155 -29.171875 81.75 C-28.78515625 82.1625 -28.3984375 82.575 -28 83 C-32.85488048 81.06468318 -35.56716032 77.10740178 -38.87890625 73.21484375 C-43.35005897 70.04194814 -47.63060673 70.10948283 -53 70 C-52.94734141 66.22810152 -52.85209505 62.45835856 -52.75 58.6875 C-52.73582031 57.63498047 -52.72164063 56.58246094 -52.70703125 55.49804688 C-52.35593192 44.08731862 -48.97990433 32.77904377 -40.57470703 24.61572266 C-35.20447929 19.81357481 -29.16602778 16.22394102 -23.02734375 12.5 C-18.52314011 9.72373323 -14.41464683 6.85322441 -10.49023438 3.296875 C-6.85341742 0.13193862 -4.70479934 -0.20910219 0 0 Z " fill="#CF2A68" transform="translate(342,692)"/>
<path d="M0 0 C6.23545917 0.58008086 11.87418386 2.99629941 17.6875 5.1875 C18.71294922 5.56197266 19.73839844 5.93644531 20.79492188 6.32226562 C33.70669133 11.15908135 45.18639251 16.56480418 51.5 29.5 C55.69608452 41.34558373 53.15009525 54.599746 48.875 66 C48.52179687 66.94875 48.16859375 67.8975 47.8046875 68.875 C47.53914062 69.57625 47.27359375 70.2775 47 71 C46.67 70.34 46.34 69.68 46 69 C41.38 69.33 36.76 69.66 32 70 C32.66 68.68 33.32 67.36 34 66 C34.86941269 64.00658026 35.7224925 62.00598806 36.5625 60 C36.99691406 58.96875 37.43132813 57.9375 37.87890625 56.875 C40.79236268 49.40355772 41.77185216 40.10447757 38.5625 32.5625 C33.32274116 24.23075299 22.25347994 20.60332683 13.640625 16.7890625 C0.44926309 10.75103387 0.44926309 10.75103387 -2.0625 4.25 C-2 2 -2 2 0 0 Z " fill="#CF2968" transform="translate(501,693)"/>
<path d="M0 0 C3.83767759 1.03626077 7.46137041 1.59920626 11.4140625 1.921875 C4.77290603 9.25004766 -4.01846317 16.04215995 -13.5859375 18.921875 C-14.9059375 18.921875 -16.2259375 18.921875 -17.5859375 18.921875 C-17.73289062 18.17164063 -17.87984375 17.42140625 -18.03125 16.6484375 C-19.68312082 9.1105902 -22.23601647 3.28486628 -26.5859375 -3.078125 C-19.22358625 -6.75930063 -7.54637492 -2.15610712 0 0 Z " fill="#C52562" transform="translate(513.5859375,640.078125)"/>
<path d="M0 0 C0.763125 0.825 1.52625 1.65 2.3125 2.5 C6.17356001 5.80283447 9.92836511 5.40334296 14.8046875 5.17578125 C15.52914063 5.11777344 16.25359375 5.05976563 17 5 C23.12041213 32.69242322 23.12041213 32.69242322 18 44 C16.68 44 15.36 44 14 44 C13.39455784 41.75033674 12.79066353 39.50027436 12.1875 37.25 C12.00372803 36.56768311 11.81995605 35.88536621 11.63061523 35.18237305 C10.53056376 31.07407623 9.52014084 26.95677327 8.5625 22.8125 C7.02988354 16.58098251 4.57693347 10.85975961 2 5 C1.32664848 3.33602285 0.65777261 1.67019682 0 0 Z " fill="#CF2A69" transform="translate(355,338)"/>
<path d="M0 0 C5.03043766 2.42380231 9.69462494 5.43939635 14.4375 8.375 C15.37916016 8.9525 16.32082031 9.53 17.29101562 10.125 C21.73254182 12.87078472 26.03324817 15.58067676 30 19 C29.125 23.875 29.125 23.875 28 25 C21.44533247 25.56306615 17.44791923 24.25560581 11.75 21.125 C11.05648438 20.76019531 10.36296875 20.39539063 9.6484375 20.01953125 C8.32923057 19.32454676 7.01322341 18.62343946 5.70117188 17.91503906 C3.82002471 16.90319354 1.91831339 15.93938027 0 15 C0.99 15 1.98 15 3 15 C2.8858134 13.06183265 2.75826577 11.12444901 2.625 9.1875 C2.55539062 8.10855469 2.48578125 7.02960937 2.4140625 5.91796875 C2.18804267 2.81373814 2.18804267 2.81373814 0 0 Z " fill="#CF2A69" transform="translate(265,667)"/>
<path d="M0 0 C3.54259712 3.37390202 6.31228259 7.18451701 8.625 11.5 C8.625 12.49 8.625 13.48 8.625 14.5 C2.88807011 13.99071641 -1.4008158 12.37188677 -6.5 9.75 C-7.18964844 9.41484375 -7.87929688 9.0796875 -8.58984375 8.734375 C-12.97426997 6.52120383 -16.09079335 4.15479807 -19.375 0.5 C-17.29452703 -0.0321441 -15.21047707 -0.55031786 -13.125 -1.0625 C-11.96484375 -1.35253906 -10.8046875 -1.64257812 -9.609375 -1.94140625 C-5.39903748 -2.66855391 -3.55456684 -2.24498958 0 0 Z " fill="#F25CAD" transform="translate(476.375,643.5)"/>
<path d="M0 0 C0.66 0 1.32 0 2 0 C3.41015625 1.50390625 3.41015625 1.50390625 5.0625 3.5625 C8.88435283 8.08583215 13.22292131 11.53363904 18 15 C17.67 16.65 17.34 18.3 17 20 C10.0698419 20.77001757 5.10236607 18.0898056 -1 15 C-0.34 14.67 0.32 14.34 1 14 C0.67 9.38 0.34 4.76 0 0 Z " fill="#CD2A68" transform="translate(232,434)"/>
<path d="M0 0 C0 3.63 0 7.26 0 11 C0.66 11 1.32 11 2 11 C1.67 11.66 1.34 12.32 1 13 C-0.423125 12.9690625 -0.423125 12.9690625 -1.875 12.9375 C-4.90666283 12.77448174 -4.90666283 12.77448174 -7 14 C-9.69013339 14.18704404 -12.29686177 14.08581391 -15 14 C-16 13 -16 13 -16.5625 10.75 C-16 8 -16 8 -14.42578125 6.6640625 C-12.32529052 5.34375404 -10.19791928 4.15034984 -8 3 C-6.88625 2.401875 -5.7725 1.80375 -4.625 1.1875 C-2 0 -2 0 0 0 Z " fill="#CF2B69" transform="translate(557,677)"/>
<path d="M0 0 C0 3.80196862 -0.89536327 4.22027411 -3.5 6.875 C-20.69422746 25.59353841 -24.52187752 47.54403513 -25 72 C-29.29046368 65.56430448 -27.65027132 54.39328671 -26.41796875 46.921875 C-22.77645318 30.49348511 -14.43875601 9.78002696 0 0 Z " fill="#C42964" transform="translate(234,315)"/>
<path d="M0 0 C25.04547627 -0.52299138 47.04666831 6.15398052 65.734375 23.62109375 C66.84663438 24.72398015 67.92870291 25.85728311 69 27 C68.67 27.66 68.34 28.32 68 29 C67.58492188 28.52691406 67.16984375 28.05382812 66.7421875 27.56640625 C52.20459075 11.96434112 32.34069158 4.08633522 11.375 2.8125 C10.18003906 2.73064453 8.98507812 2.64878906 7.75390625 2.56445312 C4.83645724 2.36606659 1.91874298 2.17814375 -1 2 C-0.67 1.34 -0.34 0.68 0 0 Z " fill="#C42964" transform="translate(277,295)"/>
<path d="M0 0 C1.32 0.33 2.64 0.66 4 1 C4.268125 2.0725 4.53625 3.145 4.8125 4.25 C5.86227827 7.56508928 6.74612328 9.43877646 9 12 C8.67 12.66 8.34 13.32 8 14 C7.34 13.34 6.68 12.68 6 12 C3.33757179 11.53709779 3.33757179 11.53709779 0.375 11.375 C-0.62789063 11.30023437 -1.63078125 11.22546875 -2.6640625 11.1484375 C-3.43492187 11.09945312 -4.20578125 11.05046875 -5 11 C-4.27031096 6.49128985 -2.67844067 3.71525641 0 0 Z " fill="#CE2A68" transform="translate(415,714)"/>
<path d="M0 0 C1.91543509 2.87315263 2.47354742 4.39404529 3.125 7.6875 C3.29257812 8.49574219 3.46015625 9.30398438 3.6328125 10.13671875 C4.50814587 16.96245659 3.877616 22.73086757 2.125 29.3125 C1.95097656 30.01439453 1.77695312 30.71628906 1.59765625 31.43945312 C0.74645344 34.74653368 -0.08829888 37.13244832 -2 40 C-1.10967473 32.36864053 -1.10967473 32.36864053 -0.48632812 30.2734375 C0.1483599 27.30646213 0.11144643 24.51821443 0.09765625 21.484375 C0.09443359 20.23398437 0.09121094 18.98359375 0.08789062 17.6953125 C0.07951172 16.39335937 0.07113281 15.09140625 0.0625 13.75 C0.05573242 11.77386719 0.05573242 11.77386719 0.04882812 9.7578125 C0.03704316 6.50516259 0.02059011 3.25260416 0 0 Z " fill="#C8346B" transform="translate(608,352)"/>
<path d="M0 0 C0 0.66 0 1.32 0 2 C-0.969375 2.1959375 -1.93875 2.391875 -2.9375 2.59375 C-16.19045052 5.47286801 -29.23441349 10.23441349 -39 20 C-39.66 19.67 -40.32 19.34 -41 19 C-31.67358674 9.18272289 -13.75096354 -0.59463626 0 0 Z " fill="#C42964" transform="translate(276,296)"/>
<path d="" fill="#420018" transform="translate(0,0)"/>
</svg>
