<?xml version="1.0" encoding="UTF-8"?>
<svg version="1.1" xmlns="http://www.w3.org/2000/svg" width="820" height="820">
<path d="M0 0 C1.567949 1.32692124 3.13077303 2.65993091 4.6875 4 C5.39648438 4.55300781 6.10546875 5.10601562 6.8359375 5.67578125 C14.45412037 11.79075945 19.19687726 19.95611382 22.6875 29 C23.06519531 29.8353125 23.44289063 30.670625 23.83203125 31.53125 C29.01176213 43.17390793 31.66691296 55.451091 33.6875 68 C35.0075 68 36.3275 68 37.6875 68 C40.82179723 57.61764044 39.92120403 48.72665941 37.34375 38.26171875 C36.70297664 35.07692257 36.56993769 32.23786193 36.6875 29 C65.23761431 20.41412621 93.86606825 19.52022068 122.33984375 29.22583008 C124.61450808 29.97592997 126.89605719 30.64630106 129.203125 31.2890625 C185.53814281 47.07045869 234.85927287 85.83434528 264.6875 136 C265.17541016 136.8156543 265.66332031 137.63130859 266.16601562 138.47167969 C290.17294942 178.81369995 305.53158573 225.62365708 293.80859375 272.515625 C292.88070826 275.73022409 291.83428539 278.85710351 290.6875 282 C290.07455078 283.69189453 290.07455078 283.69189453 289.44921875 285.41796875 C284.23969641 298.63988319 276.19729098 309.48409268 265.6875 319 C264.90375 319.7425 264.12 320.485 263.3125 321.25 C250.95287513 329.48974991 236.50106196 332.52407587 222 334.1875 C219.30782258 334.50841134 216.61681315 334.8374442 213.92578125 335.16796875 C212.75055908 335.30485107 211.57533691 335.4417334 210.36450195 335.58276367 C207.77390614 335.71700155 207.77390614 335.71700155 206.6875 337 C206.64686168 338.66617115 206.644779 340.33388095 206.6875 342 C220.26867494 347.25722901 234.13139851 345.4176983 247.6875 341 C248.90314768 340.44661533 250.11309254 339.88049669 251.31640625 339.30078125 C255.19759216 337.80317417 256.70845056 338.01873203 260.6875 339 C263.29296875 340.31933594 263.29296875 340.31933594 265.875 341.984375 C266.82117188 342.59023438 267.76734375 343.19609375 268.7421875 343.8203125 C270.20011719 344.77550781 270.20011719 344.77550781 271.6875 345.75 C272.65945313 346.37132812 273.63140625 346.99265625 274.6328125 347.6328125 C288.1712062 356.3755899 288.1712062 356.3755899 292 363.125 C292.49113281 363.97320313 292.98226563 364.82140625 293.48828125 365.6953125 C296.22445638 370.95375982 296.75322153 376.45615492 295.0390625 382.15625 C290.70285796 391.7922601 282.3260353 395.66583722 272.94140625 399.453125 C253.76870881 406.70977563 235.53302232 404.67040824 216.6875 398 C216.58953125 397.41734375 216.4915625 396.8346875 216.390625 396.234375 C212.87637377 376.96658378 204.80979681 364.28886862 189.58203125 352.3125 C186.10795277 349.53698791 182.70166343 346.69070766 179.3125 343.8125 C178.71751709 343.31339111 178.12253418 342.81428223 177.50952148 342.30004883 C174.8356495 340.01851169 172.65820579 337.96124069 170.5234375 335.13671875 C169.91757812 334.43160156 169.31171875 333.72648437 168.6875 333 C167.3675 333 166.0475 333 164.6875 333 C164.12111262 339.79664853 165.91651452 344.61705991 170.26171875 349.921875 C172.06246566 351.8394489 173.91526118 353.67793704 175.8125 355.5 C176.47757568 356.15508545 177.14265137 356.8101709 177.82788086 357.48510742 C181.46753315 361.02445261 185.17805793 364.26938957 189.25 367.3125 C197.53377222 373.68674595 202.55933456 384.33307976 204.0703125 394.6015625 C204.35551043 400.74282449 202.95549308 405.78829861 199.6875 411 C194.26593391 416.5680949 187.00036222 418.73269507 179.41015625 419.203125 C154.92892383 419.51665199 128.45523752 410.08418305 110.64208984 392.94848633 C109.31654584 391.63972427 108.00165293 390.32019964 106.6875 389 C106.01203125 388.37222656 105.3365625 387.74445313 104.640625 387.09765625 C100.47253481 383.1785449 97.3694446 378.8398302 94.265625 374.0390625 C92.77260496 371.71909686 92.77260496 371.71909686 89.6875 371 C89.58953125 370.01 89.4915625 369.02 89.390625 368 C88.58464432 360.64472824 87.61872433 354.42099974 83.6875 348 C82.3675 348 81.0475 348 79.6875 348 C79.71106567 349.14045776 79.71106567 349.14045776 79.73510742 350.30395508 C79.79813654 353.80672525 79.83670452 357.30937549 79.875 360.8125 C79.90013672 362.00810547 79.92527344 363.20371094 79.95117188 364.43554688 C80.07287819 379.32428564 75.80070434 394.11090534 65.25 405.0625 C53.70139942 415.57893223 38.62482534 420.69585116 23.0234375 420.375 C8.55117903 418.7481419 -5.29060285 412.3125127 -14.7890625 401.2109375 C-19.5339626 394.32474914 -19.3887657 386.0514084 -18.3125 378 C-15.42612718 368.06852127 -8.32077828 361.20613457 -1.3125 354 C5.39886439 346.61794676 5.39886439 346.61794676 6.6875 337 C1.897308 337.45893282 -0.40218058 338.45229917 -3.80859375 341.83203125 C-4.61159912 342.62440186 -5.41460449 343.41677246 -6.24194336 344.2331543 C-7.4834314 345.50993042 -7.4834314 345.50993042 -8.75 346.8125 C-10.02532593 348.11537964 -10.02532593 348.11537964 -11.32641602 349.44458008 C-20.43102845 358.94124449 -24.98215199 366.86366582 -27.70043945 379.6875 C-28.87328138 384.60295459 -28.87328138 384.60295459 -30.98046875 386.5078125 C-32.9375 387.1875 -32.9375 387.1875 -35.0703125 387.58203125 C-37.69115436 388.07058539 -39.49081057 389.07344684 -41.8125 390.375 C-63.72008559 401.51387992 -90.3175592 403.36945022 -113.66015625 395.93359375 C-124.67033939 391.7160394 -132.2511283 385.79156752 -137.3125 375 C-138.74632134 370.28887273 -139.58035921 365.49700516 -137.2890625 360.984375 C-130.09726424 350.89201723 -121.0279167 345.42183837 -109.75 340.75 C-107.39388667 339.74630344 -105.03840141 338.74113104 -102.68359375 337.734375 C-101.57999512 337.27095703 -100.47639648 336.80753906 -99.33935547 336.33007812 C-96.73765976 335.18682613 -94.27593171 333.94002145 -91.78515625 332.578125 C-88.3125 331 -88.3125 331 -85.81640625 331.0390625 C-82.25661514 332.40522258 -78.74796315 333.85792866 -75.25 335.375 C-62.64785032 340.64747855 -51.89130016 342.46526346 -38.3125 342 C-38.41091898 340.0428815 -38.41091898 340.0428815 -39.3125 338 C-41.60223442 336.73442188 -41.60223442 336.73442188 -44.5 335.921875 C-45.58337646 335.5697998 -46.66675293 335.21772461 -47.78295898 334.85498047 C-48.94770752 334.49033691 -50.11245605 334.12569336 -51.3125 333.75 C-85.72522307 322.40979038 -112.15425061 303.78960776 -128.7734375 271.12890625 C-132.03263439 264.32409819 -134.36000903 257.28134186 -136.3125 250 C-136.49272705 249.38882324 -136.6729541 248.77764648 -136.85864258 248.14794922 C-138.66184442 241.33228038 -138.65023196 234.47782796 -138.62817383 227.47314453 C-138.62503709 225.39951769 -138.64845805 223.32735532 -138.67382812 221.25390625 C-138.73372166 208.80806663 -136.70361058 196.94481904 -132.6875 185.125 C-132.30899902 184.00883301 -132.30899902 184.00883301 -131.92285156 182.87011719 C-125.66734689 165.23420567 -115.13341464 149.53716686 -102.3125 136 C-101.74402344 136.2165625 -101.17554688 136.433125 -100.58984375 136.65625 C-95.5882781 138.45981958 -91.62287964 139.3389604 -86.3125 139 C-86.3125 137.68 -86.3125 136.36 -86.3125 135 C-87.75006874 133.48187928 -87.75006874 133.48187928 -89.75 132.25 C-102.18316184 123.44408749 -111.01123225 112.78049784 -118.1875 99.4375 C-118.72310547 98.44858765 -118.72310547 98.44858765 -119.26953125 97.43969727 C-124.61187739 87.08638164 -127.00688552 77.4664147 -126.8125 65.8125 C-126.79896484 64.63067139 -126.78542969 63.44884277 -126.77148438 62.23120117 C-126.24883174 39.98351959 -118.43753472 20.8054295 -102.9765625 4.54296875 C-74.35263092 -22.64513454 -30.9977462 -24.49439057 0 0 Z M34.6875 79 C29.67646361 83.72100856 25.32855386 88.81464344 21.0078125 94.16796875 C17.38580966 98.58876346 13.57496227 102.81245292 9.6875 107 C9.01460938 107.75023437 8.34171875 108.50046875 7.6484375 109.2734375 C-7.20249208 125.12555334 -29.01196955 135.80970319 -50.77734375 136.609375 C-53.60159417 136.68734073 -56.42487936 136.72220451 -59.25 136.75 C-60.7233406 136.77826163 -62.19664998 136.80820257 -63.66992188 136.83984375 C-67.21730127 136.91247781 -70.7645507 136.96277814 -74.3125 137 C-74.9725 138.32 -75.6325 139.64 -76.3125 141 C-71.98524373 146.04846565 -65.33862744 146.63491679 -59.00244141 147.20947266 C-34.66016616 148.71740121 -11.04691003 141.07643095 7.83203125 125.5234375 C21.90867657 113.08361141 33.28029577 98.8944962 36.6875 80 C35.6975 79.505 35.6975 79.505 34.6875 79 Z M10.0625 261.140625 C6.52305443 265.92692071 5.82900429 270.13710247 6.6875 276 C8.85165305 279.63268548 10.85701334 281.35938188 14.6875 283 C27.39241253 284.45794078 40.50163186 278.15147665 50.6875 271 C59.0648406 264.25641462 66.52974399 257.46109429 68.25 246.375 C67.65868873 242.82713238 67.43114837 242.33778515 64.875 240.125 C47.08279026 228.26352684 21.42581378 247.91984647 10.0625 261.140625 Z M215.69140625 241.046875 C214.0661871 244.20877996 213.49283493 246.64524229 213.74609375 250.20703125 C216.29197288 257.76015812 223.65642038 264.17421255 230.4375 268.0625 C231.84033656 268.73784786 233.25630986 269.38702372 234.6875 270 C235.821875 270.515625 236.95625 271.03125 238.125 271.5625 C239.300625 272.036875 240.47625 272.51125 241.6875 273 C242.34363281 273.35320312 242.99976563 273.70640625 243.67578125 274.0703125 C249.50699928 276.95067236 254.9700954 277.45255774 261.375 277.5625 C262.18291992 277.58916748 262.99083984 277.61583496 263.82324219 277.64331055 C269.97136555 277.60603771 273.04913979 276.0304493 277.6875 272 C279.61317367 268.14865266 279.4819192 264.16920751 278.6875 260 C274.24573496 252.13463956 266.45047553 248.03970058 258.6875 244 C257.635625 243.39865234 257.635625 243.39865234 256.5625 242.78515625 C246.8825227 237.44100212 224.26573269 231.04738804 215.69140625 241.046875 Z M81.6875 285 C80.7511079 288.29945591 80.7511079 288.29945591 80.6875 292 C85.04242511 296.60323225 91.35489576 298.95419799 97 301.625 C98.00740234 302.11484375 99.01480469 302.6046875 100.05273438 303.109375 C116.27280811 310.84428964 131.79937034 310.43201825 148.6875 305 C151.76023818 303.80656347 154.74417275 302.43745901 157.734375 301.05078125 C165.66607728 297.61249746 173.26726373 298.56397019 181.5 300.5 C194.09030263 303.3770006 206.29097723 302.19815617 218.6875 299 C219.6775 298.34 220.6675 297.68 221.6875 297 C222.863125 296.835 224.03875 296.67 225.25 296.5 C228.7446192 296.34152243 228.7446192 296.34152243 230.6875 294 C231.10416667 291.5 231.10416667 291.5 230.6875 289 C226.09829667 285.94053111 221.98469834 287.17395174 216.6875 288 C214.55769458 288.50082058 212.43262794 289.02217613 210.3125 289.5625 C200.45549759 291.94217869 191.45912227 291.26377895 181.578125 289.453125 C168.58706907 287.41668921 155.49633778 290.08668944 143.19262695 294.23510742 C129.40194321 298.88014932 116.89768712 297.91675787 103.6875 292 C101.21200656 290.76159873 98.76225983 289.47591171 96.3125 288.1875 C91.03142101 285.43991161 87.58666311 284.17411716 81.6875 285 Z " fill="#FE6BB3" transform="translate(332.3125,373)"/>
<path d="M0 0 C26.34972901 -0.59567207 50.15978833 8.75325401 69.375 26.80859375 C72.82656332 30.40548605 75.7670513 34.34133135 78.6875 38.37109375 C79.12529785 38.97397217 79.5630957 39.57685059 80.01416016 40.19799805 C82.04518578 43.08514565 83.76713816 45.57425403 84.25 49.12109375 C85.26578125 48.78335938 86.2815625 48.445625 87.328125 48.09765625 C95.58026457 45.40299786 103.59835937 43.1451655 112.25 42.12109375 C113.14589844 41.99863281 114.04179687 41.87617188 114.96484375 41.75 C134.78310644 39.59526271 154.84668416 42.10824933 174.25 46.12109375 C174.55550781 45.3940625 174.86101562 44.66703125 175.17578125 43.91796875 C183.53945192 25.54145291 198.88297855 14.51102661 217.25 7.12109375 C242.43752173 -1.29529968 269.5322582 2.08281436 293.25 13.12109375 C301.3054638 17.23596408 308.45705559 22.15765081 315.25 28.12109375 C316.39082031 29.11882812 316.39082031 29.11882812 317.5546875 30.13671875 C332.93414615 44.50507112 341.26799247 64.50054135 342.2421875 85.33984375 C342.29053902 108.74198061 332.05397467 126.74554676 316.25 143.12109375 C317.59939293 146.80660774 319.26637345 149.88869762 321.4453125 153.1484375 C322.3897522 154.57325439 322.3897522 154.57325439 323.35327148 156.02685547 C324.02044189 157.0273291 324.6876123 158.02780273 325.375 159.05859375 C353.09524359 201.16554206 370.61368274 251.90771545 360.2890625 302.83984375 C354.93571654 325.9986525 344.41765495 344.70227027 327.25 361.12109375 C326.24678287 362.11786623 325.24502909 363.11614743 324.25 364.12109375 C324.95769531 364.22421875 325.66539062 364.32734375 326.39453125 364.43359375 C338.01239262 367.23078062 348.66190476 376.87941588 355.1875 386.55859375 C361.13809242 396.69144216 362.71573895 406.7592772 360.88671875 418.44140625 C358.03994441 428.0081173 348.70786785 435.53672627 340.25 440.12109375 C327.04039628 447.02998409 311.83574236 448.47611388 297.1875 448.49609375 C296.05836182 448.49770508 294.92922363 448.49931641 293.76586914 448.50097656 C276.39867994 448.26977369 276.39867994 448.26977369 272.25 444.12109375 C270.93 444.12109375 269.61 444.12109375 268.25 444.12109375 C266.77028231 445.63514697 266.77028231 445.63514697 265.5625 447.68359375 C259.46919797 456.31195377 251.07790207 461.13767262 240.9375 463.70703125 C214.50419684 467.77960412 187.59999715 457.82696126 166.41796875 442.5390625 C158.28098516 436.32846713 150.46487014 430.25971911 144.51953125 421.80078125 C143.33915538 419.98071656 143.33915538 419.98071656 141.25 419.12109375 C141.07984375 420.42820312 141.07984375 420.42820312 140.90625 421.76171875 C138.74283027 432.83636737 131.47077198 442.40252301 122.61328125 449.12109375 C119.88403722 450.92761191 117.12303323 452.55434899 114.25 454.12109375 C113.39792969 454.59417969 112.54585937 455.06726563 111.66796875 455.5546875 C94.68246911 464.13656663 72.10603418 464.64846404 54.203125 458.86328125 C42.2492218 454.74383362 31.07344591 449.29705743 24.9296875 437.609375 C23.9673107 435.46589939 23.07036558 433.32232313 22.25 431.12109375 C18.30708457 432.38514605 14.53696927 433.82599775 10.75 435.49609375 C-13.60449311 445.67633193 -42.90769429 448.24335318 -67.75 438.12109375 C-68.57628906 437.79625 -69.40257812 437.47140625 -70.25390625 437.13671875 C-80.16379007 432.74646525 -90.37341829 424.57646158 -95.75 415.12109375 C-98.42248823 408.07633618 -100.14874862 399.38196176 -97.875 391.99609375 C-95.2744501 386.35361621 -90.84342502 381.71673731 -86.75 377.12109375 C-85.86248047 376.10789062 -85.86248047 376.10789062 -84.95703125 375.07421875 C-77.77168094 367.35978089 -68.27430701 363.24829346 -58.75 359.12109375 C-57.02028341 358.35149521 -55.29107133 357.58076119 -53.5625 356.80859375 C-52.29181185 356.24576586 -51.02100429 355.68320736 -49.75 355.12109375 C-50.65621094 354.37085938 -51.56242187 353.620625 -52.49609375 352.84765625 C-78.51513559 331.09232917 -94.72008546 302.78942079 -98.375 268.80859375 C-101.29121893 231.26890274 -89.71316378 197.16356538 -65.7578125 168.390625 C-63.83063702 166.21224182 -61.83166748 164.15141965 -59.75 162.12109375 C-60.5853125 161.37279297 -60.5853125 161.37279297 -61.4375 160.609375 C-70.79450141 151.80557469 -76.29356473 141.81593405 -81.0625 130.05859375 C-81.38806885 129.25639404 -81.7136377 128.45419434 -82.04907227 127.62768555 C-86.42139867 116.37692934 -88.2872645 105.95057959 -88.1875 93.87109375 C-88.18065186 92.59564697 -88.17380371 91.3202002 -88.16674805 90.00610352 C-88.00428496 80.44998825 -87.0225591 72.11796631 -83.75 63.12109375 C-83.36457031 62.05375 -82.97914063 60.98640625 -82.58203125 59.88671875 C-72.85786933 35.08853235 -55.39153818 17.06280563 -31.109375 6.40234375 C-20.9561366 2.52994585 -10.82893885 0.47684248 0 0 Z M-47.75 32.12109375 C-48.66265625 32.77078125 -48.66265625 32.77078125 -49.59375 33.43359375 C-63.48550935 44.04184634 -72.59144992 65.13909118 -75.47314453 82.02050781 C-76.87943444 92.69045351 -76.34271591 102.94950845 -72.75 113.12109375 C-72.48316406 114.04664063 -72.21632812 114.9721875 -71.94140625 115.92578125 C-68.01007174 129.10012002 -61.14520001 142.03759671 -51.171875 151.640625 C-46.51320167 156.28591134 -46.86040656 161.91825235 -46.75 168.12109375 C-47.62785156 168.25644531 -47.62785156 168.25644531 -48.5234375 168.39453125 C-59.40028408 171.94381803 -68.83194276 192.57453981 -73.98120117 202.28369141 C-76.40751144 207.09401788 -78.32968615 212.022875 -80.0625 217.12109375 C-80.29291992 217.79567627 -80.52333984 218.47025879 -80.76074219 219.1652832 C-84.75659549 231.66772729 -86.31112739 243.91000669 -86.1875 256.99609375 C-86.18412628 257.69420166 -86.18075256 258.39230957 -86.17727661 259.11157227 C-86.05668537 276.37609561 -82.35956891 290.63764598 -74.75 306.12109375 C-74.25371094 307.14203125 -73.75742188 308.16296875 -73.24609375 309.21484375 C-69.82549042 315.85100062 -65.60353376 321.46910434 -60.75 327.12109375 C-60.08355469 327.93320312 -59.41710937 328.7453125 -58.73046875 329.58203125 C-53.34725342 335.91405076 -47.28607756 340.88060605 -40.69140625 345.87109375 C-35.8402997 349.58190035 -35.8402997 349.58190035 -35.34375 352.546875 C-35.3128125 353.49949219 -35.281875 354.45210937 -35.25 355.43359375 C-35.1984375 356.37847656 -35.146875 357.32335937 -35.09375 358.296875 C-35.86039867 361.59620232 -37.14231777 362.92639975 -39.83300781 364.9309082 C-43.50042749 367.20786578 -47.41001114 368.87247562 -51.375 370.55859375 C-53.16592071 371.34769737 -54.95628797 372.13805831 -56.74609375 372.9296875 C-59.6328684 374.19558924 -62.52123976 375.45773949 -65.41015625 376.71875 C-74.15371863 380.76899373 -81.22328415 386.45408902 -85.75 395.12109375 C-86.70840656 403.19909187 -84.10576524 410.46118849 -79.125 416.87109375 C-68.73455838 427.91093797 -52.20374591 431.6838529 -37.58984375 432.34375 C-19.56505386 432.85237909 -0.3588758 429.78485118 15.25 420.24609375 C19.51753142 417.69880755 23.36581011 416.96907235 28.25 418.12109375 C31.95664311 420.674559 33.4524861 423.38876933 35.125 427.43359375 C39.59506069 437.98014318 48.11713992 443.54240508 58.25 448.12109375 C73.90093196 454.17074823 87.72127977 452.72624497 103.140625 447.05859375 C116.54799363 440.98733249 125.08316186 429.54474186 130.25 416.12109375 C130.58 415.02796875 130.91 413.93484375 131.25 412.80859375 C132.50438569 409.43743222 133.17801662 408.06918077 136.25 406.12109375 C140.11953598 405.25514125 143.39548718 405.12766261 147.25 406.12109375 C149.13938843 407.97259971 150.15018699 409.90538759 151.42578125 412.22265625 C164.68247399 433.28575264 190.15143819 444.09104849 213.25 450.12109375 C218.13278452 450.98950845 222.85582252 451.28317489 227.8125 451.30859375 C229.07191406 451.32277344 230.33132813 451.33695313 231.62890625 451.3515625 C235.22315395 451.1228024 237.91040078 450.42192914 241.25 449.12109375 C243.0134375 448.44046875 243.0134375 448.44046875 244.8125 447.74609375 C250.81004498 444.91089067 253.6892443 441.63452193 257.25 436.12109375 C259.48611796 433.3422775 260.57022141 432.23807462 264.1328125 431.625 C270.41715333 431.73857242 275.90814909 432.19925075 281.8359375 434.3671875 C299.48127599 439.87778674 319.55715713 435.24036092 335.55566406 427.06054688 C340.78231702 424.16254103 344.22033228 420.85865803 347.25 415.74609375 C349.40752945 407.92504948 348.58469308 402.76179194 344.83203125 395.578125 C340.43247943 388.74524082 335.71573364 385.15185103 328.8125 380.99609375 C327.14678865 379.97322073 325.48141634 378.94979536 323.81640625 377.92578125 C323.03152832 377.44850586 322.24665039 376.97123047 321.43798828 376.47949219 C319.51285825 375.2842876 317.64181943 374.0406491 315.77734375 372.75390625 C313.47150074 370.94020741 313.47150074 370.94020741 311.25 371.12109375 C310.19854997 366.38226689 309.60249116 361.76306123 311.25 357.12109375 C315.08029035 351.91802318 320.42923729 347.97499607 325.33154297 343.82714844 C340.18771902 330.61577681 346.19717965 309.0213573 349.25 290.12109375 C349.43691406 289.00347656 349.62382813 287.88585937 349.81640625 286.734375 C354.34235532 249.01813271 341.57667929 210.56615544 323.25 178.12109375 C322.83459961 177.37843262 322.41919922 176.63577148 321.99121094 175.87060547 C318.00523172 168.77905293 313.95503389 161.91968168 308.98681641 155.4675293 C301.49172336 145.64919926 301.49172336 145.64919926 302.125 139.61328125 C304.28051807 134.83820997 308.39242053 131.55637138 312.1953125 128.07421875 C316.23804157 124.31342651 318.74916861 120.0052678 321.25 115.12109375 C321.79527344 114.21230469 321.79527344 114.21230469 322.3515625 113.28515625 C324.90178533 108.82713313 326.21810276 104.06814979 327.5 99.12109375 C327.67547363 98.4564209 327.85094727 97.79174805 328.03173828 97.10693359 C331.97865785 80.90903057 325.45043049 64.92021172 317.25 51.12109375 C311.60849468 42.09678637 305.09545858 35.97522156 296.25 30.12109375 C295.44949219 29.56808594 294.64898438 29.01507813 293.82421875 28.4453125 C281.22297615 20.24921017 267.00131748 16.78998318 252.25 15.12109375 C250.90035156 14.96447266 250.90035156 14.96447266 249.5234375 14.8046875 C231.74854067 13.85791464 212.36077584 22.33874063 198.5546875 32.9765625 C194.71539663 36.54905519 191.93698269 40.64522312 189.25 45.12109375 C188.71375 45.99121094 188.1775 46.86132812 187.625 47.7578125 C186.17678554 50.09991406 186.17678554 50.09991406 185.25 52.74609375 C184.13482159 55.39464247 183.58449422 56.4508865 181.25 58.12109375 C178.56921258 58.42764119 176.17709312 58.54621325 173.5 58.49609375 C172.74501221 58.48956787 171.99002441 58.48304199 171.2121582 58.47631836 C164.83849517 58.32759733 158.96410482 57.24980963 152.7421875 55.85546875 C147.592376 54.77251063 142.50002522 54.349046 137.25 54.12109375 C136.31027344 54.07984375 135.37054688 54.03859375 134.40234375 53.99609375 C121.13472478 53.71038459 108.53284852 56.01022103 95.78344727 59.4440918 C90.02993005 60.93294299 84.19389193 62.05482166 78.25 61.12109375 C75.49075221 58.76423626 74.17119657 57.11630864 72.25 54.12109375 C71.47148603 52.93395422 70.69139947 51.74784522 69.91015625 50.5625 C69.2764209 49.59993286 69.2764209 49.59993286 68.62988281 48.61791992 C56.52619463 30.27172539 39.48578454 19.91267135 18.25 14.12109375 C-6.28405215 9.8183738 -28.29861673 17.02449778 -47.75 32.12109375 Z " fill="#430019" transform="translate(279.75,340.87890625)"/>
<path d="M0 0 C0.69480469 0.27328125 1.38960937 0.5465625 2.10546875 0.828125 C7.13904058 2.84522118 11.6326846 5.5265502 16.1875 8.4375 C17.06100098 8.99473755 17.06100098 8.99473755 17.95214844 9.56323242 C28.85125186 16.67990652 35.55191915 25.72329161 41.4375 37.25 C41.77958496 37.91104736 42.12166992 38.57209473 42.47412109 39.25317383 C49.02582206 52.56829739 47.69275116 73.16017308 44.0390625 87.296875 C42.75749142 90.63088697 41.22176747 92.86011941 38.68359375 95.34765625 C36.66167887 97.33204139 35.02140027 99.49193939 33.3125 101.75 C32.22524057 103.17968367 31.12237281 104.59771339 30 106 C29.51917969 106.60328125 29.03835938 107.2065625 28.54296875 107.828125 C27 109 27 109 25.08203125 108.97265625 C22.23272898 107.64155632 20.7339924 105.81841034 18.6875 103.4375 C17.8934375 102.52742188 17.099375 101.61734375 16.28125 100.6796875 C14.9420262 99.10655817 13.60681648 97.52996697 12.28125 95.9453125 C-14.80946257 63.94108834 -55.05920336 43.40820666 -94 30 C-88.42092442 14.98144584 -76.213339 5.99549916 -62.10327148 -0.57006836 C-42.28325472 -9.1892929 -19.61764576 -9.32465795 0 0 Z " fill="#FC72A9" transform="translate(560,363)"/>
<path d="M0 0 C7.15842804 1.36245801 13.54754417 3.60148819 20.25 6.4375 C21.82164917 7.10120605 21.82164917 7.10120605 23.42504883 7.77832031 C46.02794424 17.48745024 67.41251536 29.7776893 86 46 C87.15997823 46.97961988 88.32154734 47.9573579 89.484375 48.93359375 C98.94008416 56.8992593 107.38074413 64.91690825 114.921875 74.77734375 C117.0328752 77.03516163 117.98303548 77.68063664 121 78 C125.38579957 73.20968493 129.59008792 68.54110713 133 63 C133.33 63.66 133.66 64.32 134 65 C130.70502431 70.63065467 126.97565335 75.08482841 122.1875 79.5 C118.59742152 82.94900494 116.3346917 85.14755894 115.8125 90.1875 C115.874375 91.445625 115.93625 92.70375 116 94 C112.71435951 90.80578603 109.76054735 87.5438206 106.9375 83.9375 C99.53275486 74.79263975 91.0758094 66.48599925 82 59 C81.48630859 58.57251465 80.97261719 58.1450293 80.44335938 57.70458984 C52.76465107 34.75549247 20.40250395 17.05928402 -15.015625 9.60546875 C-15.67046875 9.40566406 -16.3253125 9.20585937 -17 9 C-17.33 8.34 -17.66 7.68 -18 7 C-17.11957031 6.99742187 -16.23914063 6.99484375 -15.33203125 6.9921875 C-8.83025476 7.01710521 -8.83025476 7.01710521 -3.0234375 4.59765625 C-1.51043631 2.80557541 -1.51043631 2.80557541 0 0 Z " fill="#CE2968" transform="translate(466,393)"/>
<path d="M0 0 C9.11724975 4.30139138 18.54538536 9.38264537 24.06835938 18.13818359 C24.73211602 21.53993642 24.67093672 24.72726413 24.06835938 28.13818359 C21.54863427 31.40701616 18.42952093 34.75627127 14.17407227 35.44458008 C3.29707522 35.77448785 -5.1098598 35.31775494 -14.93164062 30.13818359 C-16.51172533 29.48444248 -18.09488945 28.83807347 -19.68164062 28.20068359 C-27.68334533 24.56747713 -35.23259108 18.62541599 -39.93164062 11.13818359 C-41.19623438 6.74852044 -41.00584966 3.26545582 -38.93945312 -0.82666016 C-30.43974569 -10.58983761 -9.74154954 -4.34626768 0 0 Z " fill="#46021B" transform="translate(586.931640625,614.86181640625)"/>
<path d="M0 0 C1.875 1.25 1.875 1.25 3 3 C4.07863235 9.60662317 1.52611198 14.59052938 -2 20 C-11.39058808 31.7919235 -26.29017883 39.97950284 -41 43 C-45.79717173 43.53204996 -49.1048713 43.47197695 -53.4375 41.1875 C-55.95982701 39.03429402 -57.71204029 37.37888401 -58.40625 34.0546875 C-58.70225747 27.17251378 -56.43821848 23.14227322 -52 18 C-40.69211243 5.88440617 -16.55402932 -10.64187599 0 0 Z " fill="#44011A" transform="translate(397,613)"/>
<path d="M0 0 C7.37143284 -0.67248159 12.08436308 1.51802113 18.5625 4.875 C37.3460925 14.40697231 51.95421543 12.46140044 71.375 6.3125 C81.42201656 3.22627121 92.59716107 3.09319041 102.875 5 C113.69311627 6.91397442 123.16223152 6.07893897 133.73291016 3.42333984 C137.90386798 2.38407079 141.66331126 1.59123994 146 2 C146.99 2.66 147.98 3.32 149 4 C149.3125 6.5 149.3125 6.5 149 9 C146.73555803 11.26444197 145.81305146 11.41656163 142.75 12 C140.10017147 12.53837786 137.68576746 13.10929827 135.125 14 C122.06640195 18.17875138 109.54065179 17.76917826 96.3125 14.68359375 C86.86236415 12.73338883 79.76941008 14.28209342 71 18 C56.45049533 23.98931066 40.89867787 26.80461457 25.68359375 21.54296875 C2.81370412 11.96332251 2.81370412 11.96332251 -1 7 C-0.6875 3.3125 -0.6875 3.3125 0 0 Z " fill="#47021C" transform="translate(414,658)"/>
<path d="M0 0 C0.99 0.495 0.99 0.495 2 1 C-0.70219359 15.28302327 -7.33633248 26.28807024 -17 37 C-18.04800781 38.17175781 -18.04800781 38.17175781 -19.1171875 39.3671875 C-35.28858183 56.48635586 -59.62669479 67.79555928 -83.20458984 68.48706055 C-103.96972244 68.58537679 -103.96972244 68.58537679 -109.8046875 63.39453125 C-110.19914062 62.93433594 -110.59359375 62.47414063 -111 62 C-110.34 60.68 -109.68 59.36 -109 58 C-107.67947632 57.99383667 -107.67947632 57.99383667 -106.33227539 57.98754883 C-82.6486516 58.10141088 -82.6486516 58.10141088 -60 52 C-59.32630371 51.71205566 -58.65260742 51.42411133 -57.95849609 51.12744141 C-38.7728603 42.73066326 -23.98556118 28.90995334 -11.109375 12.62109375 C-7.59165308 8.24999855 -3.79218729 4.1328566 0 0 Z " fill="#CF2968" transform="translate(367,452)"/>
<path d="M0 0 C2.1875 0 2.1875 0 5 1 C6.41578895 2.61804451 7.8217954 4.24624399 9.1640625 5.92578125 C12.47321067 9.66441461 16.49555308 12.58641296 20.38476562 15.69628906 C34.81521742 27.34360052 47.87930375 38.94618229 52 58 C52.20542472 60.72530131 52.14935882 63.26175505 52 66 C52.99 66.33 53.98 66.66 55 67 C54.28714844 67.00257813 53.57429687 67.00515625 52.83984375 67.0078125 C46.38561459 67.26841395 42.76740397 68.12143633 38.14453125 72.72265625 C37.76683594 73.14417969 37.38914062 73.56570313 37 74 C37.15726563 73.43152344 37.31453125 72.86304688 37.4765625 72.27734375 C39.96532064 61.44938856 35.92918114 51.5015866 30.375 42.25 C27.24909204 37.85941173 23.30556262 34.82008734 19.0859375 31.51953125 C15.56962161 28.64861511 12.300848 25.61481636 9.0625 22.4375 C8.51907959 21.91961914 7.97565918 21.40173828 7.41577148 20.86816406 C2.55395157 16.03283701 -0.762388 10.99391125 -1.3125 4.0625 C-1 1 -1 1 0 0 Z " fill="#CF2968" transform="translate(497,705)"/>
<path d="M0 0 C0.66 0.33 1.32 0.66 2 1 C1.67 1.33 1.34 1.66 1 2 C0.92741054 4.18639453 0.91626217 6.37500389 0.9375 8.5625 C0.94652344 9.76003906 0.95554687 10.95757813 0.96484375 12.19140625 C0.97644531 13.11824219 0.98804688 14.04507813 1 15 C-34.03125 27.13500817 -34.03125 27.13500817 -51 20 C-52 19 -52 19 -52.1875 16.5625 C-52 14 -52 14 -50 12 C-47.28881836 11.50097656 -47.28881836 11.50097656 -43.83984375 11.140625 C-41.94745972 10.92575439 -41.94745972 10.92575439 -40.0168457 10.70654297 C-39.01628647 10.59557281 -39.01628647 10.59557281 -37.99551392 10.48236084 C-18.06279506 8.24401077 -18.06279506 8.24401077 0 0 Z " fill="#CF2A69" transform="translate(590,696)"/>
<path d="M0 0 C0.5493491 3.68848681 0.64800789 5.87719387 -1.2421875 9.15234375 C-4.37829224 13.26396494 -7.86003579 16.8979416 -11.5625 20.5 C-21.62723533 30.3418366 -25.39103923 40.0358996 -26 54 C-26.886875 53.195625 -27.77375 52.39125 -28.6875 51.5625 C-31.38287032 49.2960841 -33.42063478 48.31582634 -37 48 C-36.58081685 30.7753833 -26.92351478 19.54261992 -15.1875 8 C-14.42501953 7.23816406 -13.66253906 6.47632813 -12.87695312 5.69140625 C-5.76382686 -1.36511689 -5.76382686 -1.36511689 0 0 Z " fill="#CF2A68" transform="translate(340,710)"/>
<path d="M0 0 C3.5267686 1.320862 6.82981092 2.91814144 10.16381836 4.6652832 C20.54337626 10.07536772 31.34750194 14.24670167 42.49658203 17.79443359 C43.30337402 18.0517627 44.11016602 18.3090918 44.94140625 18.57421875 C45.67174072 18.80069092 46.4020752 19.02716309 47.15454102 19.26049805 C49 20 49 20 51 22 C50.625 24.125 50.625 24.125 50 26 C34.84456519 26.71694567 22.05512285 23.97487142 8.453125 17.19897461 C4.20483574 15.16735071 1.55336581 14.74414102 -3 16 C-2.50886719 15.46890625 -2.01773438 14.9378125 -1.51171875 14.390625 C0.43009777 11.31984538 0.30491694 9.35078604 0.1875 5.75 C0.16042969 4.67234375 0.13335937 3.5946875 0.10546875 2.484375 C0.07066406 1.66453125 0.03585938 0.8446875 0 0 Z " fill="#CF2A68" transform="translate(244,690)"/>
<path d="M0 0 C0.763125 0.825 1.52625 1.65 2.3125 2.5 C6.17356001 5.80283447 9.92836511 5.40334296 14.8046875 5.17578125 C15.52914063 5.11777344 16.25359375 5.05976563 17 5 C23.12041213 32.69242322 23.12041213 32.69242322 18 44 C16.68 44 15.36 44 14 44 C13.39455784 41.75033674 12.79066353 39.50027436 12.1875 37.25 C12.00372803 36.56768311 11.81995605 35.88536621 11.63061523 35.18237305 C10.53056376 31.07407623 9.52014084 26.95677327 8.5625 22.8125 C7.02988354 16.58098251 4.57693347 10.85975961 2 5 C1.32664848 3.33602285 0.65777261 1.67019682 0 0 Z " fill="#CF2A69" transform="translate(352,397)"/>
<path d="M0 0 C3.69497131 1.46080261 4.35688495 3.48738662 5.90625 7.0234375 C8.05876442 12.64150012 7.79138455 18.117995 7.6875 24.0625 C9.0075 24.3925 10.3275 24.7225 11.6875 25.0625 C11.6875 25.3925 11.6875 25.7225 11.6875 26.0625 C11.02363281 26.08828125 10.35976563 26.1140625 9.67578125 26.140625 C8.79277344 26.19734375 7.90976562 26.2540625 7 26.3125 C6.12988281 26.35890625 5.25976562 26.4053125 4.36328125 26.453125 C1.01332602 27.21603451 -0.71171626 28.87517419 -3.3125 31.0625 C-3.33715622 26.80835377 -3.35533899 22.55424502 -3.36743164 18.30004883 C-3.37247101 16.85179927 -3.37930253 15.40355483 -3.38793945 13.95532227 C-3.40002247 11.87775412 -3.40573211 9.80025303 -3.41015625 7.72265625 C-3.41539307 6.47105713 -3.42062988 5.21945801 -3.42602539 3.92993164 C-3.27393746 0.0884848 -3.27393746 0.0884848 0 0 Z " fill="#CF2A68" transform="translate(414.3125,719.9375)"/>
<path d="M0 0 C0 3.80196862 -0.89536327 4.22027411 -3.5 6.875 C-20.69422746 25.59353841 -24.52187752 47.54403513 -25 72 C-29.29046368 65.56430448 -27.65027132 54.39328671 -26.41796875 46.921875 C-22.77645318 30.49348511 -14.43875601 9.78002696 0 0 Z " fill="#C42964" transform="translate(231,374)"/>
<path d="M0 0 C1.010625 0.886875 2.02125 1.77375 3.0625 2.6875 C6.56429517 5.69618524 10.20812903 8.36890585 14 11 C13.67 12.65 13.34 14.3 13 16 C7.34605369 16.34615998 3.96993194 15.43425238 -1 13 C-0.67 8.71 -0.34 4.42 0 0 Z " fill="#CF2A69" transform="translate(233,497)"/>
<path d="M0 0 C25.04547627 -0.52299138 47.04666831 6.15398052 65.734375 23.62109375 C66.84663438 24.72398015 67.92870291 25.85728311 69 27 C68.67 27.66 68.34 28.32 68 29 C67.58492188 28.52691406 67.16984375 28.05382812 66.7421875 27.56640625 C52.20459075 11.96434112 32.34069158 4.08633522 11.375 2.8125 C10.18003906 2.73064453 8.98507812 2.64878906 7.75390625 2.56445312 C4.83645724 2.36606659 1.91874298 2.17814375 -1 2 C-0.67 1.34 -0.34 0.68 0 0 Z " fill="#C42964" transform="translate(274,354)"/>
<path d="M0 0 C1.91543509 2.87315263 2.47354742 4.39404529 3.125 7.6875 C3.29257812 8.49574219 3.46015625 9.30398438 3.6328125 10.13671875 C4.50814587 16.96245659 3.877616 22.73086757 2.125 29.3125 C1.95097656 30.01439453 1.77695312 30.71628906 1.59765625 31.43945312 C0.74645344 34.74653368 -0.08829888 37.13244832 -2 40 C-1.10967473 32.36864053 -1.10967473 32.36864053 -0.48632812 30.2734375 C0.1483599 27.30646213 0.11144643 24.51821443 0.09765625 21.484375 C0.09443359 20.23398437 0.09121094 18.98359375 0.08789062 17.6953125 C0.07951172 16.39335937 0.07113281 15.09140625 0.0625 13.75 C0.05573242 11.77386719 0.05573242 11.77386719 0.04882812 9.7578125 C0.03704316 6.50516259 0.02059011 3.25260416 0 0 Z " fill="#C8346B" transform="translate(605,411)"/>
<path d="M0 0 C0 0.66 0 1.32 0 2 C-0.969375 2.1959375 -1.93875 2.391875 -2.9375 2.59375 C-16.19045052 5.47286801 -29.23441349 10.23441349 -39 20 C-39.66 19.67 -40.32 19.34 -41 19 C-31.67358674 9.18272289 -13.75096354 -0.59463626 0 0 Z " fill="#C42964" transform="translate(273,355)"/>
</svg>
