<?xml version="1.0" encoding="UTF-8"?>
<svg version="1.1" xmlns="http://www.w3.org/2000/svg" width="820" height="820">
<path d="M0 0 C1.567949 1.32692124 3.13077303 2.65993091 4.6875 4 C5.39648438 4.55300781 6.10546875 5.10601562 6.8359375 5.67578125 C14.45412037 11.79075945 19.19687726 19.95611382 22.6875 29 C23.06519531 29.8353125 23.44289063 30.670625 23.83203125 31.53125 C29.01176213 43.17390793 31.66691296 55.451091 33.6875 68 C35.0075 68 36.3275 68 37.6875 68 C40.82179723 57.61764044 39.92120403 48.72665941 37.34375 38.26171875 C36.70297664 35.07692257 36.56993769 32.23786193 36.6875 29 C65.23761431 20.41412621 93.86606825 19.52022068 122.33984375 29.22583008 C124.61450808 29.97592997 126.89605719 30.64630106 129.203125 31.2890625 C187.44519065 47.60468906 238.10535441 88.53161113 267.8359375 141.02783203 C290.06876761 181.97259764 300.31075234 239.27199069 290.6875 285 C290.3575 285.33 290.0275 285.66 289.6875 286 C289.60528654 287.54074116 289.54776705 289.08280654 289.5 290.625 C288.85558882 298.37807196 285.87017101 305.01016224 282.6875 312 C282.03974609 313.44052734 282.03974609 313.44052734 281.37890625 314.91015625 C271.88771091 334.03336586 252.67581443 350.67882361 232.6875 358 C228.48631881 359.00441932 224.23619548 359.71896369 219.98242188 360.4609375 C215.08375562 361.36576306 211.06034208 362.47251164 206.6875 365 C207.0175 365.66 207.3475 366.32 207.6875 367 C210.61445315 367.6145236 213.54594121 367.95942646 216.51171875 368.33984375 C222.84622044 369.65660978 227.88639472 373.34767986 233.1875 376.875 C239.09666709 380.7722411 245.09752013 384.43329775 251.23461914 387.96069336 C264.46659974 395.5797838 276.41730711 402.89362814 281.6875 418 C282.56922701 423.67187856 282.54760233 428.56311433 279.1875 433.375 C271.20524587 442.3872224 260.15356215 444.94573566 248.58203125 446.38671875 C234.56921072 446.94723157 217.98683241 442.36197149 206.90625 433.58984375 C205.3324535 431.5368464 204.79105536 429.60503187 204.0625 427.125 C200.62542033 417.20731972 193.94284925 409.13651978 186.8671875 401.53515625 C183.47346004 397.58797144 180.5075293 393.32763159 177.54345703 389.05126953 C174.42623189 384.56637735 174.42623189 384.56637735 169.6875 382 C168.32113845 383.15866921 168.32113845 383.15866921 168.3125 386.3125 C168.57495425 396.88565685 174.72170469 404.64501353 181.15429688 412.42529297 C187.8868755 420.59011269 193.92534717 427.9660465 193.171875 439.05078125 C191.59193885 448.6705538 187.83961643 456.48757345 179.85546875 462.34375 C170.83746605 467.84492812 159.01206948 466.7803382 148.98046875 464.96484375 C139.48811619 462.18357319 128.09634949 456.75116696 121.25 449.5625 C119.25191187 447.56441187 117.12652562 445.73570991 115 443.875 C105.08273543 434.94357627 97.54061299 425.35178226 90.6875 414 C90.12160156 413.18660156 89.55570313 412.37320312 88.97265625 411.53515625 C87.29828783 408.23222281 87.21006232 405.49767481 87.0625 401.8125 C87.02689587 397.24226628 87.02689587 397.24226628 85.6875 393 C84.6975 392.67 83.7075 392.34 82.6875 392 C82.30722656 393.14726563 81.92695313 394.29453125 81.53515625 395.4765625 C80.92003736 397.31796457 80.30401945 399.15906638 79.6875 401 C79.28772949 402.19592773 78.88795898 403.39185547 78.47607422 404.62402344 C62.70375969 451.58988966 62.70375969 451.58988966 49.6875 464 C49.0275 464 48.3675 464 47.6875 464 C47.3575 464.99 47.0275 465.98 46.6875 467 C43.19840099 469.04361514 39.42673974 470.47277428 35.6875 472 C34.92566406 472.33773438 34.16382813 472.67546875 33.37890625 473.0234375 C26.31287562 475.84984975 19.17152836 475.58645448 12.015625 473.0546875 C9.44912973 471.85114469 7.08890037 470.50482491 4.6875 469 C3.90375 468.53980469 3.12 468.07960938 2.3125 467.60546875 C-4.76949 462.88015448 -8.90451423 456.05717743 -11.3125 448 C-14.13193017 433.08180627 -7.42683882 419.69965467 -0.625 406.75 C4.74708046 396.40783149 7.68138455 385.66157871 6.6875 374 C4.29036209 374.36627739 3.03820374 374.56285368 1.48999023 376.49267578 C0.99801147 377.45923096 0.99801147 377.45923096 0.49609375 378.4453125 C0.11420898 379.18120605 -0.26767578 379.91709961 -0.66113281 380.67529297 C-1.26199707 381.88789795 -1.26199707 381.88789795 -1.875 383.125 C-2.30264648 383.96305176 -2.73029297 384.80110352 -3.17089844 385.66455078 C-6.55905635 392.35622399 -9.81735031 399.11306793 -13.0625 405.875 C-13.53316895 406.85380127 -14.00383789 407.83260254 -14.48876953 408.84106445 C-16.40381449 412.85585587 -18.29846773 416.8518543 -19.91796875 420.99609375 C-25.3395154 434.49431401 -36.32830732 440.77863648 -49.11328125 446.30859375 C-56.86728392 449.50683224 -64.90186185 452.35302783 -73.3125 453 C-74.30056641 453.07734375 -74.30056641 453.07734375 -75.30859375 453.15625 C-87.10952402 453.66110263 -98.49387582 449.2980505 -108.3125 443 C-113.85104821 437.84118503 -117.96339935 431.24502447 -118.47265625 423.59375 C-118.20770814 416.72629509 -115.97253922 411.99120952 -111.3125 407 C-105.08652485 401.32420119 -98.30860164 396.28140198 -91.61328125 391.1796875 C-82.06686675 383.86813109 -72.26972087 375.92180983 -65.3125 366 C-63.50265625 366.32484375 -63.50265625 366.32484375 -61.65625 366.65625 C-60.04172814 366.93785265 -58.42714127 367.21908279 -56.8125 367.5 C-56.02101563 367.64308594 -55.22953125 367.78617188 -54.4140625 367.93359375 C-45.70403409 369.67212055 -45.70403409 369.67212055 -37.3125 368 C-37.3125 366.68 -37.3125 365.36 -37.3125 364 C-38.53582031 363.67128906 -39.75914062 363.34257813 -41.01953125 363.00390625 C-58.14040905 358.23706457 -73.97321069 351.63745498 -88.3125 341 C-89.61574219 340.06414062 -89.61574219 340.06414062 -90.9453125 339.109375 C-103.98478714 329.29986196 -113.18029355 314.98610453 -119.3125 300 C-119.79589844 298.865625 -120.27929688 297.73125 -120.77734375 296.5625 C-128.30118058 278.3616003 -131.73016325 260.45489432 -131.625 240.75 C-131.62284485 240.02089417 -131.6206897 239.29178833 -131.61846924 238.54058838 C-131.56714595 227.71315395 -130.98907343 217.5307413 -128.3125 207 C-127.89358829 205.19422891 -127.47569525 203.38822133 -127.05859375 201.58203125 C-121.65033066 178.92307765 -112.6562505 157.7500008 -100.3125 138 C-95.6925 138.33 -91.0725 138.66 -86.3125 139 C-86.3125 137.68 -86.3125 136.36 -86.3125 135 C-88.06866988 133.66531089 -89.83554291 132.34361265 -91.63671875 131.0703125 C-106.34951426 119.68668969 -116.44166969 105.21871718 -123.3125 88 C-123.58102783 87.36271973 -123.84955566 86.72543945 -124.1262207 86.06884766 C-126.68035394 79.41794834 -126.81361303 73.06750755 -126.75 66 C-126.74097656 64.80463623 -126.73195312 63.60927246 -126.72265625 62.37768555 C-126.2886794 40.05952186 -118.48713685 20.85760297 -102.9765625 4.54296875 C-74.35263092 -22.64513454 -30.9977462 -24.49439057 0 0 Z M34.6875 79 C29.67646361 83.72100856 25.32855386 88.81464344 21.0078125 94.16796875 C17.38580966 98.58876346 13.57496227 102.81245292 9.6875 107 C9.01460938 107.75023437 8.34171875 108.50046875 7.6484375 109.2734375 C-10.06554708 128.18162329 -32.86122998 135.77521951 -58.1557312 136.62335205 C-63.54047966 136.78828817 -68.92606468 136.90539109 -74.3125 137 C-74.9725 138.32 -75.6325 139.64 -76.3125 141 C-71.98524373 146.04846565 -65.33862744 146.63491679 -59.00244141 147.20947266 C-34.66016616 148.71740121 -11.04691003 141.07643095 7.83203125 125.5234375 C21.90867657 113.08361141 33.28029577 98.8944962 36.6875 80 C35.6975 79.505 35.6975 79.505 34.6875 79 Z M215.9140625 254.15625 C212.14749068 259.81810317 211.99421371 265.40489197 212.6875 272 C214.79611826 280.8348436 220.4900034 289.37479661 228 294.5625 C234.35852999 297.96357418 241.97346519 298.1028347 248.875 296.0625 C254.90700272 293.45070501 259.21445116 287.8233436 262.1875 282.125 C263.45156038 274.2246226 263.5978124 266.17715567 259.6875 259 C254.09409662 251.3147547 248.1618831 245.98800855 238.6875 244 C228.34670829 242.76895337 222.45925834 246.40439794 215.9140625 254.15625 Z M22.0859375 257.91796875 C18.96130266 262.57000889 16.23937901 267.34324012 15.6875 273 C15.62433594 273.64453125 15.56117188 274.2890625 15.49609375 274.953125 C15.08666448 282.50775548 17.41298133 289.34504499 22 295.375 C27.4880453 300.73541634 30.92563116 302.25338421 38.5625 302.5 C47.80698366 302.19642056 54.12804599 299.31966509 60.89453125 293.06640625 C66.98375797 286.04853928 69.0657764 278.02509367 68.96875 268.953125 C68.38046886 262.77617303 66.19009169 257.76554523 62.1875 253.0625 C61.3625 252.381875 60.5375 251.70125 59.6875 251 C59.0275 250.443125 58.3675 249.88625 57.6875 249.3125 C45.4244456 241.26487055 30.53508772 247.1401503 22.0859375 257.91796875 Z M204.6875 314 C204.0275 315.03125 203.3675 316.0625 202.6875 317.125 C200.63284453 320.07856724 199.94677296 320.80758306 196.6875 322 C187.75675697 322.6106491 180.57441098 320.10097045 172.68359375 316.375 C164.96804846 312.83409786 154.16172904 312.41803395 145.95703125 314.7890625 C144.5428116 315.46397242 143.14328051 316.17069176 141.76171875 316.91015625 C132.84395006 321.59576353 122.52179153 322.07814467 112.6875 321 C107.41808305 319.33272354 103.29915426 316.49895118 98.9375 313.1875 C95.89108669 310.82017458 95.89108669 310.82017458 92.5625 310.4375 C88.87289451 311.15937933 87.19446829 312.19809427 84.6875 315 C84.1036804 318.0850745 84.1036804 318.0850745 84.6875 321 C86.58450292 323.20708821 86.58450292 323.20708821 89.5 323.875 C92.96377368 325.09750836 94.84887495 326.70206544 97.6875 329 C108.34864809 335.23406117 119.89826354 336.87573162 131.94921875 334.125 C140.43140322 331.90040164 147.9594024 328.64410491 155.5390625 324.2578125 C159.45867608 322.69191228 161.62943978 322.95743384 165.6875 324 C168.1015625 325.26953125 168.1015625 325.26953125 170.3125 326.8125 C179.06515229 332.32441305 189.30356488 335.56002781 199.6875 334 C206.32251643 332.12768496 210.82267585 327.57983987 214.6875 322 C214.6875 321.34 214.6875 320.68 214.6875 320 C216.0075 319.34 217.3275 318.68 218.6875 318 C219.02175735 315.62625139 219.02175735 315.62625139 218.6875 313 C216.44968351 310.50397392 215.00703394 310.0465987 211.6875 309.5625 C207.91607692 310.1124992 207.02643544 311.03734845 204.6875 314 Z " fill="#FD6AB2" transform="translate(332.3125,322)"/>
<path d="M0 0 C26.34972901 -0.59567207 50.15978833 8.75325401 69.375 26.80859375 C72.82656332 30.40548605 75.7670513 34.34133135 78.6875 38.37109375 C79.12529785 38.97397217 79.5630957 39.57685059 80.01416016 40.19799805 C82.04518578 43.08514565 83.76713816 45.57425403 84.25 49.12109375 C85.26578125 48.78335938 86.2815625 48.445625 87.328125 48.09765625 C95.58026457 45.40299786 103.59835937 43.1451655 112.25 42.12109375 C113.14589844 41.99863281 114.04179687 41.87617188 114.96484375 41.75 C134.78310644 39.59526271 154.84668416 42.10824933 174.25 46.12109375 C174.55550781 45.3940625 174.86101562 44.66703125 175.17578125 43.91796875 C183.53945192 25.54145291 198.88297855 14.51102661 217.25 7.12109375 C242.43752173 -1.29529968 269.5322582 2.08281436 293.25 13.12109375 C301.3054638 17.23596408 308.45705559 22.15765081 315.25 28.12109375 C316.39082031 29.11882812 316.39082031 29.11882812 317.5546875 30.13671875 C332.93414615 44.50507112 341.26799247 64.50054135 342.2421875 85.33984375 C342.29053902 108.74198061 332.05397467 126.74554676 316.25 143.12109375 C317.84359369 147.69173059 320.26564416 151.46153774 322.875 155.49609375 C346.3472388 192.56221136 358.73830724 235.31736496 360.25 279.12109375 C360.28399902 279.9929834 360.31799805 280.86487305 360.35302734 281.76318359 C361.49013244 314.57761246 353.19323886 349.83687303 331.25 375.12109375 C330.58484375 375.94222656 329.9196875 376.76335937 329.234375 377.609375 C319.98031856 388.62855702 308.4664184 395.72036464 295.25 401.12109375 C297.56413496 403.68933348 299.90329269 405.14679375 302.96875 406.72265625 C303.8961499 407.20839111 304.8235498 407.69412598 305.77905273 408.19458008 C306.75946533 408.70657959 307.73987793 409.2185791 308.75 409.74609375 C317.06012153 414.18232404 324.39809602 418.59667048 331.25 425.12109375 C332.2709375 426.06082031 332.2709375 426.06082031 333.3125 427.01953125 C341.48961412 434.82186097 346.34957228 444.35123475 346.6875 455.80859375 C346.30017804 464.50459652 343.47451945 471.92283809 337.25 478.12109375 C330.10366976 483.43696045 320.99542074 488.22964229 312.25 490.12109375 C313.24 490.78109375 314.23 491.44109375 315.25 492.12109375 C313.20928485 492.46020369 311.16737379 492.79212079 309.125 493.12109375 C307.98804688 493.30671875 306.85109375 493.49234375 305.6796875 493.68359375 C302.48862398 494.09065424 299.46182209 494.19919277 296.25 494.12109375 C296.58 493.46109375 296.91 492.80109375 297.25 492.12109375 C296.66210693 492.03134277 296.07421387 491.9415918 295.46850586 491.84912109 C284.06977298 490.06400505 273.52385822 487.99624653 262.953125 483.29296875 C260.43520526 481.98850833 260.43520526 481.98850833 258.25 482.12109375 C258.04246094 482.81074219 257.83492187 483.50039063 257.62109375 484.2109375 C254.45429099 493.87034841 249.00327262 502.56319055 240.25 508.12109375 C236.66097345 509.75149112 233.01955801 510.97930009 229.25 512.12109375 C228.54617188 512.35957031 227.84234375 512.59804688 227.1171875 512.84375 C212.09961225 517.43414244 192.39691804 508.98316676 179.109375 502.2109375 C163.95599715 494.14722882 151.17360202 483.16549285 140.45703125 469.8359375 C138.79496243 467.79144577 137.1631493 465.92207143 135.25 464.12109375 C134.75693359 465.57515625 134.75693359 465.57515625 134.25390625 467.05859375 C127.29672772 486.91981297 117.23250135 506.44178257 97.62011719 516.09838867 C86.45325066 521.15588361 73.01269525 523.12246434 61.2265625 518.8515625 C57.67006126 517.17537483 54.50639792 515.32158046 51.25 513.12109375 C50.69957031 512.75209961 50.14914062 512.38310547 49.58203125 512.00292969 C40.09893142 505.55375865 33.39646844 498.98165147 29.25 488.12109375 C28.85980739 485.79659267 28.51438963 483.46324099 28.25 481.12109375 C27.24324219 481.70117188 26.23648438 482.28125 25.19921875 482.87890625 C2.72966851 495.49790092 -22.00586928 502.03880021 -47.453125 495.11328125 C-54.54943179 492.62132235 -60.25613816 489.2472123 -65.75 484.12109375 C-66.31332031 483.610625 -66.87664062 483.10015625 -67.45703125 482.57421875 C-72.50106763 477.41525496 -74.49002493 470.8413215 -76.75 464.12109375 C-77.3996875 462.26484375 -77.3996875 462.26484375 -78.0625 460.37109375 C-79.84262171 451.95597293 -78.76956774 444.7820441 -74.75 437.12109375 C-69.74195562 430.26007295 -63.55282849 425.1013576 -56.75 420.12109375 C-54.62083238 418.50119269 -52.49538032 416.8773941 -50.375 415.24609375 C-49.82352295 414.82231445 -49.2720459 414.39853516 -48.70385742 413.96191406 C-41.01359441 408.03472964 -33.55631256 402.05620116 -26.75 395.12109375 C-27.75417969 394.52683594 -28.75835937 393.93257812 -29.79296875 393.3203125 C-42.15087141 385.88157497 -53.87715294 377.68748366 -62.75 366.12109375 C-63.56984375 365.05568359 -63.56984375 365.05568359 -64.40625 363.96875 C-81.10983869 341.15316636 -90.73400364 313.8926499 -90.98828125 285.55859375 C-90.99812042 284.657957 -91.00795959 283.75732025 -91.01809692 282.82939148 C-91.34741306 244.87458469 -91.34741306 244.87458469 -86.75 227.12109375 C-86.50862305 226.1765332 -86.26724609 225.23197266 -86.01855469 224.25878906 C-80.58548984 203.667815 -71.95350689 184.73764015 -61.75 166.12109375 C-61.07408454 164.79242505 -60.40161343 163.46184808 -59.75 162.12109375 C-60.430625 161.46109375 -61.11125 160.80109375 -61.8125 160.12109375 C-62.79245685 159.12186808 -63.77154313 158.12178827 -64.75 157.12109375 C-65.28109375 156.60933594 -65.8121875 156.09757813 -66.359375 155.5703125 C-83.84071408 137.4875512 -88.26200156 110.26336637 -88.03125 86.3828125 C-87.81805115 78.07125533 -86.59385722 70.93938527 -83.75 63.12109375 C-83.36457031 62.05375 -82.97914063 60.98640625 -82.58203125 59.88671875 C-72.85786933 35.08853235 -55.39153818 17.06280563 -31.109375 6.40234375 C-20.9561366 2.52994585 -10.82893885 0.47684248 0 0 Z M-47.75 32.12109375 C-48.66265625 32.77078125 -48.66265625 32.77078125 -49.59375 33.43359375 C-63.48550935 44.04184634 -72.59144992 65.13909118 -75.47314453 82.02050781 C-76.87943444 92.69045351 -76.34271591 102.94950845 -72.75 113.12109375 C-72.48316406 114.04664063 -72.21632812 114.9721875 -71.94140625 115.92578125 C-67.83239379 129.69553858 -60.52419997 143.81264917 -49.25 152.99609375 C-46.49808433 155.69924901 -46.32929238 157.89416497 -46.25 161.6875 C-46.40030234 168.43891866 -48.62064274 172.63252587 -52.25 178.18359375 C-58.14807894 187.84154609 -62.7871983 197.53096501 -66.75 208.12109375 C-67.02537598 208.85360352 -67.30075195 209.58611328 -67.58447266 210.34082031 C-74.71708103 229.66206324 -78.93465112 249.34659447 -78.99023438 269.94482422 C-78.9998543 272.08862423 -79.03091155 274.23142738 -79.0625 276.375 C-79.13860986 286.28195464 -77.93483371 295.46686811 -75.75 305.12109375 C-75.44376709 306.48137695 -75.44376709 306.48137695 -75.13134766 307.86914062 C-74.60959104 310.05128137 -74.04344642 312.21096415 -73.4375 314.37109375 C-73.22947754 315.1192334 -73.02145508 315.86737305 -72.80712891 316.63818359 C-71.18277882 322.20789689 -69.0033186 327.26512028 -66.1796875 332.34765625 C-65.02608487 334.58551928 -64.18422788 336.63554381 -63.359375 338.99609375 C-61.81337511 343.232872 -59.66624396 346.78672105 -57.125 350.49609375 C-56.68043457 351.14674805 -56.23586914 351.79740234 -55.77783203 352.46777344 C-45.92355218 366.64755241 -33.57139212 375.48870715 -18.66796875 383.90234375 C-15.70857195 385.78285659 -14.04315557 386.99169311 -13.140625 390.46875 C-12.82718888 396.51980838 -13.65454237 399.74710129 -17.75 404.30859375 C-19.39838477 405.93154049 -21.06439511 407.53683852 -22.75 409.12109375 C-23.63171875 410.08402344 -23.63171875 410.08402344 -24.53125 411.06640625 C-29.50363216 416.46822141 -35.33303109 420.71101481 -41.16870117 425.11889648 C-45.86431094 428.66900986 -50.52087533 432.25022665 -55.0625 435.99609375 C-56.06925781 436.81851562 -57.07601562 437.6409375 -58.11328125 438.48828125 C-63.11219579 443.47979 -65.4241052 448.58763588 -65.83984375 455.64453125 C-65.69405275 459.66329198 -64.68901728 462.6199 -62.75 466.12109375 C-62.35425781 466.85199219 -61.95851562 467.58289063 -61.55078125 468.3359375 C-55.7219719 477.28568413 -44.52172499 482.33281918 -34.3125 484.62109375 C-32.79728961 484.83287024 -31.27535257 485.00272424 -29.75 485.12109375 C-29.02941406 485.1778125 -28.30882812 485.23453125 -27.56640625 485.29296875 C-10.68008478 485.89497665 5.07930046 478.67199798 19.25 470.12109375 C19.91 469.46109375 20.57 468.80109375 21.25 468.12109375 C26.93445572 467.38436347 32.38103448 466.99971444 37.375 469.99609375 C39.42293397 473.40931704 40.3003404 476.49788043 41.34375 480.30859375 C45.10385652 491.97788983 51.88674082 498.27044363 62.25 504.12109375 C68.81597685 507.20205212 76.75131095 508.22971991 83.75 506.05859375 C89.4256842 503.82176793 94.84887689 500.94503121 100.25 498.12109375 C100.25 497.46109375 100.25 496.80109375 100.25 496.12109375 C101.14138672 495.75177734 101.14138672 495.75177734 102.05078125 495.375 C113.225858 489.00341983 120.48832645 467.72150576 124.08203125 455.9765625 C125.38975853 452.77940986 126.48317663 451.18407609 129.25 449.12109375 C133.36703685 448.12232035 137.11220284 448.25199237 141.25 449.12109375 C144.3737527 451.22609803 146.15987536 454.02529938 148.25 457.12109375 C149.84105468 459.27863979 151.43983292 461.42518454 153.0625 463.55859375 C153.49038818 464.12126953 153.91827637 464.68394531 154.35913086 465.26367188 C167.88695722 482.73721971 191.86024873 497.3055161 213.859375 500.5 C222.01562211 500.90261729 230.71388327 498.48582941 237.1875 493.43359375 C241.32757651 489.43557869 245.10677008 484.20704749 245.37890625 478.34375 C245.33636719 477.61027344 245.29382813 476.87679688 245.25 476.12109375 C245.91 476.12109375 246.57 476.12109375 247.25 476.12109375 C248.06560371 474.97103384 248.85267093 473.80065088 249.625 472.62109375 C251.69091154 470.14199991 252.7879099 469.23029083 255.9609375 468.48046875 C262.4795891 468.24586432 266.76854457 469.57994503 272.36328125 472.7421875 C287.72040056 480.07786154 304.46624586 479.47629605 320.25 474.12109375 C326.10890422 471.32845671 331.75052304 467.3102748 334.25 461.12109375 C335.79379043 453.6158972 333.70804866 447.82249594 330.34375 441.140625 C325.16701633 433.67492514 318.76841305 428.79638344 310.9375 424.37109375 C309.18577083 423.3379634 307.43448086 422.30408804 305.68359375 421.26953125 C302.95899925 419.67981487 300.22766768 418.10862975 297.47314453 416.57128906 C294.79676446 415.07654528 292.14853097 413.53949499 289.5 411.99609375 C288.67201904 411.55426758 287.84403809 411.11244141 286.9909668 410.65722656 C283.71661788 408.71588811 281.63028703 407.46953273 280.56835938 403.70410156 C280.32208967 399.26960508 280.72989667 396.84690959 283.34375 393.19921875 C286.39229259 391.0193469 289.33817272 389.42050155 292.75 387.87109375 C315.66930475 376.95656066 330.3166138 358.93097586 338.94873047 335.20019531 C340.46657276 330.86681349 341.8659134 326.49901984 343.25 322.12109375 C343.58515625 321.23292969 343.9203125 320.34476563 344.265625 319.4296875 C347.09608897 309.9161836 347.60960805 300.36859409 347.5625 290.49609375 C347.55686035 289.23555176 347.5512207 287.97500977 347.54541016 286.67626953 C346.99263647 242.97431056 336.25135062 190.96886258 309.05273438 155.5378418 C301.49490571 145.61886745 301.49490571 145.61886745 302.125 139.61328125 C304.28051807 134.83820997 308.39242053 131.55637138 312.1953125 128.07421875 C316.23804157 124.31342651 318.74916861 120.0052678 321.25 115.12109375 C321.79527344 114.21230469 321.79527344 114.21230469 322.3515625 113.28515625 C324.90178533 108.82713313 326.21810276 104.06814979 327.5 99.12109375 C327.67547363 98.4564209 327.85094727 97.79174805 328.03173828 97.10693359 C331.97865785 80.90903057 325.45043049 64.92021172 317.25 51.12109375 C311.60849468 42.09678637 305.09545858 35.97522156 296.25 30.12109375 C295.44949219 29.56808594 294.64898438 29.01507813 293.82421875 28.4453125 C281.22297615 20.24921017 267.00131748 16.78998318 252.25 15.12109375 C250.90035156 14.96447266 250.90035156 14.96447266 249.5234375 14.8046875 C231.74854067 13.85791464 212.36077584 22.33874063 198.5546875 32.9765625 C194.71539663 36.54905519 191.93698269 40.64522312 189.25 45.12109375 C188.71375 45.99121094 188.1775 46.86132812 187.625 47.7578125 C186.17678554 50.09991406 186.17678554 50.09991406 185.25 52.74609375 C184.13482159 55.39464247 183.58449422 56.4508865 181.25 58.12109375 C178.56921258 58.42764119 176.17709312 58.54621325 173.5 58.49609375 C172.74501221 58.48956787 171.99002441 58.48304199 171.2121582 58.47631836 C164.83849517 58.32759733 158.96410482 57.24980963 152.7421875 55.85546875 C147.592376 54.77251063 142.50002522 54.349046 137.25 54.12109375 C136.31027344 54.07984375 135.37054688 54.03859375 134.40234375 53.99609375 C121.13472478 53.71038459 108.53284852 56.01022103 95.78344727 59.4440918 C90.02993005 60.93294299 84.19389193 62.05482166 78.25 61.12109375 C75.49075221 58.76423626 74.17119657 57.11630864 72.25 54.12109375 C71.47148603 52.93395422 70.69139947 51.74784522 69.91015625 50.5625 C69.2764209 49.59993286 69.2764209 49.59993286 68.62988281 48.61791992 C56.52619463 30.27172539 39.48578454 19.91267135 18.25 14.12109375 C-6.28405215 9.8183738 -28.29861673 17.02449778 -47.75 32.12109375 Z " fill="#430019" transform="translate(279.75,289.87890625)"/>
<path d="M0 0 C0.69480469 0.27328125 1.38960937 0.5465625 2.10546875 0.828125 C7.13904058 2.84522118 11.6326846 5.5265502 16.1875 8.4375 C17.06100098 8.99473755 17.06100098 8.99473755 17.95214844 9.56323242 C28.85125186 16.67990652 35.55191915 25.72329161 41.4375 37.25 C41.77958496 37.91104736 42.12166992 38.57209473 42.47412109 39.25317383 C49.02582206 52.56829739 47.69275116 73.16017308 44.0390625 87.296875 C42.75749142 90.63088697 41.22176747 92.86011941 38.68359375 95.34765625 C36.66167887 97.33204139 35.02140027 99.49193939 33.3125 101.75 C32.22524057 103.17968367 31.12237281 104.59771339 30 106 C29.51917969 106.60328125 29.03835938 107.2065625 28.54296875 107.828125 C27 109 27 109 25.08203125 108.97265625 C22.23272898 107.64155632 20.7339924 105.81841034 18.6875 103.4375 C17.8934375 102.52742188 17.099375 101.61734375 16.28125 100.6796875 C14.9420262 99.10655817 13.60681648 97.52996697 12.28125 95.9453125 C-14.80946257 63.94108834 -55.05920336 43.40820666 -94 30 C-88.42092442 14.98144584 -76.213339 5.99549916 -62.10327148 -0.57006836 C-42.28325472 -9.1892929 -19.61764576 -9.32465795 0 0 Z " fill="#FC72A9" transform="translate(560,312)"/>
<path d="M0 0 C6.32214777 3.69006992 11.0222634 9.15402325 13.21484375 16.2109375 C15.04833758 25.60541064 13.37820843 34.60490065 8.1171875 42.60546875 C3.438012 48.40547001 -2.3405859 51.9676953 -9.375 54.3125 C-17.38894036 55.12625487 -24.02596302 55.28925034 -30.5390625 50.15625 C-36.0682443 44.60353976 -39.36087012 37.86633632 -39.6875 30 C-39.44039238 21.32216189 -35.89978946 13.91984956 -30.375 7.3125 C-22.03675556 -0.46647195 -11.00647875 -5.11832471 0 0 Z " fill="#440119" transform="translate(387.375,569.6875)"/>
<path d="M0 0 C7.69676195 4.12933239 13.15588976 10.16704467 16.30078125 18.234375 C18.49439781 25.56646324 18.1636563 33.31727783 14.69921875 40.16015625 C11.55212559 44.82805142 7.47262786 48.12432007 2.48828125 50.671875 C-4.68929188 51.93850555 -11.46091693 52.31876994 -17.92578125 48.55859375 C-24.73989733 43.47052029 -30.90650895 34.54602952 -32.69921875 26.234375 C-33.41470987 19.09047133 -33.14515649 13.08819302 -28.69921875 7.234375 C-20.26590922 -1.50999922 -11.76944548 -4.43183382 0 0 Z " fill="#440119" transform="translate(577.69921875,567.765625)"/>
<path d="M0 0 C7.15842804 1.36245801 13.54754417 3.60148819 20.25 6.4375 C21.82164917 7.10120605 21.82164917 7.10120605 23.42504883 7.77832031 C46.02794424 17.48745024 67.41251536 29.7776893 86 46 C87.15997823 46.97961988 88.32154734 47.9573579 89.484375 48.93359375 C98.94008416 56.8992593 107.38074413 64.91690825 114.921875 74.77734375 C117.0328752 77.03516163 117.98303548 77.68063664 121 78 C125.38579957 73.20968493 129.59008792 68.54110713 133 63 C133.33 63.66 133.66 64.32 134 65 C130.70502431 70.63065467 126.97565335 75.08482841 122.1875 79.5 C118.59742152 82.94900494 116.3346917 85.14755894 115.8125 90.1875 C115.874375 91.445625 115.93625 92.70375 116 94 C112.71435951 90.80578603 109.76054735 87.5438206 106.9375 83.9375 C99.53275486 74.79263975 91.0758094 66.48599925 82 59 C81.48630859 58.57251465 80.97261719 58.1450293 80.44335938 57.70458984 C52.76465107 34.75549247 20.40250395 17.05928402 -15.015625 9.60546875 C-15.67046875 9.40566406 -16.3253125 9.20585937 -17 9 C-17.33 8.34 -17.66 7.68 -18 7 C-17.11957031 6.99742187 -16.23914063 6.99484375 -15.33203125 6.9921875 C-8.83025476 7.01710521 -8.83025476 7.01710521 -3.0234375 4.59765625 C-1.51043631 2.80557541 -1.51043631 2.80557541 0 0 Z " fill="#CE2968" transform="translate(466,342)"/>
<path d="M0 0 C2.375 1.1875 2.375 1.1875 4 3 C4.25 5.6875 4.25 5.6875 4 8 C3.071875 8.3403125 3.071875 8.3403125 2.125 8.6875 C-0.19290334 9.80875925 -0.19290334 9.80875925 -0.75 12.1875 C-2.97304306 17.18934689 -7.56223877 20.82194314 -12.44921875 23.18359375 C-21.34481694 26.03073008 -30.64648535 23.46486662 -39 20 C-41.14850766 18.76932654 -43.27460859 17.49860575 -45.375 16.1875 C-49.64408285 13.58854747 -49.64408285 13.58854747 -54.5 12.6875 C-57.62917048 13.86093893 -60.41439747 15.21353555 -63.375 16.75 C-77.47153833 24.03585127 -92.81247222 28.01551577 -108.4375 23.375 C-112.96533416 21.66947534 -116.46937019 19.46444436 -120.1796875 16.390625 C-122.91338232 14.30222295 -125.8046359 13.23901873 -129 12 C-130 11 -130 11 -130.375 8.1875 C-130 5 -130 5 -127.875 2.625 C-124.45209963 0.69031718 -122.88577683 0.58248063 -119 1 C-115.96484375 2.6796875 -115.96484375 2.6796875 -112.9375 4.875 C-106.59816233 9.42757455 -102.22275114 11.3759011 -94.375 11.3125 C-93.66786865 11.30831055 -92.9607373 11.30412109 -92.23217773 11.29980469 C-84.460597 11.13390743 -77.73693537 9.48526922 -70.875 5.8125 C-63.13571585 2.23412131 -53.25368501 2.81890508 -45.1875 5.05859375 C-42.05430844 6.2584637 -39.0335855 7.56988112 -36 9 C-30.18699702 11.62463092 -24.34591823 12.17583149 -18 12 C-12.44035928 9.65909864 -10.69924826 6.10929135 -8 1 C-5.19084526 -0.40457737 -3.11189466 -0.24895157 0 0 Z " fill="#47021C" transform="translate(547,632)"/>
<path d="M0 0 C0.99 0.495 0.99 0.495 2 1 C-0.70219359 15.28302327 -7.33633248 26.28807024 -17 37 C-18.04800781 38.17175781 -18.04800781 38.17175781 -19.1171875 39.3671875 C-35.28858183 56.48635586 -59.62669479 67.79555928 -83.20458984 68.48706055 C-103.96972244 68.58537679 -103.96972244 68.58537679 -109.8046875 63.39453125 C-110.19914062 62.93433594 -110.59359375 62.47414063 -111 62 C-110.34 60.68 -109.68 59.36 -109 58 C-107.75464478 57.97812622 -107.75464478 57.97812622 -106.48413086 57.95581055 C-71.3571764 57.26618668 -46.32265446 50.58816144 -21.41015625 24.6796875 C-17.76325643 20.79727753 -14.37259763 16.7701667 -11.07421875 12.5859375 C-7.57393238 8.22211532 -3.78090585 4.1205617 0 0 Z " fill="#CF2968" transform="translate(367,401)"/>
<path d="M0 0 C2.1875 0.3125 2.1875 0.3125 4 1 C5.22708709 15.39782187 -0.12282713 27.60616088 -6.22265625 40.27734375 C-11.23565904 50.71263011 -14.96019235 60.19703075 -15 72 C-15.43699219 71.09314453 -15.43699219 71.09314453 -15.8828125 70.16796875 C-17.5773293 66.87965817 -18.98341316 65.23227426 -22 63 C-25.99698411 62.28085553 -29.94378317 62.0711617 -34 62 C-32.86159668 60.96504395 -32.86159668 60.96504395 -31.70019531 59.90917969 C-28.85122983 56.83971561 -27.46864633 54.274775 -25.796875 50.453125 C-25.19750717 49.11324072 -24.59650523 47.77408659 -23.99414062 46.43554688 C-23.67517822 45.72035889 -23.35621582 45.0051709 -23.02758789 44.26831055 C-21.17650041 40.18219655 -19.21824762 36.14770532 -17.265625 32.109375 C-16.85679077 31.26362915 -16.44795654 30.4178833 -16.0267334 29.54650879 C-15.19159984 27.8208381 -14.35569885 26.0955386 -13.51904297 24.37060547 C-12.66322538 22.60332075 -11.81009289 20.83473356 -10.95947266 19.06494141 C-9.71333273 16.47264804 -8.45917049 13.88438046 -7.203125 11.296875 C-6.82496643 10.50633728 -6.44680786 9.71579956 -6.05718994 8.90130615 C-5.52082916 7.80305511 -5.52082916 7.80305511 -4.97363281 6.68261719 C-4.66387512 6.04169128 -4.35411743 5.40076538 -4.03497314 4.74041748 C-2.88722188 2.81035158 -1.73145432 1.43048363 0 0 Z " fill="#CF2968" transform="translate(336,695)"/>
<path d="M0 0 C3.29406201 1.39446254 4.95404753 2.88121044 7.0625 5.75 C7.66320312 6.55050781 8.26390625 7.35101562 8.8828125 8.17578125 C9.93082031 9.57376953 9.93082031 9.57376953 11 11 C12.8008787 13.32167335 14.61952355 15.62920571 16.4375 17.9375 C16.91026367 18.54223145 17.38302734 19.14696289 17.87011719 19.77001953 C19.96769706 22.44865646 22.08134589 25.09658078 24.2734375 27.69921875 C29.86725835 34.35393666 33.98155204 41.48560016 36.9765625 49.66796875 C38.01603281 52.03653277 39.05940904 53.32403508 41 55 C40.34773437 54.99097656 39.69546875 54.98195313 39.0234375 54.97265625 C33.63576447 55.07959019 33.63576447 55.07959019 29.0703125 57.625 C27.48878545 59.52643746 27.48878545 59.52643746 26.15625 61.50390625 C25.7746875 61.99761719 25.393125 62.49132812 25 63 C24.34 63 23.68 63 23 63 C23.061875 63.721875 23.12375 64.44375 23.1875 65.1875 C22.96476068 68.52858974 21.8717754 70.27032755 20 73 C19.34 72.67 18.68 72.34 18 72 C18.433125 71.01773438 18.433125 71.01773438 18.875 70.015625 C22.12313078 62.03063682 24.14875376 54.40466199 20.84765625 46.1015625 C17.5165485 40.02575227 13.26947167 34.81515392 8.875 29.5 C2.98057318 22.36454559 -2.07656244 14.94843897 -2.4375 5.375 C-2 2 -2 2 0 0 Z " fill="#CD2968" transform="translate(502,703)"/>
<path d="M0 0 C0.763125 0.825 1.52625 1.65 2.3125 2.5 C6.17356001 5.80283447 9.92836511 5.40334296 14.8046875 5.17578125 C15.52914063 5.11777344 16.25359375 5.05976563 17 5 C23.12041213 32.69242322 23.12041213 32.69242322 18 44 C16.68 44 15.36 44 14 44 C13.39455784 41.75033674 12.79066353 39.50027436 12.1875 37.25 C12.00372803 36.56768311 11.81995605 35.88536621 11.63061523 35.18237305 C10.53056376 31.07407623 9.52014084 26.95677327 8.5625 22.8125 C7.02988354 16.58098251 4.57693347 10.85975961 2 5 C1.32664848 3.33602285 0.65777261 1.67019682 0 0 Z " fill="#CF2A69" transform="translate(352,346)"/>
<path d="M0 0 C1.9375 0.375 1.9375 0.375 4 1 C5.38436312 3.76872624 5 6.09134422 5 9.1875 C6.15228733 26.26230314 21.84058947 42.12312365 34 53 C36.6082758 55.0875185 39.26605717 57.08042312 42 59 C37.95721187 59 35.92831284 57.01640279 32.875 54.625 C32.29532471 54.17310303 31.71564941 53.72120605 31.1184082 53.25561523 C22.93683011 46.72145641 16.70606666 38.89859327 10.7265625 30.34765625 C8.63516855 27.39669949 8.63516855 27.39669949 6 25 C3.16890364 24.52329878 3.16890364 24.52329878 0.0625 24.625 C-1.49791016 24.61339844 -1.49791016 24.61339844 -3.08984375 24.6015625 C-6.27962499 25.03828423 -7.65002307 25.85953908 -10 28 C-7.42527228 18.60450235 -4.36802725 8.7360545 0 0 Z " fill="#CE2B69" transform="translate(415,714)"/>
<path d="M0 0 C2.61476449 1.0459058 5.22905547 2.09263041 7.83984375 3.1484375 C15.79101386 6.29682012 23.74993871 8.78596556 32 11 C32.495 13.475 32.495 13.475 33 16 C29.28612567 18.47591622 26.69200921 18.13414168 22.4375 17.8125 C21.72529297 17.76424072 21.01308594 17.71598145 20.27929688 17.66625977 C14.58603071 17.20706307 9.34844903 16.04423893 4 14 C3.96261719 13.32453125 3.92523438 12.6490625 3.88671875 11.953125 C3.82097656 11.06109375 3.75523437 10.1690625 3.6875 9.25 C3.62949219 8.36828125 3.57148438 7.4865625 3.51171875 6.578125 C2.9358819 3.67696226 1.92403852 2.20774393 0 0 Z " fill="#CF2A69" transform="translate(263,674)"/>
<path d="M0 0 C0 0.99 0 1.98 0 3 C-0.639375 3.515625 -1.27875 4.03125 -1.9375 4.5625 C-5.07381436 8.26905333 -4.81979845 12.27871951 -5 17 C-6.0725 16.38125 -7.145 15.7625 -8.25 15.125 C-12.85408868 12.77344933 -17.36211493 12.16426806 -22.4609375 11.58984375 C-25 11 -25 11 -27 8 C-21.53725512 3.37767741 -14.97226447 2.51234223 -8.125 1.375 C-7.34125 1.2409375 -6.5575 1.106875 -5.75 0.96875 C-3.83404526 0.64163578 -1.91711718 0.32023116 0 0 Z " fill="#CE2B68" transform="translate(565,679)"/>
<path d="M0 0 C0.99 0.33 1.98 0.66 3 1 C2.46632812 1.32871094 1.93265625 1.65742188 1.3828125 1.99609375 C-16.88233912 13.65671823 -28.59682228 30.50109665 -33.8125 51.5625 C-35.63113453 60.9231189 -35.75361088 70.49019681 -36 80 C-40.29046368 73.56430448 -38.65027132 62.39328671 -37.41796875 54.921875 C-32.53417022 32.88903049 -21.12538739 13.97590086 -2.39453125 1.2265625 C-1.60433594 0.82179688 -0.81414062 0.41703125 0 0 Z " fill="#C52964" transform="translate(242,315)"/>
<path d="M0 0 C0.33 0 0.66 0 1 0 C2.52186991 11.67219871 3.21375975 23.22569452 3.25 35 C3.26353516 36.80440552 3.26353516 36.80440552 3.27734375 38.64526367 C3.24002085 49.92688783 1.55083522 60.30014987 -2 71 C-2.33 71 -2.66 71 -3 71 C-3.19498157 65.44302514 -2.57419104 61.37076943 -1 56 C0.03626621 49.00635524 0.13580558 42.01666622 0.09765625 34.9609375 C0.0962413 33.95406891 0.09482635 32.94720032 0.09336853 31.90982056 C0.08782431 28.73151527 0.07528259 25.55328356 0.0625 22.375 C0.05747778 20.20442811 0.05291614 18.0338551 0.04882812 15.86328125 C0.03787323 10.57549624 0.02119176 5.28775338 0 0 Z " fill="#CA2F69" transform="translate(624,545)"/>
<path d="M0 0 C1.03125 0.9075 2.0625 1.815 3.125 2.75 C6.27495425 5.45729266 9.49498873 7.77730993 13 10 C12.67 11.65 12.34 13.3 12 15 C6.84374012 15.2062504 4.09792156 14.69930719 -1 13 C-0.67 8.71 -0.34 4.42 0 0 Z " fill="#CF2B69" transform="translate(234,447)"/>
<path d="M0 0 C21.78509486 -1.29132286 39.95854833 4.95186293 56.8984375 19.1328125 C59.37749084 21.33539149 61.73216859 23.58097982 64 26 C63.67 26.66 63.34 27.32 63 28 C62.58492188 27.52691406 62.16984375 27.05382812 61.7421875 26.56640625 C53.04224559 17.22943931 41.84573955 10.60364379 30 6 C29.27425781 5.70480469 28.54851562 5.40960938 27.80078125 5.10546875 C18.9643845 1.97494774 9.27700106 1.75215278 0 1 C0 0.67 0 0.34 0 0 Z " fill="#C52964" transform="translate(279,304)"/>
<path d="M0 0 C1.91543509 2.87315263 2.47354742 4.39404529 3.125 7.6875 C3.29257812 8.49574219 3.46015625 9.30398438 3.6328125 10.13671875 C4.50814587 16.96245659 3.877616 22.73086757 2.125 29.3125 C1.95097656 30.01439453 1.77695312 30.71628906 1.59765625 31.43945312 C0.74645344 34.74653368 -0.08829888 37.13244832 -2 40 C-1.10967473 32.36864053 -1.10967473 32.36864053 -0.48632812 30.2734375 C0.1483599 27.30646213 0.11144643 24.51821443 0.09765625 21.484375 C0.09443359 20.23398437 0.09121094 18.98359375 0.08789062 17.6953125 C0.07951172 16.39335937 0.07113281 15.09140625 0.0625 13.75 C0.05573242 11.77386719 0.05573242 11.77386719 0.04882812 9.7578125 C0.03704316 6.50516259 0.02059011 3.25260416 0 0 Z " fill="#C8346B" transform="translate(605,360)"/>
<path d="M0 0 C0 0.33 0 0.66 0 1 C-1.11375 1.09796875 -2.2275 1.1959375 -3.375 1.296875 C-17.21175797 2.61138991 -30.39831023 4.63525848 -42.86328125 11.14453125 C-45 12 -45 12 -48 11 C-32.00057812 2.81638766 -18.01382463 -0.80259615 0 0 Z " fill="#C02660" transform="translate(291,303)"/>
<path d="M0 0 C0 5.55411327 -5.2556373 9.23879609 -9 13 C-14.60361132 18.24552217 -20.81264894 22.24769674 -27.4375 26.0625 C-28.13625244 26.46927979 -28.83500488 26.87605957 -29.55493164 27.29516602 C-31.32582846 28.28062791 -33.16021213 29.15006395 -35 30 C-35.99 29.67 -36.98 29.34 -38 29 C-36.85144531 28.40574219 -35.70289063 27.81148437 -34.51953125 27.19921875 C-21.04107718 20.06913256 -9.53544363 12.10134482 0 0 Z " fill="#CE2B68" transform="translate(604,650)"/>
<path d="M0 0 C0.495 0.99 0.495 0.99 1 2 C-4.14735391 9.07761162 -10.42666507 12.22620657 -19 14 C-24.73187464 14.4388038 -29.62516232 14.26308955 -35 12 C-35 11.67 -35 11.34 -35 11 C-33.87722656 11.03480469 -32.75445312 11.06960938 -31.59765625 11.10546875 C-19.67604318 11.37045267 -11.57323357 11.02720777 -2.53125 2.5234375 C-1.68664924 1.68314593 -0.84244892 0.84244892 0 0 Z " fill="#CD2968" transform="translate(520,776)"/>
</svg>
