<?xml version="1.0" encoding="UTF-8"?>
<svg version="1.1" xmlns="http://www.w3.org/2000/svg" width="820" height="820">
<path d="M0 0 C5.19707133 4.22133659 8.99575733 9.34119977 12.87109375 14.74609375 C14.66300849 17.32739938 14.66300849 17.32739938 16.42578125 18.90234375 C19.99140461 22.69265023 21.38416025 27.77191457 22.7890625 32.66796875 C23.92231932 36.61229118 25.22753705 40.37463423 26.80859375 44.15625 C28.96083553 49.45061479 30.34026078 54.79066901 31.6015625 60.35546875 C31.82199219 61.28681641 32.04242188 62.21816406 32.26953125 63.17773438 C33.8515625 69.98243401 33.8515625 69.98243401 33.8515625 73.41796875 C35.1715625 73.41796875 36.4915625 73.41796875 37.8515625 73.41796875 C40.98585973 63.03560919 40.08526653 54.14462816 37.5078125 43.6796875 C36.86703914 40.49489132 36.73400019 37.65583068 36.8515625 34.41796875 C65.40167681 25.83209496 94.03013075 24.93818943 122.50390625 34.64379883 C124.77857058 35.39389872 127.06011969 36.06426981 129.3671875 36.70703125 C169.3020149 47.89416418 208.99248248 71.02749915 235.83984375 103.08203125 C238.79213178 106.51012493 241.88734086 109.80089559 244.9765625 113.10546875 C245.57525146 113.74782471 246.17394043 114.39018066 246.79077148 115.05200195 C249.31225176 117.74805433 251.83835665 120.40511558 254.484375 122.98046875 C263.47405817 132.23717221 269.9350383 144.0494194 275.8515625 155.41796875 C276.41423828 156.49425537 276.41423828 156.49425537 276.98828125 157.59228516 C294.53924824 191.63846558 304.61400568 232.48794849 295.8515625 270.41796875 C295.52671875 272.14853516 295.52671875 272.14853516 295.1953125 273.9140625 C291.25940436 294.55415221 282.64017885 312.82269099 269.8515625 329.41796875 C269.4405127 329.95147949 269.02946289 330.48499023 268.60595703 331.03466797 C264.68404937 336.0748769 260.95085302 340.54030115 255.8515625 344.41796875 C255.11679687 345.00835938 254.38203125 345.59875 253.625 346.20703125 C241.95947541 355.13666734 228.47255688 361.82833747 214.7512207 366.99829102 C211.53942822 368.28778235 210.07141382 369.00402526 208.41796875 372.1171875 C208.23105469 372.87644531 208.04414062 373.63570312 207.8515625 374.41796875 C206.75457031 373.85207031 205.65757812 373.28617188 204.52734375 372.703125 C203.07307977 371.96191949 201.61864357 371.2210518 200.1640625 370.48046875 C199.44283203 370.10728516 198.72160156 369.73410156 197.97851562 369.34960938 C182.08426762 361.29362066 165.02083755 366.48307936 148.8515625 371.41796875 C147.17746679 372.06575404 145.50834339 372.72710024 143.8515625 373.41796875 C144.1815625 374.40796875 144.5115625 375.39796875 144.8515625 376.41796875 C149.24864579 378.39043085 153.13681505 378.66265017 157.9140625 378.60546875 C159.10128906 378.59902344 160.28851563 378.59257813 161.51171875 378.5859375 C164.435574 378.43888981 166.99577363 377.99791357 169.8515625 377.41796875 C180.57289236 376.49027427 188.80900885 376.96102028 197.8515625 383.41796875 C202.10978243 387.2852974 205.440455 391.50068666 206.2578125 397.30078125 C206.53539413 406.90047932 204.34121364 412.4508905 197.94140625 419.53125 C184.40845485 432.55829667 166.81196781 438.76199131 148.26171875 438.5703125 C140.22181135 438.21114138 133.17206802 436.90745882 125.9375 433.35546875 C123.86097815 432.4222005 121.94753067 431.89449832 119.7265625 431.41796875 C111.37285073 429.46601234 107.10287906 424.82408872 101.8515625 418.41796875 C101.3359375 417.87269531 100.8203125 417.32742188 100.2890625 416.765625 C96.14387171 412.35056502 93.74856742 407.48659939 91.24609375 401.9921875 C89.97132251 399.16025829 89.97132251 399.16025829 86.8515625 397.41796875 C83.89079959 397.7768491 83.00498229 398.26454896 80.8515625 400.41796875 C80.6865625 401.42859375 80.5215625 402.43921875 80.3515625 403.48046875 C78.8607795 409.29696636 73.42096647 412.92329998 68.8515625 416.41796875 C67.52490438 417.09782202 66.19292617 417.76761061 64.8515625 418.41796875 C64.1915625 419.13984375 63.5315625 419.86171875 62.8515625 420.60546875 C56.31770918 427.40067621 46.60204502 431.33127608 37.8515625 434.41796875 C37.14902344 434.670625 36.44648438 434.92328125 35.72265625 435.18359375 C33.44465872 435.97229271 31.1513494 436.6952803 28.8515625 437.41796875 C27.81257812 437.77246094 26.77359375 438.12695312 25.703125 438.4921875 C9.76914828 443.59464072 -6.49265645 442.55936514 -21.5234375 435.10546875 C-29.83581754 430.66039557 -36.00072982 427.04520072 -40.1484375 418.41796875 C-40.4784375 417.75796875 -40.8084375 417.09796875 -41.1484375 416.41796875 C-42.1153109 408.68298156 -41.35032008 403.09634751 -36.88671875 396.65234375 C-36.31308594 395.915 -35.73945313 395.17765625 -35.1484375 394.41796875 C-34.45814453 393.49757813 -34.45814453 393.49757813 -33.75390625 392.55859375 C-22.4422694 379.54573447 -3.79361487 374.98325844 12.44042969 372.49731445 C17.83076782 371.65689164 22.7512026 370.40144205 27.8515625 368.41796875 C27.8515625 367.42796875 27.8515625 366.43796875 27.8515625 365.41796875 C11.99077642 361.25776256 -5.70494298 362.0903863 -20.6640625 369.0546875 C-27.99722202 371.92382727 -33.97839038 369.86391211 -41.0859375 367.41796875 C-42.00745605 367.10472656 -42.92897461 366.79148437 -43.87841797 366.46875 C-78.66094995 354.28252103 -104.43204316 330.3663624 -120.703125 297.6171875 C-137.2308995 263.13901062 -138.0146496 223.95814777 -126.03710938 187.92871094 C-122.06689171 176.71175532 -117.04555719 166.13796021 -110.1484375 156.41796875 C-109.41367188 155.33 -108.67890625 154.24203125 -107.921875 153.12109375 C-107.14553712 152.01010243 -106.36692606 150.90069575 -105.5859375 149.79296875 C-104.88339844 148.79007813 -104.18085938 147.7871875 -103.45703125 146.75390625 C-100.67579988 143.93973305 -99.05262419 143.55721272 -95.1484375 143.41796875 C-94.4884375 143.74796875 -93.8284375 144.07796875 -93.1484375 144.41796875 C-90.8154509 144.45819266 -88.48137084 144.46117122 -86.1484375 144.41796875 C-86.1484375 143.09796875 -86.1484375 141.77796875 -86.1484375 140.41796875 C-87.59281177 138.97107409 -87.59281177 138.97107409 -89.5859375 137.79296875 C-108.66319079 124.28131132 -118.26043364 101.47665284 -123.1484375 79.41796875 C-126.02822125 61.70062369 -122.70756796 42.0904005 -113.4609375 26.54296875 C-112.6978125 25.51171875 -111.9346875 24.48046875 -111.1484375 23.41796875 C-110.4884375 23.41796875 -109.8284375 23.41796875 -109.1484375 23.41796875 C-109.05691406 22.86625 -108.96539062 22.31453125 -108.87109375 21.74609375 C-104.25214904 6.8656016 -88.13875726 -3.07437207 -75.29296875 -10.15625 C-49.73738903 -22.72642437 -22.06968815 -16.25131582 0 0 Z M34.8515625 84.41796875 C29.84052611 89.13897731 25.49261636 94.23261219 21.171875 99.5859375 C17.54987216 104.00673221 13.73902477 108.23042167 9.8515625 112.41796875 C9.17867188 113.16820312 8.50578125 113.9184375 7.8125 114.69140625 C-9.90148458 133.59959204 -32.69716748 141.19318826 -57.9916687 142.0413208 C-63.37641716 142.20625692 -68.76200218 142.32335984 -74.1484375 142.41796875 C-74.8084375 143.73796875 -75.4684375 145.05796875 -76.1484375 146.41796875 C-71.82118123 151.4664344 -65.17456494 152.05288554 -58.83837891 152.62744141 C-34.49610366 154.13536996 -10.88284753 146.4943997 7.99609375 130.94140625 C22.07273907 118.50158016 33.44435827 104.31246495 36.8515625 85.41796875 C35.8615625 84.92296875 35.8615625 84.92296875 34.8515625 84.41796875 Z M216.078125 259.57421875 C212.31155318 265.23607192 212.15827621 270.82286072 212.8515625 277.41796875 C214.96018076 286.25281235 220.6540659 294.79276536 228.1640625 299.98046875 C234.52259249 303.38154293 242.13752769 303.52080345 249.0390625 301.48046875 C255.07106522 298.86867376 259.37851366 293.24131235 262.3515625 287.54296875 C263.61562288 279.64259135 263.7618749 271.59512442 259.8515625 264.41796875 C254.25815912 256.73272345 248.3259456 251.4059773 238.8515625 249.41796875 C228.51077079 248.18692212 222.62332084 251.82236669 216.078125 259.57421875 Z M22.25 263.3359375 C19.12536516 267.98797764 16.40344151 272.76120887 15.8515625 278.41796875 C15.78839844 279.0625 15.72523438 279.70703125 15.66015625 280.37109375 C15.25072698 287.92572423 17.57704383 294.76301374 22.1640625 300.79296875 C27.6521078 306.15338509 31.08969366 307.67135296 38.7265625 307.91796875 C47.97104616 307.61438931 54.29210849 304.73763384 61.05859375 298.484375 C67.14782047 291.46650803 69.2298389 283.44306242 69.1328125 274.37109375 C68.54453136 268.19414178 66.35415419 263.18351398 62.3515625 258.48046875 C61.5265625 257.79984375 60.7015625 257.11921875 59.8515625 256.41796875 C59.1915625 255.86109375 58.5315625 255.30421875 57.8515625 254.73046875 C45.5885081 246.6828393 30.69915022 252.55811905 22.25 263.3359375 Z M110.8515625 312.41796875 C107.05072573 317.41766758 105.08782161 321.95142096 105.49609375 328.28515625 C106.51255137 334.383902 109.1135958 338.54145054 113.8515625 342.41796875 C135.63285658 353.36928792 164.34568067 355.58043506 187.8515625 350.41796875 C194.03775338 348.25451946 198.18912142 344.87994836 201.8515625 339.41796875 C204.05093575 332.819849 203.87710221 324.9020587 201.1640625 318.48046875 C196.0125378 308.69435435 188.09923594 302.59752018 177.63208008 299.19946289 C174.3857253 298.21073846 171.13053063 297.29380792 167.8515625 296.41796875 C167.20147217 296.23838623 166.55138184 296.05880371 165.8815918 295.8737793 C146.7546119 291.57912248 124.0375866 298.01197785 110.8515625 312.41796875 Z " fill="#FE6AB4" transform="translate(332.1484375,316.58203125)"/>
<path d="M0 0 C3.47292362 2.8640009 6.74799174 5.8893834 10 9 C10.68835938 9.61359375 11.37671875 10.2271875 12.0859375 10.859375 C19.88878259 18.07623568 25.41665493 27.48630583 30 37 C31.30710937 36.60167969 31.30710937 36.60167969 32.640625 36.1953125 C40.37102253 33.90296518 47.9878208 32.02147305 56 31 C56.89847656 30.87625 57.79695312 30.7525 58.72265625 30.625 C79.48816071 28.38914488 100.86014034 30.81925659 121 36 C121.38929688 35.31035156 121.77859375 34.62070312 122.1796875 33.91015625 C133.61447361 14.70287728 154.66736256 3.23839321 175.5390625 -3.140625 C201.24101518 -9.52259971 228.64123121 -7.36248382 251.75976562 6.01855469 C255.29582474 8.1821987 258.66562631 10.54004342 262 13 C263.5778125 14.1446875 263.5778125 14.1446875 265.1875 15.3125 C279.07251198 28.58040034 290.59811329 46.63773928 291.30078125 66.26953125 C291.54584994 89.13852467 285.52851457 106.92274693 269.49609375 123.60546875 C267.35615482 125.765501 265.19516182 127.89630325 263 130 C265.27323614 134.26231776 267.77114966 138.08395923 270.6875 141.9375 C300.03866442 181.88769602 312.63169472 235.65412662 305.7578125 284.5625 C300.9182638 314.60859952 288.73214914 343.26785086 267 365 C268.71568313 366.71568313 271.21883503 366.41470796 273.5625 366.6875 C279.80364218 367.69437466 283.50416607 369.62540205 288 374 C288.54269531 374.52722656 289.08539062 375.05445313 289.64453125 375.59765625 C298.05815133 384.60768484 300.50345805 394.99609829 301 407 C300.62002561 413.67804984 297.94344161 418.7036223 294 424 C293.4946875 424.68191406 292.989375 425.36382813 292.46875 426.06640625 C282.10382038 438.94923151 264.35327054 444.96500008 248.34521484 446.79785156 C238.69380519 447.6297657 228.9157051 447.38024561 219.27734375 446.51953125 C210.14089184 445.33436739 210.14089184 445.33436739 201.3984375 447.2109375 C199.52229555 448.90719026 199.52229555 448.90719026 197.921875 450.89453125 C187.27490818 462.55858637 167.19072799 467.77432671 152 469 C131.07080246 469.87482713 109.40924605 463.56801413 93.10546875 450.0078125 C88.80857389 445.91021703 84.88492107 441.48509677 81 437 C77.6146547 438.93532852 74.70019348 441.02087648 71.75 443.5625 C53.39866703 458.39103244 28.86212349 469.64287978 5 470 C4.33460205 470.01538818 3.6692041 470.03077637 2.98364258 470.04663086 C-11.53312541 470.24989397 -24.56211012 467.67542647 -37 460 C-38.00933594 459.37867188 -39.01867187 458.75734375 -40.05859375 458.1171875 C-48.37245995 452.5445282 -54.15403914 445.27555266 -58 436 C-58 435.01 -58 434.02 -58 433 C-58.81597656 432.92523437 -59.63195312 432.85046875 -60.47265625 432.7734375 C-87.69782027 429.75171092 -114.77924071 421.57721495 -133 400 C-140.31505097 389.21261471 -143.47296966 378.01595309 -142 365 C-139.96238933 356.7080566 -136.34856538 350.44868283 -130.671875 344.12109375 C-129.00055794 342.00070786 -128.40650681 340.63631619 -128 338 C-127.319375 338.7425 -127.319375 338.7425 -126.625 339.5 C-125.12364481 341.22609337 -125.12364481 341.22609337 -123 341 C-123.72703125 339.87078125 -123.72703125 339.87078125 -124.46875 338.71875 C-131.70848954 327.24654734 -139.85467518 314.32582955 -143 301 C-143.37259296 299.57523142 -143.74636048 298.15076965 -144.12109375 296.7265625 C-144.56013579 295.0261036 -144.99892924 293.32558051 -145.4375 291.625 C-145.76331055 290.39716797 -145.76331055 290.39716797 -146.09570312 289.14453125 C-149.25462345 276.79343738 -150.36844838 264.60325733 -150.3125 251.875 C-150.31034485 251.20157562 -150.3081897 250.52815125 -150.30596924 249.83432007 C-150.12855018 215.08736208 -139.41191601 181.5181036 -117.3359375 154.3671875 C-115.77989371 152.08253789 -115.77989371 152.08253789 -116.0625 149.44921875 C-117.15751521 146.58849151 -118.46558362 145.10108514 -120.625 142.9375 C-134.02494004 128.43488154 -139.92883941 108.41478561 -141 89 C-141.04125 88.33484375 -141.0825 87.6696875 -141.125 86.984375 C-141.88255488 62.17445268 -132.83794285 36.05651876 -117 17 C-116.41089844 16.24976563 -115.82179687 15.49953125 -115.21484375 14.7265625 C-87.11136689 -19.28401459 -35.58522999 -26.07493358 0 0 Z M-108.51953125 27.11328125 C-112.63022262 32.35197236 -115.47310518 37.84756043 -118 44 C-118.64055761 45.21113834 -119.2867335 46.41931633 -119.9375 47.625 C-130.20788431 68.0083681 -129.5888808 89.49331874 -122.6875 110.6875 C-118.33655111 123.08189446 -112.37504936 134.62495064 -103 144 C-101.8467547 148.97675655 -101.57098334 154.2154174 -103.95947266 158.86962891 C-106.55472436 162.85679401 -109.57854726 166.51715942 -112.57666016 170.20507812 C-132.81757932 195.73016178 -141.19361675 234.30192937 -137.75683594 266.26123047 C-137.08951506 271.23089902 -136.09776823 276.10983501 -135 281 C-134.85546387 281.67514648 -134.71092773 282.35029297 -134.56201172 283.04589844 C-130.82193971 300.35046193 -124.048051 317.62560918 -113.76953125 332.15234375 C-110.9639503 336.66728528 -110.84982541 340.86255348 -112 346 C-113.95190334 348.60617261 -116.30931191 350.20808038 -119 352 C-124.64396762 356.97206671 -129.15497134 362.97851363 -129.6875 370.6875 C-129.1168972 380.86324993 -123.41183008 392.06760648 -116 399 C-98.98136621 411.72205753 -78.11120569 419.07194924 -56.875 420.375 C-52.28550725 421.11524077 -50.94211884 422.52295046 -48 426 C-47.34 426 -46.68 426 -46 426 C-45.896875 426.86625 -45.79375 427.7325 -45.6875 428.625 C-44.33035793 435.2873338 -40.78124222 441.22835898 -35.25537109 445.27880859 C-33.30571325 446.4848292 -31.33145116 447.60156526 -29.3125 448.6875 C-28.60424072 449.07615234 -27.89598145 449.46480469 -27.16625977 449.86523438 C-11.35351583 458.32560187 5.41838222 458.89104868 22.5 454.25 C23.43142822 453.99790771 24.36285645 453.74581543 25.32250977 453.48608398 C30.75067171 451.91707854 35.17994682 449.92795777 40 447 C41.58900271 446.35700821 43.19247219 445.74774812 44.8125 445.1875 C51.78601696 442.50045677 57.74724446 438.27948712 63 433 C64.69483422 431.6083949 66.40430545 430.23449919 68.125 428.875 C71.15957669 426.5486356 71.15957669 426.5486356 74 424 C79.3151594 423.08537841 84.08856259 422.68167037 88.65625 425.83203125 C91.70776381 428.89880263 94.34964544 432.13590166 96.94921875 435.58984375 C107.09763835 447.51665308 128.2802538 454.56713599 143.38671875 456.4140625 C162.16089494 457.24265564 179.63519709 449.54232566 194 438 C194.49290527 437.30463135 194.98581055 436.6092627 195.49365234 435.89282227 C199.51951336 432.85244622 203.6510711 433.58765047 208.546875 433.75 C210.11287445 433.77271973 210.11287445 433.77271973 211.71051025 433.79589844 C216.16701727 433.86095815 220.6220414 433.97219412 225.07763672 434.08203125 C244.11342242 434.5110067 263.8412299 434.02187581 279.28515625 421.0859375 C283.64353744 416.44069895 287.73857892 410.46102419 288.12109375 403.93359375 C287.93098784 401.86669754 287.54523266 400.00183963 287 398 C286.83371094 397.34128906 286.66742187 396.68257812 286.49609375 396.00390625 C284.72103472 390.27682899 281.96344043 385.46002152 277 382 C273.04603484 380.39766159 268.9723043 379.22044684 264.84179688 378.16552734 C259.6542735 376.79400588 256.27749301 375.53505991 253 371 C252.29296875 367.88671875 252.29296875 367.88671875 252.1875 364.6875 C252.13980469 363.61886719 252.09210938 362.55023437 252.04296875 361.44921875 C252.02878906 360.64097656 252.01460937 359.83273437 252 359 C252.58523438 358.74734375 253.17046875 358.4946875 253.7734375 358.234375 C269.22856131 349.66627127 280.31457502 324.7338125 286 309 C286.23106445 308.36819824 286.46212891 307.73639648 286.70019531 307.08544922 C290.48127341 296.55090045 292.32590962 286.01367467 293.69042969 274.92260742 C294 273 294 273 295 270 C296.11405814 255.87678115 294.74048954 241.84540629 292 228 C291.83371094 227.15614746 291.66742187 226.31229492 291.49609375 225.44287109 C285.44150368 195.73613704 273.24627193 166.80131218 254.3527832 142.91772461 C250.44163183 137.9628983 248.67115095 134.69631059 248.94140625 128.2265625 C250.83151105 122.46557888 255.30058562 119.00635831 259.765625 115.10546875 C263.09302336 112.10751577 265.02271475 108.98169303 267 105 C267.33177246 104.37552979 267.66354492 103.75105957 268.00537109 103.10766602 C275.73848614 88.54161597 280.91485671 75.44214192 277 58.5625 C271.50033234 41.34391433 261.5310123 26.55242913 245.15771484 18.04248047 C222.70324537 7.12034884 199.06128158 2.99859659 175 11 C158.19268983 16.94927945 145.07996087 26.00796155 133 39 C132.34 39.66 131.68 40.32 131 41 C131.99 41.66 132.98 42.32 134 43 C131.25926828 46.33861335 129.78284055 47.86088595 125.4609375 48.62890625 C124.09881212 48.63848094 122.73616958 48.61440968 121.375 48.5625 C120.27152222 48.54304321 120.27152222 48.54304321 119.14575195 48.52319336 C111.7015365 48.24840951 104.61624847 46.62364947 97.3828125 44.95703125 C91.94147593 43.72100048 86.57309413 43.18285473 81 43 C80.06542969 42.96003906 79.13085938 42.92007813 78.16796875 42.87890625 C64.86762109 42.57622096 52.23231991 44.91247876 39.44555664 48.32299805 C34.04457556 49.71523939 28.5710779 51.09292396 23 50 C18.42733815 46.72208356 16.50411332 42.41761468 14.25 37.4375 C8.17768041 24.80609306 0.84662534 15.70337555 -11 8 C-12.27617187 7.15308594 -12.27617187 7.15308594 -13.578125 6.2890625 C-46.2797498 -13.4723488 -85.15474792 -0.57608922 -108.51953125 27.11328125 Z " fill="#430018" transform="translate(336,301)"/>
<path d="M0 0 C12.12206488 9.3488155 22.04787058 23.13945145 24.75 38.5078125 C26.41067045 55.06262103 22.77526581 70.39603092 13 84 C8.69466323 89.02975753 3.88761959 93.54485237 -1 98 C-6.5907982 93.36318721 -11.6708946 88.37424565 -16.75 83.1875 C-22.42012169 77.45329935 -28.05839309 71.95487807 -34.4453125 67.01953125 C-36.60924766 65.3088975 -38.63312548 63.53710389 -40.6796875 61.69140625 C-45.17827823 57.73371875 -49.99966901 54.41376802 -55 51.125 C-55.92280762 50.51567627 -56.84561523 49.90635254 -57.79638672 49.27856445 C-75.66054614 37.59434663 -94.42110556 27.79908539 -114.76660156 21.20654297 C-115.56807617 20.94373535 -116.36955078 20.68092773 -117.1953125 20.41015625 C-117.90703613 20.18465088 -118.61875977 19.95914551 -119.35205078 19.72680664 C-121 19 -121 19 -122 17 C-121.25556641 16.36384766 -121.25556641 16.36384766 -120.49609375 15.71484375 C-117.10184089 12.78432183 -113.84437639 9.86861646 -110.8125 6.5625 C-81.90688552 -22.53842269 -32.31052939 -22.42893079 0 0 Z " fill="#FD73AA" transform="translate(589,324)"/>
<path d="M0 0 C1.27101563 0.33644531 2.54203125 0.67289063 3.8515625 1.01953125 C8.69709078 2.62575404 12.20821644 4.5876343 15.5 8.5 C15.97695313 9.05300781 16.45390625 9.60601563 16.9453125 10.17578125 C21.95031224 17.21833553 22.53912982 23.74519269 21.375 32.1875 C18.89126492 38.16212046 14.60475959 42.50289665 9.375 46.1875 C8.715 46.1875 8.055 46.1875 7.375 46.1875 C7.045 47.1775 6.715 48.1675 6.375 49.1875 C3.93089154 50.05187982 1.63516617 50.72159459 -0.875 51.3125 C-1.87853516 51.56580078 -1.87853516 51.56580078 -2.90234375 51.82421875 C-4.80494804 52.29893534 -6.71489192 52.74393934 -8.625 53.1875 C-9.71252563 53.45880737 -9.71252563 53.45880737 -10.82202148 53.7355957 C-14.61915719 54.3477809 -18.37286868 54.31041294 -22.20703125 54.28515625 C-23.42829964 54.28303383 -23.42829964 54.28303383 -24.67424011 54.28086853 C-27.26203156 54.27529317 -29.84973492 54.26274524 -32.4375 54.25 C-34.19726437 54.24498181 -35.95703011 54.24041946 -37.71679688 54.23632812 C-42.01956494 54.22533181 -46.32226756 54.20808421 -50.625 54.1875 C-50.48497559 53.46377197 -50.34495117 52.74004395 -50.20068359 51.99438477 C-48.14480635 41.0942363 -46.82901363 31.17597219 -52.625 21.1875 C-54.79095847 18.3397516 -57.1031619 15.72350573 -59.625 13.1875 C-57.04732641 11.8986632 -55.55961737 12.32886352 -52.6875 12.5625 C-40.15360565 12.66808034 -27.44660822 6.407308 -17.265625 -0.52734375 C-11.54977259 -3.30917133 -5.87685826 -1.59788305 0 0 Z " fill="#FE76A9" transform="translate(599.625,678.8125)"/>
<path d="M0 0 C5.98154221 4.81597403 9.94187144 10.16235987 12.01171875 17.59375 C12.81974717 25.25122866 12.8816044 31.44231549 8.01171875 37.59375 C-0.2666549 46.05356745 -12.13124121 46.7655449 -23.41064453 47.12573242 C-40.37266461 47.30104683 -66.12163484 45.48464251 -79.73828125 34.34375 C-83.79712983 29.38293507 -85.71122271 24.37599509 -85.4609375 17.98828125 C-83.83257455 9.73880616 -77.66939403 3.27172843 -70.98828125 -1.40625 C-50.08842185 -14.64899277 -20.28353447 -14.34591829 0 0 Z M-44.98828125 3.59375 C-43.90012402 6.58618238 -42.67867639 9.0961736 -41 11.8203125 C-38.56282601 15.98960875 -37.70414144 20.26517838 -36.80078125 24.96875 C-36.18465172 30.19826028 -36.18465172 30.19826028 -33.98828125 34.59375 C-23.70438371 35.27934317 -11.9848824 35.1862318 -2.98828125 29.59375 C-1.56865083 28.3933388 -1.56865083 28.3933388 -1.73828125 24.90625 C-1.83390683 20.02934563 -3.09588341 16.75032873 -6.359375 13.03125 C-12.74477667 6.90616447 -22.48214894 3.43299191 -31.31640625 3.49609375 C-32.51523437 3.50092773 -32.51523437 3.50092773 -33.73828125 3.50585938 C-34.97578125 3.51842773 -34.97578125 3.51842773 -36.23828125 3.53125 C-37.07875 3.53576172 -37.91921875 3.54027344 -38.78515625 3.54492188 C-40.85289526 3.55667039 -42.92059749 3.57460478 -44.98828125 3.59375 Z M-68.48828125 13.984375 C-70.85677052 16.54126682 -71.946024 18.32436001 -72.48828125 21.78125 C-71.91332749 25.01536489 -71.51390482 25.60628672 -68.98828125 27.59375 C-61.85885473 30.45737007 -54.63323561 32.07544801 -46.98828125 32.59375 C-47.38790403 23.80204883 -52.04172072 14.97257524 -57.98828125 8.59375 C-62.5205909 8.59375 -65.22241576 10.95664554 -68.48828125 13.984375 Z " fill="#46011B" transform="translate(522.98828125,622.40625)"/>
<path d="M0 0 C2.51621557 2.1196951 4.70267218 4.52765379 6.9375 6.9375 C24.32125369 24.95742692 45.79309818 36.0805527 70 42 C69.64808594 42.46148438 69.29617188 42.92296875 68.93359375 43.3984375 C60.27316268 54.50217067 60.27316268 54.50217067 54 67 C33.16249861 66.27521734 10.34436355 60.22328265 -5.41015625 45.85546875 C-12.22485902 37.90219157 -17.82675052 27.32893255 -17.48046875 16.66015625 C-16.36220789 10.46880954 -13.02963866 4.08563691 -7.9375 0.25 C-4.42004663 -1.24678867 -3.55935895 -1.30948007 0 0 Z " fill="#FB72A6" transform="translate(224,653)"/>
<path d="M0 0 C6.32214777 3.69006992 11.0222634 9.15402325 13.21484375 16.2109375 C15.04833758 25.60541064 13.37820843 34.60490065 8.1171875 42.60546875 C3.438012 48.40547001 -2.3405859 51.9676953 -9.375 54.3125 C-17.38894036 55.12625487 -24.02596302 55.28925034 -30.5390625 50.15625 C-36.0682443 44.60353976 -39.36087012 37.86633632 -39.6875 30 C-39.44039238 21.32216189 -35.89978946 13.91984956 -30.375 7.3125 C-22.03675556 -0.46647195 -11.00647875 -5.11832471 0 0 Z " fill="#440119" transform="translate(387.375,569.6875)"/>
<path d="M0 0 C3.27479244 3.16915398 6.34143965 6.47326394 9.375 9.875 C10.16519531 10.75027344 10.95539063 11.62554688 11.76953125 12.52734375 C13.04961805 13.94642421 14.32256243 15.37218742 15.57421875 16.81640625 C30.07856151 32.61509981 57.71502356 47.17150236 79.125 49.3125 C82.61851668 49.03076478 84.48669699 48.52229771 87.625 47.1875 C101.62155461 41.29090053 118.91534733 38.98418232 133.48046875 44.34375 C133.98191406 44.5603125 134.48335937 44.776875 135 45 C135 45.99 135 46.98 135 48 C128.49701779 51.29839721 122.43023442 52.86187518 115.25 53.9375 C97.70818733 56.88472295 80.87511255 63.07118226 70 78 C66.8765323 82.83633709 66.36264254 87.37278823 66 93 C65.67 92.01 65.34 91.02 65 90 C63.6846659 89.29848848 62.34882408 88.63474075 61 88 C60.55785156 87.49855469 60.11570312 86.99710938 59.66015625 86.48046875 C57.52788895 84.57898803 56.13043416 84.51669813 53.3125 84.3125 C52.50425781 84.24675781 51.69601562 84.18101562 50.86328125 84.11328125 C50.24839844 84.07589844 49.63351562 84.03851562 49 84 C49.95326172 83.87044922 49.95326172 83.87044922 50.92578125 83.73828125 C51.61027344 83.49464844 52.29476562 83.25101563 53 83 C53.64679252 80.9234556 54.28611451 78.84427745 54.88671875 76.75390625 C57.58869796 70.07006295 62.89053651 64.0053006 68 59 C66.8140625 58.6596875 65.628125 58.319375 64.40625 57.96875 C40.01819539 50.75420392 20.11141334 38.63464241 2.32666016 20.34130859 C-0.02340038 17.92865741 -2.18585892 15.87609406 -5 14 C-4.360625 13.54625 -3.72125 13.0925 -3.0625 12.625 C-0.01774843 8.74986164 -0.18350135 4.8077353 0 0 Z " fill="#CE2968" transform="translate(225,637)"/>
<path d="M0 0 C7.69676195 4.12933239 13.15588976 10.16704467 16.30078125 18.234375 C18.49439781 25.56646324 18.1636563 33.31727783 14.69921875 40.16015625 C11.55212559 44.82805142 7.47262786 48.12432007 2.48828125 50.671875 C-4.68929188 51.93850555 -11.46091693 52.31876994 -17.92578125 48.55859375 C-24.73989733 43.47052029 -30.90650895 34.54602952 -32.69921875 26.234375 C-33.41470987 19.09047133 -33.14515649 13.08819302 -28.69921875 7.234375 C-20.26590922 -1.50999922 -11.76944548 -4.43183382 0 0 Z " fill="#440119" transform="translate(577.69921875,567.765625)"/>
<path d="M0 0 C4.38294554 1.19161332 8.54345423 2.6248688 12.75 4.33203125 C14.04562866 4.85772705 14.04562866 4.85772705 15.36743164 5.39404297 C41.05120376 16.09197827 64.61082707 30.86620516 85.1328125 49.6484375 C86.5752351 50.95522932 88.02437344 52.25515116 89.50097656 53.52319336 C95.00895798 58.25519982 100.14390197 63.29687843 105.25 68.45703125 C106.07242188 69.28396484 106.89484375 70.11089844 107.7421875 70.96289062 C109.74712113 72.97948084 111.74966253 74.99838361 113.75 77.01953125 C114.22123291 76.61395996 114.69246582 76.20838867 115.17797852 75.79052734 C115.80115967 75.25508301 116.42434082 74.71963867 117.06640625 74.16796875 C117.68201416 73.63864746 118.29762207 73.10932617 118.93188477 72.56396484 C121.1659457 70.66619803 123.44760111 68.8335425 125.75 67.01953125 C124.17835682 71.08509923 121.41862577 73.1886101 118.1875 76.01953125 C114.01689732 79.88144679 111.98857167 82.90008675 111.5625 88.70703125 C111.57375731 90.47893142 111.61740034 92.25256371 111.75 94.01953125 C104.49212412 88.21323054 98.49319023 81.30920901 92.30908203 74.41259766 C86.75508674 68.22906108 81.2159056 62.27240264 74.75 57.01953125 C74.2348584 56.5920459 73.7197168 56.16456055 73.18896484 55.72412109 C44.81511357 32.19206089 11.93653122 14.88616847 -24.25 7.01953125 C-24.25 6.68953125 -24.25 6.35953125 -24.25 6.01953125 C-23.15300781 6.00535156 -22.05601562 5.99117188 -20.92578125 5.9765625 C-19.47131302 5.92964417 -18.01688723 5.88139687 -16.5625 5.83203125 C-15.84126953 5.82623047 -15.12003906 5.82042969 -14.37695312 5.81445312 C-10.16230916 5.64124858 -8.76168755 5.53741169 -5.66796875 2.40625 C-3.25 0.01953125 -3.25 0.01953125 0 0 Z " fill="#CE2968" transform="translate(473.25,343.98046875)"/>
<path d="M0 0 C6.13804754 4.549487 10.00651038 8.65953936 12.55078125 15.890625 C12.90011719 16.66535156 13.24945312 17.44007813 13.609375 18.23828125 C16.58314543 26.6166635 14.25847448 35.76754532 11.55078125 43.890625 C16.61919358 43.82111052 21.6868303 43.73284704 26.75463867 43.62817383 C28.47395119 43.59518749 30.19336518 43.56707629 31.9128418 43.54418945 C44.91695059 43.4009059 44.91695059 43.4009059 57.52612305 40.42504883 C59.55078125 39.890625 59.55078125 39.890625 62.55078125 40.890625 C52.92980823 44.73901421 44.6446489 46.1732215 34.26953125 45.8046875 C32.10680714 45.75992879 29.94404417 45.71701605 27.78125 45.67578125 C24.40988339 45.60158268 21.04053598 45.51526539 17.67041016 45.39697266 C14.39065894 45.28750421 11.11315838 45.22971424 7.83203125 45.1796875 C6.83490112 45.13212311 5.837771 45.08455872 4.8104248 45.03555298 C-1.03534167 44.99217078 -4.06185551 45.87544277 -8.49072266 49.80371094 C-9.82366659 51.15286302 -11.14521264 52.51348342 -12.44921875 53.890625 C-21.25485867 60.96142243 -35.79911225 67.85753667 -47.44921875 66.890625 C-46.95421875 65.900625 -46.95421875 65.900625 -46.44921875 64.890625 C-44.1484375 64.21484375 -44.1484375 64.21484375 -41.13671875 63.578125 C-24.74958155 59.66072652 -11.40653573 51.92819371 -1.51171875 38.203125 C0.42151884 32.17597251 0.77522235 25.54028759 -1.2578125 19.48046875 C-5.01785303 12.72800842 -12.17690449 8.15799884 -19.44921875 5.890625 C-22.15832202 5.72685749 -24.74648788 5.65575241 -27.44921875 5.703125 C-28.14789063 5.70376953 -28.8465625 5.70441406 -29.56640625 5.70507812 C-33.33406964 5.73706772 -36.77355242 6.12830835 -40.44921875 6.890625 C-48.02066325 7.3560093 -54.74065613 7.72408936 -61.44921875 3.890625 C-61.44921875 2.570625 -61.44921875 1.250625 -61.44921875 -0.109375 C-57.13240212 -1.49903515 -52.79861491 -2.82577009 -48.44921875 -4.109375 C-47.47879639 -4.39748047 -47.47879639 -4.39748047 -46.48876953 -4.69140625 C-29.63056737 -9.59743093 -15.02732601 -10.11740761 0 0 Z " fill="#CE2A68" transform="translate(537.44921875,689.109375)"/>
<path d="M0 0 C0.99 0.495 0.99 0.495 2 1 C-0.70219359 15.28302327 -7.33633248 26.28807024 -17 37 C-18.04800781 38.17175781 -18.04800781 38.17175781 -19.1171875 39.3671875 C-35.28858183 56.48635586 -59.62669479 67.79555928 -83.20458984 68.48706055 C-103.96972244 68.58537679 -103.96972244 68.58537679 -109.8046875 63.39453125 C-110.19914062 62.93433594 -110.59359375 62.47414063 -111 62 C-110.34 60.68 -109.68 59.36 -109 58 C-107.75464478 57.97812622 -107.75464478 57.97812622 -106.48413086 57.95581055 C-71.3571764 57.26618668 -46.32265446 50.58816144 -21.41015625 24.6796875 C-17.76325643 20.79727753 -14.37259763 16.7701667 -11.07421875 12.5859375 C-7.57393238 8.22211532 -3.78090585 4.1205617 0 0 Z " fill="#CF2968" transform="translate(367,401)"/>
<path d="M0 0 C12.92556124 -0.5222449 26.51953176 -0.90839801 37 8 C41.55298502 12.72762006 43.39310866 16.59876721 43.2734375 23.1328125 C43 25 43 25 41.4375 26.875 C31.67705931 31.37981878 21.51036012 31.14419701 11 31 C9.99349106 27.51934134 9.01127345 24.04366617 8.10546875 20.53515625 C6.23956096 13.47646679 4.15040014 7.99502242 0 2 C0 1.34 0 0.68 0 0 Z " fill="#C92765" transform="translate(478,626)"/>
<path d="M0 0 C0.66 0 1.32 0 2 0 C2.01417969 0.72445312 2.02835938 1.44890625 2.04296875 2.1953125 C2.37326021 8.89040962 3.09749281 12.34890343 8 17 C6.7625 16.855625 5.525 16.71125 4.25 16.5625 C-1.47813938 16.54459956 -5.07614602 19.13010375 -9.8046875 22.1171875 C-14.92369037 25.13351926 -20.40221313 27.05894923 -26 29 C-27.48113281 29.556875 -27.48113281 29.556875 -28.9921875 30.125 C-32.22384873 31.06511963 -34.89255946 31.23389679 -38.25 31.1875 C-39.28640625 31.18105469 -40.3228125 31.17460938 -41.390625 31.16796875 C-44 31 -44 31 -46 30 C-45.8671875 27.703125 -45.8671875 27.703125 -45 25 C-42.5078125 23.296875 -42.5078125 23.296875 -39.125 21.75 C-38.51293701 21.46116943 -37.90087402 21.17233887 -37.27026367 20.87475586 C-35.18879292 19.89659104 -33.09610631 18.94637463 -31 18 C-14.36665778 10.83342972 -14.36665778 10.83342972 0 0 Z " fill="#CF2A68" transform="translate(586,661)"/>
<path d="M0 0 C0.78375 0.825 1.5675 1.65 2.375 2.5 C5.34576298 5.03850676 7.35900084 5.28284776 11.2265625 5.15625 C12.12197754 5.13369141 13.01739258 5.11113281 13.93994141 5.08789062 C14.95967041 5.04438477 14.95967041 5.04438477 16 5 C22.12041213 32.69242322 22.12041213 32.69242322 17 44 C15.68 44 14.36 44 13 44 C12.39455785 41.75033679 11.79071303 39.50026102 11.1875 37.25 C10.91075439 36.22326172 10.91075439 36.22326172 10.62841797 35.17578125 C9.54509554 31.13238147 8.55619019 27.08162408 7.625 23 C6.26089546 17.40640931 4.20857192 12.19343755 1.98095703 6.8984375 C0 2.17913545 0 2.17913545 0 0 Z " fill="#CF2A69" transform="translate(353,346)"/>
<path d="M0 0 C5.88739448 6.42012855 11 15.16009002 11 24 C3.28562294 23.47699139 -6.62559672 22.47542633 -12.84375 17.53515625 C-14 16 -14 16 -14.625 13.3125 C-13.69058681 8.36011012 -10.68581999 5.32622779 -7 2 C-4.30849825 0.37688063 -3.20906539 0 0 0 Z " fill="#F75EB3" transform="translate(465,631)"/>
<path d="M0 0 C5.05698757 2.14921972 7.03174662 6.94065405 9.125 11.75 C12.36880489 18.49677977 16.96405378 23.11734646 22.5 28.0625 C18.30110063 28.0625 16.37692227 25.85264735 13.5 23.0625 C11.65895872 21.05338064 9.87364409 19.00974842 8.11328125 16.9296875 C7.58089844 16.31351563 7.04851562 15.69734375 6.5 15.0625 C6.05398438 14.50175781 5.60796875 13.94101562 5.1484375 13.36328125 C2.78179589 11.49576547 0.78693463 11.54996674 -2.1875 11.375 C-3.18136719 11.30925781 -4.17523438 11.24351562 -5.19921875 11.17578125 C-6.33810547 11.11970703 -6.33810547 11.11970703 -7.5 11.0625 C-7.20842276 7.27199594 -6.95454034 4.71184335 -4.75 1.5625 C-2.5 0.0625 -2.5 0.0625 0 0 Z " fill="#C82965" transform="translate(418.5,712.9375)"/>
<path d="M0 0 C0.43570313 0.38671875 0.87140625 0.7734375 1.3203125 1.171875 C5.05744652 4.43984501 8.8076016 7.34140589 13 10 C12.67 11.65 12.34 13.3 12 15 C7.21521178 15.09764874 2.72314313 14.77112541 -2 14 C-1.67 13.01 -1.34 12.02 -1 11 C-0.77820215 9.10787263 -0.59385985 7.21115528 -0.4375 5.3125 C-0.35371094 4.31863281 -0.26992187 3.32476562 -0.18359375 2.30078125 C-0.12300781 1.54152344 -0.06242188 0.78226562 0 0 Z " fill="#CF2A68" transform="translate(234,447)"/>
<path d="M0 0 C0 0.66 0 1.32 0 2 C-1.2375 2.185625 -1.2375 2.185625 -2.5 2.375 C-22.15965976 5.88565353 -40.21094709 16.95810424 -51.875 33.25 C-53.71508054 35.90697728 -54.97429385 37.92288156 -56 41 C-56.66 41 -57.32 41 -58 41 C-55.19910784 33.27340093 -50.07758676 26.48465147 -44 21 C-43.21109375 20.22269531 -43.21109375 20.22269531 -42.40625 19.4296875 C-31.97468379 9.57274146 -14.56812807 -0.32373618 0 0 Z " fill="#C82B66" transform="translate(279,299)"/>
<path d="M0 0 C5.61391384 2.42501678 8.69267674 6.98563233 11.0859375 12.50390625 C13.44347309 19.5873274 13.29289445 24.75508845 9.9375 31.5 C7.20101878 36.14324218 3.66172642 40.2107662 -1 43 C-1.99 42.67 -2.98 42.34 -4 42 C-3.48050781 41.6596875 -2.96101562 41.319375 -2.42578125 40.96875 C2.67209078 37.42568182 6.92537603 34.00498957 9 28 C10.279033 19.12015614 9.39706686 12.21647467 4 5 C2.71382009 3.29668066 1.40181624 1.60949271 0 0 Z " fill="#C82D67" transform="translate(611,683)"/>
<path d="M0 0 C9.52642497 -0.71847339 17.60539337 0.02491852 26.75 2.8125 C27.6069043 3.07305176 28.46380859 3.33360352 29.34667969 3.60205078 C33.37607908 4.90530212 36.81597328 6.08714039 40 9 C35.38326355 8.43811363 31.22367628 7.51462635 26.8125 6.0625 C17.70529751 3.35495331 8.43979456 2.72175492 -1 2 C-0.67 1.34 -0.34 0.68 0 0 Z " fill="#C52A65" transform="translate(280,298)"/>
<path d="M0 0 C4.59152451 0.50125813 7.35908313 1.57161937 11.0625 4.3125 C11.87847656 4.90675781 12.69445312 5.50101562 13.53515625 6.11328125 C14.34855469 6.73589844 15.16195313 7.35851562 16 8 C16.84046875 8.62390625 17.6809375 9.2478125 18.546875 9.890625 C21.22462518 12.19314904 23.13154462 14.57029724 25.1875 17.4375 C25.86167969 18.36433594 26.53585937 19.29117187 27.23046875 20.24609375 C28.86431467 22.78883409 29.99474016 25.15949655 31 28 C27.75700832 24.9596953 25.09780966 21.81559249 22.4375 18.25 C16.43876108 10.63490258 8.72551639 5.12973253 0 1 C0 0.67 0 0.34 0 0 Z " fill="#C82B66" transform="translate(317,307)"/>
<path d="M0 0 C3.87419116 0.41883148 7.01875871 1.41955986 10.5625 2.9375 C19.24947832 6.26468529 28.80119805 6.36975205 38 7 C38 7.66 38 8.32 38 9 C24.21736614 9.76452206 12.45237625 7.11695676 0 1 C0 0.67 0 0.34 0 0 Z " fill="#CE2A68" transform="translate(452,748)"/>
<path d="" fill="#420018" transform="translate(0,0)"/>
<path d="" fill="#420018" transform="translate(0,0)"/>
<path d="" fill="#420018" transform="translate(0,0)"/>
</svg>
