<?xml version="1.0" encoding="UTF-8"?>
<svg version="1.1" xmlns="http://www.w3.org/2000/svg" width="820" height="820">
<path d="M0 0 C1.567949 1.32692124 3.13077303 2.65993091 4.6875 4 C5.39648438 4.55300781 6.10546875 5.10601562 6.8359375 5.67578125 C14.45412037 11.79075945 19.19687726 19.95611382 22.6875 29 C23.06519531 29.8353125 23.44289063 30.670625 23.83203125 31.53125 C29.01176213 43.17390793 31.66691296 55.451091 33.6875 68 C35.0075 68 36.3275 68 37.6875 68 C40.82179723 57.61764044 39.92120403 48.72665941 37.34375 38.26171875 C36.70297664 35.07692257 36.56993769 32.23786193 36.6875 29 C64.81655049 20.5407527 94.06585826 19.12642739 122.125 29.1328125 C124.84498681 30.05329584 127.59147017 30.84934455 130.3527832 31.63574219 C162.56862812 40.85178151 191.83131226 54.44684145 217.6875 76 C218.24711426 76.45810059 218.80672852 76.91620117 219.38330078 77.38818359 C231.92266897 87.66325117 244.30281624 98.84110512 254.01171875 111.88671875 C255.72107604 114.12881785 255.72107604 114.12881785 258.109375 116.3984375 C283.10503962 141.62133544 301.37819906 187.5350224 302.6875 223 C302.72746094 224.06089844 302.76742188 225.12179687 302.80859375 226.21484375 C303.29390145 252.05034176 295.6530383 275.86104797 277.93359375 294.8828125 C262.63074455 309.62378602 239.12101866 314.64945854 218.6328125 315.65625 C215.66266812 316.00289815 213.39511182 316.76109275 210.6875 318 C211.0175 319.65 211.3475 321.3 211.6875 323 C228.18722964 328.30805256 247.85904782 324.58211805 263.1875 317.0625 C263.9609375 316.62035156 264.734375 316.17820312 265.53125 315.72265625 C268.53981079 314.71435236 269.80781211 315.75075782 272.6875 317 C274.59035888 317.72602424 276.49406146 318.44983967 278.3984375 319.171875 C280.61996732 320.03079584 282.84131547 320.89018663 285.0625 321.75 C286.17367188 322.16765625 287.28484375 322.5853125 288.4296875 323.015625 C295.67926838 325.84641372 301.78454221 328.66789375 306.2109375 335.2734375 C309.35304108 343.02780322 310.64916548 348.19198065 307.6875 356.1875 C305.20810264 361.57985053 302.97941645 364.40415462 297.6875 367 C296.883125 367.42667969 296.07875 367.85335938 295.25 368.29296875 C277.69311831 376.99485342 256.32501633 377.92677683 237.71484375 372.0234375 C236.71582031 371.68570312 235.71679688 371.34796875 234.6875 371 C233.04635647 370.56522835 231.40118845 370.14491162 229.75 369.75 C228.739375 369.5025 227.72875 369.255 226.6875 369 C226.66171875 368.2265625 226.6359375 367.453125 226.609375 366.65625 C225.93681909 354.30567789 221.3064367 346.87887289 212.6875 338 C208.39890222 334.59791448 203.5828222 332.39632296 198.625 330.14453125 C197.14548724 329.47211515 195.66632722 328.79892246 194.1875 328.125 C193.45120361 327.78992432 192.71490723 327.45484863 191.95629883 327.10961914 C185.79900524 324.22723307 180.65608374 320.66478474 175.6875 316 C174.94113281 315.30390625 174.19476563 314.6078125 173.42578125 313.890625 C171.6875 312 171.6875 312 171.6875 310 C171.06875 309.71125 170.45 309.4225 169.8125 309.125 C167.6875 308 167.6875 308 165.6875 306 C163.57929203 306.3185177 163.57929203 306.3185177 161.6875 307 C162.00871649 315.83345361 165.81704381 321.44791058 172.18359375 327.40234375 C177.04001364 331.56235872 182.46334662 334.22330303 188.1875 337 C199.40530409 342.44158071 208.54948717 348.17322866 213.6875 360 C215.18812427 365.71100889 213.11438047 370.65395537 210.34375 375.671875 C205.15859678 382.96043943 196.34425399 386.04447533 187.82324219 387.68652344 C167.59363792 390.65575205 147.20357289 386.03511442 128.6875 378 C127.52057617 377.50258301 127.52057617 377.50258301 126.33007812 376.99511719 C101.92246945 366.4699389 101.92246945 366.4699389 97.6875 358 C97.53000417 355.85630675 97.41127592 353.70970027 97.3125 351.5625 C96.50019243 339.86766011 94.07689536 329.63502553 85.00390625 321.48828125 C82.41018759 319.64486524 80.90475463 319 77.6875 319 C78.10193527 320.27156277 78.51925298 321.5421859 78.9375 322.8125 C79.20691406 323.64136719 79.47632813 324.47023438 79.75390625 325.32421875 C80.65070315 327.99847411 80.65070315 327.99847411 81.77734375 330.51953125 C86.69394822 342.18990555 85.57801814 353.12104412 81.46484375 364.87890625 C77.64779506 371.58181152 71.40557569 375.09770436 64.5625 378.25 C63.82185303 378.59498535 63.08120605 378.9399707 62.31811523 379.29541016 C55.86069143 382.16985723 49.70122454 383.28064364 42.6875 384 C41.10020155 384.35784506 39.51652036 384.73223527 37.9375 385.125 C24.47238313 387.8570527 3.11890379 388.14040029 -9.125 381.375 C-15.86540941 376.46967588 -19.28750767 371.79447508 -20.6875 363.5 C-20.92650553 361.336502 -21.13783711 359.16964055 -21.3125 357 C-21.395 356.25363281 -21.4775 355.50726562 -21.5625 354.73828125 C-22.09174128 346.58465774 -18.4274305 339.92216429 -13.25 333.9375 C-7.53178149 327.93573347 -1.09090463 322.84945984 5.515625 317.8671875 C6.23234375 317.25101563 6.9490625 316.63484375 7.6875 316 C7.6875 315.34 7.6875 314.68 7.6875 314 C-3.78276051 313.44498739 -11.47425734 316.23672013 -20.5390625 323.40234375 C-26.86508617 329.32742226 -30.83981713 336.75772377 -33.3125 345 C-33.32152344 346.14597656 -33.33054687 347.29195312 -33.33984375 348.47265625 C-34.3125 352 -34.3125 352 -35.94628906 353.24853516 C-38.25905184 354.3836888 -40.57910209 355.30601638 -43 356.1875 C-44.28644409 356.68938843 -44.28644409 356.68938843 -45.59887695 357.20141602 C-70.76562113 366.82392569 -100.08997093 369.40884347 -125.6875 359.75 C-134.31045301 355.83891633 -140.65070399 351.33405644 -144.5 342.47265625 C-146.69013159 335.80749617 -145.22069897 330.88066409 -142.67578125 324.4921875 C-137.54514687 315.11297622 -128.75886241 311.0329698 -118.90625 307.92578125 C-116.04993517 307.20109741 -113.20502549 306.56039987 -110.3125 306 C-109.47589844 305.7525 -108.63929688 305.505 -107.77734375 305.25 C-104.4113459 304.90859927 -103.21148045 305.97790091 -100.4375 307.875 C-82.53823057 318.89846581 -62.31699905 324.67248939 -41.3125 323 C-40.3225 322.34 -39.3325 321.68 -38.3125 321 C-38.96458439 317.907526 -38.96458439 317.907526 -41.2265625 316.95703125 C-45.65548642 315.58350421 -50.15524416 314.65528939 -54.6875 313.6875 C-72.98589874 309.61869144 -92.94796602 303.77614801 -107.3125 291 C-107.3125 290.34 -107.3125 289.68 -107.3125 289 C-108.19035156 288.85304688 -108.19035156 288.85304688 -109.0859375 288.703125 C-118.40540698 285.76013464 -127.07687142 271.27228714 -131.62109375 262.88671875 C-143.82075833 239.25123263 -146.65281851 215.43538652 -138.63085938 189.82373047 C-132.53776386 172.23684113 -122.40749205 157.00344105 -109.75 143.5 C-109.14937744 142.82227539 -108.54875488 142.14455078 -107.92993164 141.44628906 C-106.11537587 139.58789398 -104.62365169 138.19091412 -102.3125 137 C-99.782768 137.04621243 -97.80918916 137.51601719 -95.41650391 138.32177734 C-92.31005744 139.32313593 -89.55135654 139.13782368 -86.3125 139 C-86.3125 137.68 -86.3125 136.36 -86.3125 135 C-87.75006874 133.48187928 -87.75006874 133.48187928 -89.75 132.25 C-102.18316184 123.44408749 -111.01123225 112.78049784 -118.1875 99.4375 C-118.72310547 98.44858765 -118.72310547 98.44858765 -119.26953125 97.43969727 C-124.61187739 87.08638164 -127.00688552 77.4664147 -126.8125 65.8125 C-126.79219727 64.03975708 -126.79219727 64.03975708 -126.77148438 62.23120117 C-126.24883174 39.98351959 -118.43753472 20.8054295 -102.9765625 4.54296875 C-74.35263092 -22.64513454 -30.9977462 -24.49439057 0 0 Z M34.6875 79 C29.67646361 83.72100856 25.32855386 88.81464344 21.0078125 94.16796875 C17.38580966 98.58876346 13.57496227 102.81245292 9.6875 107 C9.01460938 107.75023437 8.34171875 108.50046875 7.6484375 109.2734375 C-9.25153646 127.31273555 -31.9372318 135.7430657 -56.20922852 136.62573242 C-62.2424932 136.81689849 -68.27659344 136.9311877 -74.3125 137 C-74.9725 138.32 -75.6325 139.64 -76.3125 141 C-71.98524373 146.04846565 -65.33862744 146.63491679 -59.00244141 147.20947266 C-34.66016616 148.71740121 -11.04691003 141.07643095 7.83203125 125.5234375 C21.90867657 113.08361141 33.28029577 98.8944962 36.6875 80 C35.6975 79.505 35.6975 79.505 34.6875 79 Z M209.703125 222.22265625 C208.42727578 224.16866552 208.42727578 224.16866552 208.375 227.5 C210.92470329 234.29920877 216.97917394 237.66951251 223.33203125 240.703125 C234.72324542 245.10578286 247.35925305 249.09018571 259.625 249.25 C261.40197266 249.28867187 261.40197266 249.28867187 263.21484375 249.328125 C267.04335138 248.96637625 269.42589746 248.00265313 272.6875 246 C274.2089596 242.95708081 274.26377079 241.39359463 273.6875 238 C264.4218561 225.19499523 239.57821561 220.85947127 224.7890625 218.29296875 C224.09554688 218.19628906 223.40203125 218.09960938 222.6875 218 C221.97335937 217.89300781 221.25921875 217.78601563 220.5234375 217.67578125 C215.5335831 217.2552879 212.8516983 218.54643742 209.703125 222.22265625 Z M6.6875 244 C4.56192734 246.77248608 4.68690549 247.98305644 4.8125 251.5625 C5.36268065 254.97863113 5.36268065 254.97863113 7.421875 256.68359375 C13.54424389 260.24090119 21.50633398 258.22751345 28.0480957 256.61181641 C43.04778234 252.55907089 63.41314599 246.15569159 72.6875 233 C73.84233439 229.50260082 73.84233439 229.50260082 73.6875 226 C71.51696501 223.05427395 70.16567177 222.15939059 66.6875 221 C47.61435319 218.67307609 20.10850865 230.93217579 6.6875 244 Z M76.6875 269 C76.34253033 271.69076341 76.28948574 273.32835093 77.6875 275.6875 C80.11131427 277.27812811 82.49863817 277.72502639 85.3046875 278.3359375 C89.05883099 279.38217421 92.47240867 281.09596781 95.9765625 282.78125 C102.67801711 285.79400769 108.22464303 286.3537625 115.5 286.3125 C116.51884277 286.30758545 117.53768555 286.3026709 118.58740234 286.29760742 C130.08223554 286.12174892 140.71438011 284.82818977 151.375 280.3125 C163.97791267 275.16174439 174.59518716 278.46909654 186.6875 283 C197.40335356 286.45194492 208.74138054 283.94399291 218.96875 280.2890625 C221.70185888 279.34166131 224.29502544 278.569484 227.09375 277.8984375 C230.47960263 277.37939596 230.47960263 277.37939596 231.6875 276 C231.72842937 273.66702567 231.72991723 271.33294775 231.6875 269 C228.35955078 267.33602539 225.19163184 267.55710076 221.64453125 268.6015625 C220.12498633 269.13407559 218.60545592 269.66663007 217.0859375 270.19921875 C204.64725484 274.35219912 192.52702798 274.08006532 180.0625 270.5 C169.23939116 267.40120939 160.50128379 266.50968008 149.8828125 270.84375 C130.68125145 277.79199214 112.31584319 277.85273041 93.4375 269.8125 C88.46529319 267.72977099 80.90861538 264.77888462 76.6875 269 Z " fill="#FD6AB2" transform="translate(332.3125,404)"/>
<path d="M0 0 C26.34972901 -0.59567207 50.15978833 8.75325401 69.375 26.80859375 C72.82656332 30.40548605 75.7670513 34.34133135 78.6875 38.37109375 C79.12529785 38.97397217 79.5630957 39.57685059 80.01416016 40.19799805 C82.04518578 43.08514565 83.76713816 45.57425403 84.25 49.12109375 C85.26578125 48.78335938 86.2815625 48.445625 87.328125 48.09765625 C95.58026457 45.40299786 103.59835937 43.1451655 112.25 42.12109375 C113.14589844 41.99863281 114.04179687 41.87617188 114.96484375 41.75 C134.78310644 39.59526271 154.84668416 42.10824933 174.25 46.12109375 C174.55550781 45.3940625 174.86101562 44.66703125 175.17578125 43.91796875 C183.53945192 25.54145291 198.88297855 14.51102661 217.25 7.12109375 C242.43752173 -1.29529968 269.5322582 2.08281436 293.25 13.12109375 C301.3054638 17.23596408 308.45705559 22.15765081 315.25 28.12109375 C316.39082031 29.11882812 316.39082031 29.11882812 317.5546875 30.13671875 C332.93414615 44.50507112 341.26799247 64.50054135 342.2421875 85.33984375 C342.28359652 105.38181161 334.64625451 123.41788758 321.25 138.12109375 C322.75826696 142.68017341 325.35450925 146.11650135 328.25 149.87109375 C355.60894334 186.44568116 373.85350844 235.27763947 367.42773438 281.38256836 C363.80810039 303.56734379 354.21583221 323.97777903 336.25 338.12109375 C338.04125849 338.8720681 339.83303436 339.62180837 341.625 340.37109375 C342.71941406 340.83128906 343.81382812 341.29148437 344.94140625 341.765625 C346.9556275 342.59081364 348.98211552 343.38778562 351.02734375 344.1328125 C360.31524386 347.52454182 366.97007334 353.0569962 371.25 362.12109375 C375.35475142 373.84506297 376.90656385 384.66916582 371.8125 396.30859375 C365.78484762 407.38799288 355.31648413 412.441319 343.76953125 416.27734375 C324.02690676 421.9123436 300.62381495 422.15577898 281 415.93359375 C278.05824086 415.02388682 278.05824086 415.02388682 275.25 415.12109375 C272.40012404 416.99762746 270.5403791 418.97168086 268.4453125 421.65625 C260.32453836 430.77405869 244.62936436 432.79444588 233.05078125 433.578125 C212.60657494 434.30297215 193.00003006 430.00377646 174.25 422.12109375 C172.77916135 421.53256416 171.30781236 420.94530827 169.8359375 420.359375 C162.91937932 417.54140093 156.75879304 414.52214816 151.0234375 409.6328125 C148.91786608 407.83797518 146.67284941 406.4497531 144.25 405.12109375 C143.9096875 405.95640625 143.9096875 405.95640625 143.5625 406.80859375 C137.72860093 417.08736831 123.08130247 423.65834151 112.25 427.12109375 C101.13098078 430.15674161 89.81430933 432.8677286 78.25 433.12109375 C77.47785156 433.15976562 76.70570313 433.1984375 75.91015625 433.23828125 C59.29669163 433.7358559 43.26815041 431.02879316 30.25 420.12109375 C23.21514772 413.39620622 19.80502908 406.41515148 17.25 397.12109375 C16.45980469 397.56839844 15.66960937 398.01570313 14.85546875 398.4765625 C-10.55512902 412.0966429 -43.21230221 414.53003054 -70.82519531 406.51904297 C-83.52248264 402.61510962 -94.44945948 397.0212785 -101.30859375 385.12109375 C-104.99771588 377.44292087 -108.19738619 369.56852351 -105.75 361.12109375 C-105.49863281 360.17363281 -105.24726563 359.22617187 -104.98828125 358.25 C-101.79905125 347.47120999 -96.09182313 339.52374848 -86.3984375 333.7109375 C-80.93762089 330.81146367 -75.82858968 329.19955321 -69.75 328.12109375 C-70.19988281 327.71761719 -70.64976562 327.31414062 -71.11328125 326.8984375 C-89.27193898 309.75870245 -101.39003034 285.32517763 -102.92700195 260.23120117 C-103.21773695 245.9759198 -103.20929124 232.74751812 -98.75 219.12109375 C-98.38777344 218.0021875 -98.02554688 216.88328125 -97.65234375 215.73046875 C-90.04189988 194.36962969 -76.6606899 177.91513637 -60.75 162.12109375 C-61.801875 160.991875 -61.801875 160.991875 -62.875 159.83984375 C-82.72565759 137.88892197 -88.67514528 111.4850699 -87.93359375 82.57568359 C-87.56790077 75.69462548 -86.1054366 69.5966263 -83.75 63.12109375 C-83.36457031 62.05375 -82.97914063 60.98640625 -82.58203125 59.88671875 C-72.85786933 35.08853235 -55.39153818 17.06280563 -31.109375 6.40234375 C-20.9561366 2.52994585 -10.82893885 0.47684248 0 0 Z M-47.75 32.12109375 C-48.66265625 32.77078125 -48.66265625 32.77078125 -49.59375 33.43359375 C-63.48550935 44.04184634 -72.59144992 65.13909118 -75.47314453 82.02050781 C-76.87943444 92.69045351 -76.34271591 102.94950845 -72.75 113.12109375 C-72.48316406 114.04664063 -72.21632813 114.9721875 -71.94140625 115.92578125 C-68.03031196 129.03229277 -61.17915896 142.18176485 -51.13671875 151.640625 C-47.86935899 154.83435412 -47.25883282 157.66341437 -46.9375 162.05859375 C-47.0887292 165.3815488 -47.22244842 167.40015399 -49.19921875 170.1015625 C-51.30533795 171.90009431 -53.50422893 173.50077358 -55.75 175.12109375 C-75.46977644 192.10384437 -88.13760689 218.41643563 -90.75 244.12109375 C-92.25916227 267.97644823 -84.89857208 290.7695346 -69.21337891 308.89697266 C-65.18840238 313.4303419 -61.03692439 317.83416936 -56.75 322.12109375 C-56.00704062 327.41565689 -55.78337371 332.40264702 -58.4375 337.12109375 C-62.58473527 339.62508486 -66.75008919 340.72010108 -71.390625 342.04296875 C-80.54540357 344.98101397 -86.33379234 349.58206286 -90.75 358.12109375 C-93.22352749 363.63031407 -93.80318051 368.86441422 -91.9453125 374.609375 C-87.14728822 385.51247155 -78.45583515 389.61545037 -67.88671875 393.859375 C-40.77184252 402.91472046 -11.19905015 396.83545111 14.25 386.12109375 C14.91 385.79109375 15.57 385.46109375 16.25 385.12109375 C23.37641674 384.42013473 23.37641674 384.42013473 26.859375 387.21484375 C29.51527282 390.44358228 30.49644366 393.00845457 31.6875 396.99609375 C34.87144488 406.30524965 38.12396787 410.37233574 46.875 414.93359375 C63.83099816 423.10579987 83.7237809 421.67287744 101.25 416.12109375 C103.05597656 415.56035156 103.05597656 415.56035156 104.8984375 414.98828125 C116.26703134 411.19874997 126.15510677 407.06517738 133.8125 397.68359375 C136.33642804 394.67156268 138.43236763 392.42056911 142.21484375 391.03515625 C146.8326229 390.69045716 149.93322179 391.22024702 153.78515625 393.85546875 C155.55426092 395.39762491 157.30275231 396.96360196 159.03515625 398.546875 C178.35971385 415.10097617 210.9827866 421.85839304 235.73583984 420.38427734 C248.10033034 419.08995604 257.73403075 414.12368981 266.25 405.12109375 C269.32311433 402.04797942 272.50627832 402.75032862 276.69946289 402.7421875 C282.07183103 402.85143496 286.98358851 403.85161888 292.1875 405.12109375 C313.19521293 410.10579104 334.96511263 408.32391904 353.66113281 397.21044922 C357.10856729 394.84682711 358.83334677 391.96859515 360.25 388.12109375 C360.930625 386.63609375 360.930625 386.63609375 361.625 385.12109375 C363.07753679 378.14891715 360.97195617 372.86982423 358.08984375 366.61328125 C352.45396321 358.9791161 344.01986894 356.18465993 335.40820312 353.11132812 C330.35729174 351.22345905 326.56716865 349.59557073 323.25 345.12109375 C322.33411434 341.37135013 322.54455821 337.90639114 323.25 334.12109375 C325.3125 331.37109375 325.3125 331.37109375 328.25 329.12109375 C345.13863803 314.57926398 353.55077213 290.83516629 355.25 269.12109375 C357.81406336 228.68778697 338.93707084 183.2028101 313.8515625 152.15234375 C309.65846179 146.91464602 306.81355097 142.83232988 307.33203125 135.92578125 C308.69108724 131.77343145 311.2697 128.99925457 314.18554688 125.80395508 C324.3672484 114.58224501 329.97481797 98.23872572 329.25 83.12109375 C326.29784583 64.63128604 317.33895206 45.80934303 302.3125 34.24609375 C300.3083117 32.84694343 298.28828997 31.47008091 296.25 30.12109375 C295.44949219 29.56808594 294.64898438 29.01507813 293.82421875 28.4453125 C281.22297615 20.24921017 267.00131748 16.78998318 252.25 15.12109375 C250.90035156 14.96447266 250.90035156 14.96447266 249.5234375 14.8046875 C231.74854067 13.85791464 212.36077584 22.33874063 198.5546875 32.9765625 C194.71539663 36.54905519 191.93698269 40.64522312 189.25 45.12109375 C188.71375 45.99121094 188.1775 46.86132812 187.625 47.7578125 C186.17678554 50.09991406 186.17678554 50.09991406 185.25 52.74609375 C184.13482159 55.39464247 183.58449422 56.4508865 181.25 58.12109375 C178.56921258 58.42764119 176.17709312 58.54621325 173.5 58.49609375 C172.74501221 58.48956787 171.99002441 58.48304199 171.2121582 58.47631836 C164.83849517 58.32759733 158.96410482 57.24980963 152.7421875 55.85546875 C147.592376 54.77251063 142.50002522 54.349046 137.25 54.12109375 C136.31027344 54.07984375 135.37054688 54.03859375 134.40234375 53.99609375 C121.13472478 53.71038459 108.53284852 56.01022103 95.78344727 59.4440918 C90.02993005 60.93294299 84.19389193 62.05482166 78.25 61.12109375 C75.49075221 58.76423626 74.17119657 57.11630864 72.25 54.12109375 C71.47148603 52.93395422 70.69139947 51.74784522 69.91015625 50.5625 C69.2764209 49.59993286 69.2764209 49.59993286 68.62988281 48.61791992 C56.52619463 30.27172539 39.48578454 19.91267135 18.25 14.12109375 C-6.28405215 9.8183738 -28.29861673 17.02449778 -47.75 32.12109375 Z " fill="#430018" transform="translate(279.75,371.87890625)"/>
<path d="M0 0 C0.69480469 0.27328125 1.38960937 0.5465625 2.10546875 0.828125 C7.13904058 2.84522118 11.6326846 5.5265502 16.1875 8.4375 C17.06100098 8.99473755 17.06100098 8.99473755 17.95214844 9.56323242 C30.87317834 18.00014281 42.0095799 32.00275819 45.54003906 47.34716797 C46.41698146 52.538033 46.83658283 57.74144683 47 63 C47.02570068 63.69150146 47.05140137 64.38300293 47.07788086 65.09545898 C47.16693122 69.33415539 46.70783114 72.99082038 45.5625 77.0625 C44.64060511 80.42868502 43.97393128 83.31803839 43.6875 86.8125 C42.85916661 90.65295483 41.40414391 92.28370972 38.7578125 95.08984375 C36.10675852 97.97065574 33.84506834 101.13469384 31.515625 104.27734375 C31.01546875 104.84582031 30.5153125 105.41429687 30 106 C29.34 106 28.68 106 28 106 C26.80078125 104.77734375 26.80078125 104.77734375 25.3125 102.9375 C15.89929322 91.9228763 5.49994363 81.9325409 -6.17236328 73.34912109 C-8.0571028 71.95784797 -9.91616301 70.53586699 -11.77734375 69.11328125 C-36.29226432 50.73539636 -65.34556115 40.0808519 -94 30 C-88.1639707 14.99262346 -76.36925038 6.06804642 -62.10327148 -0.57006836 C-42.28325472 -9.1892929 -19.61764576 -9.32465795 0 0 Z " fill="#FC72A9" transform="translate(560,394)"/>
<path d="M0 0 C8.11856399 1.48168176 15.49963836 4.34006442 23.125 7.4375 C23.78107239 7.70222107 24.43714478 7.96694214 25.11309814 8.23968506 C48.7386649 17.7928526 70.676665 28.51649404 90.44628906 44.73876953 C91.82723846 45.8597602 93.23607511 46.94619909 94.6484375 48.02734375 C101.29547374 53.1915796 107.21984908 59.01109632 113.1875 64.9375 C114.05076904 65.79150391 114.91403809 66.64550781 115.8034668 67.52539062 C116.60437744 68.33041016 117.40528809 69.13542969 118.23046875 69.96484375 C118.95645264 70.6930835 119.68243652 71.42132324 120.43041992 72.17163086 C122 74 122 74 122 76 C126.21814817 72.0299782 129.61227103 67.69159716 133 63 C133.33 63.66 133.66 64.32 134 65 C131.14259908 69.46848868 128.42689548 73.65457371 124.625 77.375 C121.87123849 80.42995417 121.625 82.67297196 121.625 86.75 C121.72773856 88.50144791 121.84969355 90.25199171 122 92 C122 92.99 122 93.98 122 95 C121.23558594 94.09121094 120.47117187 93.18242188 119.68359375 92.24609375 C108.4759378 79.04580805 96.72903505 66.61421063 83 56 C82.06671875 55.23816406 81.1334375 54.47632813 80.171875 53.69140625 C52.65622003 31.64360579 19.51808483 17.1859217 -14.83764648 9.67358398 C-15.55122314 9.45130127 -16.2647998 9.22901855 -17 9 C-17.33 8.34 -17.66 7.68 -18 7 C-17.11957031 6.99742187 -16.23914063 6.99484375 -15.33203125 6.9921875 C-8.83025476 7.01710521 -8.83025476 7.01710521 -3.0234375 4.59765625 C-1.51043631 2.80557541 -1.51043631 2.80557541 0 0 Z " fill="#CE2967" transform="translate(466,424)"/>
<path d="M0 0 C6.36980368 0.65879347 11.84580976 2.22042603 17.7746582 4.59960938 C31.96107361 10.15809472 44.13131298 10.01448612 58.9621582 6.78710938 C59.94104004 6.57425293 60.91992188 6.36139648 61.9284668 6.14208984 C66.04099301 5.19456493 69.94442968 4.21988488 73.7902832 2.46289062 C82.21682426 -1.15886163 90.8939837 1.16954845 99.3371582 3.59960938 C114.1837947 7.81028737 127.29200953 6.16739002 141.9621582 2.09960938 C142.2921582 1.76960937 142.6221582 1.43960938 142.9621582 1.09960938 C148.49156997 0.86431526 148.49156997 0.86431526 150.9621582 2.09960938 C151.1496582 5.47460938 151.1496582 5.47460938 150.9621582 9.09960938 C148.06281866 11.0325024 145.85443557 11.70249208 142.50512695 12.45898438 C140.6121781 12.93585628 138.74149833 13.50287693 136.88793945 14.11523438 C121.2221938 19.18829226 108.98391073 17.6396753 93.9621582 12.09960938 C84.73561713 9.02409568 76.04135093 11.1282636 67.40356445 14.78710938 C52.48848254 20.47549476 31.44659429 22.47915034 16.3996582 16.78710938 C14.56416988 15.93937344 12.74925933 15.04509507 10.9621582 14.09960938 C7.6571504 12.39513994 4.80241772 11.05434957 1.2121582 10.03710938 C-2.0378418 9.09960938 -2.0378418 9.09960938 -4.0378418 7.09960938 C-4.2878418 4.59960938 -4.2878418 4.59960938 -4.0378418 2.09960938 C-2.0378418 0.09960938 -2.0378418 0.09960938 0 0 Z " fill="#46021C" transform="translate(413.037841796875,670.900390625)"/>
<path d="M0 0 C2 1.625 2 1.625 4 3.625 C3.8891953 9.38684447 2.03559538 12.70130685 -2 16.625 C-4.28254172 18.33303378 -6.68091513 19.709986 -9.1875 21.0625 C-9.87875977 21.44229004 -10.57001953 21.82208008 -11.28222656 22.21337891 C-25.37751213 29.74032446 -43.70955777 38.20883147 -60 35.625 C-63.3125 33.5625 -63.3125 33.5625 -65 30.625 C-65.09679515 25.20447143 -63.56434603 22.54760227 -60 18.625 C-47.30968928 9.16292622 -32.22807945 3.45259835 -17 -0.375 C-16.31292969 -0.56835938 -15.62585938 -0.76171875 -14.91796875 -0.9609375 C-9.88284502 -2.04794995 -4.6940154 -2.15142372 0 0 Z " fill="#45011B" transform="translate(402,626.375)"/>
<path d="M0 0 C0.99 0.495 0.99 0.495 2 1 C-0.70219359 15.28302327 -7.33633248 26.28807024 -17 37 C-18.04800781 38.17175781 -18.04800781 38.17175781 -19.1171875 39.3671875 C-35.28858183 56.48635586 -59.62669479 67.79555928 -83.20458984 68.48706055 C-103.96972244 68.58537679 -103.96972244 68.58537679 -109.8046875 63.39453125 C-110.19914062 62.93433594 -110.59359375 62.47414063 -111 62 C-110.34 60.68 -109.68 59.36 -109 58 C-108.18023682 57.9906543 -107.36047363 57.98130859 -106.51586914 57.97167969 C-73.01684757 57.49235021 -47.63513823 51.37497498 -23.31762695 26.66113281 C-18.98115948 22.15333275 -14.94734908 17.49927998 -11.07421875 12.5859375 C-7.57393238 8.22211532 -3.78090585 4.1205617 0 0 Z " fill="#CF2969" transform="translate(367,483)"/>
<path d="M0 0 C0.95406738 0.22115479 1.90813477 0.44230957 2.89111328 0.67016602 C9.40322668 2.24400763 15.75628739 4.11354434 22.0625 6.375 C22.81571533 6.63869385 23.56893066 6.9023877 24.3449707 7.17407227 C30.67529943 9.56275509 35.90474985 13.15474985 40.6875 17.9375 C41.0625 20.8125 41.0625 20.8125 40.6875 23.9375 C38.45543569 26.78530619 37.13757001 27.78747666 33.6875 28.9375 C16.41907491 30.42953106 -6.15813044 25.50648586 -19.83203125 14.4296875 C-22.23653219 12.00615357 -24.08036235 9.91763673 -24.875 6.5625 C-24.15210842 3.18900598 -22.68434182 1.58644779 -20.40625 -0.92578125 C-14.44048296 -4.16465851 -6.22658956 -1.45080753 0 0 Z " fill="#45011A" transform="translate(565.3125,624.0625)"/>
<path d="M0 0 C3.89335647 0.26850734 6.1919168 2.45313384 9 5 C10.04815414 6.26548793 11.08918624 7.53689165 12.125 8.8125 C18.77542337 16.48171163 27.63013746 20.34950762 36.6875 24.5 C49.14581485 30.27468503 55.85604189 37.43210284 63 49 C64.09506492 52.28519475 64.09960608 54.73663415 64.0625 58.1875 C64.05347656 59.27417969 64.04445313 60.36085938 64.03515625 61.48046875 C64.02355469 62.31191406 64.01195312 63.14335938 64 64 C64.94875 63.95875 65.8975 63.9175 66.875 63.875 C70 64 70 64 72 66 C70.68644531 65.95359375 69.37289062 65.9071875 68.01953125 65.859375 C66.28387696 65.82184734 64.54819801 65.78544825 62.8125 65.75 C61.94818359 65.71648437 61.08386719 65.68296875 60.19335938 65.6484375 C55.83379843 65.58162431 53.63670591 65.58777886 49.88671875 68.015625 C49.26410156 68.67046875 48.64148438 69.3253125 48 70 C48.495 68.515 48.495 68.515 49 67 C50.81800198 60.32953684 50.83954998 55.9261129 47.4375 49.875 C42.58212384 41.8484974 35.47152887 37.95493951 27.1875 34.125 C16.00488931 28.73697789 4.61098802 22.08012652 -0.875 10.375 C-1.90878206 7.27365381 -2.45970568 5.21793979 -2 2 C-1.34 1.34 -0.68 0.68 0 0 Z " fill="#CD2967" transform="translate(495,709)"/>
<path d="M0 0 C0.66 0 1.32 0 2 0 C2 0.66 2 1.32 2 2 C2.51949219 2.24234375 3.03898438 2.4846875 3.57421875 2.734375 C6.10805873 4.05637847 8.5025921 5.54891167 10.91992188 7.07104492 C27.91539031 17.65813433 46.683925 22.57746782 66.17211914 26.50048828 C68.56994953 27.1557522 70.2138621 28.29152027 72 30 C70.25 33.875 70.25 33.875 68 35 C65.54916625 35.12712407 63.1388466 35.18520258 60.6875 35.1875 C58.71330078 35.20876953 58.71330078 35.20876953 56.69921875 35.23046875 C45.84998873 34.89701536 36.2893638 32.4116713 26.3125 28.25 C24.73758789 27.62351562 24.73758789 27.62351562 23.13085938 26.984375 C17.0859985 24.51984502 11.65295067 21.74887276 6.25512695 18.06689453 C2.79155159 16.42828629 0.1505005 17.21454482 -3.3828125 18.3515625 C-3.91648438 18.56554687 -4.45015625 18.77953125 -5 19 C-4.175 18.278125 -3.35 17.55625 -2.5 16.8125 C1.56948789 12.07813804 0.39116521 5.85878565 0 0 Z " fill="#CF2968" transform="translate(223,693)"/>
<path d="M0 0 C0.66 0.33 1.32 0.66 2 1 C1.67 1.33 1.34 1.66 1 2 C0.45921669 7.28371889 0.12897089 11.61179736 3 16.1875 C3.99 17.0846875 3.99 17.0846875 5 18 C4.071875 17.566875 3.14375 17.13375 2.1875 16.6875 C-1.48422691 15.65912678 -3.27879165 16.34403255 -6.625 18.0625 C-20.82145083 25.16072542 -39.23793585 28.75561544 -54.8515625 25.09765625 C-58 24 -58 24 -60 22 C-59.9375 19.5 -59.9375 19.5 -59 17 C-54.67138027 14.63056212 -50.18785469 14.55141911 -45.375 14.1875 C-30.90570687 12.83481083 -17.68002855 9.5317835 -4.89770508 2.50341797 C-3.29051831 1.62104914 -1.64790875 0.8037542 0 0 Z " fill="#CF2968" transform="translate(602,704)"/>
<path d="M0 0 C0 1.32 0 2.64 0 4 C-1.7978358 5.78884662 -3.50510672 7.27725818 -5.5 8.8125 C-6.60710279 9.70271232 -7.71387299 10.59333842 -8.8203125 11.484375 C-9.87967722 12.32358755 -10.93953158 13.16218258 -12 14 C-19.52048665 20.00646129 -25.51882972 26.45438657 -28 36 C-28.21907031 38.79919333 -28.19094959 41.56960601 -28.125 44.375 C-28.11146484 45.47908203 -28.11146484 45.47908203 -28.09765625 46.60546875 C-28.07430144 48.4037888 -28.03843836 50.20193911 -28 52 C-28.30035156 51.39285156 -28.60070312 50.78570313 -28.91015625 50.16015625 C-31.69310931 44.48075224 -31.69310931 44.48075224 -36 40 C-39.10839021 39.2730774 -39.10839021 39.2730774 -42 39 C-43.02193809 30.00694481 -38.66761247 21.83631105 -33.4375 14.75 C-24.27447329 4.01072484 -13.85730925 -0.57738789 0 0 Z " fill="#CF2A69" transform="translate(340,717)"/>
<path d="M0 0 C5.35131471 0.3243221 8.51371988 3.20655864 12 7 C19.89419185 17.63372875 20.35792133 28.1753235 21 41 C20.21496094 41.00257813 19.42992187 41.00515625 18.62109375 41.0078125 C11.90444147 41.25505123 7.90693248 41.86798499 3.109375 46.72265625 C2.56023437 47.35494141 2.56023437 47.35494141 2 48 C3.33333333 44 4.66666667 40 6 36 C7.18966452 25.82025698 5.51154195 18.21662007 1.40234375 8.90405273 C-1.08461936 3.25385807 -1.08461936 3.25385807 0 0 Z " fill="#CF2A68" transform="translate(410,722)"/>
<path d="M0 0 C0.763125 0.825 1.52625 1.65 2.3125 2.5 C6.17356001 5.80283447 9.92836511 5.40334296 14.8046875 5.17578125 C15.52914063 5.11777344 16.25359375 5.05976563 17 5 C23.12041213 32.69242322 23.12041213 32.69242322 18 44 C16.68 44 15.36 44 14 44 C13.39455784 41.75033674 12.79066353 39.50027436 12.1875 37.25 C12.00372803 36.56768311 11.81995605 35.88536621 11.63061523 35.18237305 C10.53056376 31.07407623 9.52014084 26.95677327 8.5625 22.8125 C7.02988354 16.58098251 4.57693347 10.85975961 2 5 C1.32664848 3.33602285 0.65777261 1.67019682 0 0 Z " fill="#CF2A69" transform="translate(352,428)"/>
<path d="M0 0 C0 3.80196862 -0.89536327 4.22027411 -3.5 6.875 C-20.69422746 25.59353841 -24.52187752 47.54403513 -25 72 C-29.29046368 65.56430448 -27.65027132 54.39328671 -26.41796875 46.921875 C-22.77645318 30.49348511 -14.43875601 9.78002696 0 0 Z " fill="#C42964" transform="translate(231,405)"/>
<path d="M0 0 C1.010625 0.886875 2.02125 1.77375 3.0625 2.6875 C6.56429517 5.69618524 10.20812903 8.36890585 14 11 C13.67 12.65 13.34 14.3 13 16 C7.80790596 16.21192221 3.873261 15.5912689 -1 14 C-0.67 9.38 -0.34 4.76 0 0 Z " fill="#CF2B69" transform="translate(233,528)"/>
<path d="M0 0 C25.04547627 -0.52299138 47.04666831 6.15398052 65.734375 23.62109375 C66.84663438 24.72398015 67.92870291 25.85728311 69 27 C68.67 27.66 68.34 28.32 68 29 C67.58492188 28.52691406 67.16984375 28.05382812 66.7421875 27.56640625 C52.20459075 11.96434112 32.34069158 4.08633522 11.375 2.8125 C10.18003906 2.73064453 8.98507812 2.64878906 7.75390625 2.56445312 C4.83645724 2.36606659 1.91874298 2.17814375 -1 2 C-0.67 1.34 -0.34 0.68 0 0 Z " fill="#C42964" transform="translate(274,385)"/>
<path d="M0 0 C-5.71508189 5.71508189 -17.68954049 5.32338864 -25.4375 5.375 C-33.90216973 5.33570097 -41.79763 4.05978798 -50 2 C-46.59372964 0.90772803 -43.851962 1.07041111 -40.3125 1.4375 C-29.56185583 2.35760018 -18.58655005 3.00840189 -8.02734375 0.4453125 C-5.33155492 -0.14682609 -2.7468787 -0.14457256 0 0 Z " fill="#CB306A" transform="translate(381,787)"/>
<path d="M0 0 C0 0.66 0 1.32 0 2 C-0.969375 2.1959375 -1.93875 2.391875 -2.9375 2.59375 C-16.19045052 5.47286801 -29.23441349 10.23441349 -39 20 C-39.66 19.67 -40.32 19.34 -41 19 C-31.67358674 9.18272289 -13.75096354 -0.59463626 0 0 Z " fill="#C42964" transform="translate(273,386)"/>
<path d="M0 0 C1.91543509 2.87315263 2.47354742 4.39404529 3.125 7.6875 C3.29257812 8.49574219 3.46015625 9.30398438 3.6328125 10.13671875 C4.50814587 16.96245659 3.877616 22.73086757 2.125 29.3125 C1.95097656 30.01439453 1.77695312 30.71628906 1.59765625 31.43945312 C0.74645344 34.74653368 -0.08829888 37.13244832 -2 40 C-1.54989337 35.87402257 -1.01861539 31.97501092 0.0625 27.96875 C1.35870073 22.2514315 0.99177024 16.75080833 0.625 10.9375 C0.56828125 9.88111328 0.5115625 8.82472656 0.453125 7.73632812 C0.31305614 5.15672662 0.16180414 2.57831375 0 0 Z " fill="#C32E66" transform="translate(605,442)"/>
<path d="M0 0 C3 1 3 1 3 1 Z " fill="#420018" transform="translate(268,803)"/>
<path d="M0 0 C2 1 2 1 2 1 Z " fill="#420018" transform="translate(375,815)"/>
<path d="M0 0 C2 1 2 1 2 1 Z " fill="#420018" transform="translate(373,814)"/>
<path d="" fill="#420018" transform="translate(0,0)"/>
</svg>
